<svg xmlns="http://www.w3.org/2000/svg" viewBox="0.53 0.02 99.03 96.33" width="100"><g fill="#343434" fill-rule="evenodd"><path d="M87.202 48.535c-1.749-3.918-4.215-7.277-7.983-9.521-1.029-.613-1.965-.434-2.422.673-.385.932-.938 1.23-1.88 1.424-2.019.418-2.204.793-2.049 2.911.016.212.1.463.02.633-.965 2.014.14 3.406 1.387 4.772.529.578 1.027 1.186 1.527 1.79 1.936 2.333 3.453 4.938 4.448 7.776 1.597 4.553.064 8.577-2.58 12.272-2.306 3.221-5.675 5.215-8.987 7.148-8.176 4.77-17.038 7.664-26.38 9.15-2.463.39-4.88.348-7.147-.685a90.016 90.016 0 01-7.434-3.793c-4.31-2.47-7.975-5.77-11.46-9.276-1.944-1.956-3.354-4.193-4.067-6.92-.803-3.07-1.266-6.15-1.04-9.318 0-1.496-.204-3.026.04-4.483.685-4.132.726-8.345 2.03-12.413.808-2.521 2.031-4.724 3.575-6.742 2.706-3.538 6.326-6.152 9.782-8.893 1.601-1.27 3.39-2.408 5.264-3.208 4.258-1.818 8.712-2.494 13.367-1.768 4.166.65 7.866 2.25 11.233 4.757.778.58 1.743.935 2.664 1.284.784.297 1.526.141 2.127-.552.685-.793.575-1.68.089-2.386-1.07-1.557-1.82-3.453-3.9-4.083-.391-.118-.722-.451-1.069-.703-1.834-1.342-3.561-2.866-5.517-3.994-3.716-2.143-7.764-3.273-12.1-2.815-5.45.575-10.53 2.5-15.562 4.538-.789.319-1.575.71-2.263 1.204-5.972 4.287-11.117 9.328-14.443 16.007-.35.702-.79 1.358-1.133 2.064-.464.954-.943 1.912-1.292 2.91a80.113 80.113 0 00-1.674 5.29c-.545 1.986-1.224 3.98-1.416 6.012-.507 5.381-.711 10.769.336 16.146.837 4.296 1.86 8.504 4.522 12.069a82.514 82.514 0 005.565 6.72c2.655 2.866 5.9 4.99 9.649 6.085 5.6 1.638 11.284 2.986 16.905 4.556 3.84 1.073 7.741 1.242 11.68 1.124 2.463-.074 4.772-.741 6.971-1.859 1.27-.645 2.57-1.249 3.906-1.739 4.973-1.826 9.73-4.08 14.127-7.05 2.842-1.921 5.542-4.005 7.788-6.648 3.199-3.768 5.248-8.106 6.705-12.777.488-1.563 1.085-3.056.866-4.778-.556-4.388-.946-8.813-2.775-12.911"/><path d="M97.828.49c-.726-.657-1.326-.565-2.103-.102-.976.579-2.02 1.057-3.064 1.505-1.914.823-3.712 1.792-5.227 3.267C85.747 6.803 84 8.386 82.258 9.97a4157.72 4157.72 0 01-12.19 11.053c-3.233 2.92-6.531 5.77-9.714 8.744-3.7 3.46-7.378 6.95-10.924 10.563-2.387 2.432-4.53 5.104-6.965 7.875-.689-.658-1.395-1.221-1.966-1.897-1.848-2.186-3.796-4.259-6.123-5.95-.973-.708-1.884-1.445-3.252-1.071-.378.103-1.013-.143-1.31-.444-.687-.698-1.346-.426-1.915-.023-.867.614-1.665 1.335-2.44 2.066-.775.732-1.42 1.61-2.234 2.289-1.76 1.465-1.737 2.685.188 4.009.823.566 1.74 1.026 2.454 1.704.456.433.92 1.213.849 1.77-.162 1.254.383 2.003 1.199 2.784 1.388 1.328 2.89 2.595 4.01 4.132 2.39 3.279 4.545 6.727 6.843 10.074.516.75 1.132 1.496 1.864 2.02 1.784 1.275 2.572.983 3.588-1.342.5.648.792 1.145 1.193 1.526 1.364 1.298 2.985.947 3.708-.768.388-.92.742-1.857 1.17-2.76 3.056-6.475 6.952-12.463 11.027-18.312 3.743-5.374 7.861-10.485 11.756-15.755C77.698 26 82.902 20.241 88.265 14.632c3.09-3.232 6.533-6.124 9.676-9.309 2.307-2.338 2.016-2.906-.113-4.834"/></g></svg>