<svg version="1.0" xmlns="http://www.w3.org/2000/svg" width="2756.64" height="3671.598" viewBox="0 0 2067.48 2753.698"><g fill="#fff"><path d="M821.407 1.309c-4 1.7-5.6 3.8-6.7 8.9-2.1 9.4-2 11 .7 16.5 1.4 2.8 3 5.2 3.5 5.2s1.8 1.9 2.9 4.2c3.3 6.9 20.6 30.8 22.3 30.8.4 0 1.9 2 3.3 4.5 1.5 2.4 3.5 4.7 4.6 5 1 .4 4.9 4.1 8.5 8.3 3.7 4.2 8.1 8.4 9.8 9.2 1.7.8 4.3 3.4 5.8 5.7 1.6 2.3 5.1 5.8 7.8 7.8 2.8 2 5 4.1 5 4.6s1.7 1.7 3.7 2.6c2.5 1.2 4.4 3.1 5.5 5.4 1.1 2.4 2.8 4 4.8 4.7 1.7.6 5 2.7 7.3 4.5 2.3 1.9 6.2 4.7 8.7 6.2 2.5 1.6 8.9 7.3 14.3 12.7 5.4 5.4 12.5 11.8 15.9 14.1 3.3 2.3 7.7 5.4 9.7 6.9 2 1.5 6.4 4.1 9.9 5.9 3.5 1.8 6.7 4 7.3 5 .5 1 2.6 2.3 4.7 2.9 3.9 1 19.1 9.7 22.7 13 5.9 5.3 13 7.4 17.5 5 1.2-.6 2.8-.6 4.9.1 7.2 2.5 13.1-3.4 13.1-13.2 0-4.9-.5-6.3-4.1-11.8-3.2-4.6-5.4-6.8-9.1-8.6-2.7-1.4-5.3-2.5-5.8-2.5s-3.9-2.1-7.6-4.6c-3.7-2.5-8.1-5.1-9.8-5.7-1.7-.5-4-1.8-5.1-2.7-1.1-1-4.8-3.2-8.2-4.9-3.5-1.7-6.3-3.6-6.3-4.2 0-.5-1.6-1.7-3.6-2.5s-4.6-2.5-5.7-3.8c-1.2-1.3-5.1-4.5-8.7-7.2-8.4-6.3-14.7-11.4-23.1-18.9-9-7.9-13.3-11.3-18.3-14.5-2.2-1.5-7.1-5.5-10.9-8.8-3.7-3.4-7.2-6.2-7.8-6.2-1.1 0-4.3-2.8-14.3-12.7-10.6-10.4-16.6-16.9-16.6-18.1 0-.6-3-4.4-6.6-8.4-3.6-4-7.3-8.4-8.2-9.8-.9-1.4-2.9-4-4.4-5.8-3.7-4.3-7.4-10.3-11-17.5-2.2-4.5-3.8-6.2-6.3-7.3-4.2-1.7-12-1.8-16 0zm181.6 43c-1.9 1.4-4.5 4.4-5.9 6.7-2.1 3.6-2.3 4.8-1.7 10.2.5 4.5 1.6 7.7 4 11.7 1.9 3 4.6 7.5 6.1 10s3.5 5.7 4.4 7.1c1 1.4 3.1 5 4.6 8 1.5 3 4.2 7.5 6 10 1.7 2.5 3.5 5.5 3.8 6.7.4 1.2 1.6 2.7 2.6 3.2s3.8 4.9 6.3 9.7c13.1 26.1 14.4 28.2 21.9 35.6 4.1 4 10 9 13.2 11.2 3.1 2.2 8.2 5.9 11.3 8.2 3.1 2.4 6.4 4.3 7.3 4.3.9 0 3.5 1.8 5.9 4 2.4 2.2 5.3 4 6.5 4 1.4 0 4.3 2 7.2 4.8 5 4.8 5.1 4.9 13.2 5.6 15.1 1.2 19.4-1.7 20.7-14 .6-5.5.4-6.8-1.5-10-1.3-2-3.7-4.3-5.4-5-1.7-.8-4.2-2.3-5.6-3.3-6.5-4.8-23.1-15.6-30.5-19.7-6.5-3.6-14.1-9.7-16-12.7-1.1-1.8-3.7-4.9-5.7-6.9-4-4.2-6.8-8.5-12.8-20.3-6.6-13-10.3-19-13.7-22.4-1.8-1.8-3.3-3.8-3.3-4.4 0-.7-1.6-3.6-3.5-6.6-1.9-2.9-3.5-5.7-3.5-6.2s-2.4-5.1-5.3-10.2c-2.9-5-5.7-10.5-6.2-12.2-1.5-4.4-7.9-8.2-15-9-5.4-.6-6.3-.4-9.4 1.9zm151.2 14.5c-2.3 1.7-4.7 4-5.3 5.1-1.3 2.4-.4 10.2 1.7 14.3.8 1.6 2 10.2 2.9 21.8.9 12.2 2 20.1 2.9 21.9.8 1.6 1.5 5 1.5 7.5s.7 5.9 1.5 7.5c1.7 3.2 6.5 17.6 6.5 19.4 0 2 9.4 16.4 15 23 2 2.2 4.4 5.4 5.5 7 1 1.7 4.4 6.2 7.5 10 3.1 3.9 6.6 8.7 7.8 10.8 1.2 2 2.9 3.9 3.7 4.2.8.3 2.1 2 2.8 3.8 2 4.7 12.3 13 21.6 17.3 1.8.9 5.1 2.7 7.2 4.1 2.2 1.3 7 4.1 10.7 6 3.7 2 7.6 4.4 8.7 5.3 3.1 2.7 11.6 7.7 15.5 9.1 1.9.7 4.2 1.9 5 2.6.8.7 3.8 2.3 6.5 3.6 6 2.9 19.5 11.6 28.8 18.7 3.8 2.8 8.3 5.8 10 6.6 1.8.8 5 2.8 7.2 4.5 2.2 1.6 6.5 4.4 9.5 6.1 3 1.7 6.9 4.4 8.5 6.1 2.6 2.6 15.9 12.7 26.3 20 1.8 1.3 4.9 3.5 6.9 5 2 1.6 4.1 2.8 4.8 2.8.7 0 4.1 2.6 7.6 5.8 3.5 3.1 9.5 8.4 13.3 11.7 3.9 3.3 11.5 10.3 17 15.5 5.5 5.2 11.5 10.8 13.4 12.5 14.5 13 22.6 22.6 26.5 31.5.8 1.9 4 6.4 7.1 9.9 3.1 3.6 5.6 7.2 5.6 8.1 0 1 .9 2.9 2.1 4.3 1.1 1.5 2.3 4.4 2.6 6.4.3 2.1 1.7 6.3 3 9.3 1.4 3 2.9 8 3.4 11 1.2 8.2 6.6 28.5 9.5 36 1.7 4.3 3.3 11.6 4.5 19.5.4 3.3 1.3 8.5 1.9 11.5.5 3 1.3 8.4 1.6 12 .4 3.6 1.1 7.4 1.7 8.5 3.9 7.1 3.8 31.1 0 40.5-1.5 3.6-3 8.9-3.8 13-.3 1.9-1.2 4.8-2 6.5-1.8 4.3-3.5 11.9-3.5 16.3 0 3.6-2.2 11.7-4.3 15.7-1 2-2.1 6.1-3.6 14.1-.4 2.2-2.1 6.8-3.8 10-1.7 3.3-4.1 9.2-5.3 13.2-1.2 4-3.2 8.5-4.4 10-2 2.3-4.5 7-10.2 18.2-.6 1.4-1.9 3.8-2.7 5.5-.8 1.6-2.4 4.7-3.4 6.8-1 2.1-5.1 7.9-9.1 13s-8.7 11.1-10.5 13.4c-3.2 4.2-17.7 20-21.9 23.8-1.2 1.1-4 3.9-6.2 6.2-22.2 23-43.2 41.3-47.3 41.3-2.1 0-13.1 6.8-15.3 9.5-1.5 1.8-9.3 7.8-16.2 12.5-3.4 2.3-10.3 10.1-15.1 17-1.1 1.6-1.7 4.4-1.7 7.8 0 4.8.3 5.6 3.8 8.8 2 1.9 4.9 4.2 6.4 5 1.5.8 3.9 3.4 5.3 5.8 1.9 3.2 3.6 4.7 6.8 5.9 7.2 2.6 12.5 3.1 15.2 1.3 3.1-2.1 11.5-2.1 16.3 0 2 .8 7.5 2.8 12.2 4.4 9.6 3.2 15.3 5.4 19.1 7.5 1.4.8 5.9 2.6 10 4 7.2 2.6 24.2 9.8 36.4 15.6 3.3 1.5 8.3 3.7 11.1 4.8 2.9 1.1 7.4 3.4 10.2 5 2.7 1.7 5.6 3.1 6.5 3.1.9 0 4.5 1.5 7.9 3.4 7.6 4.1 9.9 5.3 20.8 10.7 4.7 2.3 10.2 5.6 12.3 7.3 3.3 2.6 12.7 8.8 22.1 14.4 1.6.9 4.9 3.4 7.5 5.5 2.5 2.1 7.4 6.1 10.9 9 3.5 2.9 10 8.5 14.4 12.6 4.5 4 10.4 8.8 13.2 10.6 2.8 1.8 6 4.3 7.1 5.5 1.1 1.2 3.8 3.4 6 4.7 2.2 1.4 5.9 4.4 8.2 6.6 2.3 2.3 6.2 6 8.7 8.2 2.5 2.2 9.2 8.5 14.8 14 5.7 5.5 13.2 12.5 16.8 15.5 3.5 3 7.6 6.8 9 8.3 1.4 1.6 3.5 3.9 4.7 5 2.4 2.3 23.9 24.1 33.6 33.9 3.1 3.2 5.7 6.2 5.7 6.8 0 1.3 6.6 9.1 17.6 20.8 9.7 10.2 13.4 14.8 20 24.7 7 10.4 8.9 12.9 12.7 17 2 2.2 4.8 6.2 6.2 9 5 9.8 14.8 22 21.1 26.2 1.9 1.3 3.4 2.8 3.4 3.3 0 .4 3.3 4.1 7.3 8.2 3.9 4 10.1 10.9 13.7 15.4 8 9.9 15.9 17 19.9 17.9 3 .6 9.9-1.2 14.2-3.7 2.8-1.7 5.9-9 5.9-13.6 0-3.4-.9-5.7-6-15.4-1.1-2.1-3.3-4.4-5-5.3-1.6-.9-3-1.9-3-2.4s-3-4.1-6.7-7.9c-16-16.4-26.4-28.6-29.1-33.8-1.1-2.1-4.4-6.6-7.2-9.9-2.8-3.3-6.6-8.3-8.4-11-1.9-2.8-4.4-5.9-5.6-7-1.3-1.1-4.5-5.4-7.2-9.5-2.8-4.1-6.3-8.9-8-10.5-1.6-1.7-5.3-6-8.1-9.6-8.1-10.3-15.3-19.1-18.3-22.4-1.6-1.7-5.4-6-8.5-9.7-3.1-3.7-8.8-9.4-12.6-12.6-3.9-3.2-9.5-8.5-12.4-11.7-3-3.2-6.2-6.5-7.3-7.4-5.5-4.8-14.9-14.9-15.9-17.3-.7-1.4-4.6-5.5-8.7-8.9-4.1-3.4-8.7-7.4-10.1-8.8-1.5-1.4-5.5-4.6-9-7.1s-10.2-8.1-14.9-12.5c-4.7-4.5-11-10-14-12.2-3-2.3-8.5-7-12.1-10.5-3.6-3.5-8.4-7.9-10.7-9.8-2.4-1.9-6.2-5.2-8.5-7.4-7.3-6.7-20.4-16.4-25.9-19.2-1.8-.9-7.1-4.2-11.7-7.3-8.1-5.4-10.8-7.1-16.1-9.7-6.5-3.2-12.6-6.6-14-7.8-.8-.8-5.1-3.3-9.5-5.6s-8.9-4.9-10-5.6c-1.1-.8-2.5-1.4-3.1-1.4-.7 0-3.6-1.6-6.5-3.5-3-1.9-5.9-3.5-6.7-3.5-.7 0-3.4-1.1-6-2.3-2.6-1.3-7.4-3.1-10.7-4.1-3.3-.9-10-3.6-15-6-10.5-5.1-15.8-7.3-20.1-8.1-1.7-.3-4.6-1.7-6.5-3.1-2.1-1.6-4.6-2.4-7.2-2.4-2.4 0-6.9-1.5-12.2-4-4.6-2.2-9.6-4-11-4-1.4 0-3.8-.6-5.3-1.4-4.7-2.4-15.4-5.6-18.9-5.6-4.4 0-4.2-1.4.7-4.5 2.2-1.4 5.9-3.7 8.2-5.3 2.3-1.5 5.6-3.6 7.4-4.7 1.7-1.1 7.5-5.6 12.8-10 13.1-10.9 23.6-19.2 26.7-21.3 4.7-3.1 13.4-11.6 17.7-17.3 2.3-3.1 6.9-7.7 10.1-10.3 6.1-4.9 12.5-11.9 17.4-19.1 2.9-4.3 5.5-7.8 12.9-17.3 2.6-3.3 8.1-12.9 12.2-21.3 4.2-8.4 8-15.7 8.5-16.3.4-.6 2.3-4.5 4.2-8.6 1.8-4.1 4.6-9.6 6.1-12.1s2.8-5.7 2.8-7c0-1.3 1-4.4 2.1-6.9 1.8-3.9 5.3-15.9 7.9-27 .4-1.9 1.5-5.5 2.4-7.9.9-2.4 1.6-5.7 1.6-7.4 0-1.6.4-4.6.9-6.6s1.5-6.3 2.1-9.6c.7-3.3 1.8-7.5 2.6-9.3.8-1.8 1.4-4 1.4-5 0-.9.7-3.1 1.6-4.7 3-5.6 4.2-11 4.7-20 .5-11-1.8-35.7-3.7-39.3-.8-1.5-1.9-6.8-2.6-11.7-2.1-16.3-2.7-19.9-5.3-28.5-2.4-8.2-3.8-13.4-5.7-21-.4-1.9-1.3-4.9-1.8-6.5-2.8-8.5-4.2-13.5-4.2-15.1 0-1.1-1.4-6-3.1-10.9-1.6-5-4.1-12.2-5.4-16-1.2-3.9-3-8.4-3.9-10-.9-1.7-1.6-3.5-1.6-4.1 0-.6-2-3.7-4.5-7-2.4-3.2-4.5-6.4-4.5-7.1 0-.7-1.2-2.7-2.7-4.5-1.6-1.8-3.7-5-4.7-7-2.3-4.6-9.3-12.8-14.5-17.2-2.2-1.8-5-4.5-6.3-5.8-1.3-1.4-5.2-5-8.8-8-3.6-3-10.1-9.2-14.5-13.7-4.4-4.6-9.2-8.9-10.7-9.7-1.5-.8-2.9-2.2-3.3-3.3-.7-2.2-18.1-15.9-35.2-27.6-2.8-2-5.4-4.2-5.7-5-.3-.8-2.8-2.6-5.5-4-2.8-1.4-6.6-4-8.5-5.7-5.9-5.5-8.7-7.7-18.9-14.3-5.5-3.6-11.4-7.8-13.3-9.5-1.9-1.6-4.3-3-5.3-3-1.9 0-10.3-5.3-18.1-11.5-4.4-3.5-12.5-8.9-16.6-11.2-10.1-5.5-19.7-10.3-20.7-10.3-.7 0-3.7-1.3-6.7-3-3-1.6-8.1-4.3-11.2-6-3.1-1.6-8.1-4.9-11-7.2-2.9-2.4-8.2-6.3-11.8-8.6-3.6-2.4-7.6-5.9-9-7.9-1.4-1.9-5.6-6.9-9.3-11-3.7-4.1-7.8-9.6-9.1-12.1-1.4-2.6-4.1-6.7-6.2-9.1-6.2-7.2-10.4-14.9-10.4-19.1 0-2.9-.9-4.9-3.8-8.4-2.5-3-4.4-6.8-5.6-10.9-.9-3.4-2.2-7.8-2.9-9.7-.8-2.3-1.2-10.9-1.2-25.5 0-29.6-.2-30-16.6-31.1-9.3-.6-9.4-.6-13.6 2.5zm-321.4 87.5c-.3.3-3.5.7-7 .7-9.8.2-19 1.8-22.7 4.1-1.8 1.1-7.4 2.8-12.5 3.8-11.8 2.3-19.2 4.7-22.5 7.5-1.5 1.2-4.3 2.8-6.2 3.5-1.9.8-5.5 3.3-8 5.6-5.3 4.8-14.7 11.4-16.4 11.4-.6 0-3.5 1.7-6.3 3.7-8.5 6.2-11.6 8.1-16.1 10.2-2.3 1.1-4.5 2.7-4.8 3.5-.6 1.6-14.5 12.6-18.9 14.9-1.6.8-4.9 3.3-7.2 5.4-2.3 2.1-6.5 5.6-9.3 7.8-8 6.3-22.9 21.3-28.1 28.4-1.4 2-3.9 4.9-5.5 6.6-3.4 3.4-8.5 11.2-11.4 17.1-1.1 2.2-2.8 5.1-3.8 6.5-1.1 1.3-3 4.4-4.2 6.9-1.3 2.5-3.8 6.5-5.7 8.9-1.8 2.5-3.6 5.6-4 7-.3 1.4-2 3.9-3.7 5.7-3.1 3.2-7 9.6-10.2 16.4-1.6 3.3-5 10.1-10.8 21.5-1.4 2.7-4 8.1-5.7 12-1.7 3.8-4.1 9.2-5.4 12-1.3 2.7-2.8 6.8-3.5 9-1.5 5.3-5.2 14.7-6.2 16.1-1.4 1.9-4.2 12.4-6.7 24.9-1.2 6.1-5.5 23.5-7.1 29-.6 2.2-1.8 8.7-2.6 14.5-1.8 13-2.8 18.8-4.1 22-1.2 2.9-1 18.3.4 32.5 1.1 10.8 1.2 12.7 1.2 28.5 0 5.8.5 13 1.1 16 .6 3 1.1 10.4 1.1 16.3 0 9.5.5 12 3.5 21.2 1.9 5.8 3.4 11.5 3.4 12.9 0 5.2 3.2 20.2 4.9 23 1 1.7 2.1 4.2 2.4 5.6.4 1.4 2.2 4.9 4.1 7.8 1.9 2.9 4 6.9 4.5 8.8.5 2 2 5 3.4 6.7 1.3 1.8 4.5 9.7 7.1 17.7 2.6 8 6.1 16.6 7.7 19.1 1.6 2.5 2.9 5.5 2.9 6.7 0 1.1 1.7 3.8 3.8 6 2.1 2.1 5.5 6.2 7.7 9.1 2.1 2.8 4.2 5.1 4.6 5.1.3 0 3.5 2.2 6.9 5 3.4 2.7 6.5 5 6.9 5 .4 0 5.1 4.4 10.5 9.7 7.7 7.5 10.6 11.2 12.7 16 1.8 3.8 3.6 6.4 4.9 6.8 1.1.4 2.7 2.2 3.5 4.1.8 1.9 2.9 4.9 4.7 6.7 4.8 4.8 13.2 15.5 14.1 18 .4 1.2 3.1 4.5 5.9 7.4 4.4 4.4 4.9 5.4 3.8 6.7-.7.9-2 1.6-3 1.6-1.5 0-6.8 3-14.2 8.1-1.5 1.1-3.6 1.9-4.7 1.9s-3.2 1.1-4.8 2.4c-1.5 1.3-4.6 3.3-6.8 4.5-2.2 1.2-6 3.5-8.5 5.1-2.5 1.6-5.2 3.3-6 3.6-2.6 1.2-14.9 9.5-15.6 10.5-.3.5-4.2 2.8-8.7 5.1-4.5 2.2-9.8 5.3-11.7 6.9-1.9 1.6-5.5 4.5-8 6.5-2.5 1.9-8.3 6.6-12.8 10.2-4.6 3.7-9.6 7.3-11 8.1-1.5.8-6 4.2-10 7.7s-9.9 8.2-13 10.4c-9.6 6.8-14.8 11.3-18.9 16.1-2.1 2.6-6.4 6.8-9.5 9.3-3.1 2.6-6.3 5.5-7.1 6.7-.8 1.1-5.7 5.6-10.8 10.1-5.2 4.4-12.8 11.5-16.9 15.7-4.2 4.2-12 11.6-17.4 16.6-13.7 12.5-27.3 25.3-31.6 29.8-2 2.1-7.7 7.1-12.6 11.1-8.4 6.8-10.9 9.6-17.1 19.1-1.4 2.2-4 5.7-5.7 7.7-1.7 2-4.7 6.2-6.6 9.4-1.9 3.1-6.7 8.9-10.6 12.8-3.9 3.9-9.4 10-12.3 13.5-2.9 3.5-6.7 7.8-8.4 9.5-6.8 6.8-15.7 17.7-21.3 26.1-1.5 2.2-3.9 5.1-5.3 6.5-4 3.9-12.2 14.6-16.1 21-1.9 3.2-4.8 7.7-6.4 10.1-1.6 2.4-4.5 6.9-6.5 9.9-1.9 3-5.2 7.4-7.3 9.7-2.1 2.4-3.8 4.8-3.8 5.4 0 .6-1.3 2.7-3 4.6-1.6 1.8-3 4.2-3 5.3 0 1-.5 2.2-1 2.5-.6.4-2.5 3-4.3 5.8-1.9 2.9-4.2 5.9-5.2 6.7-1 .8-2.8 3.1-4.1 5-1.3 1.9-3.7 5.4-5.3 7.7-1.7 2.4-3.8 5.7-4.6 7.4-.9 1.7-2.9 3.5-4.5 4-5 1.8-6.5 5.3-8.7 20.3-.3 2.6 0 5 1 7 .8 1.7 1.8 4.3 2.1 5.7.7 3.3 6.9 7.6 12.1 8.4 3.4.6 4.6.2 8.3-2.5 2.4-1.7 5-4.6 5.9-6.3 3.7-7.8 8.2-14.9 13-20.6 2.9-3.4 5.3-6.6 5.3-7.1 0-1.2 5.6-9.6 9.2-13.8 1.5-1.8 2.8-3.8 2.8-4.5 0-.8 1.4-2.6 3.1-4.3 1.7-1.6 5.2-5.8 7.7-9.4 2.5-3.6 5.9-8.1 7.5-9.9 1.7-1.9 3.8-5.4 4.9-7.8 1-2.3 2.3-4.5 2.8-4.8.6-.4 2.1-2.7 3.4-5.3 1.3-2.6 3.4-5.6 4.6-6.7 1.2-1.1 3.3-4 4.6-6.5 4.8-8.8 9-15 14.1-20.7 13.1-14.7 17.6-20 19-22.8 3.1-6.1 8.4-12.3 11.3-13.5 1.7-.7 3.7-2.5 4.5-4.1.8-1.5 3.4-4.3 5.6-6.1 4.2-3.3 9.7-10.8 12-16.3 2.5-5.9 8-13.3 11.7-15.9 2.1-1.4 4.8-4.4 6-6.5 1.2-2.1 7.3-8.8 13.6-14.7 6.2-6 12.5-12.8 14-15.1 1.4-2.4 4.3-5.4 6.4-6.7 2-1.3 6.1-4.7 9-7.5 2.9-2.8 6.7-5.8 8.3-6.6 1.6-.9 2.9-2 2.9-2.4 0-1.5 5.2-7.3 8.3-9.1 3.2-2 21.1-18.3 27-24.7 2.1-2.2 4.9-4.4 6.2-4.7 1.3-.3 4.1-2.7 6.2-5.4 4.7-5.9 9.7-10.9 14.2-14.4 2-1.5 5.6-4.6 8.1-6.8 9.1-8.4 19.3-16.6 23-18.5 2.1-1.1 4.8-3.3 6-4.8 1.2-1.5 3.8-3.6 5.8-4.6 2.1-1.1 5.5-3.8 7.7-6.1s5.4-4.9 7-5.7c1.7-.9 4.6-2.9 6.5-4.4 1.9-1.5 9.7-5.9 17.3-9.8 7.7-3.9 15.6-8.6 17.8-10.5 2.1-2 5.5-4.7 7.6-6.1 2.1-1.4 6.3-4.3 9.3-6.5 3-2.2 6-4 6.6-4 .6 0 3.2-1.6 5.7-3.5s5.6-3.5 6.9-3.5c1.3 0 4.6-1.5 7.3-3.3 14.4-9.5 18.1-11.2 22.1-9.8 5.7 2 10.8 1.4 15-2 5.2-4.1 5.7-5.3 5.1-10.8-1.1-9.4-9.2-20.7-24.8-34.7-4-3.5-8.7-8.9-11-12.4-.9-1.4-2.9-3.9-4.5-5.5-1.6-1.7-3.6-4-4.4-5.1-.8-1.2-3.4-4.7-5.7-7.7-2.4-3.1-4.3-6.3-4.3-7.1 0-.9-1.4-3.1-3.2-5.1-1.7-2-3.8-4.9-4.7-6.5-2.3-4-12.1-16-13.2-16-.4 0-2.2-1.4-3.9-3-1.7-1.7-3.6-3-4.2-3-.7 0-2.6-1.4-4.4-3.1-1.7-1.7-5.3-4.5-8-6.2-2.8-1.9-6.2-5.4-8.1-8.2-1.7-2.8-4.2-6.3-5.5-7.9-4.2-5.3-9.1-14-9.9-17.6-1.3-5.7-5.8-18.3-7.2-19.9-.7-.9-1.9-3.4-2.6-5.6-.7-2.2-3-7.6-5.1-12-2.1-4.5-4.3-10.7-4.9-13.9-.6-3.1-1.4-6.3-1.8-6.9-.7-1.1-1.2-3.7-3.2-16.2-.4-2.8-1.5-6.8-2.4-9-.8-2.2-2.1-8.7-2.7-14.5-.6-5.8-1.8-14.1-2.6-18.5s-1.6-14.5-1.8-22.5c-.2-8-.9-19.7-1.6-26-1.3-13.1-1.1-15.6 2-26 1.3-4.1 2.6-11.3 3.1-16 .4-4.7 1.4-12.1 2.3-16.5.8-4.4 1.9-10 2.4-12.5.4-2.5 1.2-5.2 1.7-6 .5-.8 1.3-3.5 1.7-6 .4-2.5 1.1-7.1 1.7-10.2.5-3.1 1.6-6.7 2.5-8 .9-1.2 1.6-3.8 1.6-5.8s1.1-5.2 2.5-7.5c1.3-2.2 2.5-4.8 2.5-5.9 0-1 1.1-4 2.5-6.8 1.4-2.7 2.5-5.6 2.5-6.5 0-.8 2-4.5 4.5-8.2 2.5-3.7 4.5-7.8 4.5-9.1 0-1.3.6-3.1 1.4-3.9 2.1-2.3 10.6-19.1 10.6-20.8 0-.8 1.9-4 4.3-7.1 5.2-6.9 8.7-12.6 8.7-14 0-.6 2.5-4.8 5.5-9.3 3-4.5 5.5-8.8 5.5-9.5 0-.7 1.7-3.4 3.8-6.1 2.1-2.6 4.3-5.5 4.8-6.4 1-1.8 15-18 22.7-26.1 2.6-2.8 6.9-6.7 9.5-8.7 2.6-2 5.7-4.4 6.7-5.4 3.6-3.2 15.9-12.8 21.7-16.9 3.2-2.2 6.4-5 7.1-6.2.8-1.1 5-3.9 9.3-6.1 4.4-2.2 10.2-5.5 12.9-7.4 2.8-1.9 6.4-4.4 8-5.5 4-2.8 9.9-7.2 16-12.1 5.9-4.7 15.8-9.2 25.5-11.5 1.9-.5 5.8-1.6 8.5-2.4 14.6-4.4 15.3-4.5 34.6-4.2 16.3.3 19.3.1 21-1.3 2.5-2 3.8-7.6 3.9-15.9 0-5.6-.3-6.6-2.7-8.9-5.7-5.3-7-5.7-19.2-6.1-6.4-.2-11.9-.1-12.2.2z"/><path d="M773.307 362.309c-1.8.8-3.4 1.8-3.8 2.4-.3.5-4 2.7-8.2 4.8-4.2 2.2-9.2 4.7-11 5.6-3.4 1.8-6.4 5.3-6.4 7.6 0 .8-2.1 4.5-4.7 8.4-4.1 6.1-4.8 7.8-5.1 13.2-.7 10.9 3.6 16.6 17.6 23.3 4.2 2 9 4.7 10.5 6 1.6 1.2 4.2 2.3 5.8 2.3 1.6 0 4.6.7 6.6 1.5 4.8 2 14.2 1 18.6-1.9 3.8-2.5 7.7-9.7 7.7-14.1 0-2.1.9-4 2.6-5.6 5.4-5 7.3-12.3 5-19.8-.8-2.7-1.8-7.5-2.1-10.7-1.2-9.8-7.7-20.3-14.2-23-4.1-1.8-14.9-1.7-18.9 0zm407.1 44.7c-3.6 1.6-11.9 5.2-14.6 6.3-3 1.2-11.1 10.7-15.2 17.7-3.4 5.9-4.3 13.7-2.7 22.3 2.3 12.1 11.5 21.2 25 24.6 2.5.6 5.9 1.5 7.5 2 1.7.5 6.8.6 11.5.2 8.1-.7 8.9-1 13.5-4.7 2.6-2.2 7.1-6.7 9.8-9.9l4.9-5.9-.4-12.1c-.5-12.9-.4-12.9-8.4-27.8-3.1-5.9-4.3-7.1-9.9-10.3-5.5-3-7.2-3.5-12.7-3.4-3.4 0-7.2.4-8.3 1zm-230.5 38.9c-4.5 1.1-15.4 3.8-20.5 5.1-5.2 1.3-16.6 3.8-23 4.9-5.3.9-11.9 2.5-25.5 6-4.7 1.2-11.6 2.6-15.5 3.1-3.8.6-8.8 1.6-11 2.3-2.2.8-5.5 1.1-7.3.9-2.1-.4-4.1.1-6 1.3-4.2 2.8-14.2 7.4-16.1 7.4-.9 0-2.5.6-3.6 1.4-1.1.7-3.8 1.6-6 2-4 .7-8.5 1.9-14 3.8-2.7.9-9 2.4-18 4.3-1.6.4-5.7 1.7-9 3-9.4 3.6-19.8 5.5-35.5 6.5-11.5.7-15.9 1.4-21.4 3.4-3.8 1.4-8.4 2.6-10.3 2.6-1.9 0-4.7.6-6.1 1.4-1.5.7-6.3 2.1-10.7 3.1-4.4.9-9.6 2.1-11.5 2.5-1.9.5-6.2 1.6-9.5 2.4-3.3.8-8.4 2.3-11.2 3.4-2.9 1.1-8.5 2.6-12.5 3.3-4 .7-9 2-11 3.1-2.1 1-4.5 1.8-5.5 1.8s-3.8 1.1-6.2 2.5c-2.3 1.4-5.8 2.5-7.6 2.5-4 0-8.7 3.6-10.5 8.1-1.3 3.1-1.3 3.4 1.8 17.8 1.1 5.1 2.9 6.7 9 8.3 2.5.6 4.9 2 5.8 3.3.8 1.2 3.8 3.5 6.7 5 2.8 1.6 7.3 4.6 9.9 6.7 2.5 2.1 6.1 4.4 8 5 3.3 1.1 5.8 2.8 12.1 7.9 1.8 1.5 4.8 3.4 6.7 4.3 1.9.9 4.9 2.4 6.5 3.3 1.7.9 3.5 1.9 4.1 2.2.6.3 5.3 3.4 10.4 6.9 5.1 3.4 10.4 6.5 11.9 6.9 4.1 1 14.1 6 16.5 8.1 1.1 1.1 4.1 3 6.5 4.2 2.4 1.2 8.3 4.8 13 8 13.5 9.2 24.4 15.5 30.8 17.9 9.7 3.7 23.6 11.2 26.5 14.2 1.4 1.5 3.9 3.1 5.5 3.4 5.2 1 24.5 8 30.6 11.1 2.7 1.3 5.4 2.4 6 2.4.7 0 3.2 1.6 5.6 3.5 2.5 2 5.6 3.8 7 4.2 1.4.3 4.6 2.6 7 5 2.5 2.4 5.6 4.6 7 5 1.5.3 3.5 1.4 4.6 2.3 1.1 1 6 3.2 10.9 4.9 4.9 1.7 10 3.8 11.4 4.8 6 4.3 7.7 5.1 13.2 6.3 7.5 1.6 9.8.3 13.6-7.4 2.4-4.9 2.6-6.1 1.9-12.2-.6-5.6-1.2-7.2-3.5-9.3-5.5-5.1-8.8-7-18.1-10.6-5.2-2.1-10.1-4.3-10.9-5-.8-.6-3.8-2.3-6.6-3.8-2.8-1.4-6.8-3.7-8.9-5.1-2-1.4-5.3-2.8-7.4-3.2-2-.4-5.1-2-7.1-3.9-4-3.7-19.7-11.8-28.2-14.5-7.3-2.4-11.5-4.6-15.6-8.1-1.8-1.6-4-2.9-4.9-2.9-.9 0-2.4-.6-3.2-1.4-.9-.7-5.6-3-10.6-5.1-17.8-7.4-21.3-9.3-28.8-15.2-1.5-1.2-7.4-4.8-13-7.9-5.6-3.2-11.2-6.7-12.5-7.8-1.3-1.2-7.2-4.6-13.2-7.6-19.7-10-30.5-16.2-34.1-19.7-2.2-2.1-5.3-3.8-8-4.4-2.5-.6-5.8-2.4-8.1-4.4-2.1-1.9-4.9-3.5-6.1-3.5-2.1 0-6.7-3.6-6.7-5.3 0-1.6 13.9-6.1 24-7.8 3-.5 6.6-1.4 8-1.9 1.4-.6 4.8-1.5 7.5-2 6.4-1.1 10.5-2.3 18-5 3.3-1.2 9.8-3 14.4-4 7.2-1.5 10-1.6 18.7-.8 8.8.9 10.7.9 12.7-.5 1.3-.8 4.6-2.2 7.3-3 2.7-.9 10.7-3.6 17.8-6.1 7.2-2.5 15.7-4.8 19-5.1 6.6-.7 15.1-2.8 20.4-5.1 1.8-.8 4.2-1.4 5.3-1.4 1.1 0 3.7-.9 5.7-1.9 4.3-2.2 15.9-6.1 21.7-7.2 2.2-.4 6-1.3 8.5-1.9 2.5-.6 6.8-1.5 9.5-2 2.8-.5 6.8-1.3 9-1.9 10.8-2.7 15.4-4 19.4-5.4 2.4-.9 5.7-1.3 7.3-1 1.6.3 3.7 0 5-.9 1.3-.8 6.4-2.2 11.3-3.2 5-.9 10.4-2.1 12-2.6 1.7-.5 5.7-1.2 9-1.6 7.4-.8 9.9-1.8 13.9-5.1 5-4.1 5.7-6 5-13.8-.7-7.7-2.2-11-5.6-12.1-1.3-.4-3.4-1.5-4.7-2.5-2.5-2-4.4-2.2-10.1-.9zm1031.6 701c-3.2 2.9-5 5.7-6.2 9.3-.9 2.9-4 9.6-7 15-3 5.3-5.4 10.1-5.4 10.5 0 .4-1.8 2.9-4 5.6-2.2 2.6-4 5.5-4 6.3 0 .8-2.1 4.1-4.7 7.3-2.7 3.2-6.8 8.8-9.3 12.5-2.5 3.6-6.4 8.9-8.7 11.6-2.4 2.7-4.3 5.8-4.3 6.8 0 .9-1.2 2.8-2.6 4.2-1.4 1.3-3.3 3.7-4.1 5.4-.9 1.6-2.9 4.5-4.4 6.3-1.6 1.8-3.9 5.2-5 7.5-1.2 2.3-3.5 5.7-5 7.5-1.6 1.8-2.9 4-2.9 4.9 0 .8-1.5 3-3.3 4.7-1.8 1.7-5.2 6-7.6 9.6-2.4 3.6-5.5 7.8-6.8 9.3-1.2 1.6-2.3 3.5-2.3 4.2 0 .8-2.7 4.5-6.1 8.2-3.4 3.7-6.6 7.9-7.3 9.3-.6 1.4-2.4 4.3-3.9 6.5-6.1 8.8-8.7 13.1-8.7 14.6 0 2.4-16.9 26.9-19.1 27.7-.5.2-2 2.5-3.3 5-1.3 2.6-3.4 5.6-4.6 6.7-1.3 1.1-3 3.6-3.9 5.5-.9 1.9-2.5 4.8-3.5 6.5-7.3 11.4-13.6 20.6-17.8 25.4-2.7 3.1-5.1 6.7-5.5 8.1-.3 1.4-3 5.2-6 8.5s-6.8 8.9-8.6 12.5c-1.8 3.6-4.8 8.1-6.8 10.1-6.2 6.2-11.7 13.7-12.4 16.9-.4 1.8-2.2 4.3-4.5 6.1-2.1 1.7-4.4 4.5-5.1 6.3-.7 1.7-3.1 5.3-5.4 8.1-2.3 2.7-6.2 8.1-8.8 12-2.5 3.8-8 10.5-12.1 14.7-4.1 4.2-8.6 9.8-9.9 12.5-1.4 2.7-4.7 7.2-7.3 10-2.7 2.8-5.7 6.3-6.7 7.7-2.3 3.3-4.4 3.3-9.3 0-5.8-4-19.8-16-30.1-26-15.8-15.4-23.9-22.6-28.7-25.6-2.7-1.6-6-4.9-7.7-7.6-1.6-2.6-4-5.2-5.2-5.7-1.3-.6-4.8-3.7-7.8-7-8.5-9.5-10.2-11.3-14-15.3-2-2-4.6-5.1-5.8-6.9-1.2-1.7-3-3.5-4.1-3.8-1.1-.4-2.7-1.8-3.4-3.3-1.5-2.7-6.4-8-28.2-30.3-7.1-7.2-11.4-12.5-11.4-13.7 0-3.2-4.1-7.2-8.5-8.4-4.7-1.2-16-2-19.2-1.3-2 .5-11.3 14.4-11.3 17 0 2.1-51.9 51.9-56.5 54.3-2.5 1.3-4.5 2.7-4.5 3.1 0 .5-1.9 2.1-4.2 3.7-2.4 1.5-7.2 5.6-10.8 8.9-3.6 3.4-9.2 7.9-12.5 10-3.3 2.1-7.3 5-9 6.5-2.9 2.6-4.1 3.4-11.8 8.6-2.1 1.4-4.4 3.8-5 5.4-1.3 2.9-10.4 10.5-18.3 15-2.4 1.4-5.4 3.6-6.7 4.8-1.9 1.8-2.8 2-5.3 1.3-6.8-2.1-18.5-7.1-21-9-1.5-1.2-3.5-2.1-4.6-2.1-1 0-3.6-.9-5.6-1.9-2-1.1-8.2-3.8-13.7-6.1s-12.9-5.7-16.5-7.6c-3.6-1.8-9.8-5-13.7-7-4-1.9-7.5-4-7.9-4.5-.6-1.1-11-5.9-12.7-5.9-.6 0-4.2-1.4-8.1-3.1-3.9-1.7-9.3-4-12.1-5.1-2.7-1.1-6.2-2.7-7.7-3.4-1.4-.8-3.4-1.4-4.3-1.4-.9 0-2.8-.9-4.2-2-1.4-1.1-3.4-2-4.5-2-1 0-4.4-1.4-7.6-3-3.1-1.7-6.8-3.7-8.2-4.4-1.4-.7-4.5-2.3-7-3.4s-7.2-3.3-10.5-4.8-7.6-3.4-9.5-4.2c-1.9-.8-4.4-2-5.5-2.5-10.7-5.5-18.1-9-23.7-11.1-3.7-1.4-12.7-5.4-20-8.9-7.3-3.5-17.1-8.2-21.8-10.3-4.7-2.1-9.1-4.3-9.9-4.9-4.7-3.4-35.6-18.5-37.9-18.5-1 0-2.6-.6-3.7-1.3-2.5-1.7-28.7-13.7-29.9-13.7-.4 0-2.1-1.1-3.8-2.5-1.6-1.4-3.9-2.5-5.1-2.5-1.2-.1-4.1-1.1-6.4-2.3-5.7-3-16.1-8.2-20.3-10.1-1.9-.9-5-2.7-6.9-4.1-2.4-1.8-4.7-2.5-7.9-2.5-4.2 0-5 .4-9.4 5.2-4.8 5.2-9.3 13.1-10.2 17.9-.7 3.1-13.1 16.9-15.3 16.9-.8 0-3.4 1.9-5.8 4.2-2.3 2.4-6.4 5.9-9.1 7.8-7.6 5.6-23.6 20.9-27.5 26.4-1.9 2.8-5.4 6.4-7.7 7.9-2.4 1.6-6.6 5.1-9.4 7.8-2.8 2.7-8 6.5-11.5 8.5-3.4 1.9-7.8 5.1-9.7 7-1.9 2-5.3 4.8-7.5 6.2-8.2 5.5-31.8 27.4-37.1 34.6-1.9 2.6-5.8 7.3-8.7 10.5-2.8 3.2-5.6 6.8-6.2 8-.7 1.1-1.7 2.1-2.3 2.1-.7 0-5.1-1.9-9.8-4.1-4.7-2.3-11-5.3-14-6.8-3-1.4-7.3-4.3-9.5-6.5-2.2-2.1-6.4-5-9.3-6.3-2.9-1.4-7.5-4-10.3-5.9-2.8-1.9-5.5-3.4-6.1-3.4-.5 0-3.6-1.4-7-3-3.3-1.7-6.6-3-7.2-3-.7 0-2.1-1-3.2-2.1-1-1.2-6.6-4.4-12.4-7.2-5.8-2.8-12.2-6.5-14.3-8.4-2-1.8-4.2-3.3-4.7-3.3-.9 0-13.8-8-20.8-12.9-1.3-.9-3.6-2.3-5-3.1-4-2.3-18.7-11.1-23.5-14.2-2.3-1.5-6-3.8-8.2-5.1-2.2-1.3-8.3-5-13.5-8.2-5.2-3.1-10.5-6.1-11.7-6.6-1.3-.5-2.3-1.3-2.3-1.9 0-1.1-13.8-7.8-20.5-10-2.2-.7-6.2-3.2-9-5.5-2.7-2.3-8.7-6.1-13.3-8.3-4.6-2.3-9.7-5.2-11.4-6.4-1.8-1.3-4.9-3.2-7-4.3-7.5-4-21.8-12.7-22.4-13.6-.3-.5-2.8-2.2-5.6-3.7-10-5.4-11.1-6.1-16-9.9-9.9-7.7-16.8-13.6-16.8-14.5 0-.4-.9-1.7-2-2.8-3.3-3.3-11-2.7-21.1 1.6-9.7 4.2-11.2 5.3-14.6 11.2-1.4 2.3-3.9 5-5.7 5.8-1.7.9-4.7 3.2-6.6 5.1-1.9 1.9-7.3 6.4-12 10-11 8.3-18.2 14-22.8 17.9-4.2 3.6-18.3 11.4-20.5 11.4-2.5 0-13.3 8.7-26 21.1-6.7 6.5-12.6 11.9-13.1 11.9s-3 2.1-5.6 4.7c-2.5 2.7-6.9 6.5-9.6 8.5-12.5 9.4-14.5 10.8-15.4 10.8-.6 0-3 1.8-5.5 4.1l-4.4 4.1-3.4-2.1c-1.9-1.1-5.6-4.5-8.3-7.5-9.7-10.7-11.1-12.1-15.2-14.8-2.2-1.5-6.8-6.2-10.2-10.5-3.4-4.3-7.1-8.3-8.3-8.8-2.6-1.2-10-6.6-13.1-9.5-3.6-3.4-10.1-9.3-16.1-14.5-3.2-2.8-7.7-6.9-10-9.3-2.4-2.3-5.1-4.2-6.2-4.2-1 0-3.7-1.5-6-3.4-2.3-1.8-6.3-4.1-9-5.1-5.4-2-8.8-4.7-10.9-8.7-.8-1.5-2.4-3-3.6-3.4-2.6-.8-7-3.7-11.3-7.5-1.6-1.4-5.1-3.8-7.8-5.3-2.6-1.5-6.4-4.9-8.5-7.7-2.6-3.6-4.7-5.2-7.3-5.9-2.8-.8-7.6-4.9-20.5-17.9-9.3-9.3-20-20.2-23.8-24.2-3.9-4.1-8.8-8.7-11-10.3-6.9-5-21-18.6-25.5-24.6-3.6-4.7-7.9-7-13.2-7-5 0-8.5 2.1-16.5 9.6l-4.1 3.9-.7 10c-.4 5.4-1.2 10.7-1.7 11.7s-1.4 3.7-1.8 6c-.5 2.4-1.7 6.8-2.6 9.8-.9 3-2.1 7.5-2.7 10-.6 2.5-1.7 5.4-2.4 6.5-.8 1.1-1.4 3.4-1.4 5.3 0 1.8-.7 4.9-1.7 7-.9 2-2 6.6-2.4 10.2-2 17.5-2.7 21.8-3.3 22.9-.4.6-.9 8.2-1.2 16.9-.5 18.9-2.1 46.5-3 50.7-1 4.9-2.2 41.4-2.7 80-.3 21.1-1 38.9-1.7 43-.6 3.8-1.6 11.3-2 16.5-.5 5.2-1.4 12.6-2 16.5-4.1 27.2-6.2 95.3-4 130 .6 9.3 1.2 22.2 1.3 28.5 1.3 54.3 2.9 98.6 3.7 104.3.6 3.7 1 10.4 1 14.8s.5 8.9 1 10c.6 1 1.3 4.9 1.7 8.7.3 3.7 1.1 7.6 1.8 8.8.7 1.1 1.6 4.3 2 7 1.3 9.2 4.5 26.9 5.5 30.4.5 1.9 1 4.9 1 6.7 0 1.8.7 4.8 1.5 6.8.8 1.9 2.2 5.2 3.1 7.2.8 2 1.8 5.9 2.1 8.7.3 2.8 1.1 6.2 1.9 7.6.7 1.4 2 7.7 2.9 14 1 6.3 2.6 13.1 3.5 15 1.1 2.1 1.6 4.7 1.3 6.3-.3 1.5.2 4.5 1.1 6.7.9 2.2 1.6 5.3 1.6 6.8s.8 4 1.8 5.7c3 5 6.2 14.9 6.2 19.2 0 2.4.8 5 1.8 6.4 1 1.3 2.4 5.1 3 8.4.7 3.3 2.6 8.8 4.2 12.1 1.7 3.4 3 7 3 8 0 1.1 1.6 5 3.5 8.9 2 3.8 4.8 10.4 6.4 14.5 1.6 4.1 4.1 9.5 5.5 12 1.4 2.5 2.6 5.7 2.6 7.3 0 1.5 2 6.7 4.5 11.5s4.5 9.5 4.5 10.5 2 5.6 4.5 10.4c2.5 4.7 4.5 9.4 4.5 10.4 0 .9 1.1 3 2.4 4.6 1.3 1.5 3 4.2 3.9 5.9.9 1.7 2.3 3.6 3.1 4.3.9.8 1.6 2.4 1.6 3.8 0 1.3 1.4 5 3 8.3 1.7 3.3 3 6.7 3 7.6 0 1.8 15.9 34.2 17.1 35 .5.2 3.3 4.1 6.4 8.6 6.2 9 10.8 18.4 11.9 24.2.4 2 1.7 4.7 2.9 5.8 1.2 1.2 4 5 6.2 8.4 9 13.8 11.5 17.4 17.2 23.5 6.1 6.5 13.3 16.7 13.3 18.7 0 .6 1.4 2.7 3 4.5 1.7 1.9 3 3.9 3 4.5 0 .6 1.5 2.8 3.4 5.1 1.8 2.2 7.6 12.7 12.9 23.3 5.2 10.6 11.1 21.5 13.1 24.3 7.1 9.8 8.6 12 10.5 16 1.7 3.7 11.2 15.3 30.4 37.3 4.5 5 8.4 9.2 8.8 9.2.4 0 2 1.9 3.6 4.2 4.4 6.5 11.1 13.5 17.8 18.6 3.3 2.6 7.2 5.9 8.7 7.4 1.4 1.5 3.1 2.8 3.8 2.8 1.5 0 10.5 6.5 14.7 10.6 1.7 1.8 4.9 4.5 7 6 2.1 1.6 6.2 5.2 9 8.1 2.9 2.9 5.7 5.3 6.2 5.3 1.3 0 13 10 25.3 21.4 13.1 12.3 16.9 15.4 26.8 22.1 4.7 3.1 10.1 7.2 12 9.1 12.7 12.2 22.4 20.4 24.4 20.4.5 0 1.8.9 3 2 5.5 5.2 11.5 9.8 15.3 11.8 4.5 2.3 15.6 10 18.8 13 2.4 2.3 6 4.2 23.7 12.7 7.6 3.7 16 8.1 18.8 10 2.7 1.8 7.1 4.4 9.7 5.6 2.7 1.3 5.5 2.9 6.4 3.6 1.6 1.3 9.7 4 20.6 6.8 2.9.7 9.1 3.4 13.9 5.9 4.7 2.5 9 4.6 9.4 4.6.5 0 4.8 2.3 9.7 5.1 4.8 2.8 10.8 5.8 13.3 6.6 2.5.8 5.2 2.1 6 2.7 2.1 1.8 15.7 8.6 17 8.6.7 0 2.3.9 3.7 2 1.4 1.1 3.7 2 5.2 2 2.8 0 8.2 1.8 11.8 3.8 1.2.7 2.6 1.2 3.1 1.2s4.2 2.2 8.3 4.8c10.4 6.8 14.9 8.9 20.5 9.8 2.7.3 7 1.7 9.6 3 2.6 1.3 5.5 2.4 6.5 2.4s2.7.7 3.7 1.5c1.1.8 3 1.5 4.3 1.5 1.3 0 4 .7 6.1 1.6 2 .8 5.9 2 8.6 2.5 2.7.5 7.7 2.3 11 4 5.2 2.6 8.4 3.3 22.6 4.9 9.1 1 19.2 2.6 22.5 3.4 3.2.9 8.2 1.6 11 1.6 2.8 0 7.5.9 10.5 2 3.1 1.2 7.9 2 11 2 18.5-.1 47.1 2.6 50.4 4.8.6.4 4.7 1 9.1 1.3 4.4.4 11.6 1.2 16 1.8 4.4.6 21.1 1.3 37 1.5 17 .3 30.7 1 33 1.6 2.2.6 5.9 1.6 8.3 2.1 2.3.5 6.3 1.4 9 1.9 2.6.6 8.1 1.5 12.2 2.1 4.1.5 8.2 1.2 9 1.6.8.4 5.6 1 10.5 1.3 5 .4 11.7 1.5 15 2.4 5 1.5 7.9 1.7 18 1 6.6-.4 18.3-.8 26-.9 7.7-.1 17.2-.8 21-1.5 3.9-.7 14.9-1.4 24.5-1.4 9.7-.1 18.2-.6 18.9-1 .7-.5 7-.8 14-.8 7.1.1 16.8-.5 22.3-1.4 9.6-1.5 9.7-1.5 11.8.6 2 2 2.8 2.2 8.4 1.5 3.3-.4 10.6-.9 16.1-1 5.5-.1 10.9-.6 12-1.2 10.3-5.3 15.3-6.5 23.3-5.3 4.9.7 8.7.6 12.4-.1 2.9-.6 8-1.2 11.3-1.4 9.7-.3 20.7-2.2 25.9-4.5 2.6-1.1 5.6-2 6.5-2 1.9 0 12.4-5.2 15.1-7.5.8-.7 3.5-1.5 5.9-1.8 2.6-.3 6.1-1.8 8.6-3.6 2.4-1.7 5.2-3.1 6.3-3.1 1.1 0 4.1-.9 6.6-1.9 3.2-1.4 8-2.2 16.8-2.6 8.5-.5 13.5-1.3 16.3-2.5 2.3-1 7.9-2.1 13-2.5 8-.6 10.1-1.3 19.2-5.6 5.6-2.7 12.1-5.3 14.5-5.7 2.3-.5 6.5-2.1 9.3-3.5 2.7-1.5 6.6-2.7 8.5-2.7 1.9-.1 6-1.4 9-3 3-1.7 6.1-3 6.9-3 4 0 16.4-5.2 20.1-8.5 1.4-1.2 5.4-3.4 9-5 3.6-1.5 8.2-3.9 10.2-5.2 2.1-1.3 7.3-3.7 11.5-5.4 4.3-1.7 8.3-3.5 9-4.1.7-.5 4.1-1.2 7.5-1.5 4.3-.3 7.5-1.3 10-2.9 2.1-1.3 4.6-2.4 5.6-2.4s3.3-1.1 5.1-2.4c4.6-3.4 29.6-15.6 32-15.6 1 0 3.3-1.1 4.9-2.5 1.7-1.4 3.9-2.5 4.9-2.5 1.1 0 3.9-1.4 6.3-3.1 2.4-1.8 6.6-3.8 9.4-4.5 3.3-.9 5.7-2.3 7.3-4.2 1.3-1.8 4.9-4 9-5.7 16.7-6.8 29.6-14.1 36.2-20.5 2.8-2.7 5.8-5 6.6-5 .9 0 4.2-2.5 7.5-5.5s6.4-5.5 7-5.5c.5 0 4.4-2.8 8.7-6.3 11.7-9.5 24.5-18.7 26-18.7 1.8 0 5.7-4.2 9.9-10.8 1.9-2.8 3.7-5.2 4.2-5.2.4 0 4.1-4 8.1-9 4.1-4.9 8.4-9.6 9.7-10.5 1.3-.8 4.3-4.6 6.8-8.5 2.6-3.9 7.6-9.9 11.2-13.3 3.7-3.4 7.5-8 8.5-10.2 3.5-7.3 14.4-24.3 17.9-27.8 1.9-1.9 6-6.5 9-10.3 3-3.7 10.7-12.1 17-18.5 6.3-6.4 12.9-13.3 14.5-15.4 1.7-2 4.6-5.2 6.5-7.2 5-5 10.5-12.9 13.5-19.3 1.4-3 3.3-6.3 4.3-7.3 2.3-2.6 5.6-8 9.7-16.2 4-8 7.4-13.5 9.6-16.2 2.1-2.5 5.9-10 5.9-11.8 0-.8 1.5-2.1 3.4-2.9 2.8-1.2 3.6-2.3 4.9-6.4 1.6-5.5 5.3-11.9 10.6-18.5 1.9-2.3 4.5-6 5.9-8.2 1.4-2.2 5.3-7.2 8.7-11 5.6-6.4 8.5-10.2 19.2-25.3 2.1-3 5.5-7.4 7.6-9.9 2.1-2.5 5.3-6.8 7.2-9.6 5-7.4 7.9-11.2 11.4-15.3 1.7-1.9 3.1-4.1 3.1-4.8 0-.8 1.8-4.6 4-8.5 2.2-3.9 4-7.3 4-7.5 0-.7 10.5-16.5 13.1-19.7 1.1-1.4 2.4-4.1 2.9-6 1.2-4.8 5.6-16.4 8.5-22.4 1.3-2.8 2.9-6.8 3.5-9 .7-2.2 2.1-5.7 3.1-7.7s1.9-4.4 1.9-5.3c0-.8 1.7-3.4 3.8-5.8 5.5-6 14.1-26.1 16.7-38.9.3-1.4 1.6-4 3-5.6 2.9-3.5 6.3-13.4 7.2-20.7.3-2.8 1.4-6.6 2.3-8.5.9-1.9 2-5.8 2.4-8.5.6-4.7 1.3-8.6 3.5-18.8.5-2.3 1.6-6.4 2.5-9.1.9-2.7 1.6-6.3 1.6-7.9 0-1.6.9-6 1.9-9.6 1.1-3.6 2.5-12 3.1-18.6 1.4-14.8 3.6-27.9 5.1-30.6.6-1.1.8-3.7.4-5.8-.3-2 .3-10.6 1.4-19.1 1.7-13.1 1.9-18.2 1.2-33.5-1.2-29.6 1.4-75.5 4.8-83.8.6-1.6 1.8-6.3 2.7-10.5.8-4.3 2.3-9.3 3.3-11.2 1.8-3.5 4.8-25.1 5-35.5.5-38.1 1.3-53.3 3.1-65.5 1.2-7.4 2.5-18 3-23.5s1.6-12 2.6-14.5c.9-2.5 1.8-7.6 1.9-11.4.5-11 1.6-19.7 3-23 2.8-6.5 5.2-57.1 3.5-74.1-1.8-18.4-2.9-39.7-3.5-66.4-.3-13.9-.7-25.7-1-26.1-.3-.5-.6-5.5-.7-11.2 0-5.7-.5-11.1-1-12-1.2-2.3-1.7-26.6-.6-29.6 1.6-4.6-1.8-37.2-4.4-42.5-1.1-2.1-2.5-13.6-3.9-30.2-1.9-23.9-2.5-29-3.6-31-.6-1.1-1.9-5.6-2.8-9.9-.9-4.4-2.2-9.1-2.9-10.5-1.5-2.9-3.2-11.4-4.2-20.6-.5-5.5-1.7-9.3-9-28-3.2-8.5-6.1-19.9-6.9-27.8-.4-3.8-1.3-8.4-2.1-10.3-.8-1.8-1.4-4.8-1.4-6.6 0-4-3.9-12.6-6.9-15.2-1.2-1.1-2.1-3.1-2.1-4.7 0-1.5-.3-3.5-.6-4.4-1.1-2.7-9.4-6.2-16.6-6.9l-6.7-.7-4.5 4.1zm12.2 59.1c.7 4.1 1.6 9.6 2.1 12.4.4 2.7 1.8 7.1 3 9.7 3.6 7.8 8.9 26.4 9.6 33.6.9 9.6 3.6 21.1 6.2 26.5.8 1.6 1.6 6.4 1.8 10.7.2 4.4.8 8.8 1.4 9.8 1.3 2.5 3.1 20.2 3.1 31.6.1 5 .5 10.9 1 13.1.4 2.2 1.6 7.4 2.5 11.5 5.1 23.3 5.7 28.4 5.6 53-.1 11.8.4 24.2 1 27.5.6 3.3 1.3 16.8 1.5 30 .6 35.5 1.1 47.2 2 48.6.4.7 1.1 9.2 1.5 18.8.5 13.3.3 19.2-.7 24.1-.8 3.7-1.4 12.9-1.4 21-.1 13.2-1 23-4 42.5-.6 3.8-1.8 12.2-2.6 18.5-.8 6.3-2.2 13.7-3 16.5-1.9 6.5-3.1 18.1-4.4 43.5-2.7 52.3-4.1 70.9-5.6 77-.8 3.6-1.9 9.4-2.4 13-.5 3.6-1.3 7.6-1.8 9-.9 2.2-2.7 13.7-6.1 40-.5 3.6-.9 16.8-1 29.5-.1 41.7-1.5 62.7-4.8 72.8-.8 2.7-1.3 5.7-1 6.8.3 1-.1 4.5-.9 7.7-.7 3.1-1.4 8.2-1.4 11.2s-.5 7.3-1.1 9.5c-.6 2.2-1.5 6.5-2.1 9.5-3.3 18.2-6.1 28.9-9.7 37.3-1.2 2.7-2.1 6-2.1 7.3 0 1.4-.9 4.2-2 6.3-3.1 6.1-5 12.3-5 16.3 0 3.2-1.1 6.3-4.2 11.8-1.6 3-2.7 5.6-4.4 11.5-2.8 9.6-6.1 17.3-9.7 22.8-5 7.6-12.2 23.1-15.1 32.2-1.4 4.4-4.6 11.1-7.1 15-2.5 3.8-4.5 7.7-4.5 8.6 0 .9-.7 2.3-1.7 3-.9.8-2.5 3.3-3.5 5.6s-2.3 4.5-2.9 4.8c-.5.4-2.5 3.7-4.5 7.3-1.9 3.7-6.1 11.8-9.4 18-3.3 6.3-7.6 13.3-9.7 15.6-2.1 2.2-5.8 7-8.3 10.4-2.5 3.5-7.7 10.3-11.6 15-3.9 4.8-8.1 10.5-9.4 12.7-1.3 2.2-4.3 6.5-6.7 9.5-2.3 3-5.7 7.4-7.5 9.8-1.8 2.4-5.6 6.9-8.4 10.1-2.9 3.2-6.6 8.9-8.4 12.7-1.8 3.8-4.4 8.3-5.6 10-1.3 1.7-3.7 5.9-5.4 9.5-1.7 3.5-4.2 8.2-5.5 10.4-1.4 2.2-3 5.1-3.7 6.5-.7 1.4-2.7 4.3-4.5 6.6-1.8 2.2-4.2 6-5.2 8.5-1.1 2.4-4.4 6.9-7.4 10-2.9 3.1-7.1 8.6-9.2 12.4-2.1 3.8-6.9 9.9-10.9 13.9-3.9 3.9-10.3 10.6-14.2 14.7-3.9 4.2-8.8 9-11 10.5-9.3 6.9-22.3 23.2-29.7 37.4-2.7 5.2-5.9 10.8-7.2 12.5-1.2 1.6-3 4.7-3.9 6.7-1 2-3.9 5.9-6.4 8.5-2.6 2.7-6 6.8-7.6 9.1-1.6 2.3-4.9 6-7.5 8.2-6.9 6-7 6.2-11 11.1-4.5 5.6-16.6 16.7-25 22.9-3.4 2.5-8.7 6.6-11.9 9.2-3.1 2.6-6.3 4.8-7 4.8-.8 0-3.7 2.4-6.7 5.2-2.9 2.9-7.9 7.2-11.1 9.4-8.8 6.2-24.6 15.1-28.9 16.3-2.1.5-4.8 2-6 3.1-3.7 3.5-15.4 10.8-24 14.9-4.4 2.1-10.3 5.4-13.2 7.2-12.2 8-14.5 9.1-19.8 9.8-3 .4-6.3 1.5-7.3 2.4-1 .9-2.3 1.7-2.9 1.7-.6 0-2.1.8-3.4 1.8-3 2.2-14.4 7.2-16.7 7.2-.9 0-3.7 1.4-6.1 3-2.4 1.7-5.4 3-6.5 3-1.2 0-3 .6-4.1 1.4-1.1.7-6.9 3.3-13 5.6-6 2.3-12.8 5-15 6.1-2.2 1-5.9 2.3-8.3 2.9-2.3.6-5.7 2.4-7.6 4-1.8 1.7-3.8 3-4.3 3s-4.6 1.8-9.1 4c-4.4 2.2-9.1 4-10.4 4-2.4 0-9.9 2.2-15.6 4.6-1.8.8-4.6 1.4-6.2 1.4-4.4 0-7.8 1.6-11.4 5.5-2.2 2.3-4.2 3.5-6 3.5-1.5 0-3.9.6-5.4 1.4-1.5.7-4.5 1.6-6.7 2-2.2.4-6 1.4-8.4 2.2-2.4.8-5.6 1.2-7 .9-1.4-.3-4.8-.1-7.6.5-2.7.6-9.3 1.9-14.6 2.9-5.3 1-11.2 2.6-13 3.8-1.9 1.1-5.5 2.3-8.1 2.6-2.5.3-6.7 1.8-9.3 3.2-2.7 1.4-5.6 2.5-6.7 2.5-1 0-5.2 1.6-9.2 3.5-4.1 1.9-8.3 3.5-9.3 3.5s-2.9.7-4.1 1.6c-1.2.8-4.6 2-7.5 2.5-8.6 1.6-28.9 2.6-31.8 1.6-1.8-.7-5.4-.4-12.5.9-7 1.3-14.3 1.9-24.9 1.9-8.2 0-15.7.4-16.5 1-1.3.8-15.3 1.2-57.3 1.4-10.3.1-14.7.5-17.5 1.7-3.8 1.6-15.1 3.1-30.2 3.8-4.7.2-16.8.9-27 1.5-13.5.8-19.8.8-23.5 0-2.7-.6-9.4-1.5-14.7-1.9-5.4-.5-10.6-1.3-11.5-1.9-1-.5-6.5-1.2-12.3-1.6-7.4-.5-11.1-1.3-13-2.5-1.4-1-6.1-2.3-10.5-3-4.4-.6-10.9-1.6-14.5-2.2-3.6-.5-20.7-1.1-38-1.3-18.6-.1-33.8-.7-37.2-1.4-3.1-.7-11-1.6-17.5-2.1-6.5-.4-15.6-1.5-20.3-2.4-13.8-2.6-19.8-3.4-33.5-4.6-7.1-.6-16.1-1.8-20-2.7-3.8-.8-11.7-2.2-17.5-3-5.8-.8-13.6-2.4-17.5-3.5-15.2-4.3-21.1-6.2-24.5-7.8-1.9-1-5.9-2.3-8.9-3-3-.7-8.2-2.5-11.5-4-3.4-1.5-7.4-3-9.1-3.4-4.3-1-15.5-6.5-18.8-9.3-1.6-1.3-3.5-2.3-4.2-2.3-.8 0-2.9-.9-4.8-2-1.8-1.1-5.8-2.8-8.8-3.9-16.3-5.8-18.8-6.8-20-7.8-.8-.6-4.1-2.3-7.4-3.7-3.3-1.5-7.3-3.4-9-4.3-1.6-.9-6.1-3.4-10-5.5-3.8-2.1-9.2-4.9-12-6.1-2.7-1.3-5.6-3.1-6.3-4-.7-.8-3.9-2.3-7-3.2-3.1-.9-6.9-2.3-8.4-3.1-1.4-.8-3.8-1.4-5.2-1.4-3.4 0-10.9-2.5-17.6-5.9-3-1.6-7.1-3.2-9-3.6-1.9-.4-4.5-1.6-5.6-2.7-2.8-2.5-17.3-9.8-19.6-9.8-1 0-4-1.3-6.6-3-2.7-1.7-5.5-3-6.2-3-.7 0-2.8-1.4-4.7-3-1.8-1.7-4.1-3-5.1-3-.9 0-4.8-2.5-8.6-5.5s-7.5-5.5-8.2-5.5c-.7 0-2.3-1.3-3.6-3-1.2-1.6-3.1-3.3-4.2-3.6-3.2-1-14.1-9-27.7-20.2-13.9-11.4-19.6-15.9-25.1-19.6-3.1-2.1-11.4-9.5-18.5-16.4-7-6.8-14.2-13.1-16-13.8-1.8-.8-3.6-2-4-2.8-.4-.7-3.5-3.5-6.8-6.2-6.8-5.6-9-7.5-18.5-15.9-3.7-3.3-8.1-6.9-9.8-8-10.6-7-36.4-31.4-39.7-37.5-.7-1.4-4.2-5.3-7.6-8.8-8.7-8.6-10.9-11-14.4-15.7-1.6-2.3-5.2-6.6-7.9-9.8-5-5.7-8.3-10.7-10.9-16.2-.8-1.7-2.2-3.7-3.2-4.5-1.9-1.5-6.1-7.7-8.2-12-.7-1.4-1.7-3.2-2.2-4-.6-.8-4-7.8-7.7-15.5-6.6-14.1-17.7-31.7-24.4-39-1-1.1-2.5-3.7-3.4-5.7-.8-2.1-1.9-3.8-2.5-3.8-.6 0-1.9-1.9-2.9-4.2-1.1-2.4-4.3-6.5-7.1-9.3-2.8-2.7-5.1-5.7-5.1-6.6 0-2.5-5-13.1-7.5-15.9-1.3-1.4-4.8-7.5-7.9-13.5-3.2-6.1-6.5-11.7-7.6-12.5-1-.8-2.5-3.3-3.4-5.4-.9-2.1-3.3-6.4-5.5-9.5-4.6-6.8-9.1-15.1-9.1-16.9 0-1.6-4.8-11.2-6.7-13.4-.8-.9-2.5-4.8-3.8-8.6-2.7-7.9-5.9-14.7-7.5-15.7-.5-.3-1-1.7-1-2.9 0-1.3-.9-3.5-2-4.8-1-1.4-2.7-4.7-3.6-7.3-.9-2.6-3.6-8.4-6.1-12.9-2.4-4.5-5-9.7-5.8-11.6-4.7-12.7-6.6-17.2-9.9-22.4-2-3.3-3.6-7.1-3.6-8.5 0-1.5-1.2-5.8-2.6-9.6-1.4-3.9-3.4-9.8-4.3-13.2-1-3.4-3-7.6-4.4-9.3-1.6-1.8-2.7-4.4-2.7-6 0-1.6-1.1-5.5-2.5-8.6-1.4-3.1-2.5-6.6-2.5-7.8 0-1.2-.7-3.1-1.5-4.2-.8-1-1.5-3.4-1.5-5.2 0-1.8-.5-4.2-1-5.2-.6-1.1-1.7-5-2.5-8.7-2.3-11.2-4.2-18.6-5.4-21.6-.6-1.6-1.1-4.1-1.1-5.7 0-1.6-.6-4.7-1.4-6.7-.7-2.1-1.8-6.1-2.4-8.8-3.2-15.1-6.4-25.8-8.4-28.3-.7-.7-1.5-4.8-1.9-9-.4-4.2-1.7-11.3-2.9-15.7-2.5-9.2-4-17.7-7-39-.6-4.4-1.3-8.7-1.7-9.5-.3-.8-.7-10.7-.8-22-.2-11.3-.8-33.1-1.4-48.5-.6-15.4-.9-36.6-.8-47 .2-12.6-.1-21.7-1-27-1.1-6.1-1.2-14.9-.7-37.5.3-16.2.7-35.8.9-43.5.1-7.7.7-18.7 1.3-24.5 1.7-16.1 3-27.8 4.1-36 .6-4.1 1.3-9.5 1.6-12 1.9-14.5 3.1-45.8 2.4-59.5-.6-10.6-.4-21.8.6-38 1.6-24.5 2-33.2 3.5-76.5.9-26.6 1.1-28.1 4.9-44.6 2.1-9.5 4.6-18.2 5.5-19.5.9-1.3 1.6-3.3 1.6-4.5 0-1.1.9-4.7 2-7.9s2-6.8 2-8c0-1.3.7-2.8 1.5-3.5 1.1-.9 2.7 0 8.7 5.5 4 3.7 9.6 9.1 12.4 11.9 2.9 2.8 6.8 6.4 8.8 8.1 2 1.6 4.3 4.4 5 6.1.8 1.7 2.9 4.1 4.7 5.4 1.9 1.2 6.3 5.3 9.9 8.9 7.3 7.5 16.1 14.9 23.5 20.1 2.8 1.9 7.1 5.6 9.7 8.2 2.5 2.6 5.1 4.8 5.6 4.8s3.5 2 6.7 4.4c3.1 2.5 7 4.8 8.6 5.1 1.6.4 3.3 1.3 3.7 2.1.5.8 2 2.3 3.4 3.2 9.2 6 15.1 10.3 21.1 15.2 3.8 3 8.4 6.7 10.4 8.2 1.9 1.5 5.5 4.5 7.9 6.8 2.4 2.2 4.8 4 5.3 4s7.3 6.3 15.2 14c7.9 7.7 15 14 15.6 14 .7 0 1.9 1.3 2.8 3 .9 1.6 1.9 3 2.4 3 .4 0 2.2 2.2 4 5 1.9 3 4.2 5.2 5.7 5.6 1.3.3 3.9 2.3 5.7 4.4 1.7 2 5 4.9 7.3 6.3 4.8 3 12 10.8 14.3 15.6 1 2.2 3.2 4.1 6.5 5.8 4.1 2.1 5.6 2.3 9.9 1.8 4.2-.6 5.8-1.4 8.4-4.3 3.1-3.4 5.3-8.5 5.3-12.4 0-1 1-2.3 2.2-2.9 1.3-.6 3.4-2.2 4.8-3.6 4.4-4.2 9.4-8 13-9.8 4.6-2.3 9.3-6.1 13.8-11 7-7.7 15.7-15.6 20.5-18.7 2.6-1.7 4.7-3.5 4.7-4 0-1.7 8.6-9.1 17.2-14.9 4.9-3.2 9.2-5.9 9.6-5.9.8 0 15.4-8.5 19.6-11.5 1.6-1.1 5-3.9 7.5-6.2 6-5.5 15.6-12.9 25.9-19.9 4.5-3.1 8.2-5.9 8.2-6.4 0-.4 1.8-1.9 4.1-3.4l4-2.7 3.2 2.6c4.7 3.8 23 15.5 24.3 15.5.6 0 2.8 1.3 4.9 3 2 1.6 6.1 4.1 9 5.4 2.8 1.4 5.7 3.2 6.4 4 .7.8 2.9 2 4.9 2.7 2 .7 5 2.2 6.5 3.5 1.6 1.3 3.4 2.4 4.1 2.4.8 0 4.4 2.1 8.2 4.6 3.8 2.6 7.8 5 8.9 5.4 1.1.5 3.5 2 5.4 3.4 1.9 1.4 4.2 2.6 5.2 2.6.9 0 3.3 1.3 5.4 3 2.1 1.6 4.1 3 4.5 3 .4 0 2.4 1.3 4.5 3 2.1 1.6 4.7 3 5.9 3 2.7 0 16.6 7 21.4 10.8 3.5 2.8 11.9 7.9 17.2 10.4 1.4.6 4.1 2.6 6 4.3 3.4 3.1 20.1 13.5 21.6 13.5 1.1 0 8.4 4.9 11.4 7.6 1.4 1.3 4.2 3 6.2 3.8 2 .9 6.3 3.4 9.4 5.6 3.2 2.2 6.3 4 7 4 .6 0 3.6 1.8 6.5 4 3 2.2 5.9 4 6.6 4 2 0 14.7 6.6 16.2 8.4.7.9 3.1 2.1 5.2 2.6 2.2.6 5.5 2.2 7.5 3.5 2 1.3 4.5 2.7 5.7 3.1 1.2.3 3.6 1.9 5.2 3.4 5.5 5.2 12.8 9.8 26.9 17 16.3 8.2 16.2 8.2 16.9 11.9.9 4.6 6 7.1 14.3 7.1 10.1 0 20.5-1.8 23.4-3.8 1.4-1 3.4-3.4 4.5-5.2 1.8-3 8.8-10.9 16.7-19 1.5-1.5 3.5-4.6 4.4-6.9 1.2-3 3.6-5.8 7.8-9.2 8.2-6.5 8.1-6.4 16.1-15.9 6.5-7.7 10.8-11.4 17.6-15 1.6-.9 3.6-2.5 4.4-3.8 2-2.7 9.8-8.2 11.9-8.2 2.4 0 14.5-12.3 15.8-16.1 1.4-4.2 7.3-11.6 10.7-13.4 1.4-.8 4.6-3.3 7.1-5.7 2.5-2.3 5.7-4.9 7.1-5.8 8.5-4.9 15.1-10.4 29.6-24.8l16.2-16 4.7 1.4c2.6.8 5.5 2 6.3 2.8 2.3 2 7.2 4.2 10.6 4.9 3.3.6 28.7 12.7 31.9 15.2 1.1.8 2.8 1.5 3.8 1.5 2.3 0 16.4 6.6 20.3 9.5 4 3 19.6 10.5 21.8 10.5 1 0 2 .7 2.4 1.5.6 1.8 7.4 5.5 9.9 5.5 1 0 2.5.6 3.3 1.4.9.8 4.5 2.6 8.1 4 10.2 4.2 19.6 8.6 28.5 13.4 8.1 4.3 18.4 9.2 19.5 9.2.6 0 3.8 1.3 7.3 2.9 3.4 1.6 9.5 4.1 13.5 5.7 4.1 1.5 9.7 4.3 12.5 6.1 2.9 1.9 6.3 3.6 7.7 4 1.4.3 4 1.9 5.8 3.5 1.8 1.5 4.1 2.8 5.2 2.8 1.1 0 3.4.9 5.2 2 1.8 1.1 4 2 4.9 2 .9 0 4.3 1.4 7.5 3.1 3.2 1.8 9.4 4.4 13.6 6 4.2 1.5 11.2 4.5 15.5 6.7 7.5 3.9 22.1 11.1 38.3 18.8 4.1 2 11.3 5.6 15.9 8 4.7 2.4 9.3 4.4 10.3 4.4 1.1 0 3.6 1.1 5.6 2.5 2.3 1.6 5.1 2.5 7.5 2.5 2.4 0 4.9.8 6.4 2 1.4 1.1 3.6 2 5 2 3 0 14 3.7 16.7 5.6 1.1.8 2.9 1.4 3.9 1.4s3 .9 4.4 2c1.8 1.4 4.1 2 7.8 2 4.4 0 5.9-.5 9.7-3.4 5.2-4 5.8-5.1 5.8-11.3 0-4.5.1-4.6 13.6-17.7 7.5-7.2 14.5-13.4 15.5-13.8 1-.4 6-4.2 11-8.5 5.1-4.2 10.5-8.6 12-9.8 1.5-1.1 6.1-4.5 10.1-7.5 8.5-6.4 12-8.9 15.7-11 3.3-1.9 14.1-12.5 14.1-13.8 0-.6 8.6-9.6 19.2-20.1 13.4-13.3 19.9-19.1 21.5-19.1 1.9 0 4.8 2.4 17.8 14.9 1.1 1.1 4.3 4.5 7 7.5 2.8 3.1 7.7 8.4 11 11.9s8.9 9.8 12.5 14.1c3.6 4.2 8.7 10 11.4 12.9 2.7 2.9 5.6 6.3 6.5 7.7 1.6 2.6 12.1 12.5 25.1 24 14 12.3 22.5 20.4 23.8 22.7.7 1.3 1.7 2.3 2.1 2.3 1.1 0 19.1 14.5 21.1 17 2.4 3 10.3 8 12.7 8 1.2 0 3.2 1.3 4.5 3.1 2.5 3.1 7.6 5.4 14.7 6.5 3.8.6 4.3.4 7.7-3.5 2-2.2 4.1-3.8 4.6-3.5 4.2 2.6 17-6.9 18.9-13.9.6-2.3 2.7-5.6 5.3-8.1 2.3-2.2 5.2-6.1 6.5-8.6 1.3-2.5 3.1-5.4 4.1-6.5 1-1.1 2.7-3.8 3.8-6 1.1-2.2 4.4-6.5 7.4-9.5 3-3.1 6.7-7.4 8.1-9.5 3.1-4.9 7.5-9.7 11-11.9 1.4-1 2.9-2.7 3.3-3.9.3-1.1 2.1-4.1 3.9-6.6 3.9-5.5 7.5-12.5 7.5-14.5 0-.8 2.5-3.9 5.5-6.8 3.1-2.9 6.7-7.5 8.1-10.2 1.3-2.7 3.7-6.5 5.3-8.5 1.5-2 4-5.6 5.5-8.1s5.1-7.9 8.2-12c3-4.1 6.2-8.8 7.2-10.4.9-1.6 3.1-4.7 4.7-7 1.7-2.2 4.3-6.6 5.9-9.6 1.6-3 4.8-7.6 7.2-10.2 2.4-2.6 4.4-5.3 4.4-5.9 0-.7 2.6-4.4 5.8-8.3 3.2-3.9 7.5-9.8 9.6-13.1 2-3.3 5.3-8.5 7.2-11.5 1.9-3 5.3-9 7.4-13.2 2.2-4.3 6.1-9.9 8.6-12.5 2.6-2.7 5.9-7.3 7.3-10.3 2.9-5.9 4.9-9.1 13.6-21 3-4.1 6.9-10.2 8.6-13.5 4.7-8.9 15.8-25.4 17.9-26.5 1-.5 2.2-2.3 2.8-3.8.5-1.6 2.5-5 4.3-7.5 1.9-2.5 4.5-6.2 5.9-8.2 1.4-2.1 4.1-5.6 6-7.9 2-2.2 4.7-5.9 6.1-8.1 1.4-2.2 3.8-5.9 5.3-8.3 1.5-2.4 3.3-4.5 4.1-4.8.7-.3 3.2-3.7 5.5-7.5 2.3-3.9 4.7-6.8 5.3-6.6.6.2 1.7 3.7 2.5 7.8z"/></g></svg>