<svg version="1.0" xmlns="http://www.w3.org/2000/svg" width="2261.636" height="1681.812" viewBox="0 0 1696.227 1261.359"><g fill="#fff"><path d="M383.193.383c-6 .4-12.6 1.2-14.5 2-1.9.7-6.6 1.6-10.5 2-3.8.5-9.2 1.3-12 1.9-2.7.6-9 1.5-14 2.1-4.9.5-12.6 1.5-17 2.1-5.8.8-10.3.8-16.5 0-6.1-.8-12.8-.9-23.5-.1-8.3.5-27.5.7-43 .4-25.2-.6-28.6-.8-34-2.8-5.8-2-7.6-2.1-46.5-2.1-22.3 0-44.1.1-48.5.2-4.4.1-16.1.1-26 .1-9.9 0-20.9.4-24.5 1-3.6.6-8.9 1.5-11.8 2-2.9.5-5.8 1.4-6.4 2-.7.7-2.9 1.2-5.1 1.2-5.4 0-7 1.1-17.4 11.7l-9.3 9.3v5.8c0 4.2.7 6.8 2.4 9.9l2.4 4.2-1.9 18.3c-1.1 10.1-2.2 27.3-2.5 38.3-.2 11-.8 23.6-1.3 28-.5 4.4-1.2 20.4-1.5 35.5-.5 22.5-.4 28.4.8 32.5 1.8 6 1.8 8.8 1.1 49.5-.9 49.1-.9 49.8.2 63.1.7 8 1.7 13.8 2.8 15.9 1.3 2.5 1.5 4.8 1.1 10.4-1.4 16.8-1.7 42.9-.7 55.1.6 7.1 1.2 19.5 1.2 27.5.1 8 .8 21.2 1.6 29.5.8 8.2 1.2 18.6.9 23-.3 4.4-.1 12.3.5 17.5 2.2 20.7 2.9 29.3 4.4 50 .8 11.8 2 24.9 2.6 29 .7 4.1 1.1 11.2 1 15.7-.9 45-.3 103.6 1 107 1.2 3 2.5 24.4 3.7 57.8.5 13.3 1.2 21.8 2 23.2.7 1.2 1.2 5.8 1.2 10.5 0 6.5.4 9 2 11.6 1.9 3 1.9 3.9.9 12-3.3 24.8-4.4 42.7-3.4 51 .6 5.2 1 5.8 10 14.8 6.8 6.8 10.6 9.8 13.7 10.8 3.3 1.2 10.2 1.5 29.8 1.6 40.8.1 52.7.9 65 4 2.5.6 7 1.5 10 1.9 3 .4 6.8 1.3 8.3 1.9 1.6.7 4.1 1.2 5.7 1.2 3.6 0 5 2.3 5 8.3 0 3.1.8 5.6 2.5 8.2 2.6 3.7 2.6 3.9 2.6 24.4.1 17.8.4 21.2 2 24.9 1.7 4 1.9 7 1.7 31-.1 21.5.2 28.8 1.6 37.7 1.4 8.3 1.8 16.2 1.8 31.7-.1 21.1.6 26.6 4.2 30.8.8.9 1.6 5.4 2 11.4.4 5.4 1.1 10.7 1.6 11.7.6 1 1 5.3 1 9.6s.5 9.4 1 11.3c.6 1.9 1.2 10.8 1.5 19.7.2 9 .7 16.8 1.2 17.5.4.7 1.1 3.8 1.5 6.8.4 3 1.2 8.4 1.8 12 .8 4.9.8 7.8-.1 11.7-1.4 6.2-.7 23.9 1.5 35.3 1.2 6.3 2 7.9 4.8 10.3 1.8 1.5 4.7 3.5 6.5 4.3 5.5 2.4 19.5 1.6 28.1-1.7 2.8-1.1 6.1-8.1 6.2-13 0-2.3.7-4.2 2.1-5.5 1.1-1 3.2-4.3 4.6-7.3 1.5-3 4.3-7.3 6.3-9.6 2.1-2.2 4.3-5.2 5.1-6.7 7.7-14.9 13.9-27.7 13.9-29 0-.9 1.1-4 2.5-7 1.4-2.9 2.5-6 2.5-6.8.1-.8 1.1-3.3 2.3-5.5 1.2-2.2 4.6-8.9 7.6-14.8 2.9-6 7.1-12.9 9.2-15.3 2.1-2.5 3.9-5.4 3.9-6.4s1.5-4 3.3-6.5c5.3-7.7 8.6-12.8 10.4-16.5 1-1.9 2.9-5.1 4.3-7 3.8-5.2 10-15.6 10-16.9 0-.6 2-3.3 4.5-6.1s4.5-5.8 4.5-6.8c0-2.1 7.4-16.6 10.5-20.8 2.7-3.6 7.5-13.9 7.5-16.1 0-.8.9-2.6 2-4s2-3.9 2-5.4c0-1.6.8-3.6 1.9-4.5 7.2-6.2 8.1-7.3 8.1-10.8 0-2 1.2-6 2.7-8.8 3.4-6.8 3.9-7.7 6.3-11.3 1.1-1.7 2-4 2-5.1 0-2.7 4.4-10.8 8.3-15.3 1.6-1.8 3.4-4.5 4-6 .7-1.4 2.6-4.5 4.3-6.8 1.8-2.3 3.5-6.1 3.9-8.3.7-4.4 1.1-5 10.6-19.5 3.2-5 5.9-9.5 5.9-10.2 0-.7 1.1-2.9 2.5-4.9 1.4-2 2.5-4.3 2.5-5.1 0-.8 1.1-3.1 2.5-5.1 1.4-2 2.5-4.1 2.5-4.7 0-.6 2.4-3.4 5.3-6.2l5.2-5.2 14.5-2.2c8-1.1 18.1-2.1 22.5-2 19.8.3 25.7.2 36-.3 6.2-.4 18.3-.1 27.5.6l16.5 1.3.5 5.2c.3 2.9 1.1 5.8 1.8 6.5.6.6 1.2 2.1 1.2 3.3 0 1.1.8 3.2 1.7 4.5 1.3 1.9 1.7 4 1.5 8.5-.3 5.4-.1 6.4 2.6 9.7 1.6 2.1 3.5 5.2 4.2 7 .6 1.8 1.6 4.3 2.1 5.5.4 1.2 2.6 3.1 4.7 4.2 2.6 1.3 4.4 3.2 5.7 6 1.1 2.5 3.9 5.7 7.3 8.3 3 2.3 6.6 6 7.9 8.1 4.1 6.5 22.9 26 29.8 31 2.1 1.5 4.6 2.7 5.7 2.7 1.7 0 8.5 5.4 17.3 13.8 2.2 2.1 5.2 4.6 6.7 5.5 1.5.9 4.4 3.4 6.5 5.6 4.8 4.9 7.2 6.1 12.1 6.1 3.2 0 4.8.8 9.6 5 3.1 2.8 6.2 5 6.7 5s3.1 2 5.7 4.4c5.9 5.4 8.1 6.6 12.7 6.6 2.2 0 4.9.9 6.7 2.1 1.6 1.2 4.8 2.6 7.1 3.1s6.9 2.2 10.3 3.9c3.4 1.6 7.4 2.9 8.9 2.9s3.8.9 5.2 2c1.5 1.2 4.1 2 6.2 2 2.1 0 4.1.4 4.6.9 2.4 2.3 13.8 5.1 20.5 5.1 3.9 0 8 .5 9.1 1 2 1.1 10.2 2.5 23.7 4 4.5.5 8.8 1.3 9.5 1.7.6.4 3.7 1.1 6.7 1.5 11.1 1.5 13.5 2.1 16 4 2 1.6 3.8 1.9 9.5 1.7 10.6-.4 27.7 1.2 30 2.7 1.3.9 4.8 1.4 10 1.4h8l8.5 9c7.8 8.3 8.8 9 12.3 9 3.2 0 4.4.6 7 3.6 1.8 1.9 4.8 4.5 6.7 5.7 1.9 1.1 5 3.8 6.8 5.8 1.8 2.1 6.3 5.8 10 8.3 3.7 2.5 10.3 8 14.7 12.3 4.4 4.3 9.8 8.9 12 10.3 2.2 1.3 5.5 3.6 7.3 5.2 1.8 1.5 3.9 2.8 4.8 2.8.8 0 2.7.8 4.2 1.9 7.6 5.2 12.7 8.1 14.4 8.1 3.2 0 7.7 2.9 9.3 6 1.7 3.3 4.3 5 7.4 5 1.2 0 4.9 1.9 8.2 4.3 8.4 5.8 19.2 12.6 20.2 12.7.5 0 2.7 1.5 5 3.4 2.3 1.8 7.1 4.8 10.7 6.6 3.6 1.8 8.6 5.2 11.2 7.6 2.6 2.4 5.3 4.4 6 4.4.7 0 3.1 1.4 5.2 3 2.2 1.7 4.5 3 5.3 3 .7 0 3 1.6 5.2 3.5 2.1 1.9 6.3 4.6 9.2 6 7.8 3.7 12.5 7.4 15.7 12.5 1.6 2.5 3.7 5.2 4.7 6 4 3.3 28.7 4.5 34.3 1.6 1.8-.9 4.9-4.3 7.2-7.8 3.2-4.9 4-7.2 4-10.7 0-2.6.7-5.5 1.5-6.5 1.9-2.6 1.9-11.5 0-14.2-1.2-1.8-1.4-6.9-1.1-31.2.3-16.2.9-29.8 1.4-30.9.9-1.6 1.7-33.8 1.7-69.3v-12.5l4.5-.5c2.5-.3 5.2-1 6-1.5.8-.5 6.5-1.3 12.5-1.7 14.9-.9 25.1-2.6 30.3-4.9 2.3-1 8.6-2.4 13.9-3 5.4-.6 10-1.2 10.4-1.5.3-.2 9.8-.6 21-.9 34-.9 43.4-1.4 48-2.4 2.4-.6 9.2-1.1 15.1-1.1 9.9 0 10.9-.2 13.6-2.5 1.7-1.4 3.8-2.5 4.8-2.5 1.1-.1 3-.7 4.4-1.5 1.4-.8 4.3-1.4 6.6-1.5 2.2 0 7.6-.9 11.9-2 4.3-1.1 9.1-2 10.7-2 1.6 0 4.3-.7 5.9-1.6 1.7-.8 7-1.9 11.9-2.4 4.8-.5 11.4-1.6 14.6-2.5 3.2-.8 7.3-1.5 9.1-1.5 1.8 0 7.6-1.6 13-3.6 5.3-2 12.6-4 16.2-4.4 3.6-.4 8.6-1.5 11.1-2.5 2.5-.9 6.5-2.2 9-2.9 5-1.5 13.5-6.8 14.4-9.1.3-.8 1.3-1.5 2.2-1.5.9 0 4.6-1.7 8.2-3.8 3.5-2 7.6-4.3 9.1-5.1 1.4-.7 3.5-2.1 4.6-3.1 1.1-1 3.4-2.5 5-3.3 2.8-1.4 8.7-6.3 20.5-16.6 10.1-8.9 12.6-10.9 15.8-12.5 1.8-.9 4.1-2.9 5-4.5 1.9-3.1 9.9-13 18.8-23.5 5.4-6.3 11.4-16.9 11.4-20 0-.6 1.8-3.6 4-6.6 2.2-3 4.8-7.1 5.8-9 .9-1.9 2.7-4.9 3.8-6.5 1.2-1.7 3-5.1 4.1-7.6 1.1-2.5 3.7-6.9 5.8-9.9 2.1-3 4.6-7.7 5.6-10.5 2-5.7 8.6-19.2 10.5-21.5.6-.8 2.6-5.1 4.4-9.5 1.7-4.4 4.3-10 5.7-12.5 2.2-4.1 4.9-10.5 8.3-20 .7-1.9 1.8-4.6 2.5-6 .7-1.4 1.6-5.2 2-8.4.4-3.3 1.3-7 2.1-8.2 1.4-2 2.6-6.9 4.1-16.4.3-1.9 1-4.1 1.6-4.9.6-.7 1.4-3.6 1.8-6.5.4-2.8 1.5-8.7 2.4-13.1.9-4.4 2-12.7 2.4-18.5.5-5.8 1.4-12.3 2.1-14.5.7-2.2 1.6-10.3 2.1-18 .5-7.7 1.3-16.7 1.9-20 2-11 5.4-63.1 4.3-65.5-.4-.8-1-7.1-1.4-14-.4-6.9-1.4-15.9-2.3-20-1-4.1-2.1-10-2.5-13-.5-3-1.6-7.5-2.6-10-1.8-4.9-5.5-23.7-5.5-28.5 0-1.7-.7-5-1.6-7.5-.9-2.5-2.2-9.2-3-15-.7-5.8-1.8-12.1-2.4-14-.6-1.9-2-7.1-3.1-11.5s-2.6-8.9-3.3-10c-1.8-2.8-4.6-11.9-4.6-14.8 0-1.3-1-3.7-2.2-5.3-1.4-1.7-2.5-4.9-2.9-8.4-.4-3-1.7-8.4-2.9-12-4.6-13.5-7.3-20.7-9.6-25.7-1.3-2.8-2.4-5.5-2.4-5.9 0-1.7-5.4-12.1-7.5-14.4-1.2-1.4-2.5-3.6-2.8-5-.6-2.3-4.9-7.2-14.7-16.5-8.5-8.1-21.9-22.5-24.5-26.3-1.6-2.4-4.1-5-5.6-5.7-1.5-.8-4.5-3.7-6.7-6.5-4.8-6.1-16.7-17-18.5-17-.7 0-2.6-1.4-4.3-3.1-1.6-1.7-4.5-4.2-6.4-5.4-1.9-1.3-6.4-5.2-10-8.7-4.6-4.5-8.8-7.5-13.7-9.8-4-1.8-8-4.2-9-5.2-2.3-2.6-8.6-5.8-11.3-5.8-1.3 0-4.8-2.8-8.9-7-4.4-4.5-7.7-7-9.1-7-1.2 0-3.5-1.5-5.3-3.5-1.7-2-6-5.2-9.7-7.2-10.7-6-21.2-11.3-22.5-11.3-.7 0-2-.9-3-2-2.8-3.1-11.6-7.6-16-8.2-2.2-.3-5.8-1.7-7.9-3.2-2.7-1.8-5.2-2.6-8.2-2.6-2.9 0-5.5-.8-8-2.5-2-1.4-4.2-2.5-4.9-2.5-.7 0-3.4-1.2-6.1-2.7-2.8-1.6-7.3-3-10.4-3.4-3-.4-10-2.4-15.5-4.7-14.4-5.8-28.8-8.8-53-11.3-4.9-.5-12.8-1.4-17.5-2-4.7-.5-12.5-1.2-17.5-1.4-4.9-.3-12.8-1-17.5-1.7l-8.5-1.3-1.8-5.5c-1.6-4.7-1.9-8.8-1.8-28 0-12.4-.4-31.3-.8-42-2.4-56.5-2.4-57-.1-59.5 2.7-2.9 3.9-8.1 4-16.6 0-4.2-.5-7.2-1.5-8.5-.8-1-1.5-2.9-1.5-4.2 0-1.3-1.1-3.4-2.5-4.7-2.3-2.4-2.9-2.5-15.9-2.5-12.7 0-13.6.1-16.3 2.4-2.2 1.9-4.5 2.5-10.9 3.1-11.7 1-32.9.8-56.9-.5-11.5-.7-28.6-1.4-38-1.5-9.3-.2-26-.6-37-1s-22.7-.8-26-.7c-3.3 0-12.3 0-20-.1-38-.4-159.2 0-175 .6-9.9.4-19.4 1.2-21.2 1.8-2.1.7-13.6 1-32.5.8-21.7-.2-34.4.2-48.8 1.5-30.1 2.7-44.1 3.5-62 3.7-18.3.2-50-1.4-62.8-3.1-7.3-.9-24-1.4-33.7-1-1.6.1-15.4-.6-30.5-1.5s-34.2-1.8-42.5-2c-8.2-.2-21.2-1.2-28.7-2.1-7.6-.9-14.9-1.4-16.3-1.2-1.4.3-8 .1-14.8-.3-16.3-1.2-66.5-1.7-80.2-.9zm57.8 40.5c4.9.4 10.3 1.3 12 2 1.9.8 7.2 1.3 13.2 1.3 5.5.1 12 .6 14.5 1.2 9.5 2.5 22.5 3 49.5 1.8 20.6-.9 31.4-.9 45.5 0 10.2.7 22.9 1.2 28.3 1.2 5.4 0 10.7.4 11.7 1 1 .5 8.5 1.5 16.7 2 8.7.7 16.7 1.8 19.3 2.7 2.5.9 8.8 2 14 2.4 5.2.4 12 1.1 15.2 1.4 4.1.5 6.8.3 10-.9 5.9-2.1 16.9-3.4 24.9-2.8 4.3.3 7.5 0 9-.9 1.5-.8 8.8-1.6 19.4-2 9.4-.4 23.3-1.3 31-1.9 7.7-.6 15.1-1.1 16.5-1 6.5.5 25.1-.1 27.3-.9 1.4-.6 4.1-.5 6.9.1 3.4.8 9.1.7 22.4-.6 20-1.8 51.8-2.1 77.9-.6 9.4.5 20.6.6 25 .2 4.5-.4 16.1-.2 26.5.5 23.3 1.6 181.6 2.6 184.3 1.1 1.2-.6 3.5-.6 6.5.1 2.6.6 13.2 1.3 23.7 1.6 13.6.3 19.3.8 20.2 1.8 1 1 1.4 8.1 1.6 30.7.1 16.2.6 30.1 1 30.7.5.7 1 11.5 1.3 24 .6 31.5 3.3 71.8 5.3 80.8.7 2.7 1.1 11.3 1 19-.2 25.8.3 44 1.3 45.9.5 1 1.4 9.8 1.8 19.5.5 9.7 1.5 23.4 2.4 30.6 2.2 18.1 2.5 43.3.7 51-1.8 7.4-1.9 38.8-.2 58.5.6 7.4 1.4 38.9 1.7 70 .3 31.1.6 62.3.7 69.5.2 16-1.1 52.6-2.4 70-1.3 17-1.9 59.6-.8 61.6.6 1.3 2.4 71 2 84.9 0 2.5.4 10.7 1 18.3.7 9.9.7 14.2 0 15.1-1.9 2.3-8.7 2.8-51.1 3.6-22.8.5-42.2.9-43 .9-.8.1-22.2 0-47.5-.2-46-.3-101.3 1.3-115 3.3-3.8.6-14.6 1-24 1h-24.5c-4.1 0-29.8 0-57-.1-27.2 0-60.7.2-74.3.6-20.9.6-25.6.4-29.5-.8-2.9-1-8.3-1.6-14.2-1.5-5.2 0-14.4-.5-20.3-1.2s-12-.9-13.5-.5c-2.8.7-17.5 1.2-36.4 1.3-5.8 0-11.5.5-12.7 1.1-1.4.8-4.2.8-9.8 0-6.8-1-22.5-1.7-45.8-2-3.8-.1-9.9.4-13.5 1-12.6 2.2-15.1 2.3-42.2.4-31.4-2.1-61.1-2.3-67.8-.4-2.5.7-11.6 1.5-20.5 1.6-23.3.5-37.4 1.8-41.5 3.8-6.7 3.4-11.5 6.7-17.3 11.9-4.6 4.2-6 6.2-6.8 9.6-1.4 6.5-8.4 20.6-15.5 31.3-3.7 5.5-6.4 10.7-6.4 12.1 0 1.4-.7 3.1-1.6 3.9-.8.7-2.5 3-3.6 5.2s-3.2 5.7-4.8 7.9c-1.6 2.1-3.1 5.6-3.5 7.7-.4 2.4-2.2 5.8-4.8 9-5.8 6.9-10.6 14.8-12.9 21.2-1.1 3-2.5 6.8-3.2 8.4-.6 1.7-2.1 4.3-3.3 5.9-1.3 1.6-2.3 3.5-2.3 4.3 0 .8-1.1 2.8-2.5 4.5-1.4 1.6-2.5 4.1-2.5 5.5 0 1.4-1.3 4.1-3 6-1.6 1.8-3 4.1-3 4.9 0 .9-1.1 2.9-2.5 4.6-1.4 1.6-2.5 4.1-2.5 5.5 0 1.4-1.1 3.8-2.4 5.3-1.6 1.9-2.6 4.8-3.1 8.6-.6 5.2-1.3 6.4-6.5 12.3-3.3 3.6-7 8.2-8.4 10.1-3.5 4.9-8.6 14.6-8.6 16.5 0 1.4-2.8 5.6-10 15-6.6 8.6-10.2 13.8-11.3 16.3-.6 1.5-2.2 4-3.4 5.5-1.3 1.6-2.3 3.3-2.3 3.9 0 .6-.6 1.9-1.4 2.7-3 3.4-17.6 31.4-17.6 33.7 0 2.2-4.1 9.4-8.5 14.8-3 3.8-3.2 2.9-5.5-23.4-.5-6.3-1.4-14-2-17-.6-3-1.5-9.6-1.9-14.5-.5-5-1.4-11-2-13.5-.6-2.5-1.6-15.8-2.1-29.5-.5-13.8-1.4-26.8-2-29-.6-2.5-.7-16.4-.3-37.1.5-25.3.3-34.3-.6-37.7-1.8-6.2-1.9-24.3-.2-42.8.8-8.6 1.1-16.8.7-18.2-.4-1.7-2.5-3.8-5.9-6l-5.3-3.4.4-7.8c.4-6.4.1-8.6-1.7-12.4-4-8.5-4.6-9.4-7.4-11.5-3.4-2.5-11.7-3-51.7-2.8-5.2 0-10.2-.4-11.2-.9-.9-.5-8.4-.9-16.5-.9s-16.6-.1-18.8-.1c-2.2-.1-10.7-.2-19-.3l-15-.1-.7-15c-.8-14.6-2-31.6-3.9-54-.5-6.1-1.1-15.1-1.3-20-.5-13.3-2.2-30.4-3.5-35-2.3-8.7-3.1-72-1.6-129 .7-27.1.2-32.7-4.3-49.5-2.4-9-3.2-14.4-5-33.6-.4-4.5-1.2-8.7-1.9-9.5-.8-1-1-7.8-.7-23.9.2-12.6-.1-26-.7-30.5-.6-4.4-1.5-15.8-2.1-25.3-.9-14-.8-18 .2-21.3 1.1-3.3 1.2-5.9.2-13.7-.6-5.3-1.4-20.9-1.7-34.5-.3-15.3-.9-25.7-1.6-27-1.3-2.3-3.3-28.5-3.1-38.7.1-3.6.4-18.4.6-33 .3-14.6 1-35.1 1.7-45.5.9-14.4.9-20.7 0-26-1.6-9.5-1.6-24.4-.2-40 .8-8 1-19.3.7-29.5-.7-18 .2-29 3-36 .9-2.5 2.2-7.8 2.8-11.9.7-4.7 1.7-7.7 2.6-8.1.8-.4 3.5-1.7 6-2.8 2.5-1.2 5.6-2.2 7-2.2 1.4 0 3.4-.6 4.5-1.4 1.8-1.2 8.7-2.7 12.5-2.6.8 0 10.5.5 21.5 1 15.1.8 21.5.7 26-.2 3.3-.6 9.8-1.1 14.5-1.1 39.8.7 45.6.9 47.9 2.2 1.7.9 3.9 1.1 7.5.6 2.8-.4 6.9-.7 9.1-.7 9.4.1 81-.1 103.5-.2 24.1-.1 48-2.2 53.9-4.7 1.3-.5 6-1.3 10.5-1.6 4.5-.3 9.2-1.2 10.6-2 4.4-2.4 33-3.4 53.3-1.8zm850 178.5c7.8.6 12.9 1.5 15 2.6 1.8 1 6.8 2.1 11.2 2.4 10.3.9 19.8 2.7 24.3 4.5 1.9.8 6.2 1.5 9.6 1.5 3.8.1 6.8.6 8 1.5 1.1.8 2.9 1.5 4 1.5 2.6 0 8.9 2.2 10.7 3.7 3 2.4 13.4 6.3 17 6.3 2.1 0 4.1.5 4.4 1 .9 1.4 11.1 6.3 16.5 7.9 2.5.7 5.7 1.9 7.2 2.7 1.4.8 3.4 1.4 4.3 1.4.9 0 2.8.9 4.2 2 1.4 1.1 3.8 2 5.3 2 1.6 0 3.6 1 5.1 2.6 1.3 1.5 4.4 3.6 6.9 4.8 2.5 1.2 5.9 3.5 7.6 5.1 4.5 4.3 11.5 9.2 15.5 10.9 1.9.8 4.8 2.9 6.4 4.6 1.7 1.8 5.5 4.3 8.5 5.6 3 1.4 7.8 4.7 10.5 7.3 5.4 5.2 18.4 14.1 20.6 14.1.8 0 6.1 4.3 11.9 9.6 16.3 14.8 18 16.5 19.6 19.6.9 1.7 3.1 3.6 5.1 4.4 3.8 1.6 16.8 13.3 19.4 17.4.9 1.4 4.5 5.5 8.1 9.1 3.5 3.7 7.5 8.1 8.9 10 1.3 1.9 4.7 6 7.6 9.1 2.9 3.1 5.5 7 5.8 8.5 2.2 10.4 5 18.1 7.6 20.9 1.2 1.3 1.9 3.5 1.9 6 0 2.2.7 4.9 1.5 6.1 1.8 2.6 6.5 15.4 6.5 17.8 0 3.1 2.2 9.5 6.8 19.8 1.2 2.6 2.2 6 2.2 7.5s.6 3.6 1.4 4.7c1.9 2.8 5.7 17.7 6.5 26 .4 3.8 1.5 8.4 2.3 10 .9 1.7 2.1 6.6 2.7 10.9.6 4.3 1.4 8.2 1.7 8.7.3.5.9 7.1 1.4 14.7.5 7.5 1.6 16.8 2.5 20.7.8 3.8 2.2 9.9 3 13.5.8 3.6 1.5 9.4 1.5 12.8 0 4.2.6 7.4 1.7 9.2 1.5 2.6 1.5 3.8.4 11.2-.7 4.6-1.7 11.9-2.2 16.3-.4 4.4-1.5 13.2-2.4 19.5-.9 6.3-1.7 20.7-1.9 32.1-.1 11.3-.7 21.2-1.2 22-.5.8-1.2 4.8-1.6 8.9-.9 10.3-2.1 15.3-4.6 18.5-1.7 2.1-2.2 4.1-2.2 8.6 0 3.2-.9 8.2-1.9 11.1-1.1 2.9-2.5 8.4-3.1 12.3-.7 3.8-3 10.6-5 15-6.9 14.6-11.2 25-12.2 28.9-.5 2.1-2 5.2-3.3 6.8-1.4 1.6-2.5 3.6-2.5 4.3 0 .8-1.3 2.9-2.8 4.7-1.5 1.8-5.9 9.4-9.6 16.8-3.7 7.4-7.2 13.9-7.6 14.5-.5.5-1.6 3-2.6 5.5s-3 6-4.6 7.8c-1.5 1.8-2.8 4.1-2.8 5.1 0 .9-1.2 2.8-2.6 4.2-1.4 1.3-4.9 7.1-7.7 12.9-4.1 8.5-6.4 11.9-12.1 17.6-3.9 4-9.6 9.9-12.6 13.3-10.5 11.6-16.1 16.5-20.4 17.5-1.6.4-4.6 2.4-6.5 4.5-2 2.1-5.1 4.4-7 5.1-1.9.8-5.4 3.1-7.8 5.2-2.4 2.1-5.4 3.8-6.5 3.8-1.2 0-3.9 1.9-6.2 4.3-5.5 5.7-10.5 8.5-16.8 9.2-2.9.4-6.9 1.2-8.8 1.9-7.6 2.8-10.8 3.6-15.4 3.6-2.7 0-6.3.8-8.6 2-2.2 1.1-5.7 2-7.8 2-2.4 0-4.9.8-6.5 2-1.8 1.4-4 2-7.9 2-2.9 0-7.1.7-9.3 1.5-2.3.8-7.8 1.4-13.1 1.5-7.6 0-9.6.3-11.7 2-1.4 1.1-4 2-6.1 2-1.9 0-5 .6-6.8 1.4-9.1 3.8-13.5 4.7-28.3 6.2-3.8.4-8.6 1.5-10.5 2.6-2.5 1.3-5.6 1.8-11 1.8-4.1 0-13.8.7-21.5 1.5-7.7.8-19.2 1.5-25.5 1.5-10.5.1-21 1.5-44 6-2.5.5-10.7 1.4-18.2 2-12 .9-14.1.9-17.5-.6-3.2-1.3-6-1.5-17.8-.9-17.5.8-22.6 2.3-26.6 7.8l-3 4.1.4 26.5c.3 14.7 1 33.1 1.6 41.1.9 11.3.9 15.8 0 20.3-.7 3.5-1 9.5-.6 15.4.5 8.8.4 10-2 15.2-2.8 6-3.1 10.1-2.3 30.8.2 5.6.1 10.5-.3 11-.5.4-1.6.2-2.5-.5-.9-.7-3-1.9-4.7-2.7-1.6-.8-5.5-3.1-8.5-5s-7.6-4.6-10.2-6c-2.6-1.3-4.9-2.9-5.3-3.5-.8-1.2-13.8-9.8-16.2-10.7-1-.3-3.2-2-4.9-3.7-1.7-1.7-4.6-4.1-6.5-5.3-4.2-2.7-21.2-11.3-22.3-11.3-.5 0-2.4-1.4-4.3-3-1.8-1.7-4.5-3-5.8-3-1.3 0-2.7-.5-3-1-.4-.6-3.6-3.3-7.2-6-4.7-3.6-7.5-5-9.8-5-2.1 0-3.9-.9-5.6-2.6-1.3-1.5-3.7-3.3-5.4-4.1-7.5-3.7-10.4-5.7-18.4-13.3-9.7-9.1-15.9-14-17.5-14-.6 0-2.9-1.8-5.1-4-2.2-2.2-6.8-6.6-10.2-9.7-10.2-9.6-20.3-19.8-20.3-20.5 0-.4-4.5-5.3-9.9-10.9l-9.9-10.1-5.3.5c-3 .3-7.9 1-10.9 1.6-11.5 2.4-42.8-.1-57-4.4-2.5-.7-8.5-1.6-13.4-1.9-5.3-.4-9.6-1.2-10.9-2.1-1.3-.9-4.5-1.5-7.7-1.5-3-.1-6.6-.7-8-1.5-1.4-.8-5-1.4-8.1-1.5-3.1 0-7.3-.7-9.2-1.5-2-.8-5.9-1.5-8.7-1.5-3 0-6.1-.7-7.5-1.6-1.4-.9-5.5-1.9-9.3-2.1-3.7-.3-7.9-1.2-9.4-1.9-1.5-.8-3.6-1.4-4.8-1.4-1.1 0-4.3-1.1-7-2.5s-5.6-2.5-6.5-2.5c-.9 0-3.8-1.1-6.5-2.5s-5.4-2.5-5.9-2.5-3.4-2.3-6.3-5.1c-5.8-5.6-16.3-12.9-18.6-12.9-.8 0-2.9-1.2-4.7-2.8-1.7-1.5-4.5-3.5-6.1-4.5-5.2-3.1-11.9-8.1-14.6-10.9-1.5-1.6-3.6-2.8-4.8-2.8-1.1 0-2.3-.7-2.7-1.6-.7-1.9-12.2-10.4-14-10.4-.7 0-2.4-1.8-3.8-4s-2.9-4-3.4-4c-1.2 0-30.8-32.9-33.2-36.9-1-1.6-3-3.7-4.4-4.7-1.4-.9-2.8-2.8-3.1-4.3-.4-1.4-1.3-3.7-2-5.1-1.5-3-3.6-15.9-2.7-17.3.6-1 6.5-.7 32.3 1.4 12.1 1 19.8 1 34.5.2 40.3-2.4 56.6-2.3 88 .7 5.5.5 19.4 1.2 30.9 1.5 16.5.4 21.7.2 25-.9 7.3-2.5 20.2-2.8 46.6-1.3 31.5 1.9 106 1.1 136-1.4 6.3-.6 18-1.4 26-1.8 8-.5 16.7-1.3 19.3-1.9 3.6-.9 5.9-.9 9 0 2.3.6 8.3 1.2 13.2 1.3 5 .1 16.9.7 26.5 1.5 13.7 1 21.9 1 37.7.1 24.9-1.4 43.8-1.4 46.2-.1 1 .5 15.2 1.1 31.5 1.4l29.5.4 4.6-3c2.5-1.7 5.2-4 6-5.2 1.3-1.8 2.3-2.1 7.5-1.8l6 .4 5-5.4c2.8-2.9 5.3-6.2 5.6-7.4.8-3.1-1.4-45.4-3-57.9-1-7.5-1.3-17.9-1.1-32.5.1-11.8-.1-27.4-.6-34.5-2.1-30.2-1.8-44.4 2.1-87.5.7-7.1.6-13.2-.1-18.6-.8-5.9-.8-13.3 0-26.3.7-10 .9-18.6.6-19.2-.4-.5-1.2-12.5-1.8-26.7-1.1-22.5-1.2-33.6-.6-60.5v-10.2c-.1-2.2-.1-13.7-.1-25.5-.1-12.6-.5-23.2-1.2-25.5-1.1-4.1-1.1-23.8-.1-78.8l.5-27.8-2.5-3.7-2.5-3.7-.7-34c-.3-18.7-.6-37.2-.5-41.1.1-4.3-.5-9.1-1.5-12.2-2.5-7.6-1.8-10.1 3.5-12.9 3.5-1.8 5.5-2.2 9-1.8 2.5.3 9.8 1 16.3 1.5z"/><path d="M812.993 278.083c-2.8 1.4-3.8 1.5-7.1.4-2.5-.9-5.6-1.1-8.3-.6-2.4.4-6.9.6-9.9.4-7.7-.3-12.9-.3-53.5.5-19.8.4-46.1.7-58.5.7-12.4 0-28.1.5-35 1-6.9.6-19.2 1.3-27.5 1.5-8.2.2-19.7.6-25.5.8-20.4 1.1-65.6.6-67.7-.7-1.7-1.1-29.8-2.1-51.9-2-12.2.1-29.3.8-38 1.7-18.1 1.7-67.4 2.8-119 2.6l-35.2-.1-3.8 3.3c-5.6 4.9-7.4 9.7-7.4 20.1v8.8l4.7 5c2.6 2.8 6 5.8 7.6 6.6 4.7 2.4 23.6 2.9 32.2.8 8.9-2.1 12.5-2 16.7.5 3.1 1.8 5 1.9 27.3 1.7 25.2-.3 56.2-1.8 88-4.2 28.6-2.2 47.3-2.5 69.7-1.3 31.3 1.7 80.9 1.4 84.3-.6 1.1-.6 6.1-1.1 11-1.2 5-.1 12.2-.7 16-1.4 4.9-.9 13.9-1.2 30-.9 12.7.2 28.9.4 36 .3 24.2-.1 40-.3 47.5-.5 8.9-.2 37.6-.2 47.5 0 3.9.1 8.6.2 10.5.2 1.9 0 9.1.2 15.9.5 11 .5 12.9.3 17.6-1.6 5.1-2.1 11.2-7.4 13.4-11.7.6-1.2 1.1-4.7 1.1-7.7 0-8.2-3.5-15.4-10-20.5-4.6-3.6-5.8-4.1-10.3-4-2.9 0-6.7.8-8.4 1.6zm160.4 228.9c-.4.4-6.9.8-14.5 1-7.5.1-18.9.7-25.2 1.3-6.3.6-16.4 1.1-22.5 1.1-7.3 0-13.2.5-17.3 1.7-5.2 1.3-7 1.4-9.6.5-4.3-1.6-10.2-1.5-15.1.3-2.3.8-7.8 1.4-13 1.5-4.9 0-11.7.5-15 1.1-3.3.5-13.3 1-22.3 1s-18.7.5-21.5 1c-2.9.5-10.8 1.1-17.7 1.4-6.9.2-17.4.9-23.5 1.4-26.8 2.6-61.4 4.2-113 5.5-9.9.3-24.3.7-32 1-7.7.4-25.1.8-38.6 1-13.6.2-25.1.6-25.6.9-.6.4-10.2.6-21.4.5-11.2 0-26.5 0-33.9.1-7.4.1-16.6-.3-20.5-1-7-1.2-14.5-1.6-37-2.3-53.8-1.6-59.3-1.7-63.9-.6-3.5.8-9.5.8-22.1-.1-12.2-.8-17.8-.8-19.2-.1-2.4 1.3-13 .2-21.6-2.2-6.9-1.9-11-2-14-.4-1.2.6-5.5 1.7-9.6 2.5-4 .7-8.5 2-9.8 2.8-3.5 2.3-6.4 9.8-7 18-.5 6.7-.3 7.2 2.7 11.3 1.9 2.5 4.3 4.4 5.8 4.8 1.5.3 3.4 1 4.2 1.5 2.4 1.6 9.7 4.9 16.8 7.7 8 3.2 20.1 3.6 29.7 1 3.9-1.1 6.5-1.3 7.7-.7 2.2 1.2 15.8 1.2 22.7-.1 6.8-1.2 32.7-2.9 51.1-3.3 9.4-.2 14.1.1 15.5 1 3.6 2.2 77.9 3.6 126 2.4 23.1-.6 45.4-1 49.5-.8 10.7.3 21.4 0 38-1.2 8-.6 16.8-1.1 19.5-1.1 2.8.1 10.2-.6 16.5-1.3 6.5-.8 22.1-1.5 36-1.6 24-.2 38.7-.9 60.3-3 5.9-.6 16.3-1.2 23-1.4 6.8-.2 13.3-.9 14.4-1.6 1.9-1 11.6-1.3 31.8-1.1 8.9.1 35.8-1.6 37.6-2.4.9-.4 7.6-.8 15-1 7.4-.2 20.8-.9 29.9-1.6 33.1-2.4 81.2-3 84.9-1 1 .5 12.7 1.1 26.1 1.4l24.2.6 2.7-2.9c4.8-5.2 9.1-15 9.1-20.9 0-6.3-3.6-14.3-7.7-16.9-4.8-3.2-17.3-4.6-38.4-4.3-11.4.1-20.4-.2-21.5-.8-2.3-1.2-25.7-2.6-26.7-1.6z"/></g></svg>