<svg version="1.0" xmlns="http://www.w3.org/2000/svg" width="2236.348" height="1657.532" viewBox="0 0 1677.261 1243.149"><g fill="#343434"><path d="M382.155 1.21c-5.2.8-8.9.9-10.5.3-1.5-.5-3.2-.6-4.5 0-4.6 2.1-9.4 3.2-14.1 3.2-2.7 0-6.7.7-8.9 1.5s-5.7 1.4-7.8 1.5c-2.1 0-5.1.7-6.7 1.5-2.2 1.1-3.5 1.2-5.8.4-2-.7-3.7-.7-4.9-.1-1 .5-7.5 1.5-14.4 2.2-10.1 1-13.8 1-17.8 0-3-.7-7.3-1-10.4-.6-5 .6-25.8.7-68.8.3-14.7-.2-20-.5-21.2-1.5-2.8-2.3-15.5-3.5-34.7-3.3-33.8.4-72.4.2-84.2-.4-9.8-.5-12.2-.4-14 .9-1.3.9-4.3 1.6-7 1.6-5.3 0-12.6 1.5-17.6 3.6-1.8.8-5 1.4-7 1.4-3.4 0-4.6.9-12 8.3-4.5 4.5-8.2 8.5-8.2 8.9 0 .3 1.8 3.7 4 7.4 4.3 7.4 4.8 9.5 2.6 11.3-.9.7-1.7 4-2 7.9-.4 3.7-1.1 9.4-1.6 12.7-.6 3.3-1.2 10.7-1.5 16.5-.2 5.8-.7 13.3-1.1 16.7-.4 3.7-.3 6.8.3 7.5 2 2.5 2.2 7.7.7 12-2.3 6.6-4.1 61.9-2.3 70.8 1.7 8.1 1.6 83.8-.2 90.2-.6 2.2-.7 4.7-.4 5.7.4.9 1 7.2 1.4 14.1.5 8.6 1.3 13.7 2.5 16.2 1.6 3.4 1.7 6 1.1 29.2-.8 25.7.4 65.5 2.7 92.6.6 7.4 1.3 19.3 1.4 26.5.3 16.1.4 17.5 1.6 30.5.6 5.8 1.4 16.3 1.9 23.5 2.3 35.4 2.9 42.3 3.8 46 2.5 10.3 3 24.5.9 27.8-1.2 1.7-1.4 5.1-1 15.7.2 7.4.5 26.5.6 42.5.2 20.3.7 30.2 1.5 32.9.8 2.1 1.5 10 1.8 17.5.3 12.3 1.5 35.1 2.6 53.6 1 15 3 30.1 4.3 31.6 1.7 1.9 1.9 17.9.4 25.8-2.1 10.9-3.9 31.1-3.3 36.2.5 4.5 1.2 5.9 4.2 8.7 2 1.8 4.8 3.9 6.4 4.7 1.5.9 2.7 2.4 2.7 3.6 0 1.2 1 2.3 2.8 2.9 1.5.6 3.5 1.5 4.5 2 1.1.7 4.5.8 9.5.2 14.9-1.5 74.2.5 78.2 2.8 3.1 1.7 8.9 3.1 16 3.7 3 .3 6.1 1 6.8 1.5.7.6 3.3.8 6.3.4 6.2-.8 8.9.9 8.9 5.9 0 1.8.7 3.8 1.6 4.6 1.2 1 1.4 2.3.9 5.5-.5 3.9-.3 4.5 2 6l2.6 1.7-.7 9.9c-.6 8.4-.4 10.5 1.1 13.9 1.6 3.4 1.7 4.5.7 7.3-1.8 4.8-1.5 14.1.5 17.9 1.4 2.8 1.6 6.5 1.5 29.2-.2 25.1.3 32.6 3.8 57.5.6 4.1.9 10 .8 13-.2 3-.3 10.1-.3 15.7 0 9.7.1 10.3 2.7 13 2.5 2.6 2.7 3.3 2.7 12.5 0 5.3.4 10.5 1 11.6 1.3 2.4 3.2 21.7 4.1 42.7.8 16.4 2.3 26.9 4.4 29.5 1.6 2 1.3 20.9-.4 27.5-1 3.8-1 6.4-.2 11.5.6 3.6 1.4 9 1.8 12.2.5 4.6 1.2 6.2 4 8.9 3.7 3.6 7 4.1 16.2 2.4 5-.9 5.4-1.4 6.3-8.1.5-3.6 1.9-7.1 4.6-11.1 2.1-3.2 4.8-7.5 5.8-9.7 1.1-2.1 3.5-5 5.3-6.3 1.7-1.4 3.2-3.2 3.2-4 0-.8.8-2.7 1.8-4.1 1-1.5 2.7-4.7 3.7-7.2 1.1-2.5 3.2-6.5 4.7-8.9 1.6-2.5 2.8-5.4 2.8-6.5 0-1.2 1-4.1 2.1-6.6s2.9-7.1 4-10.3c1.1-3.2 3.2-7.7 4.6-10 3-4.6 8.3-15.4 8.3-16.7 0-1.4 4.7-8 7.5-10.6 1.4-1.3 2.5-3.4 2.5-4.7 0-1.3.9-3.2 2-4.2s2-2.5 2-3.3c0-.8 1.4-3 3-4.9 1.7-1.8 3-4.2 3-5.3 0-1.1.9-2.4 1.9-3 1.1-.5 2.3-2 2.7-3.2.3-1.3 2.1-4.3 3.8-6.8 1.7-2.5 5.7-8.8 8.9-14.1 3.1-5.4 6.4-9.9 7.2-10.2.7-.3 1.9-2.5 2.5-4.9.7-2.3 1.8-5.1 2.6-6.2.8-1.1 1.4-2.7 1.4-3.6 0-.8 1.8-4 4-7 4.6-6.3 10-17.2 10-20.2 0-1.1.9-3.1 2-4.5s2-3.8 2-5.2c0-1.9 1.4-4.1 4.5-7.1 3.2-3.1 4.5-5.2 4.5-7.2 0-1.5 1.1-4.4 2.5-6.4s2.9-5.3 3.5-7.4c.5-2 1.8-4.5 2.9-5.4 1-1 2.2-3.3 2.5-5.1.7-3.7 6.6-14.7 9.6-18 1-1.1 2.6-3.6 3.5-5.5 1-1.9 3.1-5.1 4.6-7 1.7-2.1 3-5.4 3.4-8.2.4-2.6 1.5-5.4 2.6-6.4 1-.9 1.9-2.1 1.9-2.6s.8-2.1 1.9-3.6c5-7.3 9.1-14.2 9.1-15.3 0-.7 1.1-2.6 2.4-4.3 1.3-1.7 2.6-4.5 3-6.3.4-1.7 1.6-3.9 2.7-4.9 1-.9 1.9-2.3 1.9-3 0-.7 2.3-3.9 5-7 2.8-3.1 5-6.1 5-6.5 0-.5 1.5-1.6 3.3-2.6 3.2-1.8 9.3-3 20.2-3.9 3.3-.3 6.9-.9 8-1.4 2.8-1.2 26.3-2.2 26.9-1.1 1.1 1.7 6.6 2 12.2.5 4.4-1.1 9.1-1.3 19.3-.9 25.3 1 44 2.7 45.2 4.1.6.8 1.4 3.5 1.6 6.2.6 5.2 4.6 14.8 6.5 15.4.9.3 1.2 2.8.9 8.4-.2 6.4.1 8.3 1.3 9.3 1.8 1.5 5.6 9.5 5.6 11.7 0 .8 1.8 2.3 4 3.4 2.8 1.4 4.7 3.4 6.4 6.8 1.3 2.6 4.3 6.2 6.7 8 2.4 1.8 5.5 4.9 6.9 6.9 1.4 2 5.7 7 9.5 11.2 3.9 4.2 8.5 9.5 10.4 11.9 2.1 2.7 4.4 4.5 6.3 4.9 1.6.3 3.6 1.7 4.5 3 1 1.5 2.2 2.2 3.1 1.8 1-.4 3.4 1.2 6.7 4.5 2.9 2.8 6.9 5.7 9.1 6.5 3.8 1.3 4.7 2.2 5.8 5.8.3.9 1.6 2.1 2.8 2.6 1.3.5 4.7 3.2 7.6 6.1 4.7 4.6 5.7 5.2 8.3 4.6 2.2-.4 4 .1 6.9 1.9 2.2 1.4 4.4 2.5 4.9 2.5s1.9 1.6 3.1 3.5c1.2 1.9 3 3.5 3.9 3.5 1 0 4.2 2.2 7.2 5 4.7 4.4 5.9 5 9.7 5 3 0 5.3.7 7.5 2.4 1.8 1.3 5.8 3 9 3.7 3.1.7 6.2 1.8 6.8 2.6.6.7 1.9 1.3 2.8 1.3.9 0 2.5.7 3.5 1.5 1.1.8 3.9 1.5 6.2 1.5 2.5 0 4.7.6 5.4 1.5.7.8 2.6 1.5 4.2 1.5 1.7 0 4.2.8 5.6 1.9 1.5 1 4.2 2.2 5.9 2.6 1.8.3 3.5 1 3.8 1.4.2.5 3.8.6 7.9.3 6.1-.4 8.1-.1 10.2 1.3 2.1 1.4 3.9 1.6 8.5 1.2 4.1-.5 6-.3 6.8.7.7.8 4.4 1.6 9.2 2 4.5.4 9.1 1.2 10.3 1.9 1.1.7 4.1 1.3 6.6 1.4 8 .3 13.5 1.5 15.5 3.3 1.7 1.5 4.8 1.8 19.9 2.4 11.6.4 18.4 1 19.4 1.8.8.7 5.3 1.4 10 1.6l8.6.3 9 9.5c8 8.5 9.2 9.4 11.6 8.9 2.3-.5 3.6.2 8 4.5 2.8 2.8 6.4 5.7 7.8 6.4 1.5.8 4.9 3.7 7.7 6.5 2.7 2.8 5.3 5.1 5.8 5.1 1.3 0 6.4 4.3 16.8 14 9.8 9.2 13.5 12 16 12 .9 0 2.4 1.1 3.3 2.5 1 1.5 2.6 2.5 4.1 2.5 1.4 0 2.9.8 3.5 1.9.5 1.1 2 2.3 3.2 2.6 1.3.4 3.5 1.9 5 3.2 2 1.9 3.3 2.4 5.2 1.9 2-.5 3.6.2 7.3 3 2.7 1.9 5.6 4.7 6.7 6 1.2 1.6 2.4 2.3 3.6 1.9 1.1-.4 3.3.7 5.9 2.9 2.3 1.9 5.1 3.8 6.4 4.2 1.2.3 3.1 1.4 4.2 2.4 3.2 2.8 12.4 9 13.3 9 .5 0 1.7.9 2.7 2 1 1.1 2.7 2 3.7 2s2.1.7 2.5 1.6c.6 1.6 11.6 7.4 13.9 7.4.6 0 2.3 1.8 3.8 4 1.6 2.4 3.7 4.2 5.4 4.6 1.5.4 4.3 2 6.3 3.5 2 1.6 4.3 2.9 5.1 2.9.8 0 2.7 1.4 4.4 3.1 1.6 1.8 5.6 4.4 8.9 5.9 3.3 1.6 6.9 3.7 7.9 4.9 1.1 1.2 2.7 2.1 3.7 2.1s3.9 2.9 6.9 7c4.9 6.8 5.2 7.1 8.5 6.4 1.8-.3 4.9-.1 6.7.5 2 .6 5.1.8 7.7.3 3.8-.6 4.9-1.4 7.8-5.7 2.6-3.7 3.3-5.7 3-8-.3-1.6.2-4.5.9-6.4 1-2.4 1.1-3.8.4-4.5-.6-.6-1-7.5-1-17.2 0-10.1-.4-16.5-1-16.9-1.2-.7-.6-11.4 1.1-22.3 1.1-7.4 1.9-25.6 1.9-49.4 0-9.2.4-18.7.8-21 .5-2.4.4-7.7-.1-11.9-.6-4.8-.7-10.5-.1-15l.9-7.4 3.7-.3c2-.2 4.6.2 5.7.7 1.5.8 3.1.6 6.6-.9 3.5-1.5 6.6-1.9 13.3-1.8 4.8.1 9.6-.3 10.7-.9 1.1-.6 4.7-1.3 8-1.5 3.3-.3 7.8-1.4 10-2.4 2.2-.9 4.9-1.9 6-2 1.1-.1 3.8-.5 6-.8 8.9-1.2 28.5-2.9 37-3.2 5-.2 13-.5 18-.8 5-.2 9.7 0 10.8.5 1.3.7 2.3.7 3.3-.2.8-.7 3-.9 5.4-.6 2.2.3 4.2.2 4.5-.3.4-.7 15.5-2.2 24.1-2.4 2.5-.1 5-.8 6.1-1.8 1.1-1 3-1.8 4.2-1.8 1.2 0 3.4-.6 4.9-1.4 1.5-.7 5.9-1.6 9.9-2 3.9-.4 9.5-1.6 12.4-2.7 3-1 6.7-1.9 8.4-1.9 1.6 0 4.8-.7 7-1.5s6.1-1.4 8.8-1.5c2.6 0 5.5-.4 6.5-.9 1.8-1 11-2.7 20.7-4 3.3-.4 8.8-1.9 12.3-3.4 3.6-1.6 9.9-3.2 14.5-3.8 4.5-.6 8.6-1.4 9.2-2 .5-.5 1.9-.9 3.1-.9 1.2 0 2.7-.7 3.4-1.5.7-.8 2.7-1.5 4.5-1.5 1.9 0 3.9-.8 5-2 1-1.1 2.3-2 3-2 .6 0 2.4-1.3 4-3s3.7-3 4.7-3c1.1 0 3.6-1.1 5.6-2.5 2-1.4 4.2-2.5 4.8-2.5.6 0 1.9-.9 2.9-2s2.3-2 2.9-2c1.7 0 12.7-7.9 17.7-12.8 2.6-2.4 5.6-4.9 6.7-5.6 2.2-1.3 19.8-15.6 22.5-18.3 3.4-3.5 13.2-15.2 16.2-19.3 1.7-2.3 4.5-5.9 6.3-8 3.7-4.3 8.2-12.6 8.2-15.1 0-.9 1.2-3.2 2.8-5.2 4.3-5.7 8.2-12.3 8.2-13.9 0-.8 1-2.3 2.1-3.4 1.2-1 3.1-4.2 4.4-7 1.2-2.8 3.9-7.5 6-10.4 2.1-3 4.7-7.9 5.7-10.9 1.1-3.1 3-7.4 4.2-9.6 1.3-2.2 2.7-5.1 3.1-6.5.4-1.4 1.5-3.4 2.5-4.5s3.2-5.4 4.8-9.5c1.7-4.1 4.4-10.1 6.1-13.2 1.7-3.2 3.1-6.2 3.1-6.8 0-.6 1.3-4 3-7.5s3-7.2 3-8.2c0-1 .7-2.7 1.5-3.7.9-1.2 1.5-4.2 1.5-7.7 0-4 .5-6.3 1.9-8.1 2.1-2.7 4.3-11 4.5-17.5.1-2.4.7-4.8 1.4-5.5.7-.7 1.2-2.5 1.2-4.1 0-1.5.5-3.8 1.1-4.9 1.7-3.1 4.9-23.3 4.9-30.5 0-3.4.4-7.2.9-8.5 2.3-5.9 3.1-11.3 3.5-24.3.3-7.7 1-16.7 1.6-20 .5-3.3 1-9 1-12.6 0-3.7.5-9.1 1.2-12 .6-3 1.1-6.8 1-8.4-.4-8.9.1-17.1.9-18.2.7-.8.7-1.9-.1-3.3-.7-1.2-1.3-7.2-1.6-13.3-.3-10.4-2.3-22.5-4.5-28.4-.5-1.3-.9-4.1-.9-6.1-.1-2-.8-5.5-1.7-7.7-1.5-3.9-4.4-18-6.3-30-.5-3.3-1.3-7.4-1.8-9.1-.5-1.7-1.3-6.4-1.7-10.5-.3-4.1-1.3-9.9-2.1-12.9s-2.4-8.9-3.4-13.2c-1.1-4.2-2.8-9.2-4-11.2-1.1-2-2-4.7-2-6.1 0-1.3-.4-2.7-1-3-.5-.3-1-1.8-1-3.2 0-1.5-1.1-4.6-2.5-6.9-1.5-2.6-2.7-6.2-2.8-9.1-.2-2.6-.8-5.7-1.4-6.8-.6-1.1-1.9-4.7-2.8-8-1.7-6-5.1-15.2-8.6-23.2-1.1-2.4-1.9-4.8-1.9-5.4 0-2.1-6.3-13-8.2-14-1-.5-1.8-1.8-1.8-2.8 0-2.2-7.5-12.1-9.2-12.1-1.2 0-13.8-12.6-13.8-13.8 0-.5-2.5-2.9-5.5-5.5s-7.1-7.2-9.1-10.2c-2-3.1-4.2-5.4-4.8-5.3-1.3.3-7.6-6.3-7.6-7.9 0-1.4-14.4-15.3-15.9-15.3-.7 0-3.6-2-6.3-4.5-2.8-2.5-5.4-4.5-5.9-4.5-.9 0-8.6-6.7-14.6-12.8-1.8-1.8-4.7-3.8-6.5-4.4-4.3-1.5-10.7-5.5-13.5-8.5-1.6-1.6-3.3-2.3-6.1-2.3-3.5 0-4.6-.8-11.5-7.6-6.4-6.3-8.3-7.6-11.3-7.7-3-.2-3.8-.8-4.9-3.4-1.7-3.9-3.7-5.3-19.6-13.6-4-2-8.1-3.7-9.1-3.7s-3.7-1.7-6.1-3.8c-5.9-5.2-9.9-7.2-14.4-7.2-2.8 0-5.1-.9-7.9-3-3.2-2.5-4.8-2.9-9.6-3-4.7 0-5.9-.4-6.8-2-.7-1.3-2.1-2-3.9-2-1.6 0-3.5-.7-4.2-1.6-2.6-3.2-9.3-5.3-13.5-4.4-3.5.8-4.1.7-5.7-1.5-1-1.4-2.6-2.5-3.6-2.5-.9 0-2.5-.6-3.6-1.4-1.1-.7-3.3-1.6-5-2-4.7-1.1-9.6-2.4-14-3.6-5.4-1.6-15.2-3.1-19.7-3-2 0-3.9-.4-4.3-1-.3-.5-3.9-1-8-1s-8.6-.5-10.2-1.1c-1.5-.6-5.9-1.3-9.8-1.4-14.1-.6-35.1-2.5-37.2-3.5-1.6-.6-3.5-.5-6.4.5-7.7 2.8-9.8 1.7-7.8-3.8 1-2.7.9-4.9-.5-11.8-1.8-9.4-1.8-9.3-1.5-34.4.2-20.7-.8-50.1-1.7-51.7-.4-.6-.8-11.5-.9-24.3-.3-22.2-.2-23.4 1.7-25.2 2.3-2.1 4.8-7.6 4.8-10.7 0-1.2-.6-3.1-1.4-4.2-.8-1.1-1.6-3.1-1.8-4.4-.3-2.4-.5-2.5-8.8-2.5-7.7 0-8.9.3-12.6 2.8l-4 2.8-28.1.5c-19.2.4-29.2.3-31.5-.5-2.2-.7-5.8-.8-11-.2-4.8.5-9.2.5-12-.1-2.4-.6-15.1-1.2-28.3-1.4-13.2-.2-30.7-.6-39-.9-56-1.6-151.7-2.3-157.3-1-1.6.3-3.3.2-3.6-.3-.6-1.1-30-.5-34.1.7-1.6.5-10.4 1-19.4 1-13.3.1-16.9.4-18.8 1.7-2 1.3-3 1.3-5.2.4-4.3-1.8-54.7-.4-102.7 2.8-6 .4-10.8 1.2-11.7 2-.9.8-2.5 1.1-3.5.8-1.1-.4-14.7-.8-30.3-1.1-35.1-.5-47.1-1.1-61.3-3-14.4-1.9-18.2-1.9-21.7.2-2.6 1.5-3.2 1.6-5.2.3-1.6-1-6.1-1.4-15.7-1.6-7.4-.1-16.8-.7-20.9-1.3-5.3-.8-7.7-.8-8.7 0-.9.7-2.3.7-5.1-.1-2.1-.6-14.6-1.5-27.8-2-13.2-.5-26.9-1.4-30.4-1.9-3.6-.5-6.8-.8-7.2-.6-.4.3-12.5-.2-26.9-1-15.7-1-26.7-1.2-27.4-.7-.6.6-5.5.4-12.1-.4-12.6-1.5-11.5-1.5-22 .1zm53.5 21.9c5.8.8 11.3 1.7 12.3 2.1.9.4 3.1.2 4.7-.5 2.5-1 3.8-1 7.3.2 2.3.8 6.7 1.6 9.7 1.7 3 .1 6.9.6 8.5 1 5.4 1.6 23.3 3.3 24.7 2.5 3.4-2.2 85.4-2.3 90.8-.1.8.3 4.9.8 9 1.1 21.3 1.4 40 3.8 45.2 5.7 3.8 1.4 6.6 1.6 11.9 1.2 4.8-.4 7.7-.2 9.4.7 1.9 1 3.3 1 7.2 0 7.3-1.9 17.9-3.3 26.8-3.5 4.4-.1 11.1-.9 14.9-1.8 4.5-1 7.8-1.2 9.8-.6 1.9.5 3.8.4 5-.2 1.3-.7 3.5-.7 6.9 0 3 .7 5.7.7 6.7.2.9-.4 5.3-1.1 9.7-1.5 4.4-.3 12.7-1.1 18.4-1.8 9.3-1.1 10.6-1 13.3.5 2.2 1.3 3.4 1.4 4.9.7 1-.6 3.6-1 5.6-1 2.1.1 7-.2 11-.6 4.5-.4 8.3-.2 10.3.5 2.4.8 3.7.8 5.3-.2 2.5-1.4 10.2-1.6 52.2-1.8 43.3-.3 50.6-.1 52.1 1.1.9.8 1.8.8 3.3.1 1.1-.6 5.3-1.1 9.3-1.1 4.3 0 7.9-.5 8.6-1.2.8-.8 1.5-.8 2.7.2 1 .9 4.7 1.5 9.3 1.7 14 .4 22.6 1 34 2 8 .8 12.3.8 14.8 0 2.6-.8 4.4-.7 6.9.2 1.8.6 4.4.9 5.7.6 2.1-.5 21.5-1.6 26.6-1.5 14.7.4 25.1-.1 25.8-1.2.8-1.2 4.8-1 6.1.3 1.3 1.3 26.9 2.5 48.8 2.3 9.8-.1 15.4-.6 18.6-1.7 4.1-1.4 5-1.4 9 0 3.2 1.1 9.6 1.6 23.9 1.8 10.7.2 20.3.6 21.3 1 .9.4 2.4.2 3.2-.5 2.4-2 4.2-.4 4.8 4.2.8 6.2 2 43.8 1.8 54-.2 6.2.2 9.5 1.3 11.6 1.3 2.5 1.4 4.4.5 11.2-.5 4.4-.7 8.5-.4 8.9.3.5.7 10.6 1 22.4.3 11.7 1 24.9 1.6 29.3.6 4.3 1.2 11.7 1.5 16.4.5 8.5 1.2 13.8 3.5 23.9.9 3.9.9 6.2.2 8.2-.7 1.9-.8 5.2-.3 9.6.5 3.8.5 8.6.1 10.8-1 5.1-.4 24.1 1 32 .6 3.3 1.3 11.8 1.5 19 .3 12.7 2.6 36.4 3.7 38.2.3.4.6 6.7.8 13.8.1 7.2.5 14.8 1 17.1.7 3.2.4 5.3-1.2 9.5-1.6 4.1-2.2 8.6-2.6 18.9-.8 19.9-.8 22.9.6 30 .7 3.7 1.5 17.3 1.7 32 .2 14 .7 28 1 31 .7 6.9.7 9.4-.5 25.5-.9 13.1 0 45.6 1.9 66.8.8 8.9.7 11.2-.5 13-1.4 2.2-1.5 4.7-1.5 37.2 0 10.4-1.7 31.9-2.8 34.6-1.2 2.9-.9 15.6 1 52.4.7 13.2 1.2 26.7 1.1 30-.4 12.7-.3 19.8.8 43 1.6 34.3 1.7 45.5.5 46.3-1.1.7-13.9 3.2-16.6 3.3-.8 0-2.6 0-4-.1-1.4 0-18.5 0-38 .1-28.2.1-36.2.4-38.9 1.5-2.5 1.1-4.8 1.2-8.5.6-2.8-.5-8.2-.8-12.1-.7-15.2.5-27.2.5-57 .3-34.1-.3-70.6.6-83 2.2-8 1-43.5 2.2-59.5 2-4.7-.1-9-.6-9.7-1.2-.8-.6-2.4-.7-4-.3-4.8 1.4-14.6 1.5-21.6.4-6-1-7.4-.9-10.8.7-3.1 1.4-4.4 1.5-6.2.6-2.9-1.5-44.3-2.3-47.7-.9-3.4 1.4-61.8 1.1-63.5-.3-.7-.6-3.5-1-6.1-.9-2.7.1-11.2-.3-18.9-.9-8.9-.6-14.4-.6-15.2 0-.7.6-4.7.5-10.8-.1-6.9-.8-10.2-.8-11.6 0-1.2.6-6.5 1-12.7.8-5.9-.1-13.1.4-16.1 1-4.3 1-6.4 1-9.8.1-2.3-.7-5.2-1-6.5-.7-1.2.4-3.4-.1-5-1.1-2.8-1.6-3.1-1.6-6.9.6-2.8 1.6-4.4 2-5.2 1.3-.7-.5-4.8-1.3-9.2-1.6-4.4-.4-9.4-1.1-11.1-1.6-2.2-.7-3.8-.5-6.2.7-2 .9-4.3 1.3-6 .9-2-.4-3.6 0-5.4 1.4-1.4 1.1-2.7 1.8-3 1.6-.3-.3-7.1-.7-15.2-1-8.1-.2-15-.6-15.4-.9-.4-.3-6.2-.6-12.7-.7-6.6-.1-13.8-.7-16-1.2-7.1-1.6-35.3-1-41.5.9-3.2 1-9 1.7-14 1.8-4.7.1-9 .4-9.6.8-.6.4-2.6.3-4.5-.2-4.6-1.3-10.6-1.3-11.5.1-.5.8-3.4 1-9.5.6-4.8-.4-9-.3-9.3.2-.3.5-3.1 2.1-6.3 3.7-6.5 3.3-16.3 11.8-16.3 14.3 0 2.3-2.2 8.2-4.1 11.1-.9 1.4-1.9 3.8-2.3 5.4-.4 1.6-4.1 8-8.2 14.2-4.6 7-7.4 12.2-7.4 13.9 0 1.5-1.2 4.1-2.6 5.9-4.8 5.9-10.1 15.1-10.8 18.6-.3 1.9-2.4 5.7-4.6 8.5-2.2 2.7-4.4 5.9-4.9 7.1-.5 1.1-2.1 3.4-3.5 5.1-1.5 1.8-3.4 5.6-4.2 8.5-.9 2.9-2 5.7-2.5 6.2-.5.6-.9 2-.9 3.3 0 1.2-1.3 3.8-3 5.6-1.6 1.9-3 4.1-3 5 0 .8-.7 2-1.5 2.7-.8.6-2.1 3.5-2.9 6.4-.9 2.8-2.7 6.3-4.1 7.6-1.4 1.3-2.5 3.5-2.5 4.8 0 1.4-1.1 3.5-2.5 4.8-1.4 1.3-2.5 3.2-2.5 4.4 0 1.1-1.1 3.7-2.4 5.8-1.3 2-2.7 6-3.1 8.7-.5 4.4-1.6 6.2-8.7 14.5-9.1 10.8-13.8 18.3-13.8 22.2 0 1.6-1.5 4.4-3.7 7.2-8.1 9.6-17.5 23.4-23.4 34-1.1 2.1-3.5 6-5.3 8.5-1.7 2.5-4 6.6-5.1 9.1-1 2.5-2.7 5.6-3.7 6.9-1 1.3-1.8 2.8-1.8 3.3 0 .6-.9 2.1-2 3.5-1.2 1.5-2 4.1-2 6.3 0 2.1-.7 4.3-1.5 5-.8.7-1.5 1.7-1.5 2.3 0 .6-1.8 3.2-4 5.8-2.4 2.8-4.4 6.6-5.2 9.6-.6 2.6-1.7 5.5-2.4 6.3-.7.8-2 3.8-2.9 6.7-1.9 5.8-3.5 7.6-6.2 7.1-2.2-.4-3.1-4.6-3.6-16.3-.2-5-.9-9.9-1.5-11-1.4-2.6-3.2-14.8-3.2-21.8 0-3-.9-11-2-17.8-4.3-26-4.9-30.8-5.9-45.4-.5-8.3-1-20.2-1-26.5 0-6.3-.5-13.1-1.1-15-.5-1.9-1-6.7-1-10.5 0-3.9-.4-7.5-1-8.1-.6-.6-.6-3 0-6.9 1.5-9 1.4-51.3-.1-53.2-1.7-2-1.8-35.4-.2-40.3.7-1.9 1.3-7 1.5-11.3l.3-7.8-4-1.8c-2.2-1-5.1-3-6.4-4.4-2.2-2.4-2.3-3-1.6-10.6.6-6.6.4-8.6-.9-10.6-.9-1.3-1.6-2.9-1.6-3.5 0-.6-1-2.4-2.2-4-2.5-3.4-4.7-3.7-12.7-1.8-4.7 1.1-5.3 1-7.4-1-2.8-2.6-6.4-2.8-11.5-.6-3.2 1.3-4.9 1.4-13 .3-7.5-.9-9.8-.9-11.8.1-2.1 1.2-2.7 1.1-4.4-.5-2.8-2.6-20-3.2-26.3-1-5.5 1.9-9.7 1.9-12.5-.1-1.9-1.3-4.5-1.5-15-1.2-7 .3-13.5.8-14.4 1.2-1.3.6-2.6-.1-4.8-2.6-2.7-2.8-3.1-3.8-2.6-7.3.4-3.3.1-11.4-1.9-47.5-.1-1.9-.7-5.3-1.3-7.5-.6-2.2-1-7.2-.9-11.1.1-5.3-.3-7.9-1.7-10.6-1.8-3.3-1.9-4.2-.7-10.5 1-4.9 1-7.5.3-8.9-.5-1-.8-3.9-.5-6.4.2-2.5-.1-7.4-.7-11-3-17.4-4-35.7-4.7-79.5-.5-36.6-.5-37.6.8-39.1.6-.8 1-9.6 1-24.1 0-22.9-1.1-33.3-5.1-46.8-1.6-5.5-4-20.4-4.7-29.5-.3-4.5-1.1-8.2-2-9.2-1.2-1.3-1.4-4.6-1.2-17 .1-8.4-.1-16.7-.5-18.4-.6-2.2-.3-4.1.9-6.3 1.5-2.9 1.5-4.1.1-14.4-3.4-25.3-4.4-48.2-2.4-54.9.9-3.1.9-5-.2-9.1-.9-3.4-1.3-9.1-1-16.2.1-6.1.2-12.4.2-14-.6-18.3-1.2-25-2.7-30.1-1.2-4.2-1.6-7.8-1.2-12.7.3-3.8.2-8-.4-9.4-.5-1.4-1.1-8-1.3-14.6-.3-9.6 0-12.5 1.3-14.8 1.3-2.3 1.4-3.3.3-6.1-1.3-3.7-1.6-13-.5-14.2.6-.6 1-18.7 1.4-61.6.1-8.5-.4-18.7-1-22.5-.8-5.5-.7-11.4.6-27 1.3-16.3 1.4-21.7.5-29.2-.8-6.4-.9-10-.2-11.9.6-1.5 1-5 .9-7.8-.2-9.4 2-23.6 4.2-26.5 1.4-2 2.1-4.6 2.3-8.8.2-7 2.4-11 6.4-11.8 1.5-.4 5-1.7 7.8-3.1 2.8-1.3 6.3-2.4 7.7-2.4 1.4 0 2.9-.5 3.2-1 .3-.6 2.1-1 3.9-1 2 0 4-.8 5.1-2 2.2-2.4 9-2.7 12.2-.5 1.4 1 4.3 1.5 8.5 1.4 3.4-.1 9.9.2 14.3.6 11.5 1 11.1 1 21.9-1 7.5-1.3 12-1.6 18-1 4.5.4 16.1.9 25.8 1.1 9.8.2 18.6.8 19.7 1.3 1.3.7 4.4.8 9.3.1 4.7-.6 8.9-.5 11.7.1 3 .7 5.4.6 7.8-.2 2.6-.8 3.7-.8 4.9.2 1.1.9 3.9 1 11.2.4 5.3-.4 10.6-.8 11.7-.7 9.6.3 73.5.3 74.2 0 .4-.3 4.2-.5 8.4-.6 4.2-.1 10-.7 12.9-1.2 2.9-.6 6.9-1 8.9-1 2.1 0 4.2-.5 4.9-1.2.7-.7 2.7-1.3 4.5-1.5 9.3-.7 14.4-1.7 15.9-3 1.2-1.1 6.7-1.6 23.5-2.3 12-.4 23.6-.6 25.8-.3 2.2.2 8.7 1 14.5 1.7zm844 177.6c4.1.5 10.6 1.2 14.5 1.5 4.2.4 7.6 1.2 8.7 2.2 1.4 1.3 2 1.3 3.3.3 1.2-1 3-.8 9.7 1.3 4.6 1.4 10.6 2.9 13.3 3.2 2.8.4 5.8 1.1 6.9 1.7 1 .5 5 1.1 8.9 1.3 3.8.2 7.5.9 8 1.4.6.6 2.2 1.1 3.5 1.1 2.3 0 8 2.1 11.2 4.1.8.5 3.1 1.6 5 2.4 1.9.9 4.3 2 5.2 2.5 1 .6 3.8 1 6.2 1 3.2 0 5.3.7 7.3 2.3 4.3 3.6 12.3 7.1 16.6 7.3 2.1.1 4.6.9 5.6 1.8s2.4 1.6 3.2 1.6c.8 0 3 1 4.9 2.2 1.9 1.3 5.1 2.3 7 2.3 2.5 0 3.7.6 4.5 2.1 1.9 3.8 3.4 5 7.4 6.4 2.2.7 5.8 2.9 8 4.9 8 7.3 12.4 10.2 14.5 9.7 1.5-.4 3.2.8 6.9 4.9 2.7 3 5.7 5.5 6.7 5.5.9 0 2.3.7 3 1.5.7.8 1.9 1.5 2.7 1.5.7 0 3.4 2.1 5.9 4.7 5.2 5.3 15.9 12.6 20.7 14.2 1.8.6 6.8 4.5 11.2 8.7 4.4 4.2 10.3 9.6 13 11.9 2.8 2.4 6.5 6.4 8.4 8.9 1.9 2.5 4 4.6 4.6 4.6.6 0 3 1.6 5.2 3.5 2.3 1.9 4.6 3.5 5.2 3.5.5 0 1.6.8 2.3 1.9 1.8 2.5 14.4 16.6 18.9 21 1.9 2 5.1 5.8 6.9 8.6 1.9 2.7 5.7 7.3 8.5 10.2 5.1 5.2 7.5 10.1 7.5 15.9 0 1.6.7 3.8 1.5 4.8.8 1.1 1.5 2.7 1.5 3.6 0 .9 1.3 3.1 3 5 1.9 2.4 2.9 4.6 3 6.9 0 1.9 1.6 7.4 3.5 12.2 1.9 4.9 3.5 10.2 3.5 11.8 0 1.7.5 3.3 1 3.6.6.3 1 1.6 1 2.8 0 2 .9 4.3 5.6 14 .8 1.6 1.4 4.1 1.4 5.7 0 1.6.6 4.1 1.4 5.7 1.7 3.4 4.6 12.9 4.6 15.2 0 .9.7 2.7 1.6 4 1.2 1.7 1.5 3.6 1.1 7-.4 3.4 0 5.9 1.3 8.8 2.1 4.7 4 13.1 4 17.6 0 1.8.5 3.8 1.1 4.4.7.7 1.1 4.9 1.1 10.6-.1 10.4.6 15.9 3.8 29.2 1.2 4.9 2.4 13 2.7 18 .3 6 1 9.6 2 10.7 1.2 1.4 1.4 3.8.9 14-.8 18.1-2 30.1-3.1 31.8-1.1 1.6-3.7 22-3.4 26 .8 10.4.1 31.5-1.4 38-.5 2.5-1.3 7.6-1.7 11.5-1.2 10.4-2.5 15.4-4.9 18.6-1.4 1.9-2 3.7-1.6 4.9.8 2.4-1.3 13.8-3 16.5-.7 1.1-1.5 4.2-1.9 7-1 6.9-2.2 10.7-6.7 20.2-2.2 4.5-3.9 9.1-3.9 10.2 0 1.1-.5 2.3-1 2.6-1.5.9-4.5 8-6.1 14-.7 2.7-2.3 6.3-3.6 7.8-1.3 1.6-2.3 3.3-2.3 3.8s-1.5 2.6-3.4 4.6c-1.8 2.1-3.6 5.1-4 6.8-.4 1.6-1.8 4.3-3 6-2.2 3-6.6 11.5-6.6 12.8 0 .4-1 2.4-2.3 4.5-1.3 2-3.1 5.8-4 8.3-1 2.5-2.9 5.6-4.2 6.9-1.4 1.3-2.5 2.9-2.5 3.5 0 .7-1.4 3-3.1 5.1-1.7 2.2-4.7 7.3-6.7 11.4-4.7 10-8.6 15.6-14.5 20.9-2.7 2.5-5.3 5.5-5.8 6.8-.5 1.3-2.3 3.2-4.1 4.3-1.8 1.1-5.1 4.6-7.3 7.7-2.4 3.4-5.5 6.5-7.5 7.5-1.9.9-4.6 2.8-5.9 4.2-1.4 1.4-3.4 2.6-4.6 2.6-1.2 0-3.6 1.8-5.8 4.5-2.2 2.6-4.6 4.5-5.8 4.5-2.2 0-9.3 4.5-12.3 7.9-1.1 1.1-2.9 2.1-4.1 2.1-1.1 0-3.7 1.6-5.6 3.6-4.6 4.7-11 8.2-16.7 8.9-2.6.4-6.9 1.6-9.6 2.7-2.7 1.1-8.2 2.2-12.3 2.5-5 .4-7.7 1.1-8 2-.3.8-1.3 1.1-2.4.8-1.2-.4-2.2.1-2.9 1.5-1 1.8-1.9 2.1-5.8 1.9-2.7-.2-5.8.3-7.2 1.1-2.3 1.2-9.1 2.3-23 3.6-3 .3-6.5 1-7.6 1.5-1.5.8-2.8.8-4.3 0-2.2-1.2-5.8.1-10.3 3.7-1.1.9-2.7 1.2-4.8.7-2-.4-3.8-.2-5.3.8-1.2.8-3.5 1.7-5.2 2-12.4 2.4-25.5 4.6-28.1 4.7-1.7 0-3.7.6-4.3 1.4-.8.9-4.6 1.5-12.4 1.9-6.1.3-14.8 1.1-19.2 1.7-4.4.6-15.4 1.3-24.5 1.5-9.1.2-19.4.9-23 1.5-3.6.7-9 1.5-12 1.9-3 .4-6.4 1.2-7.5 1.8-2 1-8 1.8-24.8 3.1-9.1.7-19.4.1-28.7-1.7-5-1-5.6-.9-6.9.9-1.6 2.3-3.2 2.4-8.4.6-3.3-1.2-4.1-1.2-7.3.5-2 1-4.2 2.6-4.9 3.6-2 2.7-.9 42.6 2.2 75.1.4 4.5 0 8.2-1.2 12.9-1.6 5.7-1.6 7.4-.6 13.4 1.4 7.5 1 10.8-2.3 18.4-2.1 4.7-2.2 6.4-2 28.8.2 26.3.2 26.3-5.9 23.4-1.8-.8-4.3-2-5.7-2.6-1.4-.6-3.7-1.9-5.2-2.9-12.2-7.9-26.8-16.2-28.6-16.2-1.4 0-2.7-1.1-3.7-3.1-1-1.9-2.2-2.9-3.1-2.5-.8.3-2.1-.5-3-2-1-1.4-2.3-2.3-3-2-.8.3-1.9-.4-2.5-1.5-.6-1.2-1.7-1.8-2.6-1.5-.9.4-3.5-1.5-7.3-5.4-5.6-5.6-12.3-10-15.3-10-.8 0-2.6-.9-4-2s-3.3-2-4.2-2c-.9 0-3.6-1.6-5.9-3.5-2.4-1.9-5.4-3.5-6.8-3.5-1.3 0-3.5-1.2-4.9-2.6-4.9-5.3-11.6-9.4-15.1-9.4-2.5 0-4.2-.8-6.3-3-1.6-1.6-3.9-3-5.1-3-1.2 0-2.5-.7-2.8-1.5-.3-.9-2.1-2.2-4-3-2-.8-4-2.4-4.6-3.5-.6-1.1-1.5-2-2.1-2-.5 0-4.4-3.4-8.6-7.6-4.3-4.2-9.5-8.5-11.6-9.7-2.2-1.2-5.1-2.8-6.4-3.5-1.3-.8-2.8-2.5-3.3-3.8-.5-1.3-1.6-2.4-2.4-2.4-.8 0-3.6-2.5-6.2-5.4-2.6-3-5.6-5.6-6.7-5.8-1.1-.2-2.8-1.5-3.6-3-1.7-2.8-12.9-15.3-22.4-25.1-5.6-5.8-5.8-5.9-8.8-4.7-1.7.7-7 1.4-11.7 1.5-4.8.2-9.5.6-10.4 1-.9.3-2.7.1-4-.6-1.4-.8-5.9-1.2-12.3-1-6.7.1-12.1-.4-16.3-1.5-6-1.6-6.5-1.6-9.2-.1-2.8 1.7-2.9 1.7-4.2-1-1.5-3.2-4.6-4-16.7-4.6-4.5-.2-8.7-.9-9.4-1.6-.6-.6-3.3-1.1-5.9-1.1-2.7 0-6.3-.7-8-1.6-2.1-1.1-5.1-1.5-10-1.2-5.8.2-7.1 0-7.9-1.5-.8-1.3-2.4-1.7-7.5-1.7-5 0-7.1-.5-9.3-2.1-2.1-1.6-4.3-2.1-8.3-2.1-3.3 0-6.9-.7-9.6-2-2.3-1.1-4.9-1.7-5.8-1.4-.8.3-3.2-.5-5.2-1.9s-4.6-2.5-5.8-2.5c-4.7 0-17.4-6.7-23.8-12.6-8.1-7.4-12-10.4-13.9-10.4-2.6 0-8.4-2.9-9-4.4-.3-.8-2.4-2.4-4.7-3.6-2.2-1.1-4-2.5-4-3.1 0-.5-1.5-1.6-3.3-2.4-1.9-.8-4.8-2.8-6.6-4.4-2-1.9-4.4-3.1-6-3.1-3 0-5.1-1.6-5.1-4 0-2-8.3-9-10.6-9-1.8 0-7.4-4.7-7.4-6.2 0-.4-2.6-3.4-5.7-6.6-10.4-10.6-27.3-29.6-29.3-32.9-1-1.7-3.2-4.1-4.9-5.4-1.6-1.2-3.5-3.6-4.1-5.3-.6-1.7-1.8-4.5-2.5-6.1-1.7-3.7-4.8-23.2-4.3-27.1.2-2 1.2-3.3 3.1-4.2 3.7-1.8 20.7-2.7 24.9-1.3 3.8 1.2 23 2.6 33.8 2.4 4.1-.1 13.1-.6 20-1.3 12.6-1.2 16-1.3 21.5-1 1.7.1 12.5.2 24 .2 22.7 0 24 0 36.2 1.8 6.2.9 8.6.9 10.3 0 1.7-.9 2.5-.9 3.8.4 2.6 2.3 33.7 2.4 41.2.1 5.8-1.7 10.1-1.7 76 .1 11.3.3 21.9.6 23.5.6 3.5.1 33-1.1 33-1.3 0-.1 9.1-.2 20.2-.3 11.2-.1 20.6-.5 20.9-.9.4-.4 3.9-.4 7.9 0 4.9.4 7.9.2 9.5-.7 1.3-.7 6.2-1.5 10.9-1.7 17.6-.8 19.7-1 23.6-1.8 2.2-.4 4.5-1.2 5.2-1.7 1.2-1 14.8 1.7 16.9 3.4.7.5 2.2.4 3.7-.3 2-.9 6.5-.8 20.4.6 9.8 1 20.7 1.7 24.3 1.6 3.6 0 11.4-.1 17.4-.2 7.9 0 11.5-.5 13.2-1.6 1.4-.9 3.2-1.2 4.5-.8 1.2.4 9.7.8 19 1 11.3.1 17.3.6 18.3 1.4 1 .9 8.2 1.1 27.5.9l26-.3 6.4-6.3c3.8-3.7 6.7-5.9 7.2-5.3.6.4 2.7 1.1 4.7 1.4 3.3.5 4 .2 6.9-3 2.7-3.2 3-4.1 2.4-7.2-.4-2-.7-8.6-.6-14.8 0-6.2-.4-11.5-.9-11.8-.5-.3-.9-3.6-.9-7.3.1-3.7-.5-9.9-1.2-13.7-.9-4.7-1.4-17.4-1.5-38.5-.1-33.3-.8-54.4-2-57.4-.4-.9-.3-6.3.1-11.9.4-5.6.9-14.5 1.1-19.7.2-5.2.9-12.4 1.5-16 1.1-6.2 1.4-17.5.8-41-.1-5.8-.1-17.3.2-25.6.3-12.1.1-15.4-1-16.8-1.2-1.4-1.2-2.6-.3-6.4.6-2.6 1-8.8.8-13.7-1-22.5-1.9-36.1-2.7-37.7-.6-1-.5-2.8.2-4.5.7-1.8 1.1-14.2 1.1-36.3-.1-32.4-1-51.7-3.1-61-.6-2.9-.6-7.1 0-12 1.3-10.3 2.2-32.9 2.1-54.5-.1-17.2-.2-18.2-2.6-22.7-2.3-4.3-2.5-5.8-2.5-18.5-.1-14.7-.1-14.8.4-26.3.1-4.1-.5-14.2-1.3-22.3-1.3-12.1-1.4-15.2-.3-16.9 1-1.6 1-2.6-.2-5.1-1.7-3.7-4.2-24.1-3.2-25.8.5-.7 2.1-.9 4.1-.6 1.9.3 3.6.1 3.9-.4.4-.5 1.7-.9 2.9-.9 1.3 0 2.9-.7 3.6-1.5 1.3-1.6 8.9-1.5 25 .5z"/><path d="M808.155 278.61c-.6.5-4.4 1-8.5 1-4.1.1-8.5.1-9.7.2h-9.8c-4.1 0-9.9-.1-12.7-.1-2.9 0-9.6-.1-14.8-.2-12.1-.3-15.9-.2-36 .6-9.1.4-18.1.7-20 .5-1.9-.1-5.3-.1-7.5 0-2.2 0-9.2.1-15.5.1-6.3-.1-16.2 0-22 .2-5.8.1-14 .1-18.3-.1-5.9-.1-8.5.2-10.4 1.4-3 2-16.9 2.3-22.9.5-3.8-1.1-4.4-1.1-7.2 1-2.6 2-3.5 2.1-5.9 1.2-4.8-1.9-14.8-1.9-16.9-.1-1.7 1.4-3.4 1.5-13.4.8-6.3-.5-13.2-.6-15.3-.3-2.1.3-4.3.2-5-.4-1.8-1.4-6.3-2.3-7.1-1.4-1.5 1.4-19 1.1-23.6-.4-2.9-1-8.3-1.6-15-1.6-18.9 0-33.5-.6-35.4-1.3-1-.5-2.7-.3-3.7.3s-5.3 1.1-9.6 1.1c-4.3-.1-9.1.4-10.6 1-1.6.6-3.2.9-3.7.6-1.2-.8-52.9 1.3-58.5 2.4-4 .8-5.5.7-7.3-.5-1.9-1.3-3.2-1.4-7-.5-6.1 1.5-48.4 2.2-52.9.9-4.2-1.2-32.1.9-34.1 2.5-2.4 1.9-4.3 8-3.7 11.5.8 4.1 7.2 11.2 10.2 11.2 1.2 0 3.4.5 4.9 1 3 1.2 16.6-.3 21.2-2.2 1.5-.7 6.1-1 10.2-.9 6 .2 8 .7 9.8 2.4 1.3 1.2 3.5 2 5.5 2 15.6-.3 28.7-.2 30 .3.8.3 3.3 0 5.5-.6 2.3-.6 9.4-1.3 15.9-1.5 29.7-1.3 36.7-1.6 49.4-2.5 7.5-.5 14.8-1.5 16.3-2.1 2.1-1 3.4-1 6.1 0 1.8.6 4.4.9 5.7.6 4.5-1.2 15.6-1.3 32.3-.4 23.4 1.2 53.7 1.5 55.3.5.7-.4 2.6-.3 4.2.4 2 .8 5.9 1 12.2.6 5.1-.4 11.9-.6 15-.6 3.7.1 6.6-.5 8.2-1.5 1.9-1.3 4.8-1.7 12.3-1.6 17.3.2 19.2.1 19.8-.9.3-.6 1.9-1 3.5-1s4.1-.5 5.5-1.2c1.9-.8 3.1-.8 5 0 1.5.7 9.7 1.2 21.2 1.3 11.4.1 19.4.6 20.4 1.2 1.3.8 2.4.8 4.1-.2 1.7-.9 3.5-.9 6.5-.3 2.8.6 5.7.6 9-.2 2.7-.6 10.3-1 17.3-.8 29.2.7 57.9-.1 60.7-1.6 1.8-1 2.2-.9 2.5.5.3 1.5 2.1 1.8 14.8 2.1 20.4.5 21.8.5 25.6-.3 2-.3 5.3-2.2 7.5-4.2 4.4-4 4.9-6.8 2.3-13.3-2.2-5.6-9.2-9.7-11.9-7.1zm141 230.2c-.5.7-2.6 1-5.7.7-2.7-.3-5.1-.1-5.5.5-.3.6-3.5.7-8.1.3-4.8-.4-8-.2-8.8.5-.7.6-7.9 1.2-17.1 1.4-8.7.2-19.6.8-24.3 1.3-5.6.6-9.1.6-10.4 0-1.2-.7-2.6-.7-4 0-3.3 1.5-19.4 3.2-21.9 2.3-1.3-.5-5.9-.3-11.1.5-4.9.7-9.3 1.1-9.6.9-.4-.3-3.1 0-6.1.4-3 .5-8.8.6-12.8.1-4.1-.4-8.6-.4-10 0-8.6 2.6-14.1 3.2-19.7 2.2-3.7-.6-7.7-.7-10.9-.1-2.7.5-14 1.6-25 2.4-11 .8-20.6 1.7-21.3 2-.7.2-10.9.5-22.8.6-11.9.1-25.7.5-30.7 1-10.5 1-40.3 1.8-118.2 3.4-15.4.3-31.4.9-35.5 1.4-4.2.6-8.1.6-9 .1-.9-.5-7.2-.7-14.1-.4-7.5.2-18.1-.2-26.8-1.2-7.9-.8-16.7-1.5-19.5-1.5-2.8 0-14.3-.3-25.6-.6-26.8-.8-56.6-1-89-.3-16.3.3-22.9-.2-29.4-2.2-5.4-1.6-7.3-1.8-8.8-.9-1 .6-5 1.6-8.9 2.1-3.9.6-7.5 1.2-7.9 1.5-1.5.9-4.2 9.2-3.8 11.6.4 3.2 13.2 10.9 22.8 13.8 2.5.7 5.7 1.9 7.2 2.7 2.9 1.6 7.4 1.9 8.2.5.3-.5 2-1.1 3.8-1.4 1.8-.2 5.8-1 8.9-1.6 4.5-.9 6.3-.9 9.6.3 3.2 1.1 5.4 1.2 10.4.4 3.5-.5 14.1-1.3 23.5-1.7 12.2-.4 17.6-1 18.7-2 1.1-.8 2.6-1.1 4.4-.6 1.6.4 9.3.7 17.2.6 8 0 15 .4 15.5.8.6.5 9 1.2 18.6 1.5 9.6.4 22.9 1 29.5 1.4 14.1.8 50 .7 70.5-.3 8-.4 15.6-.7 17-.7 4.4.1 22.9-.1 44-.4 11.3-.2 24.3-.4 28.9-.4 4.6 0 8.9-.4 9.5-.9.7-.6 6.1-1.1 12.1-1.2 6.1-.1 11.8-.6 12.8-1.1 1-.5 15.6-1.1 32.5-1.3 37.1-.6 49.6-1.1 54.2-2.4 3.5-1 25.8-2.4 36-2.1 3 0 7.1-.4 9-.9 6.5-1.8 27.2-3.2 32.5-2.2 3.1.6 5.6.6 6.7 0 1-.5 7.9-1 15.5-1 7.5 0 14.5-.5 15.5-1 1-.6 8.7-1.1 17.1-1.3 24.2-.6 43-1.7 45.8-2.7 1.8-.7 5.1-.7 9.8 0 5.7.7 7.9.7 10.5-.4 4.9-2.1 52.5-1.6 55.1.5 1.5 1.2 5.5 1.5 21.7 1.5l20 .1 2-4.3c1.1-2.4 2.4-4.6 2.9-4.9 1.4-.8 1-6.2-.6-9.5-2.8-5.3-6.4-5.8-38.5-6.2-11.3-.1-21-.5-21.5-.9-1.1-.6-17.2-1-27-.5-2.7.1-6-.2-7.2-.6-1.3-.5-2.4-.4-2.8.4z"/></g></svg>