<svg xmlns="http://www.w3.org/2000/svg" viewBox="0 0 600 600" height="800" width="800" version="1.0"><g stroke="#343434" stroke-width="7.5" fill="#343434"><path d="M527.402.377c-.436.218-1.463.405-2.335.405-.841 0-2.679.218-4.05.498-1.37.249-3.02.405-3.643.311-.716-.124-1.62 0-2.398.312-.997.405-1.558.436-2.71.187-1.277-.28-1.588-.25-2.18.218-.747.591-1.183.591-9.468.218-8.284-.405-9.53-.436-10.06-.125-1.463.779-4.173.872-9.717.405-10.308-.872-13.392-1.028-13.703-.81-.156.156-1.121.28-2.087.28-.996.032-2.211.25-2.678.499-1.06.56-4.298.342-5.046-.312-.591-.498-3.394-.155-4.204.499-.374.311-.748.311-1.807.03-.965-.28-1.557-.28-2.18-.062-.498.187-1.713.343-2.71.343-1.027 0-2.18.156-2.615.343-.436.218-1.028.249-1.34.124-.311-.155-1.681-.311-3.052-.373-3.8-.156-4.267-.156-5.606.03-.685.125-1.526.156-1.868.156-.343-.03-2.648-.093-5.14-.155-2.49-.031-6.695-.156-9.374-.25-4.142-.155-4.92-.124-5.263.28-.343.406-.467.437-.903.063-.28-.25-1.215-.53-2.118-.623-1.308-.156-1.775-.062-2.336.405-.685.53-.779.53-1.588.062-.717-.436-.966-.436-1.495-.124-.499.311-1.433.374-3.675.218-2.554-.187-3.084-.156-3.426.28-.499.592-1.308.654-1.838.125-.218-.218-1.432-.312-3.55-.25-6.073.156-7.568.156-9.437-.03-1.028-.094-2.71-.094-3.737.03-1.744.219-3.302.094-7.755-.622-1.308-.218-1.994-.187-2.274.03-.28.25-.654.25-1.246 0-.498-.186-2.117-.404-3.675-.498-1.526-.093-3.363-.28-4.017-.436-.81-.218-1.433-.186-1.838.032-.374.186-2.772.28-6.26.249-9.78-.156-15.479 0-20.68.623-1.557.186-4.703.186-8.097.03-3.021-.155-5.638-.186-5.762-.124-.156.094-.623 0-1.028-.218-.623-.342-.84-.342-1.277.094-.623.53-.903.53-9.623.436-3.364-.032-5.482-.187-5.762-.405-.28-.25-3.582-.374-10.247-.436-5.388-.031-11.99-.094-14.638-.125-2.71 0-6.042.156-7.63.405-1.526.218-3.083.405-3.426.405-4.08-.125-9.717.093-13.143.498-1.433.156-3.27.187-4.111.031-2.242-.342-9.468-.716-12.333-.623-3.177.094-3.021.094-5.606-.249-1.184-.155-4.859-.28-8.16-.28-4.205 0-6.167-.125-6.696-.405-.748-.405-3.644-.592-3.862-.249-.062.125-1.464.218-3.114.218-2.118.031-3.146.156-3.52.467-.498.467-5.45.997-8.097.872-.935-.03-1.558.125-1.962.499-.499.436-.717.467-1.651.124-.592-.218-1.246-.28-1.464-.156-.187.125-1.962.187-3.893.156-2.305-.062-3.706.031-3.986.28-.312.25-.748.25-1.558.032-.84-.218-1.432-.187-2.398.155-1.744.623-2.834.56-3.8-.218-.778-.623-.871-.623-1.4-.155-.312.28-.966.498-1.496.498s-1.277.28-1.713.592c-.685.56-.965.591-3.145.28-1.62-.25-2.648-.25-3.115-.031-.436.187-2.18.218-4.734.062-2.211-.125-5.575-.125-7.412.031-3.115.218-9.53-.062-10.216-.498-.404-.25-7.35-.81-9-.748-2.43.125-3.8.094-7.039-.155-2.242-.187-3.208-.125-3.364.124-.124.187-.56.343-.996.343-.436 0-1.308.28-1.993.623-.686.342-1.464.623-1.776.623-.311 0-1.027.28-1.588.623-.779.467-1.152.56-1.62.311-.654-.343-2.585-.436-2.896-.093-.125.093-1.059.249-2.118.311-1.059.031-2.491.343-3.239.685-.716.312-2.211.685-3.301.81-1.09.124-2.274.436-2.616.654-.343.25-.966.436-1.402.436-.436 0-.965.156-1.183.374-.218.218-.903.405-1.557.467-1.807.093-4.828.778-5.513 1.246-.343.218-1.184.405-1.931.405-.716 0-1.402.124-1.495.311-.093.156-.405.311-.654.311-.28 0-1.152.561-1.962 1.246-.81.685-1.65 1.246-1.869 1.246-.187 0-1.09.685-1.993 1.557-.903.841-1.838 1.557-2.118 1.557-.654 0-1.526.997-1.526 1.776 0 .342-.342.934-.779 1.339-.436.405-.778.872-.778 1.028 0 .155-.623 1.12-1.402 2.117-.778 1.028-1.401 2.056-1.401 2.305 0 .218-.125.53-.312.623-.155.093-.311.467-.311.779 0 .311-.343.84-.779 1.152-.778.56-1.152 1.838-1.557 5.668-.062.56-.249 1.184-.436 1.37-.187.188-.342.592-.342.873 0 .28-.28.716-.623.934-.499.343-.717.997-.966 3.239-.405 3.426-.934 6.042-1.277 6.26-.124.094-.249.841-.249 1.682 0 .84-.124 1.588-.28 1.682-.125.093-.343 1.027-.467 2.024-.125 1.028-.343 1.962-.499 2.056-.187.124-.311.623-.311 1.12 0 .53-.156 1.247-.343 1.59-.187.342-.405 2.615-.498 5.013-.125 3.146-.311 4.61-.623 5.108-.343.498-.467 1.526-.436 3.52 0 1.526-.093 2.865-.25 2.958-.155.094-.28 4.454-.28 9.686-.03 8.596-.062 9.624-.591 10.652-.654 1.339-.685 3.612-.094 8.876.28 2.273.312 3.457.094 3.675-.187.187-.25 1.432-.156 3.114.094 1.62.031 2.928-.156 3.146-.373.467-.342 13.018.032 13.579.124.218.155.498.062.654-.125.156.031.685.342 1.183.499.872.468.997-.186 2.367-.561 1.153-.623 1.558-.343 2.087.218.374.311 1.401.25 2.305-.063.872-.032 5.138.124 9.499.218 6.82.311 8.004.778 8.502.436.498.467.685.125 1.215-.218.405-.28.778-.094.996.156.218.312 1.963.343 3.925.031 2.522.187 3.737.498 4.204.561.779.592 1.806.125 2.274-.28.28-.28.591.031 1.308.187.498.28 1.059.187 1.214-.093.156-.031 3.021.156 6.323.187 3.332.342 6.447.311 6.976a108.79 108.79 0 00-.124 2.959c-.063 1.121-.125 6.01-.125 10.9 0 4.89-.031 9.375-.031 9.967 0 .591-.031 4.952-.062 9.654-.094 9.126.186 17.722.654 19.808.155.748.124 2.367-.032 3.893-.155 1.433-.498 4.33-.747 6.447-.343 2.959-.374 4.236-.125 5.669.28 1.401.28 2.055 0 2.553-.249.499-.311 2.056-.186 5.077.28 6.696.28 8.97 0 9.655-.28.623-.592 4.08-.53 6.104 0 .654-.187 2.149-.405 3.364-.342 1.837-.342 2.398 0 3.363.498 1.433.56 2.803.125 3.052-.156.094-.312 1.122-.312 2.274-.03 1.152-.155 2.71-.311 3.488-.156.903-.156 1.526.062 1.806.218.218.25.997.094 2.025a24.87 24.87 0 00-.218 2.865c.03.685.03 3.488.062 6.229.031 4.454.342 10.184.778 13.704.125 1.12.25 3.488.592 10.122.031 1.12.187 5.045.312 8.72.124 3.675.342 8.035.498 9.655.187 2.024.187 3.052-.062 3.332-.499.623-.717 5.606-.25 6.167.312.374.312.56-.03.965-.343.436-.437 3.302-.499 14.887-.031 7.88-.125 16.725-.218 19.653-.125 2.896-.187 7.941-.187 11.18 0 4.921.062 6.011.499 6.665.373.56.436.935.186 1.433-.56 1.121-.654 3.675-.218 4.36.468.748.499 1.838.468 13.361 0 4.392.093 8.253.249 8.565.623 1.183 1.308 10.651 1.027 14.544-.03.686-.03 4.111.032 7.63.062 4.112-.032 7.102-.28 8.41-.219 1.121-.437 4.329-.53 7.163-.062 2.834-.28 5.544-.467 6.01-.25.655-.25 1.091.093 1.714.218.467.498 2.305.592 4.11.187 2.773.124 3.333-.312 3.8-.467.53-.498.873-.186 2.96.249 1.806.249 2.896-.063 4.733-.218 1.308-.56 4.33-.778 6.727-.187 2.399-.499 4.672-.654 5.046-.156.405-.156 1.028 0 1.432.155.437.124 1.589-.156 3.021-.218 1.277-.405 2.928-.405 3.644-.031.717-.343 2.118-.716 3.115-.623 1.62-.686 2.43-.748 7.88-.03 6.57-.592 14.45-1.09 15.354-.156.311-.218.685-.124.81.062.155.218 2.709.311 5.668.187 5.481.125 5.917-1.09 8.128-.405.717-.405 3.582 0 3.831.187.094.311.53.311.934 0 .53.374.935 1.433 1.527.81.436 1.682.81 1.993.81.903 0 1.558 1.09 1.744 2.833.094.935.436 2.336.779 3.146.405.997.592 2.211.592 3.862 0 1.9.124 2.554.56 3.052.312.374.748 1.526.966 2.585.311 1.682.311 2.056-.125 2.71-.498.716-.467.81.592 2.21.623.81 1.526 1.87 2.024 2.368.499.498.966 1.308 1.028 1.775.062.685.28.872 1.184.997.965.124 1.12.28 1.245 1.214.156 1.028.25 1.09 1.87 1.402.933.187 2.055.592 2.49.903.406.28 1.06.53 1.464.53.374 0 .779.155.872.311.094.187.468.311.78.311.31 0 .996.343 1.494.78.53.435 1.152.778 1.402.778.28 0 .591.155.685.342.155.218.467.156.934-.155.903-.592 2.024-.436 9.5 1.401 1.65.436 4.11.716 6.54.81 2.148.093 4.017.28 4.204.436.436.436 2.43.342 3.613-.156.81-.342 2.74-.405 9.904-.28 8.315.156 12.956 0 26.504-.903 2.834-.187 5.574-.312 6.073-.312 2.865 0 11.835-.685 13.703-1.028 4.143-.84 6.759-1.027 15.728-1.214 5.513-.125 10.06-.499 14.327-1.121 1.277-.187 2.74-.28 3.208-.187.498.093 1.463.062 2.18-.094.716-.155 2.149-.467 3.176-.654 2.803-.53 4.641-.996 4.984-1.246.186-.124 1.09-.124 2.024 0 .934.125 1.806.187 1.93.094.126-.062 3.053-.156 6.479-.218s6.322-.187 6.447-.312c.093-.093.436.032.747.312.436.405.654.436 1.277.093.436-.249 2.336-.436 4.921-.498 2.305-.062 4.828-.28 5.606-.498 1.464-.436 4.111-.467 5.855-.063.717.156 1.37.032 2.367-.436 1.215-.623 1.744-.654 5.824-.53 6.603.219 14.358.53 15.074.593.997.093 7.132-.779 7.475-1.06.187-.124 1.557-.248 3.02-.248 1.496.03 2.866-.063 3.022-.187.187-.094.779.062 1.308.342.81.405 1.215.436 2.149.156 1.433-.405 4.516-.436 5.263-.062.374.218 1.184.155 2.398-.125.997-.218 5.14-.56 9.157-.778 4.018-.187 7.661-.468 8.098-.623 1.712-.592 20.368-1.682 26.877-1.589 1.34.031 2.585-.062 2.803-.187.436-.28 1.308-.311 12.209-.529 4.453-.093 8.72-.218 9.499-.28.778-.063 1.65 0 1.962.155.343.187 2.554.094 5.762-.218 2.865-.311 6.384-.591 7.848-.623 3.582-.155 10.216-.716 13.08-1.09 1.278-.186 2.835-.218 3.427-.124 1.93.342 3.8.405 4.516.124.373-.124 2.21-.124 4.048 0 2.15.187 3.52.187 3.769-.03.187-.156.592-.219.872-.094.28.093.716.031.934-.187.405-.311 6.696-.405 16.07-.28.437.03 1.9-.156 3.271-.343 1.37-.218 3.052-.436 3.737-.498a42.803 42.803 0 002.336-.312c.592-.093 3.333-.03 6.073.125 2.741.156 5.108.218 5.264.125.155-.094 1.401-.219 2.803-.28 1.401-.032 5.263-.25 8.596-.437 3.332-.156 6.79-.342 7.692-.374.872-.03 1.682-.155 1.807-.28.124-.124.623-.156 1.09-.031.56.093 1.152-.031 1.588-.343.841-.56 2.99-.654 4.765-.155 1.028.28 1.277.249 1.869-.25.592-.529 1.028-.56 4.858-.404 3.115.155 4.36.093 4.828-.187.467-.312 2.647-.374 8.471-.343 7.32.031 7.88 0 8.503-.56.56-.499.747-.53 1.276-.218.312.218.935.311 1.37.186.437-.093 1.029-.093 1.309.063.311.124 2.367.187 4.578.155 3.083-.03 4.516-.218 5.98-.685 1.526-.498 2.087-.56 2.585-.28.56.28.903.125 2.273-.965 1.558-1.215 1.682-1.402 1.963-3.177.311-1.869.342-1.931 1.463-2.18 1.9-.436 2.15-.997 2.243-4.64.062-1.745-.031-3.364-.187-3.582-.218-.25-.125-.717.187-1.37.28-.561.498-1.309.498-1.683 0-.373.28-.934.623-1.245.716-.654 1.121-1.9 1.401-4.36.156-1.309.436-2.118.997-2.772.872-1.028 2.274-3.707 2.274-4.33 0-.218.342-.747.778-1.152.436-.405.779-.965.779-1.277 0-.28.218-.716.498-.934.623-.498 2.74-3.675 3.582-5.326.747-1.464 4.391-5.232 5.045-5.232.716 0 1.152-.966 1.215-2.834.062-1.495.155-1.682 1.121-2.243.84-.498.997-.747.84-1.432-.28-1.37-.747-9.001-.56-9.624.063-.343-.093-1.059-.373-1.588-.25-.53-.405-1.122-.312-1.308.125-.156-.031-.686-.311-1.122-.405-.623-.499-1.277-.405-2.865.093-1.152 0-2.305-.187-2.585-.25-.405-.187-.81.187-1.557.374-.716.592-2.15.685-4.765.405-8.908.84-14.451 1.152-14.67.156-.093.28-.498.28-.934 0-.436.156-1.09.343-1.463.28-.468.405-4.703.467-14.047.063-11.056 0-13.61-.373-14.482-.25-.623-.374-1.464-.25-2.055.094-.56.032-1.558-.155-2.212-.405-1.401-.81-12.084-.467-12.613.373-.623.373-7.257 0-7.724-.218-.28-.374-3.208-.436-8.565-.063-5.294-.218-8.377-.436-8.845-.28-.53-.25-.872.062-1.432.218-.467.311-1.215.187-1.962-.094-.654-.25-2.46-.343-3.987-.093-1.557-.28-3.581-.436-4.516-.997-5.606-1.121-9.81-.374-10.714.405-.467.374-.654-.093-1.432-.436-.779-.467-1.184-.187-2.928.374-2.429.156-19.963-.311-21.645-.28-1.153-.187-6.136.249-11.866.218-2.865.155-3.426-.343-4.485-.53-1.09-.56-1.464-.218-3.737.187-1.402.498-3.24.654-4.08.405-1.838.374-1.246.125-23.359-.094-9.592-.156-18.157-.125-18.998.125-2.554.062-3.924-.342-6.54-.436-3.052-.468-5.077-.187-19.621.28-12.8.436-17.223.685-19.777.218-2.055.28-4.485.187-7.007a49.87 49.87 0 01-.063-3.738c.032-3.363-.28-11.99-.436-12.24-.062-.124-.186-2.273-.218-4.733-.03-3.053-.186-4.797-.467-5.357-.311-.592-.342-1.06-.124-1.65.373-.966.124-5.856-.53-10.434-.591-4.174-.685-5.295-.81-9.655-.03-2.024-.249-3.893-.467-4.267-.467-.84-.467-2.118-.062-2.927.374-.686.53-13.393.156-13.984-.125-.187-.343-3.893-.499-8.191-.155-4.33-.467-9.032-.685-10.465-.249-1.526-.342-3.114-.187-3.862.125-.716.094-1.62-.062-2.055-.187-.405-.28-1.433-.249-2.243.062-.996-.093-1.682-.405-2.055-.84-.966-1.246-9.998-.498-10.932.249-.28.187-.53-.187-.934-.56-.654-.716-3.644-.156-3.956.623-.405-.28-8.533-1.152-10.215-.53-1.09-.592-6.167-.062-6.696.404-.405.685-6.198.529-11.119-.125-4.671-.093-5.73.343-7.942.186-1.12.467-3.643.591-5.606.125-1.962.312-3.83.468-4.11.155-.343.03-.873-.312-1.433-.498-.903-.498-.966.093-1.807.592-.84.623-1.277.499-7.91-.312-14.95-.125-23.452.56-25.695.436-1.526.872-6.197.592-6.54-.374-.467-.342-6.509.062-8.876.374-2.242.717-15.385.561-20.026-.093-1.744.25-4.485.779-6.291.28-.966.436-1.931.373-2.15-.249-.653-3.55-2.366-4.516-2.366-1.09 0-1.713-.654-2.335-2.492l-.468-1.37-1.65-.031c-.935-.031-2.025.156-2.46.374zm-1.401 6.166c1.277.031 2.211.25 2.927.717.686.404 1.37.591 1.9.498.748-.156.841-.094.841.872.156 8.253.062 13.766-.249 14.14-.28.342-.25.56.031.903.312.373.343 1.868.156 6.945-.374 9.312-.53 11.68-1.402 21.24-.373 4.08-.405 9.873-.062 12.24.125.997.156 2.803 0 4.018-.125 1.214-.156 2.336-.062 2.491.093.156.03.468-.156.686-.218.28-.218.747 0 1.588.187.654.25 1.713.125 2.305-.125.623-.28 2.242-.312 3.612a334.1 334.1 0 01-.436 7.164c-.187 2.553-.342 5.17-.311 5.761.03.592.03 1.464 0 1.931a51.627 51.627 0 000 3.115c0 .405-.125 2.46-.343 4.61-1.277 14.232-1.246 27.53.062 29.182.156.218.28 1.339.25 2.491-.032 1.152-.032 2.18 0 2.274.03.093.124 2.335.186 4.983.094 2.647.25 5.294.405 5.824.156.56.187 1.837.031 2.803-.155 1.214-.124 1.962.094 2.242.28.343.716 4.018.84 7.35.032.312.157.748.312.935.156.186.343 1.432.436 2.803.125 1.37.312 3.425.436 4.578.125 1.152.125 3.737 0 5.762-.187 3.052-.155 3.768.25 4.39.373.562.404.935.155 1.714-.218.623-.28 3.768-.187 8.409.094 5.948.218 7.568.592 8.16.374.591.436 1.557.343 5.419-.125 3.426-.031 5.014.249 5.917.342.935.374 1.589.093 2.803-.249 1.246-.218 1.776.063 2.243.28.436.436 2.834.56 7.692.062 3.893.312 8.69.498 10.652.499 5.357.654 12.364.561 26.846v1.402c.031.311-.031 1.682-.156 3.052-.218 3.021-.373 9.25-.56 20.711-.094 6.758-.031 8.783.311 9.593.312.716.343 1.183.094 1.62-.156.31-.312 1.276-.312 2.117 0 .81-.156 2.273-.311 3.208-.218 1.152-.218 2.523.03 4.329a76.93 76.93 0 01.437 4.827c.062 1.184.28 5.388.467 9.344.28 5.138.28 8.315.031 11.18-.187 2.585-.218 4.236 0 4.579.156.311.218 1.526.125 2.678-.094 1.152-.218 3.955-.25 6.167-.062 2.242-.186 4.204-.28 4.36-.093.187-.062 2.118.094 4.329.218 2.74.218 4.516-.031 5.575-.218 1.09-.218 1.65 0 1.962.186.218.404 2.118.467 4.205.124 3.207.062 3.924-.374 4.39-.28.312-.467.935-.436 1.402.467 9.313.498 12.832.156 17.69-.374 5.544-.312 8.44.187 9.032.342.405.342.623 0 1.246-.312.592-.312 1.215-.032 3.177.218 1.34.405 3.27.468 4.298.03 1.028.155 2.055.311 2.273.125.218.374 2.118.53 4.205.436 5.357.436 5.388.28 11.43 0 .592.124 3.613.311 6.696.685 11.523.872 17.752.592 18.095-.187.218-.187 1.401 0 3.114.374 3.55.374 25.508 0 26.785-.187.56-.187 1.744 0 2.958.218 1.65.187 2.087-.218 2.523-.25.311-.654.56-.903.56-.499 0-.53.374 0 .873.53.56.56 3.083.03 4.671-.248.717-.435 2.056-.435 2.959s-.156 2.18-.312 2.865c-.155.685-.404 2.585-.498 4.205-.187 2.772-.156 2.99.467 3.55.717.654.841 1.433.28 1.994-.467.467-.871 7.723-.56 10.215.125 1.059.405 2.211.592 2.585.218.374.311.779.218.903-.094.156 0 .841.187 1.526.249.997.218 1.495-.187 2.305-.374.84-.436 1.588-.218 3.706.28 2.959.156 3.27-1.433 3.955-.56.218-1.028.623-1.028.872 0 .218-.56 1.06-1.214 1.838-.685.779-1.526 2.087-1.9 2.896-1.495 3.177-1.744 3.613-2.71 4.61-.56.592-1.027 1.308-1.027 1.65 0 .312-.468 1.028-1.028 1.558-.997.965-1.06.996-1.557.436-.499-.53-.623-5.357-.468-18.905.063-5.014-.342-20.68-.498-21.085-.156-.311 0-1.62.312-2.959.56-2.367.716-7.318.436-13.33-.032-1.214.062-3.145.218-4.297.186-1.308.186-3.395.03-5.45-.342-3.925-.591-7.942-.591-9.22 0-.498-.125-1.09-.311-1.339-.187-.218-.25-.654-.125-.934.25-.56.343-1.557.592-7.257.062-1.806.311-3.986.498-4.827.311-1.308.654-5.357.623-7.007-.094-3.769-.031-7.07.124-8.627.125-1.184.094-2.18-.093-2.554-.218-.374-.218-.904-.062-1.495.28-.841 1.09-11.119.996-12.396-.03-.342-.062-1.246-.03-2.024 0-.748-.188-2.865-.437-4.672-.342-2.211-.467-5.17-.405-9.125.063-3.27-.03-5.949-.187-6.042-.155-.094-.186-.841-.093-1.62.125-.84.031-1.93-.156-2.522-.28-.779-.28-1.37 0-2.523.218-.841.28-1.682.156-1.9-.28-.436-.374-6.79-.093-6.976.093-.063.218-1.34.28-2.834.156-5.295.25-7.101.467-8.596.125-.81.062-2.398-.156-3.55-.311-1.932-.311-2.119.312-2.96.498-.685.592-1.12.436-2.055-.125-.623-.312-1.37-.467-1.62-.125-.28-.094-1.152.093-1.993.218-1.059.218-1.588-.031-1.837-.187-.187-.343-1.464-.343-2.928 0-1.62-.187-3.02-.467-3.737-.436-.997-.436-1.277-.03-2.087.31-.747.404-1.962.31-5.17-.186-5.45-.249-6.135-.529-6.416-.343-.373-.25-1.65.218-2.553.343-.655.374-1.464.156-3.8-.156-1.62-.343-5.855-.405-9.437-.062-3.55-.187-6.54-.312-6.665-.342-.374-.186-1.744.25-2.242.56-.623.622-2.492.186-7.35a391.14 391.14 0 01-.467-6.946c-.093-1.775-.249-3.394-.373-3.581-.125-.187-.25-1.37-.25-2.616-.03-1.34-.218-2.43-.467-2.741-.311-.374-.311-.654-.03-1.277.186-.436.342-1.557.342-2.491 0-.935.124-1.963.311-2.274.218-.436.156-.716-.249-1.059-.467-.436-.53-1.059-.467-4.734.031-2.71.187-4.422.436-4.703.28-.342.249-.654-.125-1.432-.311-.654-.436-1.682-.405-2.741.063-.934-.093-2.336-.311-3.083-.343-1.184-.343-1.495.093-2.336.374-.716.499-1.775.468-4.08 0-1.713-.032-5.482-.032-8.378 0-4.173-.093-5.357-.467-5.762-.249-.28-.467-.996-.498-1.588 0-.592-.031-1.65-.031-2.336 0-.685.155-2.71.374-4.516.342-2.99.404-4.485.31-7.475-.03-.591.032-1.9.157-2.896.093-.997.062-1.962-.125-2.18-.156-.218-.187-1.37-.031-2.865.187-2.025.156-2.616-.25-3.24-.373-.56-.435-1.183-.248-2.678.124-1.401.093-2.149-.218-2.616-.343-.53-.312-.779.03-1.37.343-.499.5-2.212.561-6.914.25-13.455.187-17.69-.342-21.179-.312-1.9-.53-4.266-.499-5.294.032-1.028 0-2.305-.03-2.803a21.93 21.93 0 010-2.025c.186-5.543.124-9.343-.188-10.308-.186-.592-.373-2.212-.404-3.582-.094-4.703-.28-8.378-.53-11.492-.218-2.274-.187-3.55.125-4.765.498-2.056.53-5.731.03-6.23-.28-.28-.28-.529.032-1.09.218-.373.343-1.339.311-2.086-.03-.779.063-2.647.187-4.142.187-2.367.125-2.834-.311-3.333-.436-.467-.53-1.152-.436-3.644.031-1.681-.031-3.27-.125-3.519-.093-.25-.249-1.246-.311-2.18-.094-.934-.312-2.43-.53-3.27-.436-1.744-.467-3.27-.249-7.724.094-1.682.031-3.115-.093-3.208-.156-.093-.28-.903-.28-1.775 0-1.713-.53-3.55-1.215-4.392-.374-.436-.374-.654-.031-1.37.28-.56.436-2.834.498-7.1.062-3.458.187-6.479.311-6.76.094-.28.032-1.245-.155-2.148s-.28-2.772-.218-4.142c.093-1.744 0-2.648-.28-2.96-.405-.466-.374-.996.467-5.76.685-4.018.872-5.918.622-6.385-.311-.561-.062-4.267.343-5.015.405-.81-.374-4.36-1.215-5.512-.654-.872-.716-1.121-.404-1.713.186-.374.311-1.028.28-1.464-.094-.747-.031-.779 1.34-.685l1.463.093.218-1.744c.156-1.34.093-1.93-.28-2.491-.28-.405-.499-1.028-.499-1.34 0-.342-.187-.778-.436-.965-.685-.56-.81-4.36-.218-6.852.28-1.183.623-2.273.748-2.398.124-.125.218-.436.218-.716.03-.28.28-1.06.623-1.744.342-.686.591-1.558.622-1.9 0-.717 2.399-3.084 3.987-3.924.53-.28 1.401-1.215 1.93-2.056.53-.872 1.153-1.65 1.402-1.744.966-.343.436-3.83-.622-4.236-.405-.155-.81-.436-.935-.591-.093-.187-.592-.343-1.09-.343-1.214 0-2.927 1.557-3.924 3.488-.436.841-1.121 1.682-1.557 1.869-.997.467-4.298 4.765-4.734 6.166-.156.592-.53 1.87-.81 2.803-.25.935-.685 2.399-.934 3.27-.25.841-.56 2.243-.686 3.115-.093.84-.342 1.806-.498 2.118-.187.342-.093 1.028.218 1.93.25.78.467 1.838.467 2.368 0 .498.343 1.464.779 2.086.84 1.246.997 2.212.405 2.803-.56.561-1.028.468-2.025-.373-.81-.685-.996-.717-2.74-.436-1.028.155-2.679.218-3.644.124-1.153-.124-1.869-.062-1.993.156-.125.25-.841.28-1.994.187-1.183-.125-1.9-.062-2.149.187-.28.28-.498.249-1.059-.063-.467-.311-2.21-.498-5.886-.591-4.516-.125-5.357-.063-6.353.405-1.028.467-1.713.53-5.575.311-2.43-.093-5.886-.25-7.662-.311-1.775-.063-4.204-.218-5.419-.343-2.71-.28-2.803-.28-13.392 0-14.918.343-16.974.436-22.735.934-6.074.53-11.181.468-12.303-.124-.529-.28-1.775-.312-4.578-.156-3.239.187-3.955.156-4.61-.28-.435-.28-1.37-.499-2.242-.467-.81 0-2.024-.063-2.678-.187-.84-.156-1.37-.094-1.93.28-.468.311-1.434.498-2.555.498-1.09 0-2.18.218-2.74.499-1.122.623-5.015.747-6.759.218-.81-.218-2.336-.25-5.294 0-2.835.218-5.482.218-8.503 0-2.398-.187-5.014-.25-5.793-.187-.81.093-1.775 0-2.149-.218-.53-.28-.81-.25-1.463.155-.561.374-.872.437-1.122.187-.436-.436-1.681-.436-1.962 0-.093.187-.498.25-.872.125-.342-.093-2.834-.25-5.481-.343-2.648-.062-5.513-.28-6.323-.436-.872-.187-1.712-.187-2.024-.03-.28.124-1.775.217-3.332.124-6.292-.25-14.67-.094-15.323.311-.187.125-.748.062-1.215-.093-2.211-.841-18.344-.997-22.237-.218-4.267.872-7.257 1.121-7.818.654-.622-.56-.84-.53-1.993.062-.685.343-1.682.467-3.581.405-1.464-.031-3.27.093-4.018.311-1.059.28-1.588.28-2.242.032-.592-.25-1.028-.28-1.433-.032-.343.156-2.056.405-3.862.499-1.775.124-3.582.342-4.018.498-.436.125-3.02.343-5.761.467-13.33.499-16.88.717-17.753 1.028-.56.187-5.481.405-12.769.498-6.51.094-12.177.187-12.613.218-1.62.063-7.693-.405-8.845-.716-.997-.28-5.7-.654-8.285-.685-.436 0-3.083.093-5.917.218-2.834.156-5.762.28-6.54.311-.78 0-1.558.125-1.776.28-.187.125-1.65 0-3.27-.28-4.61-.81-9.125-.747-16.662.312-2.554.342-3.769.405-4.36.155-1.122-.404-5.077-.591-5.762-.249-.779.436-24.48.592-25.881.218-1.028-.311-1.246-.28-1.87.312-.497.467-1.12.685-1.992.685-.717 0-1.682.156-2.18.342-1.246.468-7.07.904-14.327 1.06-4.236.093-6.478.249-6.914.529-.498.311-.779.28-1.65-.187-.873-.467-1.34-.498-3.208-.25-1.651.25-2.336.219-2.803-.093-.468-.28-2.274-.373-6.54-.373-4.112 0-7.195-.156-10.06-.56-3.27-.468-4.36-.5-5.108-.219-1.06.405-3.769 0-4.578-.654-.28-.218-1.028-.592-1.713-.81-1.651-.56-5.17-2.803-5.17-3.332 0-.218-.25-.872-.592-1.433-.312-.56-.748-1.93-.966-3.052l-.373-1.993.872-.717c.81-.654 1.837-3.332 1.495-3.893-.094-.155.187-.716.591-1.245.436-.561.872-1.34.997-1.745.093-.373.467-.84.81-.996.342-.187.592-.654.592-1.09 0-.436.249-.903.622-1.09.343-.187.623-.623.623-.966 0-.623 3.738-4.64 4.298-4.64.187 0 1.153-.623 2.212-1.402 1.432-1.059 2.148-1.37 2.865-1.339.81.093 1.09-.062 1.526-.84.436-.78.716-.935 1.65-.935.623 0 1.277-.187 1.495-.405.218-.187.841-.374 1.402-.374.53 0 1.152-.218 1.37-.467.218-.28.904-.467 1.713-.467.748 0 1.495-.187 1.682-.436.218-.25 1.028-.53 1.838-.592.81-.093 3.55-.405 6.104-.685 2.554-.28 4.983-.685 5.45-.903.436-.25 1.495-.53 2.305-.654.84-.125 1.588-.405 1.65-.623.094-.218.873-.53 1.776-.717 5.076-1.058 7.474-1.214 9.655-.591.716.218 2.367.342 3.643.311 4.174-.187 6.603-.124 6.977.156 1.059.84 3.332 1.059 7.412.747 4.485-.342 6.696-.28 9.126.28 1.962.437 3.207.437 5.761-.03 1.121-.187 4.423-.374 7.32-.436 2.927-.032 5.512-.156 5.761-.28.25-.094 2.149-.25 4.204-.343 2.056-.094 6.26-.28 9.344-.436 3.083-.125 5.824-.374 6.073-.53.25-.187.747-.342 1.09-.342.343-.032 1.464-.218 2.492-.436 2.896-.561 5.98-.841 8.876-.748 9.935.25 13.392.467 15.447.903 1.87.436 2.523.467 3.769.156.81-.218 3.02-.53 4.858-.716 3.021-.28 3.489-.25 4.516.249.966.467 1.931.53 6.292.498 2.834-.031 5.263-.187 5.419-.342.467-.468 13.89-.405 15.572.062 1.215.311 1.588.28 3.644-.467 1.93-.717 2.803-.841 5.512-.841 1.776 0 3.52.155 3.862.342 1.09.592 4.236.623 6.447.094 1.557-.374 3.52-.499 7.973-.467 5.264.03 6.011.124 6.945.654.872.53 1.37.591 3.27.436 1.246-.094 2.679-.312 3.208-.468.499-.155 2.46-.311 4.36-.311 1.87-.031 4.112-.156 4.953-.28.965-.156 1.806-.125 2.18.093.342.187 1.682.374 2.959.405 1.276.062 4.11.25 6.26.436 3.083.28 4.204.28 5.294-.031.748-.218 1.993-.436 2.772-.467.779-.063 4.111-.28 7.412-.53 6.198-.436 7.226-.405 8.316.28 1.028.623 3.239.873 4.08.437.56-.312 1.121-.312 2.523-.032 1.214.218 2.335.25 3.363.063 1.09-.187 1.931-.156 2.928.124 3.145.935 4.952 1.153 7.381.966 1.34-.094 2.616-.187 2.772-.187.187 0 1.152.125 2.18.311 2.118.405 7.91.218 11.368-.311 3.924-.623 14.513-.436 15.852.28.872.467 3.146.405 6.572-.155 3.176-.53 7.132-.592 12.613-.218 1.9.124 5.575.155 8.222.03 3.862-.155 5.077-.124 6.198.25.841.311 1.713.405 2.336.249.56-.125 2.896-.25 5.201-.311 6.54-.094 11.897-.436 12.987-.78.56-.186 1.308-.248 1.62-.124.342.094 1.183.031 1.9-.155 1.962-.53 11.772-.623 12.987-.125 1.028.405 12.77.716 13.36.343.157-.094 2.025-.032 4.143.124 3.24.218 3.987.187 4.765-.218.654-.342 1.37-.436 2.398-.311 2.398.311 13.797.249 15.292-.094.779-.155 1.962-.467 2.648-.654 2.771-.778 8.689-1.588 9.654-1.308.343.094 1.464.187 2.492.218zM463.182 49.43a21.177 21.177 0 011.464-.062h1.402c.342-.031.996-.031 1.495-.031 1.463 0 3.706.249 4.048.467.374.218 8.908.56 12.988.498 1.37 0 3.394-.156 4.485-.342 2.896-.436 6.073-.499 6.914-.063 1.463.686 2.024.81 4.08.872 1.152.032 2.273.218 2.522.405.436.374.685.343 2.025-.124.28-.125 1.401-.218 2.46-.25 1.713-.03 1.962.032 2.024.592.063.405.405.685 1.028.779l.903.156.094 2.803c.031 1.557.124 4.048.218 5.606.062 1.557 0 2.958-.187 3.176-.187.25-.187 2.398.031 6.136.187 3.737.218 7.1.031 9.437-.56 7.007-.498 13.765.125 15.354.093.249.249 2.149.342 4.204.063 2.056.405 6.323.748 9.5.342 3.176.623 6.945.623 8.408 0 3.613.03 3.8.56 7.164.499 3.176.81 15.51.405 16.039-.373.498-1.308 9.655-1.09 10.651.125.468.405 1.495.654 2.274.685 2.211 1.215 11.523.935 17.13-.063 1.619 0 5.387.186 8.377.53 9.873.623 11.96.779 19.03.218 10.651.343 14.264.56 16.818.25 2.398.28 4.516.125 6.696a757.44 757.44 0 01-.342 5.917 296.566 296.566 0 01-.53 8.098c-.156 2.086-.156 4.173.031 5.294.405 2.43.623 7.163.592 12.925 0 1.464.125 3.83.311 5.264.219 1.806.219 2.71-.03 2.958-.406.405-.406 9.935 0 11.4.373 1.276.716 11.71.56 16.506-.187 6.01.125 18.655.56 21.957.063.716-.062 1.806-.28 2.491-.373 1.06-.373 1.744-.03 4.36.715 5.544 1.276 30.024.747 33.294-.156 1.059-.187 2.024 0 2.336.124.28.373 3.457.467 7.038.187 5.513.155 7.039-.312 9.655-.28 1.713-.56 4.64-.591 6.54-.063 5.326.342 18.75.591 19.154.125.187.28 3.55.374 7.413.187 8.253.187 6.758 0 12.987-.093 4.049-.031 5.076.343 5.512.28.343.373.717.186 1.09-.155.312-.28 1.06-.311 1.651-.031.592-.218 2.492-.374 4.205-.187 1.713-.467 4.796-.685 6.851-.187 2.056-.467 4.205-.623 4.797-.218.778-.155 1.277.218 1.993.374.747.405 1.09.125 1.526-.25.405-.28.934-.062 1.744.28 1.184.249 3.333-.094 6.291-.093.935-.311 4.61-.467 8.16-.156 3.55-.436 6.696-.592 7.008-.218.373-.187.81.156 1.432.343.686.374 1.308.187 2.803-.374 2.679-.218 14.638.218 18.75.498 4.39.498 4.733.062 10.121-.311 3.8-1.09 20.556-1.059 23.047 0 1.402.654 10.091.872 11.835.374 2.865.592 30.49.25 32.92-.125 1.152-.28 1.339-.904 1.339-.405 0-.81.125-.903.28-.093.156-.965.654-1.931 1.121-1.37.655-2.149.841-3.426.81-.934-.03-2.024-.062-2.46-.03-1.589.093-5.077.061-7.911-.063-2.896-.094-2.896-.094-3.332.778-.499.966-.81 1.028-1.37.374-.343-.436-.468-.436-.904-.031-.592.53-4.08.467-6.727-.125-2.118-.467-5.606-.467-7.32-.03-.778.217-3.27.466-5.574.529-2.772.124-4.391.311-4.827.591-.436.28-2.18.499-5.015.623-2.398.125-4.796.343-5.294.499-.53.155-2.211.342-3.738.405-1.557.062-3.207.28-3.675.467-.498.187-1.401.249-2.024.155-.623-.093-2.211-.03-3.488.156-1.277.156-2.46.187-2.647.062-.156-.155-2.056-.186-4.205-.124s-5.42.187-7.319.249c-1.869.062-4.204.187-5.139.28-.934.094-4.049.218-6.914.28-2.865.063-5.325.188-5.419.312-.374.343-2.087.25-4.578-.25-1.9-.404-2.803-.435-5.232-.155-1.62.187-5.45.343-8.534.312-3.457-.031-6.135.093-6.976.311-1.122.28-1.433.28-1.87-.124-.653-.592-1.338-.623-1.805-.156-.187.187-1.745.467-3.457.592-1.713.124-3.27.342-3.489.467-.187.124-2.149.28-4.298.311-6.353.187-11.616.716-12.208 1.246-.685.623-1.464.592-1.838-.062-.218-.405-.373-.436-.716-.187-.25.218-2.865.342-7.724.311-8.409 0-15.946.28-17.285.685-.53.125-2.056.187-3.426.125-1.37-.093-4.578.031-7.163.218a591.22 591.22 0 01-6.23.498c-1.556.125-3.986.218-17.129.779-3.768.156-7.1.436-7.38.592-.312.187-2.119.311-3.987.311-1.9 0-4.08.156-4.859.343-.934.249-1.495.249-1.775.03-.436-.373-5.201-.59-5.73-.28-.188.125-2.305.28-4.672.343-2.367.094-5.482.28-6.946.467-1.463.187-3.332.28-4.204.28-.84-.03-1.993.125-2.523.374-.81.343-1.09.343-1.9-.062-.778-.374-1.245-.405-2.553-.125-1.184.218-1.776.218-2.18-.03-.686-.437-5.856-.468-6.634-.063-.312.156-2.772.374-5.45.436-2.71.093-5.607.311-6.479.467-.84.156-4.204.312-7.474.28-9.78-.03-18.594.25-19.933.592-.685.187-2.211.499-3.426.685-1.183.187-2.46.468-2.803.623-.342.156-2.99.436-5.917.623-6.572.405-6.042.374-9.188.218-2.522-.124-10.963.53-11.585.903-.156.094-2.087.312-4.236.499-2.18.155-4.92.405-6.136.591-1.183.156-2.491.28-2.865.28h-1.246c-2.18 0-6.229.343-7.07.624-.747.249-1.276.249-1.93 0-.623-.25-1.869-.25-4.174-.063-1.806.187-3.83.312-4.516.343-1.93.031-3.208.156-3.394.374-.218.187-27.314.062-34.446-.187-6.914-.25-8.72-.374-9.126-.716-.218-.156-1.775-.374-3.488-.499-1.713-.124-3.239-.342-3.394-.498-.187-.187-.623-.312-1.028-.312-1.028 0-3.8-1.183-4.859-2.055-.747-.654-1.152-.748-1.993-.592-1.184.218-2.18-.436-4.952-3.114-1.246-1.215-1.65-1.838-1.775-2.803-.436-3.084-1.215-6.634-1.65-7.568-.343-.748-.406-1.558-.25-3.115.156-1.744.093-2.18-.311-2.523-.28-.218-.499-.591-.499-.84 0-.218-.249-.561-.592-.717-.342-.218-.622-.81-.747-1.588-.093-.716-.405-1.557-.685-1.869-.436-.498-.499-.965-.312-2.772.312-3.052-.311-6.447-1.308-7.1-.591-.405-.716-.748-.716-1.994 0-.81-.125-1.557-.28-1.65-.872-.561-.499-5.669.498-6.79.374-.405.405-.654.156-.965-.25-.312-.218-1.153.124-3.208.28-1.526.53-4.05.623-5.575.062-1.557.125-3.426.156-4.205a39.04 39.04 0 00-.031-3.27c-.031-1.028.155-3.986.405-6.54.934-9.094.934-9.157.56-9.624-.28-.342-.249-.747.094-1.775.311-.872.373-1.495.155-1.869-.373-.716-.373-2.242.032-2.647.436-.436 1.09-5.793 1.09-9.157.03-1.619.186-3.3.373-3.737.218-.53.28-2.834.156-7.007-.28-8.659-.125-11.586.84-17.13.188-1.028.25-2.43.157-3.145-.094-.686-.031-1.807.155-2.46.28-.997.25-1.309-.186-1.776-.437-.498-.499-1.526-.499-7.786 0-3.987-.093-7.444-.218-7.724-.56-1.059-.716-1.838-.81-4.672-.093-1.62-.218-3.519-.28-4.204-.218-1.744-.218-1.775 0-5.762.343-5.637.374-16.693.062-19.777-.622-6.696-.747-11.679-.529-21.957.187-9.654.093-12.769-.467-13.392-.436-.467-.467-.685-.125-1.308.28-.467.405-2.273.436-5.543.031-2.648.218-6.385.436-8.254.28-2.336.343-5.543.218-10.122-.28-10.838-.405-13.859-.467-14.015-.311-.53-.436-3.394-.374-8.596.032-3.612-.093-6.29-.28-6.82-.187-.498-.405-2.647-.498-4.796-.218-5.856-.405-9.126-.685-13.268-.156-2.055-.187-3.893-.032-4.049.125-.187.312-3.488.374-7.319.094-3.862.25-8.066.343-9.343.093-1.277.249-3.177.311-4.205.063-1.027.25-3.145.467-4.671.218-1.62.28-4.423.187-6.696-.311-6.852-.342-10.31-.155-10.434.124-.062.218-.996.249-2.086.03-1.09.218-2.99.373-4.205.53-3.52.779-15.043.343-15.946-.747-1.464-.965-2.959-.81-5.575.125-1.993.063-3.052-.218-3.488-.311-.467-.311-.685 0-.996.187-.187.374-.873.374-1.495 0-.623.125-1.246.28-1.402.156-.187.156-1.277-.03-2.616-.219-1.65-.219-2.616.03-3.426.25-.685.312-2.055.187-3.613-.093-1.37-.187-2.772-.156-3.114.25-7.008.156-14.825-.186-15.853-.25-.747-.28-1.432-.125-1.744.311-.56.187-11.554-.156-14.544-.155-1.34-.124-2.087.125-2.398.187-.218.28-.623.187-.841-.063-.25-.218-1.433-.28-2.616-.312-4.267-.78-9.749-.997-10.994-.125-.841-.063-1.464.187-1.776.218-.249.249-.591.093-.84-.125-.219-.28-1.464-.311-2.741-.156-6.073-.125-8.285.062-8.814.124-.28.093-.716-.094-.934-.342-.405-.84-8.44-.747-11.898.031-1.214-.093-2.554-.28-3.052-.25-.56-.25-.965-.063-1.246.187-.218.218-1.463.032-3.332-.187-1.962-.156-3.208.062-3.675.156-.405.311-1.9.311-3.333 0-1.432.094-2.678.218-2.74.187-.125.218-12.894.031-15.635 0-.342.28-2.46.686-4.671.373-2.243.685-4.267.654-4.516-.25-2.212-.218-13.673.062-14.171.187-.343.343-1.464.374-2.492.03-1.027.124-2.086.249-2.336.093-.249.342-2.585.53-5.138.186-2.585.498-5.108.653-5.669.405-1.277.499-3.83.156-4.516-.156-.373-.062-.623.436-.872.685-.373 2.523.063 4.89 1.122.53.249 1.183.436 1.432.436.218 0 .997.404 1.682.903 1.09.81 1.464.872 3.24.81 1.183-.063 2.397.093 3.051.342.561.25 1.37.343 1.776.25.405-.094 2.242 0 4.08.186 1.837.218 4.547.436 6.01.498 3.55.156 11.898.125 12.147-.03.124-.094 1.962 0 4.08.186 5.917.498 8.409.53 9.78.187 1.463-.405 3.954-.56 7.474-.53 1.37 0 3.83-.124 5.45-.342 1.62-.187 3.924-.405 5.139-.467 1.183-.031 2.43-.218 2.803-.405 1.308-.654 12.333-.997 15.416-.498 1.122.186 1.526.124 1.838-.28.342-.406 1.09-.499 3.83-.499 1.87 0 3.676.156 4.05.343.435.249.872.218 1.526-.032.685-.28 1.12-.311 1.744-.03 1.588.622 4.734.747 5.543.217 1.215-.81 7.226-1.37 13.424-1.308 4.827.063 5.792.156 6.509.623.716.467.965.498 1.806.156.56-.25 2.336-.405 4.298-.405 1.838-.031 3.426-.093 3.488-.187.156-.156 1.962-.124 11.43.125 2.15.03 3.893.249 4.33.498.622.311 1.058.311 2.398 0 1.09-.28 2.398-.311 3.924-.156 1.246.125 3.208.187 4.329.156 1.9-.031 2.118.031 2.74.81l.655.84.716-.653c.56-.53 1.09-.686 2.273-.686.841.032 2.585-.03 3.862-.124 1.277-.062 2.71 0 3.208.187.623.249.966.218 1.308-.063.467-.404 2.274-.467 6.603-.311 2.149.093 2.678 0 3.208-.467.436-.374.903-.498 1.62-.405.56.093 1.868.031 2.896-.093 1.028-.156 3.768-.343 6.073-.436 2.305-.094 6.322-.405 8.876-.655 2.585-.249 6.229-.404 8.16-.342 2.273.062 3.613 0 3.83-.218.219-.218 2.274-.343 5.7-.374 3.457 0 5.855-.156 6.759-.436 1.432-.405 2.46-.467 10.962-.716 2.679-.094 5.046-.28 5.264-.405.592-.343 11.617-.187 12.613.187.499.187.966.218 1.184.03.187-.155 1.744-.217 3.457-.155 10.37.343 15.26.374 15.79.094.405-.218 1.308-.218 2.834.03 1.931.281 4.578.375 9.873.312.592-.03 1.993-.03 3.083-.03 1.122 0 2.212-.157 2.43-.344.311-.249.654-.249 1.245.032.436.186 2.243.373 4.018.373 1.775.032 3.332.156 3.426.343.124.156.965.218 2.149.093 1.246-.155 2.18-.093 2.616.125.374.218.84.28 1.059.125.187-.125 1.775-.25 3.488-.28 3.146-.094 10.371-.374 13.548-.53.934-.063 1.93-.187 2.18-.28 1.215-.499 2.367-.53 5.201-.219 4.018.468 8.253.561 8.72.187.25-.155 1.184-.155 2.492.063 2.803.436 4.36.467 11.929.062 3.519-.187 7.505-.343 8.876-.312 1.37 0 4.36-.062 6.633-.186 2.96-.156 4.267-.094 4.579.155.311.28.591.28 1.12 0 .437-.249 1.309-.311 2.274-.187.904.094 1.776.032 2.056-.155.311-.187 1.495-.25 3.27-.094 1.557.125 3.115.187 3.52.187zm77.612 437.206c0 .156-.124.312-.28.312-.187 0-.405-.156-.498-.312-.094-.187.031-.311.28-.311.28 0 .498.124.498.311z"/><path d="M137.038 139.25l-1.527 1.401-.124 3.644c-.25 6.82-.467 9.562-.748 9.935-.218.25-.186.592.063 1.06.373.716.093 3.83-.717 7.63-.342 1.65-.28 2.367.499 6.665.342 1.744.436 3.363.311 4.734-.156 1.526-.093 2.242.218 2.616.25.311.374 1.183.312 2.553-.187 3.925-.094 13.424.124 13.766.312.499.685 8.596.872 19.248.063 2.927.218 5.45.312 5.574.342.312.249 2.212-.094 2.43-.467.311-.373 1.495.218 2.336.436.622.53 1.432.499 4.453 0 2.367-.156 3.956-.405 4.423-.312.56-.312.872-.063 1.183.25.28.343 2.367.343 6.167 0 3.145.093 5.98.187 6.26.124.28.093.716-.031.934-.156.218-.312 2.43-.374 4.921-.062 2.492-.125 5.014-.156 5.606 0 .592 0 2.336.031 3.893.032 1.526.063 3.146.063 3.582 0 3.488.311 7.474.623 8.16.28.591.311 1.09.093 1.713-.374 1.027-.062 7.412.405 8.346.156.343.25 2.616.218 5.14-.156 6.29-.062 8.502.467 12.768.156 1.277.218 2.772.156 3.302-.094.56 0 1.09.187 1.183.187.125.342.623.342 1.09 0 .467.156.997.343 1.184.28.28.28.591 0 1.245-.436 1.09-.716 4.766-.374 5.233.125.155.187.965.094 1.775-.125 1.401-.218 1.557-1.963 2.803l-1.868 1.34.187 1.712c.093.934.218 2.056.249 2.492.062.747.187.778 2.71.996 2.024.187 2.927.125 3.83-.218.623-.249 1.588-.467 2.087-.467.498 0 1.246-.124 1.713-.311.436-.156 2.273-.374 4.08-.436 1.775-.094 3.426-.25 3.644-.405.186-.125 2.055-.25 4.11-.312 4.735-.124 4.205-.093 9.469-.623 4.08-.436 4.609-.436 5.543.032.717.342 1.433.436 2.305.311.903-.156 1.37-.062 1.775.311.717.623 2.928.717 8.316.374 2.367-.156 4.235-.436 4.516-.654.81-.654 1.9-.747 3.27-.311.965.342 1.557.373 2.367.124 1.806-.53 19.87-.342 23.202.25.873.155 3.644.186 6.23.062 6.415-.312 8.907-.343 11.834-.094 1.744.125 2.741.094 3.24-.187 1.058-.56 23.17-.84 25.694-.311 1.93.405 5.699.436 10.589.125a89.694 89.694 0 014.204-.156c4.516.093 6.758.28 7.35.592.436.218 1.775.249 4.36.062 2.025-.125 3.925-.125 4.174 0 .249.156.872.187 1.339.093.592-.124 1.37.063 2.211.499.748.342 1.776.685 2.305.747.53.062 1.152.28 1.401.498.405.312 10.029.499 16.88.28.686-.03 4.548 0 8.565.032 4.018.03 8.596-.063 10.122-.187 3.115-.312 5.264-.312 6.26 0 .374.125 1.122.031 1.745-.218 1.12-.498 3.643-.312 5.917.405 1.059.311 5.045.996 5.855.965 1.09 0 3.302-.405 3.582-.623.374-.311 11.928-.155 13.641.156.779.156 1.308.094 1.62-.156.342-.28 1.059-.342 2.273-.218.966.094 2.492.063 3.333-.093 1.027-.156 2.242-.125 3.581.156 2.305.467 5.264.498 5.824.093.218-.187 2.928-.28 6.23-.25 3.207.063 6.695.063 7.723.063 2.211-.03 3.27-.03 4.454 0 .467.031 3.862-.062 7.537-.218 8.253-.311 9.779-.311 11.367.031.685.156 3.738.218 6.852.094 7.132-.25 8.752-.031 9.81 1.308.437.53 1.153 1.433 1.62 1.962l.841.965.311-.872c.187-.467.53-.84.78-.84.248 0 .871-.374 1.4-.81.717-.592.966-1.06.966-1.807 0-.747.218-1.183.934-1.681.499-.405.935-.872.935-1.06 0-.217.28-.684.654-1.058.498-.53.56-.841.342-1.277-.53-.966-.996-4.828-.778-6.665.093-1.121.062-1.838-.187-1.962-.218-.156-.28-.966-.156-2.492.156-1.588.094-2.491-.218-3.02-.218-.406-.436-1.9-.467-3.395-.031-1.464-.218-4.766-.436-7.32-.405-4.951-.716-11.74-.779-16.724 0-1.682-.187-3.177-.373-3.426-.25-.28-.343-2.678-.28-7.412.03-5.264-.063-7.164-.343-7.662-.218-.342-.499-1.62-.56-2.803-.094-1.183-.281-2.99-.437-4.017-.156-1.028-.28-4.392-.28-7.475-.031-3.083-.156-8.565-.343-12.146-.187-3.613-.311-7.6-.311-8.877.03-1.681-.156-2.927-.654-4.36-.592-1.775-.654-2.273-.374-3.893.405-2.43.093-12.427-.405-13.236-.093-.156-.187-1.37-.218-2.71 0-1.34-.218-2.896-.467-3.488-.374-.841-.374-1.215-.062-1.931.28-.685.28-1.682 0-4.236-.468-4.484-.436-6.976.093-7.724.84-1.214.903-2.024.25-2.74-.717-.81-.966-1.931-1.153-5.669-.156-2.865-.685-6.29-1.09-6.851-.405-.56-.717-7.32-.592-13.237.125-7.443.031-10.277-.343-10.776-.186-.187-.373-.872-.436-1.432-.062-.592-.186-1.246-.28-1.402-.28-.436-4.92-.124-5.512.374-.25.218-1.433.467-2.648.592-1.183.124-2.336.373-2.554.53-.186.186-.654.248-.996.124-.312-.094-.685-.031-.81.187-.156.218-.965.28-2.647.124-1.557-.124-2.492-.093-2.616.094-.125.218-1.869.28-4.89.218-2.803-.094-4.92-.032-5.295.155-.373.218-1.027.218-1.9.031-.84-.187-1.463-.187-1.619 0-.498.468-2.99.343-3.177-.187-.218-.56-1.09-.622-1.65-.093-.28.312-2.305.405-7.6.467-3.986.031-8.004.063-8.938.094-4.111.062-5.045 0-5.42-.28-.248-.219-1.152-.125-2.896.28-2.117.53-3.3.591-7.443.498-2.74-.062-5.73-.311-6.665-.498-2.024-.468-2.087-.468-4.516-.063-1.028.156-2.71.25-3.737.187-1.028-.03-3.084.125-4.579.343-2.304.374-2.865.374-3.55.03-.467-.28-1.277-.373-2.024-.28-.686.094-1.776.032-2.399-.155-3.612-1.059-4.08-1.121-4.734-.53-.56.53-.903.53-4.235.187-2.74-.28-3.738-.28-4.049 0-.311.25-.56.25-.84.032-.561-.468-10.652-.28-13.3.249-1.62.311-3.083.311-7.163 0-2.803-.187-5.263-.468-5.45-.592-.156-.156-.841-.343-1.495-.467-.903-.156-1.34-.094-1.931.373-.623.499-1.121.561-3.332.437-1.433-.063-3.177-.312-3.925-.561-1.557-.498-5.014-.56-7.692-.125-.997.156-3.893.374-6.385.467-2.491.094-5.357.312-6.385.468-2.553.436-5.637.405-6.384-.063-.467-.311-.685-.28-1.184.156-.53.467-1.245.53-5.388.498-2.647 0-5.294.063-5.917.187-.685.125-1.402.063-1.806-.124-.343-.187-1.87-.374-3.395-.405-2.15-.062-2.959.03-3.582.467-.716.467-.934.467-2.086.062-1.028-.342-3.52-.498-10.776-.591-5.202-.094-9.624-.25-9.78-.343-.187-.125-1.588-.031-3.145.187-2.212.311-2.928.311-3.426.03-.468-.28-1.246-.31-3.177-.092-3.675.436-16.694.467-17.192.03-.28-.249-3.145-.28-9.717-.124-14.42.311-30.833.25-32.95-.156-1.029-.187-4.05-.436-6.697-.53-5.855-.217-7.6-.684-8.44-2.304-.81-1.464-1.215-1.806-2.46-1.993-.966-.156-1.246-.031-2.617 1.246zm301.634 9.063c.342.374.467 2.305.53 8.627.03 4.485.217 8.409.373 8.751.125.343.343 1.745.436 3.115.125 1.37.343 3.27.53 4.204.155.935.31 1.994.28 2.336-.031 2.585.093 4.423.373 4.734.156.218.28 1.526.28 2.959-.062 5.201.188 16.04.375 16.35.124.157.28 2.68.404 5.576.094 2.896.28 5.388.436 5.512.312.343-.404 5.45-.404 5.45 1.844 19.547 2.36 21.556 1.93 36.564.717.156.997 1.713 1.277 6.945.156 2.554.343 5.606.436 6.759.094 1.183.032 2.18-.155 2.273-.436.28-.312 1.807.218 2.492.374.498.467 1.464.405 4.827-.031 2.305-.156 5.232-.312 6.51-.218 1.743-.156 2.74.187 4.08.56 2.148.592 3.487.093 3.986-.249.249-.249.467 0 .747.156.218.312.748.312 1.184-.062 1.62.467 6.104.747 6.416.156.218.125.685-.093 1.183-.405.84-.062 5.73.685 10.465.187 1.12.218 2.71.125 3.519-.094.84-.063 1.682.093 1.869.592.716.592 2.71.031 3.207-.498.436-.778.436-2.927 0-1.308-.28-2.554-.404-2.74-.28-.5.312-3.333.312-4.268 0-.436-.156-2.865-.342-5.45-.436-5.481-.156-7.132-.25-10.87-.53-1.93-.124-3.643-.062-5.605.28-1.558.25-4.36.5-6.26.562-4.641.093-12.988-.374-13.424-.748-.218-.187-.654-.125-1.246.156-1.245.623-11.648.53-12.395-.094-.436-.373-.592-.342-1.059.031-.934.81-1.588.873-4.672.499-1.65-.187-3.426-.343-3.955-.312-3.737.125-6.54 0-6.914-.311-.343-.28-.592-.28-1.028 0-.311.187-1.868.342-3.488.374-3.55 0-5.917.155-7.568.467-.934.156-1.775.031-3.27-.467-1.215-.405-2.367-.592-2.928-.499-.498.094-1.09.032-1.308-.155-.311-.25-.685-.25-1.401 0-.561.186-2.056.342-3.364.342-1.682 0-2.585.156-3.114.499-.592.436-.841.436-1.464.124-.53-.311-1.589-.343-4.08-.187-10.932.748-19.715.841-21.583.28-15.645-3.879-33.045-1.604-48.741-3.207-1.9-.187-3.457-.187-4.828.062-2.18.342-2.74.374-5.232.062-1.246-.124-1.775-.062-2.18.28-.436.374-.997.405-2.865.25-1.994-.218-2.46-.156-3.177.342-.997.685-1.308.717-1.807.094-.218-.25-.685-.468-1.058-.468-.374 0-.81-.124-.997-.28-.343-.342-9.966.498-10.9.966-.78.342-10.465.093-11.275-.312-.81-.436-15.354-.249-16.133.156-.467.28-.934.28-1.868 0-1.62-.467-9.998-.374-10.59.125-.28.249-1.463.342-3.332.28-1.557-.062-3.488-.094-4.267-.062-.778.03-1.62-.032-1.869-.125-.654-.28-18.157-.343-18.53-.093-.156.124-1.37.28-2.648.342-1.277.094-3.52.467-4.952.841-2.149.592-2.772.654-3.239.343-.342-.187-1.37-.436-2.304-.53-.904-.093-1.776-.342-1.9-.53-.218-.31-.467-2.553-.872-7.66-.094-1.278-.312-2.461-.436-2.586-.125-.156-.187-1.37-.094-2.678.156-1.962.063-2.585-.373-3.24-.436-.684-.561-1.837-.654-7.443-.343-19.652-.655-25.88-1.34-27.75-.155-.404-.187-1.245-.062-1.837.156-.592.187-1.526.093-2.056-.062-.56 0-1.183.156-1.401.187-.218.218-2.336.031-5.668-.187-3.707-.155-5.606.094-6.323.218-.654.28-1.9.124-3.363-.155-1.682-.093-2.46.187-2.803.28-.374.28-.592 0-1.184-.436-.81-.498-1.682-.156-3.239.125-.685.063-1.183-.249-1.557-.373-.436-.405-1.09-.218-3.333.125-1.557.25-4.08.25-5.668.03-1.588.186-3.239.404-3.675.312-.654.25-.934-.249-1.65-.903-1.184-1.121-1.963-.747-2.399.436-.53.467-8.907.062-10.744-.187-.78-.374-3.707-.405-6.54-.031-2.835-.187-5.482-.374-5.918-.155-.436-.405-3.862-.56-7.63a951.936 951.936 0 00-.467-9.967c-.125-1.713-.187-3.581-.156-4.142 0-.592-.156-1.838-.436-2.803-.25-1.059-.343-1.869-.156-2.087.156-.218.156-1.152 0-2.336-.374-2.46-.405-4.89-.062-5.076.124-.094.249-2.087.311-4.423.031-2.678.218-4.61.499-5.263.218-.53.342-1.433.249-1.993-.187-1.402.28-1.807 2.367-2.087 2.273-.28 7.599-.187 9.312.187.716.156 3.582.342 6.385.436 2.771.093 5.761.311 6.602.498 1.869.436 8.503.218 9.468-.311.53-.28 1.464-.28 4.205.062 2.491.311 4.235.374 6.135.187 3.8-.405 11.056-.374 12.271.031.685.218 2.523.25 5.357.125 2.398-.125 7.568-.25 11.492-.312 3.955-.093 7.506-.156 7.942-.156.436 0 1.682.156 2.803.343 1.526.25 2.74.25 4.89-.031 1.9-.218 3.145-.25 3.737-.062.467.186 1.401.249 2.056.155.685-.062 1.744.094 2.553.405.779.28 1.526.436 1.713.312.187-.125 2.803-.405 5.824-.623 4.267-.343 5.606-.343 5.949-.063.592.499 20.43.436 21.054-.062.249-.187 2.834-.311 7.07-.311 3.674 0 8.19-.125 10.028-.312 2.118-.187 3.644-.218 4.142-.03.467.186 1.526.186 2.772.03 1.433-.218 3.239-.155 6.291.187 4.89.53 8.035.685 14.264.685 2.398 0 5.17.031 6.167.031.997.032 2.024-.124 2.273-.342.717-.592 11.244-.654 12.396-.062.623.342 1.09.373 1.713.155 1.401-.53 10.371-.031 11.773.623.498.25 1.058.218 2.18-.156 1.993-.622 6.415-.965 7.194-.56 1.34.716 19.06.903 20.649.218.28-.125 1.121-.062 1.9.093 1.059.25 1.962.218 3.55-.093 1.588-.312 3.83-.405 8.378-.312 8.534.218 18.095.125 19.777-.186 6.665-1.215 7.412-1.277 9.841-.966 1.34.156 2.585.218 2.772.093.343-.218 4.236-.56 7.35-.622 1.589-.063 2.18.062 2.492.467z"/></g></svg>