<svg version="1.0" xmlns="http://www.w3.org/2000/svg" width="1076.433" height="933.414" viewBox="0 0 807.325 700.06"><path d="M535.99.35c-15.4.6-24 2-24 3.9 0 .5-1.4 1.1-3 1.5-2 .4-3.4 1.4-4 3.1-.9 2.3-6.9 6.8-9.5 7.1-.5 0-1.6.2-2.2.2-.7.1-1.3.8-1.3 1.6 0 1.3-13.2 9.6-15.4 9.6-.7 0-2.7 1.1-4.6 2.5-1.9 1.4-4.1 2.5-4.9 2.5-.8 0-2.4.8-3.5 1.9-2.5 2.2-11.2 5.2-13.1 4.5-.7-.3-1.8.4-2.4 1.5-.6 1.1-3.8 4.7-7.1 7.9s-6 6.6-6 7.4c0 .9-1.1 3-2.4 4.6-1.5 1.7-2.3 3.6-2 4.8.3 1.2-.4 2.8-2 4.3-1.9 1.8-2.4 3-1.9 5.2.3 1.8 0 3.5-.8 4.5-.9 1.1-1.4 4.6-1.5 10 0 4.6-.5 8.9-1 9.6-2.3 3.1-3.3 6.5-2.1 7.7.6.6.7 1.1.3 1.1-1.5 0-4.5-4.5-4.6-6.9 0-1.3-.9-3.9-2.1-5.7-1.1-1.9-1.8-3.4-1.5-3.4.8 0-4-9.4-5.7-11.1-1.6-1.7-10.7-16.7-10.7-17.7 0-.5-1.3-2.1-3-3.7-1.6-1.5-2.7-3.2-2.4-3.7.4-.5-.3-1.6-1.5-2.4-1.2-.8-2.1-2.1-2.1-2.7 0-1.7-21.8-22.7-23.6-22.7-.8 0-3.3-1.7-5.7-3.9-2.3-2.1-6.9-5.2-10.3-6.9-3.3-1.7-6.6-3.7-7.3-4.6-.8-.9-2-1.6-2.7-1.6-.7 0-4.3-1.4-7.9-3-3.6-1.7-7.1-3-7.8-3-.7 0-1.8-.5-2.5-1.2-.8-.8-6.8-1.2-19.4-1.3-18.5-.1-36.6 1.8-48.3 5-5 1.4-11.9 1.9-37.1 2.7-7.1.3-13.7.8-14.5 1.3-2.1 1.4-14 2.7-26.4 3-14.9.3-39.9 2.4-46 3.7-2.7.6-5.7 1.2-6.6 1.3-.9.1-2.8.9-4.2 1.8-1.5.9-3.8 1.7-5.2 1.7-1.4 0-3.3.4-4.3.9-4.3 2.3-9.2 4.1-11 4.1-1.1 0-3.3.7-4.8 1.5-1.6.8-4 1.5-5.4 1.5-1.4 0-3.6 1.1-5 2.5-4.4 4.3-9.7 8.5-10.8 8.5-.6 0-2.1 1.4-3.4 3.1-1.3 1.7-4.1 4.7-6.3 6.7-2.2 2.1-5.2 4.9-6.6 6.4-1.5 1.6-3.1 2.8-3.6 2.8-.4 0-2 1.5-3.5 3.3-1.4 1.9-4.3 4.2-6.3 5.1-2 1-3.9 2.6-4.3 3.5-.4 1-2 3.5-3.7 5.5-1.6 2.1-3.9 4.9-5 6.4-3.2 4.2-11.7 22.3-12 25.4-.1 1.6-.5 3.1-.9 3.5-.3.3-.6 1.6-.6 2.8 0 1.3-.7 2.8-1.4 3.5-.8.6-2 3.6-2.6 6.6-.6 2.9-1.6 5.6-2.1 5.9-.5.4-.9 1.9-.9 3.5 0 1.7-.7 3.3-1.7 3.8-1.2.7-1.8 2.6-2 6.2-.1 2.9-.7 6.9-1.2 8.9-.6 2-1 8.9-1.1 15.3 0 6.4-.5 13.8-1 16.5-.6 2.6-1 7.9-.9 11.8.1 3.8.2 7.7.1 8.5-.3 13-.2 25.2.3 28 .8 4 .7 15.2-.1 19.3-.3 1.5 0 3.4.6 4.2.8 1 1 3 .6 5.5-.5 2.9-.2 4.7 1 6.5.9 1.4 1.4 2.8 1.1 3.2-.4.3 0 1.8.9 3.2 1.1 1.9 1.3 3.6.7 6.6-.6 2.8-.5 5.2.5 8 1.8 4.9 2.2 7.5 2.7 18.9.4 7.6.8 9.1 2.6 10.4 1.5 1 1.9 2.1 1.4 3.9-.7 3.1 1.1 8.9 3 9.7.9.3 1.5 1.8 1.5 3.5 0 3.6 3.1 11.1 5.4 13 .9.7 1.6 1.8 1.6 2.3 0 .6 1.1 2.3 2.5 4 1.4 1.6 2.5 3.5 2.5 4.1 0 .7 1.6 2.5 3.5 4s3.5 3.7 3.5 4.8c0 1.1.8 2.3 1.7 2.6 1 .4 4.5 3.3 7.7 6.5 3.3 3.2 6.4 5.8 6.8 5.8.7 0 10.7 7.5 13 9.8.5.4 3.2 3.5 6 6.9 2.9 3.5 6 6.3 6.8 6.3 2.1 0 4 2 4 4.2 0 1 .4 1.8.9 1.8s1.1 1 1.3 2.2c.2 1.5 1.3 2.6 3.3 3.3 4 1.3 7.5 4.5 7.5 6.7 0 1 1.8 3.1 4 4.6 2.1 1.5 3.9 3.2 4 3.7 0 .6 1.3 1.6 2.9 2.2 2.2.8 3 1.8 3.3 3.9.2 1.6.8 2.8 1.5 2.7.7-.2 2.2 1.5 3.3 3.7 1.1 2.2 2.7 4 3.5 4 .8 0 1.5.5 1.5 1.1 0 1.7 6.2 8.9 7.7 8.9.7 0 1.3.7 1.3 1.5s.6 1.5 1.3 1.5c3.2 0 7.6 3.2 8.2 5.9.7 3.1 6.5 9.1 8.8 9.1.8 0 2.2.9 3.1 1.9 1 1.1 2.8 2.1 4 2.3 1.6.2 2.2 1.1 2.4 3.7.4 3.7 2.6 6.6 4.2 5.6.6-.4 1.8-.1 2.6.6 1.4 1.2 1.4 1.4-.2 2.6-1 .7-1.6 1.4-1.3 1.6 3 2.2 5.9 3.5 5.9 2.7 0-.5.7-1 1.5-1s1.5.7 1.5 1.5c0 1.8 8.9 11.5 10.5 11.5.7 0 1.8.7 2.5 1.5s1.7 1.2 2.2.9c.5-.3 1.2.3 1.5 1.5.3 1.4 1.3 2.1 2.9 2.1 1.3 0 2.4.4 2.4 1 0 .5 1.4 1 3 1 3.4 0 9 3.6 9 5.7 0 .7.6 1.3 1.4 1.3.8 0 1.6 1 1.8 2.2.2 1.5 1 2.3 2.3 2.4 3 .2 6.5 1.5 6.5 2.5 0 1.6 8.2 8.9 10 8.9 1 0 2.5 1.1 3.3 2.3.9 1.3 2.9 3 4.6 3.6 2 .9 3.2 2.2 3.6 4 .5 2.5 3.6 5.3 12.5 11.2 3.9 2.6 7.5 6.1 9.5 9.2.9 1.5 2.5 2.6 3.4 2.5 1-.2 1.7.5 1.9 1.9.2 1.3.8 2.3 1.4 2.3 1.5 0 7.8 6.2 7.8 7.6 0 .6 1.3 1.7 2.9 2.4 2 .8 2.7 1.7 2.4 2.9-.6 2.3 4.1 7.1 6.9 7.1 1.7 0 1.9.3 1 .9-1.9 1.2 2.6 5.4 5.1 4.7 1.2-.3 2.1.5 3.1 2.7 1.8 4.4 4.9 6.9 9.3 7.6 3.1.5 3.8 1.1 4.3 3.6.9 4.3 3.2 7.5 5.8 8.1 1.3.4 2.2 1.4 2.2 2.5 0 1.4.9 2.1 3 2.6 1.7.3 3 .9 3 1.4 0 1.6 3.2 3.9 5.6 3.9 2 0 2.4.5 2.4 2.9 0 3.8 6.7 12.1 9.7 12.1 1.8 0 2.2.5 2 2.2-.1 1.7.3 2.3 1.8 2.3 3.3.1 4.8 1.4 3.4 3.1-.9 1.1-.7 1.5.7 2 3.9 1.2 4.9 2.2 5 5 .2 5.1.4 5.4 2.8 6.4 1.7.6 2.6 1.8 2.8 3.7.2 2.1.9 2.9 2.6 3.1 1.6.3 2.9 1.6 4 4 1.8 3.9 10.4 13.6 13.5 15.3 4.2 2.3 11.2-2.7 10.7-7.7-.4-3.6 0-4.4 2.3-4.4 2.7 0 7.8-5.1 10.2-10.2.9-1.8 2.7-5.1 4-7.3 1.3-2.2 3-5.1 3.7-6.4.7-1.3 2.2-2.9 3.3-3.5 1-.6 2.5-1.7 3.3-2.4 1.1-1 .9-1.2-1-1.2-2-.1-1.8-.6 2.6-4.5 3-2.8 4.6-5.1 4.2-6-.3-.8 0-2 .7-2.7 1.8-1.9 6.7-8.6 6.7-9.1 0-.8 8.1-12.7 9.1-13.2.5-.4.9-1.5.9-2.6 0-1 .4-1.9.8-1.9 1.7 0 5.2-3.8 5.2-5.6 0-1.1 2.7-4.8 6-8.2 3.3-3.5 6-7.1 6-8 0-1 1.4-2.6 3-3.7s3-2.8 3-3.8c0-1.1 1.4-3.2 3-4.7 1.7-1.5 3-3.1 3-3.5 0-1.8 11.4-13 14.9-14.5 3-1.4 4.4-3 6.6-7.5 2.7-5.3 5.2-8.4 12.2-14.5 2.9-2.6 6-6.8 6.1-8.3 0-1.7 5.6-6.7 7.3-6.7 1 0 3.7-2.5 6.1-5.5 2.3-3 4.6-5.5 5-5.5.5 0 .8-.6.8-1.3 0-1.6 4.1-5.7 5.7-5.7.6 0 1.3-.7 1.7-1.5.3-.8 1.4-1.5 2.5-1.5s2.6-1 3.2-2.3c1.4-2.6 10.5-11.4 18.4-17.7 3.1-2.5 6.9-5.7 8.4-7.1 1.5-1.4 4.3-3.1 6.2-3.8 1.9-.7 5.1-2.1 7.1-3.2 2-1 4.4-1.9 5.3-1.9.9 0 2.5-1.6 3.7-3.5 1.1-2 3.5-4.2 5.2-4.9 1.8-.7 5.2-3.2 7.7-5.4 2.4-2.3 5.6-4.4 7.1-4.7 1.4-.4 3.3-1.7 4.2-3 .8-1.3 2.9-2.6 4.6-3 1.7-.4 3.4-1.3 3.7-2.1.8-2.1 7.4-5.8 10-5.6 1.3.1 2.3-.3 2.3-.8 0-.6.7-1 1.5-1 .9 0 2.1-.5 2.8-1 2.7-2.4 21.6-12.9 24.3-13.6 1.5-.4 5.3-3.3 8.4-6.4 3.1-3.1 6.9-6 8.5-6.4 1.6-.4 4.2-1.8 5.7-3.1 1.6-1.4 4.6-2.9 6.7-3.5 7.6-2 18.4-9.4 28.6-19.6 1.7-1.8 4.9-4.1 7.1-5.2 4-2 5.9-3.9 12.7-12.5 4.2-5.3 9.2-8.8 11.3-8 .7.3 2.7-.5 4.3-1.7 2.8-1.9 4.1-3.7 7.3-10 1.8-3.6 4.9-7.5 5.6-7.3.4.2.7-.5.7-1.5 0-.9.3-2.2.6-2.7.6-.9 4.4-7.7 7.3-13 .6-1.1 1.6-2.7 2.2-3.5.7-.8 2.2-4 3.4-7 1.2-3 2.8-6.9 3.6-8.5.7-1.7 1.5-4.2 1.9-5.7.3-1.5 1.3-3.5 2.3-4.5 2.5-2.5 5.1-10.8 5.6-17.8.2-3.3.5-6.2.7-6.5.1-.3.3-1 .4-1.5 0-.6 1-2.8 2.2-5 1.3-2.6 1.9-5.2 1.6-7.5-.4-2.7 0-4 1.6-5.4 1.6-1.4 1.8-2.3 1-4.3-.5-1.4-.6-3.5-.2-4.7 1.4-4 2.3-43.5 1-44.3-.4-.2-.7-1.6-.6-3.1.1-5.9-1.1-12-3.6-18.1-1.5-3.6-2.8-8.8-3-12-.4-6.6-1.2-10.4-3.1-14.8-.8-1.7-1.4-3.5-1.4-4.1 0-.5-.7-1.5-1.5-2.2-.8-.7-1.5-2.9-1.5-4.9 0-2.6-1.2-5.4-4.5-10.3-2.4-3.6-4.7-7.9-5.1-9.4-.6-2.5-15.6-21.4-17.6-22.2-.4-.2-.8-1.1-.8-1.9 0-1.7-1.3-3.2-9.7-11.8-7.5-7.5-14.5-13.9-17.5-15.8-1.5-.9-3.3-2.9-4-4.4-.7-1.5-2.2-2.9-3.3-3.1-1.1-.2-3.9-1.9-6.2-3.8-2.3-1.9-4.6-3.4-5.2-3.4-.6 0-1.8-1.1-2.7-2.5-.9-1.4-2.1-2.5-2.7-2.5-.5 0-3.4-1.8-6.3-4s-5.7-4-6.2-4-1.5-.6-2.2-1.4c-.6-.8-2.1-1.6-3.3-1.8-1.3-.2-2.1-.9-1.9-1.8.2-.8.1-1.2-.3-.8-.4.4-3.4-.6-6.6-2.2-3.2-1.7-6.7-3-7.8-3-1.1 0-3.2-.6-4.8-1.4-3.6-1.8-9.5-3.6-11.7-3.6-1 0-2.9-.9-4.3-2s-3.4-2-4.3-2c-1 0-3.7-1.1-6.1-2.4-2.4-1.4-6.5-2.8-9.2-3.1-2.6-.4-5-1.1-5.3-1.6-.3-.5-2.2-.9-4.3-.9-2.2 0-4.4-.6-5.1-1.5-.7-.8-2.3-1.5-3.7-1.5-1.3 0-3.3-.4-4.3-1-6.3-3.3-43.3-5.2-79-4zm-.2 12.8c.5 1.7-2.7 2.7-4.1 1.3-.9-.9-.8-1.4.3-2.1 1.8-1.1 3.2-.8 3.8.8zm41.2 4.8c17.7.6 35.6 2.4 39.5 4 2.2.9 4.9 2 6 2.5 1.1.4 4 1.2 6.5 1.8 4.2.9 11.2 3.1 17.1 5.3 1.5.5 3.1 2 3.7 3.3 1.3 2.8 4.8 5 5.7 3.5.9-1.4 11.5 1 17.2 3.9 1 .4 3.7 1.8 6 3s4.6 2.2 5 2.3c.5 0 1.8.4 3.1.9s2.9.9 3.7.9c.7 0 2.7 1.1 4.3 2.5 1.7 1.4 3.4 2.5 4 2.5.5 0 1.7 1.1 2.6 2.5.9 1.4 2.3 2.5 3 2.5.8 0 3.4 1.8 5.7 4 2.4 2.2 4.7 4 5.1 4 .5 0 3 1.9 5.6 4.3 2.6 2.4 6.1 4.9 7.7 5.6 1.7.7 5.4 4.3 8.5 8.3 3 3.9 6.3 7.6 7.3 8.2 1 .6 2.5 2.6 3.4 4.5.9 1.9 2.4 3.6 3.4 3.8 1.7.5 3.9 4.3 3.9 6.9 0 2.4 4.9 9.4 7.3 10.3 1.3.5 2.9 1.6 3.6 2.5.7.9 2 1.6 2.8 1.6 1.2 0 1.2.3-.1 2.2-1.4 2-1.4 2.2.7 3.3 1.2.6 2.2 2 2.3 3.2.1 1.2 1.5 3.9 3.2 6.1 2.1 2.7 2.9 4.5 2.5 6-.3 1.3-.1 2.2.6 2.2.6 0 1.1 1.6 1.1 3.5 0 2.3.5 3.5 1.4 3.5.8 0 1.3 1.1 1.4 2.7.1 5.3 1.5 13.3 2.3 13.9.5.3.9 2 .9 3.8 0 1.8.7 5.3 1.6 7.9 1.1 3.4 1.3 5.1.5 6.6-.8 1.4-.8 2.2 0 2.7.7.4.9 2.4.6 5.5-.3 2.7-.2 5.1.4 5.4.5.4.7 1 .4 1.4-.2.5-.7 6.9-1 14.2-.7 16.1-.9 18.7-1.8 19.6-.4.3-.4 2.2-.1 4 .4 2.1.2 3.9-.6 4.8-.7.9-1.4 3.7-1.6 6.3-.5 6-1 7.3-2.6 6.7-.9-.4-1.4.8-1.5 4.1-.1 2.6-.9 5.7-1.8 7-.8 1.2-1.2 3-.9 3.9.4.8.2 2.1-.4 2.8-.6.6-1.3 2.9-1.7 5-.4 2.1-1.8 5-3.1 6.4-1.3 1.4-2.5 3.3-2.6 4.2 0 .9-.2 2.9-.3 4.6-.1 1.6-.7 3.1-1.4 3.3-.6.2-1.1 1.6-1.1 3.1s-.9 3.6-1.9 4.5c-1 .9-1.7 2.5-1.4 3.5.3 1.2-.8 2.8-3.6 5-2.3 1.8-3.8 3.7-3.5 4.2 1 1.7-.5 5.9-2.1 5.9-.8 0-1.5.5-1.5 1.1 0 1.4-27.9 29.3-30.3 30.2-.9.3-2.2 1.7-2.8 3.1-.6 1.3-2.2 2.7-3.5 3-1.3.4-2.8 1.5-3.4 2.6-.7 1.3-2.1 2-3.9 2-2 0-3.7 1.1-6.1 4-1.8 2.2-4.1 4-5.1 4-.9 0-1.9.9-2.2 2-.3 1.3-1.4 2-3.1 2-3.6 0-7 1.8-8.1 4.3-.6 1.2-2.1 2.4-3.5 2.7-2.2.4-7.5 3.4-9 5-.3.3-1.1.6-1.9.8-1.8.4-9.3 5.6-11 7.5-1.6 2-12.5 7.7-14.6 7.7-.8 0-1.5.7-1.5 1.6 0 .8-1.7 2.2-3.7 3-2.1.8-5.6 2.4-7.9 3.4-2.3 1.1-4.7 2-5.5 2-.8 0-2.3.7-3.3 1.5-1.1.8-2.8 1.5-3.8 1.5s-1.8.4-1.8 1c0 .5-1.5 1.6-3.2 2.4-4.3 1.9-7.8 5-7.8 6.9 0 1.5-2.8 2.7-6.3 2.7-2 0-7.7 3.9-7.7 5.2 0 1.2-5.2 5.7-6.6 5.8-.6 0-2.4 1.2-4 2.7-1.6 1.5-5.6 4-8.9 5.6-3.3 1.6-6.8 3.6-7.8 4.4-2 1.8-5 3.7-8.7 5.3-3 1.4-10 8-10 9.5s-5.3 6.5-6.8 6.5c-.7 0-1.7 1.1-2.2 2.5-.5 1.4-1.8 2.8-2.7 3.2-1 .3-3.1 2-4.8 3.7-1.6 1.8-4.1 4.1-5.5 5.2-1.4 1.1-3 2.9-3.6 3.9-.6 1.1-2.1 2.1-3.3 2.3-1.1.2-2.1.9-2.1 1.7 0 .7-1.5 2.3-3.3 3.4-3.5 2.1-8.7 7.5-8.7 9 0 1.6-6.5 8-9.3 9-1.5.6-3.2 2.2-3.7 3.6-1.6 4.1-11 14.1-14.3 15.1-2.5.8-6.6 5.4-6.7 7.4 0 1.8-4 6.3-7.6 8.6-1.6 1.1-2.3 2.3-1.9 3.4.3 1.1-.2 2-1.8 2.7-1.2.6-3.5 2.9-5 5.2-1.5 2.2-3.9 5.9-5.4 8.2-1.5 2.2-4.3 5.9-6.2 8.2-2 2.3-4.5 5.8-5.5 7.7-1.1 1.9-2.9 4.5-4 5.7-2.9 3-4.1 4.6-5.6 7.3-.7 1.3-2.2 3.3-3.2 4.4-1.1 1.2-2.4 3.1-2.9 4.3-.5 1.3-1.5 2.3-2.3 2.3-1.5 0-2.6 2.1-2.6 4.9 0 1-1 2.7-2.2 3.9-1.3 1.1-3.2 3.8-4.3 5.9-1.1 2.1-2.5 4.2-3.2 4.6-.7.4-1.3 1.4-1.3 2.1 0 .8-.7 1.6-1.5 2-.8.3-1.5 1.2-1.5 2 0 .7-.7 1.6-1.5 2-.8.3-1.5 1.2-1.5 2 0 .9-.9 2-2 2.6-1.1.6-2 1.9-2 2.9 0 1.1-1.7 3.4-3.7 5.2-2.1 1.8-3.8 3.6-3.8 4 0 .5-1.7 2.4-3.8 4.4l-3.8 3.6-7-7.2c-3.8-4-6.9-7.6-6.9-8.1 0-.4-1.3-1.4-3-2.3-1.6-.9-3-2.2-3-2.9 0-.8-1.1-2.1-2.5-3-1.4-.9-2.5-2.3-2.5-3.2 0-.8-1.3-2-3-2.5-1.6-.6-3-1.4-3-1.9 0-.8-11.1-12.1-15.4-15.7-1.4-1.1-3.1-3.3-3.8-4.8-.6-1.5-2.9-3.5-5-4.6-2.1-1.1-3.8-2.6-3.8-3.3 0-1.3-24-26.6-25.3-26.6-2.5 0-19.1-14.8-26.2-23.3-1.6-2-3.4-3.7-3.8-3.7-1 0-10-7.6-21.1-17.8-4.4-3.9-8.8-7.2-9.8-7.2s-2.7-1.4-3.8-3.2c-1-1.7-2.8-3.7-3.9-4.2-1-.6-5.7-4.6-10.3-8.8-12.2-11.3-12-11.2-14-11.3-1-.1-2.9-1.1-4.1-2.3-1.3-1.2-3.3-2.2-4.5-2.2-1.2 0-3.9-1.6-6.1-3.5-2.1-1.9-4.3-3.5-4.9-3.5-.6 0-2-1.3-3.2-3-1.2-1.7-2.7-3-3.3-3-1.8 0-8.7-6.7-8.7-8.4 0-.8-2.1-3.2-4.6-5.3-2.5-2.1-5.2-5-6-6.6-.8-1.5-1.9-2.7-2.5-2.7-1.9 0-7.1-4.5-8-6.9-.5-1.3-1.2-2.1-1.6-1.8-.6.7-23.3-22.2-23.3-23.5 0-.5-1.1-1.3-2.5-1.8s-2.5-1.6-2.5-2.5c0-.8-5.7-7.3-12.7-14.5-7.1-7.1-15.3-15.7-18.3-19.1-8.1-9.2-26.1-26.8-29-28.3-5.4-3-15-16.2-15-20.7 0-.7-1.7-3.7-3.7-6.8-2.1-3.1-3.6-6-3.5-6.6.2-.5-.3-1.4-1.1-2-.8-.5-1.7-2.8-2.1-5-.4-2.2-1.1-4.5-1.5-5-1.4-1.8-4.2-11.7-4.8-16.9-.3-2.8-1-5.6-1.4-6.2-.9-1.1-2.2-17.1-2.2-25.4.1-2.5.1-7.4.2-11 0-3.6-.2-11.7-.4-18-.3-6.3-.5-12.4-.6-13.5 0-1.6 0-20.7.1-35 0-4.5 1-8.7 2.7-11.3.8-1.3 1.2-2.9 1-3.6-.3-.7-.1-3.6.5-6.5.8-4.5.7-5.6-.8-7.2-1.3-1.5-1.5-2.2-.6-3.1.7-.7 1.2-2.1 1.2-3.3 0-1.1.6-2.9 1.4-4 .7-1.1 1.7-5.3 2.1-9.3.4-3.9 1.1-7.5 1.6-7.8.5-.3.9-1.6.9-3s1.1-4 2.3-5.7c1.3-1.8 2.4-4.1 2.5-5.2.2-4.3 1.7-8.1 4.9-12.6 1.8-2.5 3.3-5.2 3.3-5.8 0-.7 1.1-2.9 2.5-4.9 1.4-2 2.5-4.6 2.5-5.7 0-2.4 9.7-14.5 11.6-14.5 1.9 0 7.8-5.4 13.6-12.4 4.5-5.4 7-7.6 15.7-14.4 1.6-1.2 3.5-2.2 4.1-2.2.7 0 2.4-.8 3.8-1.9 1.5-1 4.6-2.1 6.9-2.4 2.5-.3 7.6-2.4 12-5 6.9-4 9-4.7 17.3-5.7 5.2-.7 10.3-1.6 11.4-2.2 1-.5 2.2-.6 2.7-.1 1.4 1.4 15 .5 19.8-1.2 2.4-.8 6.7-1.5 9.5-1.5 8.9 0 32.9-2.1 38.1-3.4 3.2-.7 7.9-1 12.9-.6 4.3.4 9.7.4 11.9-.1 2.2-.4 4.7-.5 5.4-.2.7.3 2.1.2 3.1-.2.9-.4 5.3-.8 9.7-.9 4.4-.1 10.7-1 14-1.9 4.4-1.3 11.5-1.9 26.5-2.3 18.1-.5 20.7-.4 21.9 1 .7.9 2.2 1.6 3.2 1.6s2.1.4 2.4 1c.3.5 1.5 1 2.5 1s3.2 1.3 4.8 3c1.7 1.7 4.1 3 5.5 3 1.3 0 3.2.9 4.1 1.9 1 1.1 3.1 2.3 4.6 2.6 1.6.3 3.6 1.7 4.4 3.1.9 1.3 2.1 2.4 2.7 2.4 1 0 6.9 5.4 6.9 6.3 0 .2 3.4 3.8 7.5 7.9 4.1 4.2 7.5 8.1 7.5 8.8 0 1.6 5 10 7.7 13 1.3 1.4 3.1 4.2 4 6.2.9 2.1 2 3.8 2.5 3.8.4 0 .8.9.8 1.9 0 1.1.4 2.1.8 2.3 1.8.7 7.2 13 7.2 16.4 0 2.2.6 3.7 1.6 4.1.8.3 2.7 3.1 4.2 6.2s3.5 6.7 4.4 8.1c1 1.4 2.5 5.4 3.4 8.9.9 3.6 2.5 7.7 3.6 9.2 2.1 2.8 2.1 3.1.5 26.3-.2 3.6 2.9 6.1 4.3 3.5.7-1.2 1.8-1.5 4.2-1 3 .6 5.3 3.1 2.8 3.1-.6 0-.9.4-.6.9.9 1.4 5.8 0 9.2-2.5 4.1-3.1 5.1-8.2 2.4-13.2-1.1-2-1.7-4.4-1.4-5.4.3-1 .2-2.3-.2-2.9-1.3-2.2-1.2-13.3.1-16 1.2-2.2 2.2-22.1 1.3-26.9-.4-2.5 1.4-13 2.3-13.6.5-.3.9-2.5.9-4.9 0-2.4.4-4.6.9-4.9.5-.3.6-2.6.4-5-.5-3.8-.1-5.3 2.6-9.6 1.7-2.8 3.2-6.2 3.3-7.5.2-1.7 1.2-2.8 3.3-3.7 1.6-.6 4-2.3 5.3-3.6 1.5-1.6 3.1-2.3 5-2.1 3.3.4 5.2-.7 5.2-2.8 0-2.7 4.1-6.3 7.1-6.3 1.4 0 3.2-.7 3.9-1.5.7-.9 1.9-1.4 2.5-1.1 1.3.5 6.5-3.9 6.5-5.4 0-.6.6-1 1.4-1 .8 0 3.4-1 5.8-2.1 2.3-1.2 5.8-2.9 7.6-3.8 1.9-.9 3.8-2.3 4.3-3.2.4-.9 2-2 3.4-2.3 1.4-.4 2.5-1 2.5-1.5 0-1.6 9.6-4.2 14.7-4.1 8.2.2 24.5-1.1 30.3-2.5 3-.8 6.9-1.1 8.5-.8 1.7.4 6.8.8 11.5.9zm185 96.4c0 .5-.4 1-.9 1-.6 0-1.3-.5-1.6-1-.3-.6.1-1 .9-1 .9 0 1.6.4 1.6 1z" fill="#fff"/></svg>