<svg version="1.0" xmlns="http://www.w3.org/2000/svg" width="926.255" height="620.856" viewBox="0 0 694.691 465.642"><path d="M24.297.186c-9.5.3-11.4.7-12.9 2.3-1 1.1-2.6 2-3.5 2-.9 0-2.7 1.1-4 2.5l-2.3 2.5 2.3 23.2c2.8 27.9 2.9 35.4 1 69.8-1.7 30.3-1.8 51.5-.7 106.5 1.3 63.6 1.3 122.9-.1 132-.7 4.4-1.6 28.9-2.2 55-.5 25.9-1.2 51-1.6 55.8-.6 8.3-.5 9 1.7 11.3 2.9 3.1 11.6 3.5 14.3.6 1.4-1.6 3.9-2 17.1-2.6 8.6-.3 17.9-1.1 20.8-1.8 6.5-1.4 48.3-.4 74.2 1.8 10.3.9 34.7 1.7 57 1.9 21.5.3 44.6 1 51.5 1.6 19.7 1.8 87.5-.2 97.5-3 6-1.6 61.1-3.1 72.5-2 8.3.8 64.5 1.2 107.5.7 7.7-.1 21.1.3 29.7.9 10.9.8 19.8.8 29.5.1 17.6-1.3 59.9-1.7 63.8-.6 1.7.5 11.1 1.3 20.9 1.9 10.1.5 18.6 1.5 19.3 2.1.8.7 3.7.9 7.5.5 8.9-.8 10.2-2.7 9.4-12.7-.4-4.1-.9-20.1-1.1-35.5-.3-15.4-1-32.9-1.6-39-.7-7.8-.6-16.3.2-29.5 1.3-21.1.6-137-1-158-.6-8-.6-20.3 0-34 .9-20.3 2.4-88.2 2.3-105.5-.3-40.2-.5-44.5-2.8-46-1.9-1.3-5.2-1.3-22.7-.3-24.4 1.4-24 1.4-40.4-.2-12.5-1.1-96-2.8-157.5-3.1-16.2 0-35.8-.2-43.5-.2-50-.4-67.5 0-120.5 3-4.6.2-15.9-.1-25-.7-17.6-1.3-55.5-1.9-156.5-2.5-34.6-.3-68.8-.6-76-.8-7.1-.2-18-.2-24.1 0zm47.1 16.3c18.7-.5 24.2-.5 110.5.3 36 .3 76.8 1.1 90.5 1.8 28.5 1.5 34.7 1.5 53.5 0 22.6-1.8 60.2-2.6 78.9-1.7 19.4.9 19.4.9 63.6.7 52.1-.3 135.9.5 138 1.2 3.7 1.2 28.9 3.1 41.2 3.1 6.7 0 12 .3 11.7.8-.3.4-1 .8-1.6.8-.6 0-2.9 1.5-5.2 3.3-2.3 1.9-4.8 3.6-5.6 3.9-.8.3-7.5 5.5-14.9 11.4-13.2 10.8-18.5 15-33.9 27-4.3 3.4-9.3 7.9-11.2 10-1.8 2.2-4.3 4.6-5.6 5.4-7.6 5.2-45.9 41.4-54.4 51.5-3.5 4.2-32.3 31.3-39.5 37.3-3.3 2.7-7.3 5.6-9 6.5-1.6.8-5.9 4.1-9.5 7.2-3.6 3.1-8.6 7.1-11.2 8.8-6.6 4.5-26.1 20.6-37.9 31.2-11 9.9-17.8 15.3-19.4 15.4-.6.1-3.3 2.1-6 4.4-2.8 2.4-6.8 5.5-9.1 6.9-2.2 1.4-6.9 5.1-10.5 8.2-3.5 3.1-7.9 6.3-9.8 7.2-3.3 1.6-4 1.6-13-.6-10.2-2.5-32.7-12.4-37.1-16.4-1.4-1.2-5.6-4.4-9.5-7.1-7-4.9-20-15.7-34.7-29-12.4-11.2-16.6-14.6-19.6-16.4-4.2-2.3-18.3-13.5-26.7-21.1-6.6-6-16.8-14.7-26.9-22.8-18.1-14.6-36-29.9-43.3-37.1-3.5-3.3-6.6-6.1-6.9-6.1-.3 0-4.5-3.5-9.2-7.8-8.3-7.5-19.4-16.2-20.7-16.2-.4 0-4-2.7-8-6s-7.6-6-7.9-6c-.8 0-17.4-13.1-25.5-20.3-3.6-3.1-10.6-9.1-15.6-13.3-20-16.8-29.4-24.9-29.4-25.6-.1-1.1 7.8-1.6 16.4-1 4.4.3 15.2.4 24 .2zm606.1 24.7c.8 9.6 0 58.6-1.6 97.3-1.2 27.5-.8 74.4.8 101.5.6 11.1.8 37.1.4 67.5-.8 64-.7 79.8.7 89.3 1.3 9.1 1.5 39.7.3 39.7-1.1 0-25.1-24.6-32.7-33.5-3.3-3.9-10.7-12.2-16.5-18.6-5.8-6.4-15.9-17.6-22.5-24.9-25-27.8-31.5-34.8-41.6-44.3-12-11.4-28.7-29-40.9-43.2-4.7-5.4-16.6-18-26.6-27.9-15.3-15.4-28.2-29.7-29.2-32.5-.2-.6 15.2-13.2 32.3-26.3 8.3-6.3 38.5-35.2 43.4-41.4 2.2-2.8 8-8.7 12.8-13 4.9-4.3 10.7-9.8 12.9-12.4 2.3-2.5 7.7-7.2 12-10.5 4.4-3.2 11.7-9.5 16.4-13.9 7.5-7.1 27.9-24.2 38-31.8 1.9-1.4 6.4-4.9 10-7.7 3.6-2.8 9.9-7.4 14-10.3 4.1-2.8 9.3-6.6 11.4-8.4 2.2-1.9 4.3-3.4 4.7-3.4.4 0 1.1 3.9 1.5 8.7zm-648.8-2.2c13.8 11.4 21.7 18.2 27.6 23.6 8.7 8 29.3 24.3 40.1 31.9 20 14 26 19.1 67.8 57.3 3.8 3.4 10.4 8.9 14.7 12.2 12.2 9.5 23 18.3 32.6 27 4.9 4.4 10.1 9 11.7 10.1 3 2.5 3.3 3.6 1.3 5.3-.8.7-4 5.1-7.2 9.9-3.2 4.8-6.7 10.1-7.8 11.8-1.2 1.7-10.7 12.5-21.2 24s-21.8 24-25.1 27.9c-3.4 3.8-7.7 8.6-9.8 10.5-2 1.9-6.1 6.4-9 10-2.8 3.6-21.1 22.5-40.5 42-33.1 33.2-67.1 69.6-71.4 76.5-3.3 5.2-13.9 16.6-14.7 15.8-1-1.1.8-75.9 2.1-85.8 2.2-17.9 3.1-37.7 2.5-57.5-.4-11.3-.8-34.2-1-51-.2-16.8-.8-45.6-1.5-64-1-25.6-1-37.8-.1-51.5 2.6-40.9 3.2-61.9 2.1-73-1.1-12.3-1.3-18.5-.4-18.5.3 0 3.6 2.5 7.2 5.5zm225 185.7c5.8 5.1 13.6 12 17.2 15.3 7.2 6.7 17.6 15.1 26 21 3 2.1 6.6 4.9 8 6.1 1.4 1.3 7.7 4.6 14 7.4 6.3 2.8 12.4 5.6 13.4 6.2 8.1 4.4 32 7.3 39.9 4.7 4.8-1.5 14-7.5 17.7-11.4 1.4-1.5 4.8-4.3 7.5-6.1 14.7-10.1 19.2-13.6 33.6-26.4 12.3-11 20.9-18 21.9-18 .5 0 3.5 3 6.7 6.6 12.6 14.2 28.6 31.4 29.2 31.4.9 0 22.4 23.5 32.1 35 3.5 4.1 17.6 18.8 31.4 32.6 13.8 13.7 29.6 30.1 35.1 36.2 5.5 6.2 14.6 16.3 20.3 22.5 5.6 6.1 15.6 17.3 22.2 24.7 6.5 7.4 16.3 18.1 21.8 23.8 5.5 5.6 9.5 10.5 9 10.8-1.1.7-8.9-.3-17.3-2.1-9.1-2-51.2-1.8-64 .2-11 1.7-30.8 1.4-44.5-.8-5.4-.8-12.5-.9-25-.3-23 1.1-90 .8-100.9-.5-14.1-1.7-67.6-.2-87.6 2.4-26.4 3.5-59 4.5-81.5 2.5-6.3-.6-27.2-1.2-46.5-1.4-19.2-.3-42.9-.9-52.5-1.5-68.2-4.3-75.3-4.5-90.4-3.2-7.1.6-13.1.9-13.4.6-.3-.2 1.9-3 4.8-6.2 2.9-3.1 5.9-6.8 6.8-8.2.9-1.5 3.6-4.9 6.1-7.7 2.6-2.8 8-8.8 12.1-13.4 12.7-14.3 23.2-25.3 56.5-59.1 28.7-29.3 46.6-48.3 59.4-63.3 2.4-2.8 8.7-9.8 14.1-15.6 20-21.5 25-27.3 29.9-34.6 2.8-4.1 5.1-7.8 5.1-8.2 0-1.2 9.1-11.2 10.1-11.2.6 0 5.8 4.2 11.7 9.2z" fill="#343434"/></svg>