<svg version="1.0" xmlns="http://www.w3.org/2000/svg" width="935.726" height="830.259" viewBox="0 0 701.795 622.694"><g fill="#343434"><path d="M81.664.836c-5.6 1.1-12 5.2-15.3 9.8l-2.9 4.1 1.3 6.9c1.1 5.2 2.1 7.7 4.8 10.6 3.4 3.7 3.4 3.8 2.3 9-2.8 13.3-4.2 23.1-4.2 29.4 0 11.2 1.2 10.7-24.6 9-20.4-1.4-31.3-1.1-37.6.9-1 .3-2.8 2.4-3.9 4.6-1.8 3.6-1.9 4.6-1 10.8.6 3.8 1.1 19.6 1.1 35.2 0 15.6.4 32.1 1 36.8 1.5 14.3 3.5 55.7 3.3 71-.5 42.5-.2 57.9 1.1 74.8 3.2 39.9 3.8 179 1 225.5-.5 8.8-.5 8.8 2.6 11.8 2.7 2.8 3.5 3 6.8 2.4 8-1.5 22.6-1.6 41.2-.4 24.6 1.7 28.9 1.6 37.2-.5 5.8-1.4 12.8-1.7 53.2-1.7 28.9 0 47.8-.4 49.9-1.1 3.8-1.2 77.4-2.6 103.3-2l18.1.5-.4 6.1c-.3 3.3.1 11.7.7 18.6.7 6.9 1.5 17.7 2 24 .9 13.9 2.2 19.9 4.6 21.7 2.3 1.7 8.4 1.7 10.9 0 1.5-.9 5.4-1.1 16.5-.5 8 .4 23.1 1 33.5 1.3 10.5.2 27.3.9 37.5 1.5 29.2 1.7 94 2.4 100.1 1.1 2.9-.7 18.1-1.8 33.8-2.6 15.7-.8 33-1.8 38.4-2.1 6-.4 13-.2 18.5.6 6.8.9 15.3 1 38.5.1 16.4-.6 30.6-1.5 31.7-2.1 3.4-1.8 4.2-4.9 4.5-17.3.2-6.7.8-18.3 1.3-25.7 1.3-16.3.9-53.8-.8-71-2.4-25.4-2.6-29.7-1.9-39 .4-5.2.8-15.6.8-23.1.1-7.5.5-21.5 1.1-31 1.4-25.6 3.3-76.9 3.4-96.4.2-20.3 2.9-67.1 5.1-87.9l1.6-14.9-3.5-5.1c-2-2.9-6.6-9-10.3-13.6-7.3-9.1-18.2-24.7-22.5-32-1.4-2.5-3.8-5.6-5.3-7-1.5-1.4-3.6-4.7-4.7-7.3-3.2-7.3-5.4-8.1-22.8-7.9-8.8.1-17.8-.5-22.9-1.3-6.3-1.1-17.3-1.5-44.3-1.5-29.7 0-36-.2-36.4-1.4-.9-2.3 2.5-16.6 5.6-23.5 2.4-5.6 3.3-6.7 6.5-7.8 12.1-4.2 16.7-15.9 11.1-28.4-4-9.1-10.2-10.9-22.6-6.6-7.3 2.5-10.3 5.8-11.4 12.7-.7 4.3.7 11.5 2.4 12.5 1.8 1.1 1.1 7.4-1.5 13.6-1.4 3.3-3.5 11-4.6 17.2-1.2 6.1-2.4 11.5-2.8 11.9-.4.4-4.5 1.4-9.1 2.3-10.1 1.7-52 2-70 .5-6.3-.6-16.6-1.1-22.9-1.3l-11.4-.3-.2-12.9c-.1-7.2-.7-14.2-1.3-15.7-.7-1.8-.9-5.7-.5-10.6.5-7.2.4-8.1-1.6-10.1-2.5-2.5-6.4-2.7-13.2-.5-4.1 1.4-7.5 1.6-18.7 1-26.5-1.2-35.3-1.9-35.8-2.7-.2-.4.9-4.3 2.5-8.6s3.2-8.9 3.6-10.3c1.4-5.2 5.7-13.1 7.3-13.6.9-.3 3.1-1.1 4.7-1.8 1.7-.8 4.2-1.8 5.7-2.4 1.9-.8 3.2-2.6 4.8-6.9 1.9-5.2 2.1-6.4 1-11-1.6-7.3-3.4-9.1-11-10.9-7.5-1.7-11.4-1.3-18.2 2.2-8.4 4.3-10.7 10.8-6.7 19.1 2.6 5.5 1.9 10.1-4.3 26.8-.6 1.6-2.3 6.5-3.8 10.9l-2.7 7.9-23.4-.1c-12.9 0-32.2-.5-42.9-1.2-10.7-.6-35.2-1-54.5-.9-19.2.1-36.6.3-38.5.3-1.9 0-12.3-.6-23.1-1.4-15.5-1.1-22.1-1.1-31.4-.2-6.5.6-12.2.9-12.6.6-1.2-.7-1.1-12.7 0-17.3.5-2 1.8-8.3 2.7-14 1.6-9.4 2-10.4 4.3-11.3 6.9-2.6 9.7-4.8 12.3-9.4 1.5-2.7 2.8-6.4 2.8-8.2 0-4.4-4.1-12.2-9.3-17.7-4.6-4.8-6.4-5.2-14.7-3.6zm5.4 18.3c1.7 2.5 1.3 3.8-1.3 3.8-2.4 0-4.5-2.5-3.7-4.5.8-2.2 3.2-1.8 5 .7zm254.6 14.7c0 .6-.5 1.3-1 1.6-1.5.9-4.3-.3-3.5-1.5.8-1.3 4.5-1.3 4.5-.1zm196.6 48.2c1 1.7-1.3 3.6-2.7 2.2-1.2-1.2-.4-3.3 1.1-3.3.5 0 1.2.5 1.6 1.1zm-486.1 14c5 .5 9.5 1.1 10.2 1.4 1.7.6.4 4.5-2.9 8.3-5.1 6-3.2 14.1 3.8 15.8 4.2 1.1 17.3-.3 19.9-2 5-3.3 4.4-10.5-1.1-13.8-2.5-1.5-3.4-2.6-3.2-4.2.3-1.8 1.3-2.2 7.8-3 8.6-1.1 37.9-1.1 52-.2 9.1.7 17.5.8 65 .6 18.4 0 36.4.5 76.5 2.4 4.4.2 10.6-.1 13.7-.7 4.2-.8 6.4-.7 8.3.1l2.5 1.2-1.7 4.2c-2.1 5.5-3.1 6.8-5.4 6.8-3.1 0-5.9 3.6-5.9 7.5 0 4.2 2.2 9 4.5 9.9 2.7 1 17 .7 20.4-.5 5.5-1.9 6.9-8.3 2.7-12.2l-2.5-2.3 2-5.9c1.1-3.3 2.6-6.6 3.3-7.4 1.6-1.5 10.1-1.6 40.6-.4l18.4.8 1.1 5.5c1.5 8.4 1.3 106.9-.4 125.5-.9 9.7-1.1 19.4-.6 27.5.7 13.4 1 35.7.7 69.5 0 11.5.2 26.4.6 33 .4 6.6.4 19.4 0 28.5-.5 9.1-.9 39.9-1 68.5 0 28.6-.4 56.4-.7 61.8l-.6 9.8-12.5.6c-6.9.4-14.7.6-17.5.6-2.7 0-31.1-.3-63-.7-39.7-.4-63.1-.3-74 .5-8.8.6-38.7 1.4-66.5 1.8-41.6.5-50.9.9-53 2.1-3 1.7-30.8 1.7-40.5-.1-3.3-.6-10.4-1.2-15.8-1.4-5.9-.1-10.3-.7-11-1.4-.9-.9-1.1-9.9-.8-34.9.9-71.4-.1-158.5-2.1-183.8-.7-8.8-1.3-32-1.3-51.9 0-19.8-.4-39.8-.8-44.5-.4-4.7-1.1-16.4-1.7-26-.5-9.6-1.3-22.9-1.7-29.5-.4-6.6-.7-24.6-.7-40l-.1-28 11.5-.5c6.3-.3 12.2-.4 13-.2.8.2 5.6.8 10.5 1.3zm554.1 54.4c5.2.9 13.2 1.8 17.7 2 4.5.2 8.3.4 8.4.5.1 0-.2 1.1-.7 2.5-1 2.6-3.5 40.2-3.3 48.7.2 5.9 1.6 8.6 5.1 9.3 1.5.4 5.2 1.9 8.3 3.6 3.1 1.6 6.7 2.9 8 2.9 1.3 0 5.8.9 9.9 2 4.5 1.2 10.8 2 15.7 2 4.5 0 8.4.3 8.6.7.7 1.4-2.2 51.3-3.9 64.8-.9 8-1.4 18.8-1.2 28 .3 17-.6 53.2-2.1 86.5-2.3 49.5-3.2 74.1-2.7 75.7.3 1 1.2 11.9 2 24.3.9 12.4 1.8 24.7 2.1 27.3.6 7.2-1.4 51.9-2.8 61.6-1.2 8.1-1.4 8.5-4.2 9.3-1.7.4-15.8.7-31.5.7-15.7-.1-34.8-.2-42.5-.2-15-.1-45.1 1.5-68 3.5-8.3.8-26.2 1.2-44 1-47.9-.4-142.4-5.1-145-7.2-.7-.6-1.5-4.5-1.8-8.8-.4-4.2-1.1-11.8-1.7-16.7-1.3-9.8-1.8-24.5-1-25 .3-.2 13.1-.6 28.4-.9 30.4-.6 31.9-.9 33.3-6.4.4-1.5.6-4.3.5-6.2-.6-17.5-.8-120.1-.1-136.5.5-13.1.4-30.2-.2-45.5-.6-13.5-.9-28.1-.7-32.5.6-14.2.2-48.6-.6-61-.6-8.7-.5-14.6.5-21.5 1-6.7 1.4-20.9 1.4-48.5v-39h7c3.9-.1 12.2.3 18.5.7 15.2 1.2 72.2 1.1 78.2 0 2.6-.5 4.9-.7 5.1-.5.3.2-.3 3-1.3 6.1-1.7 5.4-2 5.7-5.6 6.3-2 .4-4.3 1.5-5.1 2.5-1.6 2.3-1.7 8.5 0 10.7 2.3 3.1 10.4 5.7 17.8 5.7 6.1 0 7.3-.3 9.4-2.5 3.2-3.1 3.2-6.6-.2-10.6l-2.7-3.2 2.2-6.3c1.2-3.4 2.2-6.9 2.2-7.6 0-3.6 1.7-3.8 37.7-3.8 26.9 0 37.6.4 44.9 1.5zm43.5 14.1c.8.9 3.2 4.5 5.4 7.9 8.1 12.8 14.1 21.2 20.2 28.1 3.4 4 5.9 7.5 5.6 7.8-1.3 1.2-9 .5-16.1-1.4-3.9-1.1-8.4-2-10-2-1.6 0-4.3-1.3-6.4-3l-3.6-3-.1-10.3c0-5.6.3-13.7.6-18 .5-7.9 1.6-9.4 4.4-6.1z"/><path d="M137.564 217.436c-.3.2-12.8.9-27.9 1.5-15.1.6-29 1.3-30.8 1.6-9.3 1.5-9.8 13.7-.6 16 1.4.4 5.8.4 9.7 0 4-.3 13.3-.8 20.7-1.1 7.4-.3 18.9-1 25.4-1.6 8.7-.7 16.9-.7 31 .2 10.5.6 36.2 1.3 57.1 1.5 20.9.2 47.5.6 59 .9 25.8.8 32.9.2 36.1-3 3.2-3.3 3.2-7.8-.2-11.2-2.3-2.3-3-2.5-7.2-1.7-9.9 1.7-127.9-.4-148.2-2.6-8.9-1-23.3-1.3-24.1-.5zm-31.4 73.5c-3.3.4-10.2.8-15.3.9-10.4.1-14.8 1.7-15.8 5.5-.9 3.7.4 6.3 4.2 8.7 3.4 2.1 4.2 2.1 16.2 1.4 7-.5 20.1-.9 29.2-.9 21.8-.1 80.9 2.2 88.4 3.3 11.6 1.9 41.5 2.4 52.1 1 5.5-.8 19.2-1.4 30.5-1.5 11.3 0 21.1-.1 21.7-.2 1.6-.2 4.3-5.4 4.3-8.2 0-1.1-1.2-3.2-2.6-4.7l-2.5-2.5-23.2.6c-12.8.3-32.9.9-44.7 1.2-16.3.4-25 .2-35.9-1-7.9-.9-20-1.6-27-1.6-6.9-.1-18.7-.5-26.1-1-20.8-1.4-46.8-1.9-53.5-1zm203 86.5c-2.7 1.1-23.6 3.6-37 4.6-8.2.5-18.1 1.4-22 1.9-3.8.6-16.7 1.5-28.5 2.1-11.8.5-27.1 1.6-34 2.4-6.9.8-20.9 1.7-31.1 2-10.2.3-21.1 1-24.2 1.5-3.5.5-13.7.5-26.3-.1-13.8-.6-21.2-.6-22.5.1-4.5 2.5-5.3 9.7-1.4 13.6l2.5 2.5 24.7-.4c28.8-.4 65.9-2.2 78.8-3.8 5-.6 18.5-1.5 30-1.9 11.6-.5 25.3-1.5 30.5-2.3 5.2-.8 15.5-1.8 22.9-2.2 7.4-.3 17.5-1.3 22.5-2 5-.8 12.7-1.7 17.1-2.1 9.4-.8 12.5-3 12.5-8.9 0-5.1-2.8-7.5-8.7-7.4-2.7 0-5.2.2-5.8.4zm7.3 69.1c-.9.8-32.7 2.4-56.3 2.9-12.1.2-22.7.8-25 1.5-2.9.9-23.5 1.3-73.7 1.5-62.1.2-70 .4-72.2 1.8-4.9 3.3-4.6 9.6.7 12.4 2.9 1.5 7.9 1.6 51.2 1.4 80.7-.3 96.7-.6 99.9-1.9 1.8-.8 10.3-1.4 23-1.6 23.1-.4 48.1-1.5 54.4-2.2 2.4-.3 5.2-1.4 6.3-2.5 2.6-2.6 2.6-9.2-.1-11.9-1.8-1.8-6.9-2.7-8.2-1.4zm287.1-184.1c-2.6 2.5-152 4.1-161.9 1.6-6.5-1.5-7.8-1.4-10.5 1.4-2.6 2.6-3.3 7.2-1.5 10.5 2.3 4.3 5.2 4.5 66.5 4.2 57.7-.3 116.9-1.7 120-2.8 1.9-.8 4.5-5.5 4.5-8.4 0-1.1-1.1-3.2-2.5-4.5-2-2.1-3.4-2.5-8.3-2.5-3.2 0-6.1.2-6.3.5zm.8 80.1c-4.9 2.6-23.1 3.6-75.2 3.9-37.3.2-54.1.7-62.4 1.8-8.1 1-12.2 1.2-14.6.4-7.9-2.4-15.3 6.2-11.5 13.3 1.7 3.2 6.1 4 17.7 2.9 25.2-2.3 40-2.9 77.8-3.4 48.1-.7 72.5-1.9 76.5-4 2.7-1.4 5-5.8 5-9.7 0-2.9-4.5-6.8-7.7-6.8-1.5.1-4 .8-5.6 1.6zm-126.2 103.2c-.1.2-7.6.4-16.6.6-13 .2-17.1.6-19.6 2-5.4 2.8-5.7 10.3-.5 13 2 1 5.7 1.2 14.2.9 87.4-3 134.8-3.1 148.6-.1 6.2 1.3 8.9.1 11-4.7 2-4.8 1.8-7.2-1-10l-2.3-2.3-66.7.1c-36.7.1-66.9.3-67.1.5z"/></g></svg>