<svg version="1.0" xmlns="http://www.w3.org/2000/svg" width="1269.333" height="1785.418" viewBox="0 0 952 1339.063"><g fill="#343434"><path d="M89.5.637c-18.4 1.9-20.1 2.3-26.1 6.4-3.1 2.2-7.4 4.7-9.4 5.6-4.3 2-10.7 7.4-12.9 11-.9 1.5-6.4 6.9-12.2 12.2-10.2 9.2-16.9 17.5-16.9 21 0 .9-2.7 3.7-6 6.2-5.3 4.1-6 5-6 8.1 0 2.4.8 4.3 2.5 5.9 3.2 3.3 3.9 3.2 8-1 3.7-3.6 8.7-5.2 13.1-4.1 3.4.9 15 12.8 17 17.4 1 2.4 1.3 4.9.9 7.2-.4 1.9-.8 4.6-.9 6-.4 3.5-3.3 8.9-6.8 12.7-1.7 1.7-2.7 3.6-2.3 4.2.3.6-1.9 3.5-5.2 6.6l-5.8 5.4 2.9 3c3.7 3.9 6.1 3.9 11.7.2 6-4 14.7-5.8 18.9-4.1 5.5 2.3 14 15.3 14 21.3 0 1.9.7 4 1.5 4.7.8.7 1.5 2.2 1.5 3.4 0 1.2.7 3.1 1.5 4.3.8 1.2 1.5 3.9 1.4 6 0 2.1.7 6.3 1.6 9.3.9 3 1.9 8.1 2.2 11.2.4 4.7 1 6 3 7.4 3.1 2 8.3 1.2 10.9-1.7 1.6-1.8 1.7-2.4.5-5.2-.8-1.8-1.7-6.8-2.2-11.2-.8-7.8-.7-8.1 2-12 3.2-4.6 5.1-9.6 5.1-13.4 0-1.5.4-3.1.9-3.6.5-.6 1.4-2.8 2.1-4.9.7-2.1 3-6.2 5.1-9 2.2-2.8 4.2-6.7 4.5-8.6 2-10.9 16.7-26.8 28-30.4 5-1.6 6.5-1.6 11.6-.6 3.2.7 6.1 1.7 6.4 2.2.3.4-.4 2.4-1.6 4.4-1.6 2.6-2 4.3-1.6 6.8.8 4.3 4.3 6 17.1 8.1 11.3 1.9 16.5 3.3 16.5 4.4 0 .5-1.6 3.8-3.5 7.4-1.9 3.6-3.5 7.5-3.5 8.5 0 1.1-.7 2.5-1.5 3.2-.8.7-1.5 2.6-1.5 4.2s-1.1 5.1-2.5 7.8-2.5 6.4-2.5 8.1c0 3.2-.9 6.8-3.6 13.9-.7 1.9-1.5 6-1.8 9-.4 3-.9 6.8-1.2 8.5-1.3 6.5-1.5 14.9-.5 19.2.7 2.5 1.6 8.4 2.1 13.2 1.3 11.4 3.2 21.1 4.8 23.9.8 1.3 1 3.6.6 5.7-.4 2.5.1 4.8 1.9 8.9 1.4 3.1 2.4 5.6 2.2 5.6-.3 0 .6 2.4 1.9 5.2 2.8 6.4 11.2 19.5 16.4 25.5 12.3 14.3 16 18.1 20.3 20.4 2.5 1.4 7.3 4.9 10.6 7.6 3.6 3 8.2 5.7 11.4 6.7 3 1 7.4 3.3 9.8 5.2 2.4 1.9 6.9 4.1 10 5 3.1.9 7.6 2.3 10.1 3.1 2.5.9 8.7 2.1 13.8 2.8 10 1.4 13.7 3.3 12.6 6.7-.3 1.1-.7 5.6-.8 10.1-.2 6.8-.7 9.1-3 13.4-3.2 6.1-3.1 8.9.5 11.5 2.3 1.7 3.1 1.8 6.5.8 3.3-1 5.6-.8 13.9.9 5.5 1.2 14.5 3.1 20 4.2 17.1 3.5 49.2 2.2 53.6-2.2 2.5-2.5 2.4-5-.5-12.3-1.3-3.4-2.6-8-3-10.4-.6-3.7-.3-4.6 1.9-6.8 2.3-2.3 3.2-2.5 6.9-2 10.6 1.6 38.8-8.7 51.9-18.9 6.4-5 21.7-21.9 21.7-23.9 0-.7.7-1.9 1.5-2.6.8-.7 2-3.1 2.7-5.4.7-2.2 2-5.6 3-7.4 1-1.8 1.8-4.7 1.8-6.5 0-1.8.7-4.6 1.6-6.2 2.1-4.1 5.4-18.1 5.4-23.2 0-2.3.4-5.2.9-6.5 1.7-4.3 3.2-13.3 3.6-21.3.1-4.4.9-10.7 1.7-14 .9-4.3 1.3-12.1 1.1-27-.1-11.6-.2-24-.2-27.7 0-6.8-2.1-18.2-4.6-24.8-.8-1.9-2.8-7.1-4.6-11.5-1.7-4.4-3.7-9.4-4.3-11-.6-1.7-2-4.3-3-5.8-1.9-2.7-1.9-2.8.4-5.2 1.3-1.3 3.9-3 5.9-3.6 2-.6 5-2 6.7-3 4.8-2.9 6.6-2.4 11.4 3.5 2.5 3 5.9 6.2 7.5 7.2 1.7.9 4.3 3 5.9 4.6 1.7 1.5 3.3 2.8 3.8 2.8.4 0 1.6 1.7 2.7 3.7 1.1 2.1 2.8 4.7 3.8 5.9 2.6 2.9 5.7 8.4 8.1 14.4.6 1.4 2.2 5.1 3.6 8.4 1.4 3.2 2.6 6.5 2.6 7.3 0 .7.8 3 1.9 5.1 1 2 2.4 7.4 3 11.9 1.1 7.6 1 8.5-.9 12.2-2.6 5.2-2.5 6.5.6 9 3.6 2.8 8.9 2.7 12.8-.3 3.7-2.7 16.8-8.7 24.3-11 11-3.4 32.3.1 37.5 6.1 2.5 2.9 3.6 7.5 2.5 10.6-1.9 5.6 4.7 8.6 11.3 5.2 2.3-1.2 3-2.3 3.1-4.8.5-13.8 1-20.6 1.8-22.7 1.1-3 2.2-11 2.7-20.5.2-3.9.6-11.7.9-17.4.3-5.8 1.2-13.3 2.1-16.7 1.1-4.6 1.4-9.1 1-17.1-1.3-24.9-3.1-32.6-11.8-48.7-1.1-2.2-8.2-19-10.8-25.9-2.2-5.6-10.1-14.7-17.4-19.8-5.1-3.6-17-8.9-20.1-8.9-.9 0-3.4-.9-5.7-2.1-3.6-1.8-5.8-2.1-20.7-2.1-30.8-.1-38.1.4-43 3-2.5 1.3-6.3 3.9-8.6 5.8-2.4 1.9-6.4 4.2-9 5-4.2 1.5-13.5 9.4-13.5 11.6 0 .4-1.5 3.1-3.4 6-3.7 5.8-9 10.8-11.2 10.8-.8 0-3.6 1.9-6.2 4.3s-6.3 5.4-8.2 6.7c-4.5 3.1-11.9 9.2-18.6 15.4l-5.3 4.8-9-4.6c-10.7-5.5-22.2-9.6-27.3-9.6-2 0-4.9-.5-6.5-1.1-1.5-.6-8.4-1.9-15.3-3-13.1-2-19.7-3.7-24.9-6.4-2.1-1-4.3-1.4-6.6-.9-2.3.4-5.4-.1-9.7-1.6-5.8-2-7.4-2.1-20.8-1.5-13.8.7-30.3 3.1-36.4 5.4-1.5.6-4.4 1.1-6.4 1.1-3 0-5.8 1.5-14.2 7.3-5.8 4-11.6 8.3-13 9.6-1.4 1.3-4.3 3-6.5 3.8-7.9 2.9-8 2.9-12.2-2.6-2.1-2.8-5.5-7.2-7.5-9.7-2.1-2.5-3.8-5.1-3.8-5.9 0-1.3-7.5-5.5-9.7-5.5-1.5 0-10.3-9.8-11.6-13-.6-1.4-2.6-4.3-4.5-6.5-1.8-2.2-4.5-5.5-6-7.3-1.5-1.8-5.4-5.1-8.6-7.5-21.3-15.1-26.5-17.7-35.9-17.7-3.5 0-7-.9-11.6-3.1-7.3-3.5-12.6-4.1-24.6-2.8zm11.9 13.4c2.8.3 6.1 1.2 7.5 1.9 1.4.8 6.2 1.9 10.6 2.6 12.6 1.9 13 2.1 33.9 16.5 6.7 4.7 12.1 9.8 15.8 15.4 1.7 2.5 4.3 5.9 5.7 7.6 1.5 1.6 3.4 4.7 4.4 6.7l1.7 3.8-3.1 3.5c-2.1 2.3-2.9 4.2-2.6 5.5.3 1.4-.3 2.7-2.1 4.1-1.5 1.1-3.4 3.5-4.2 5.2-2.1 4.5-6 4.8-10.4.9-2.8-2.5-4.6-3.1-10.3-3.6-12.3-1.1-16.6.1-26.8 7.8-11.1 8.4-14.5 11.5-14.5 13.5 0 .8-.9 2.4-2 3.6-1.1 1.2-2.7 5.2-3.4 8.9-.8 3.7-2.1 7.5-3 8.5-.8.9-3.1 5.2-5.1 9.6-2 4.4-4.6 9.6-5.6 11.6s-1.9 4.8-1.9 6.3c0 1.4-.3 2.6-.6 2.6-1.7 0-4.4-2.3-4.4-3.8 0-.9-.9-3.1-2-4.7-1.1-1.7-2-3.8-2-4.8 0-3.3-3.8-9.2-9.2-14.3-6.2-5.9-7.6-6.7-14.3-8.3-6.1-1.5-6.9-2.6-4.3-6.1 1-1.5 2.4-4.4 2.9-6.6.6-2.1 1.4-5.6 2-7.7.6-2.5.6-5.1 0-7.5-.6-2-1.3-5.5-1.6-7.6-.8-4.9-8.9-13.3-19.3-20-3.9-2.6-7.3-5-7.6-5.5-1.1-1.7 5.2-9.1 13.5-15.7 9.6-7.7 14.9-13.4 14.9-15.8 0-1 2.1-2.5 5.5-4 2.9-1.4 8.2-4.1 11.7-6.2 8.7-5.1 14.1-5.8 30.2-3.9zm462.8 9.6c9.3 1.7 16 4.4 23 9.1 3.9 2.7 11.8 11.1 11.8 12.5 0 .6.9 2.1 1.9 3.4 3.1 4 14.1 26.4 14.1 28.8 0 1.2.6 3.2 1.4 4.4.8 1.2 1.9 6.2 2.6 11.2.6 4.9 1.6 10.2 2.1 11.6 1.6 4 1.9 7.4 1.9 19.2 0 6.3-.5 11.7-1.1 13-.7 1.2-1.3 7.5-1.4 14.7-.4 20.3-1.6 33.3-3.3 35.2-1.9 2.3-2.9 2.2-8.4-.2-3-1.3-6.5-1.9-10.4-1.9-3.3.1-7.2-.4-8.7-1-6-2.4-19.5-.6-33.6 4.3-5.4 2-7.6.9-8.5-4.1-1.6-9.7-2.5-14.1-3.9-17.8-5.2-14.1-6.8-18-9.6-22.5-1.7-2.7-3.7-6.6-4.6-8.5-2.2-5.3-9.9-13.9-17.7-19.7-3.7-2.8-6.8-5.5-6.8-6s-2-3.1-4.5-5.7c-2.9-3.1-4.5-5.7-4.5-7.4 0-1.4-1.7-4.6-3.9-7.5-4-5-8.1-11.9-8.1-13.5 0-.5-1.1-2.3-2.5-4.1-1.3-1.8-3.2-5.5-4.1-8.3l-1.6-5 3.1-6.5c3.6-7.5 5.9-9.8 15.6-16 16.8-10.7 20.3-12.2 29.5-12.8 16.4-1.2 30.3-.8 40.2 1.1zm-247.5 44.3c2.9.8 7.6 2.8 10.6 4.5 3.7 2.1 6.8 3.1 9.6 3.1 2.3 0 5.4.6 6.9 1.4 3.9 1.9 11.4 3.5 21.7 4.5 10.6 1 24.6 4.3 33 7.9 5.1 2.1 13.8 6.2 35.1 16.4 7.7 3.7 26.4 25 26.4 30.1 0 .9.4 1.8.9 2.1 1.4.9 7.7 17.4 9.6 25.2 1.4 5.7 1.5 7.6.5 9.4-1.7 3.2-6.9 4.9-15.7 5.2-7.3.2-8.5-.1-15.8-3.6-4.4-2-8.7-4.4-9.6-5.2-.9-.8-4.6-2.3-8.2-3.3-3.6-1.1-8.3-3.3-10.4-4.9-3.9-3-13.3-7.2-16.2-7.2-.9 0-5.8-1.6-11-3.5-5.2-2-11.2-3.8-13.3-4.2-2.2-.3-5.5-1.6-7.4-2.9-1.9-1.4-5.2-3.3-7.2-4.3-4.3-2.2-13-11-15.9-16.1-1.2-1.9-2.4-5.1-2.8-7-1-4.6-6.8-14.2-10.6-17.4-1.7-1.4-4.2-2.6-5.6-2.6-5.4 0-12.3 8.1-12.3 14.3 0 3.5-5.6 13.7-9.3 16.9-6.3 5.5-25.4 15.6-34.7 18.3-1.4.4-3.7 1.6-5.2 2.7-1.5 1-5.2 2.5-8.2 3.3-4.7 1.2-21.1 9-39 18.4-3.2 1.7-6.6 3.1-7.4 3.1-.8 0-3.2 1.5-5.2 3.4-2.4 2.1-6.5 4.3-10.9 5.7-6.6 2.1-7.2 2.2-8.8.7-1.4-1.5-1.4-2.5-.4-8 .6-3.5 2-8.3 3-10.8 1.1-2.5 2.9-7.2 4.1-10.5 3.3-9.3 10.4-23.1 16.2-31.6 6.6-9.5 7.2-10.3 10.6-14.4 5.9-7.1 7.6-8.5 13.2-10.6 6.9-2.6 15-7.2 17.5-9.9 3.6-4 18.7-11.7 24.3-12.4 3-.4 7.9-1.6 10.9-2.8 3.6-1.3 6.7-1.8 9-1.5 3.2.6 7.2 0 17.3-2.3 4.9-1.1 4.9-1.1 10.7.4zm150.7.8c.9 1.2 1.6 2.8 1.6 3.4 0 .6 2 4.8 4.5 9.3 2.5 4.5 4.5 9.1 4.5 10.2 0 3.7-13.9 14.9-18.4 14.9-1.2 0-5.5-2.8-9.7-6.3-4.2-3.4-8.8-7.1-10.4-8.2-4.4-3.2-3-6.6 5.3-11.9 3.7-2.4 9.2-6.5 12.2-8.9 6.2-5.2 8.2-5.6 10.4-2.5zm-271.2 7.8c1.4 1.1 3.3 3.9 4.3 6.2.9 2.4 2 4.5 2.4 4.8.4.3 1.5 2.1 2.4 4.1l1.7 3.6-6.5 7-6.5 7-9.7-.2c-11.2-.1-14.9-1.4-13.8-4.8.4-1.2.9-3.4 1.2-4.9.3-1.7 1.3-2.8 2.9-3.2 1.4-.4 2.8-1.4 3.1-2.4.7-1.7 4.2-6.7 10.5-15 3.7-4.8 4.5-5 8-2.2zm133.3 51.6c8.6 16.6 19.7 24.4 48.5 33.9 17.9 5.9 25.2 8.8 31.1 12.5 2.5 1.5 6.1 3.1 8 3.5 4.1.9 12.3 4.9 16.5 8.1 5.9 4.5 10.8 5.6 24.7 5.2 10.5-.2 12.9 0 13.7 1.2.6.9.7 6.5.3 13.5-.3 6.6-.5 13.3-.4 15 .5 6 .3 8.1-1.3 15.5-.9 4.1-1.6 9-1.6 10.7 0 1.8-.4 5.2-1 7.5-1.2 5.3-3 14.7-4.1 21.3-1.6 9.9-2.8 15.5-3.6 16.7-.4.7-.9 2-1 2.8-.1.8-2.4 6.5-5 12.7-8 18.8-18.1 28.7-37.9 37.5-4.3 2-9.5 3.9-11.4 4.2-2 .3-6.9 1.8-11 3.4-6.6 2.4-8.9 2.7-19 2.7-7.1 0-14.4-.7-19-1.7-4.1-.9-11.3-2.2-16-2.8-9.7-1.3-12.2-1.9-23.9-5.5-4.6-1.4-11.2-2.8-14.5-3.1-3.4-.3-8.1-1.2-10.6-1.9s-7.5-1.6-11.2-1.9c-3.7-.3-8.4-1.4-10.5-2.4-2.1-1.1-5.7-2.3-8-2.7-2.3-.3-6.1-1.9-8.5-3.4-4.5-2.9-10.5-6.1-20-10.6-5.7-2.8-20.8-14.1-20.8-15.6 0-.7-3.3-4.9-11.6-14.4-4.3-5-11.3-16.7-12.5-21-.6-2.2-2.2-6.1-3.5-8.6-1.7-3.5-2.6-7.7-3.5-16.6-.6-6.5-1.5-12.5-1.9-13.3-.4-.8-1.1-7.1-1.5-14-.4-6.9-1.2-13.4-1.7-14.4-1.5-2.9 1-4.2 9.2-4.9 7.4-.6 18.4-4.9 22.6-8.8 1.1-1.1 5.9-3.9 10.5-6.3 23.7-12.2 32.8-16.4 47.9-22.2 21.3-8 30.1-12.1 34.9-16.1 7.4-6.2 15.4-15.4 17.7-20.2 3.4-7.5 5-6.9 10.9 4.5zm-11.9 231c5.5 1.5 12 3.3 14.6 4 2.6.7 8 1.6 12 1.9 9.8.8 21.4 3.3 22.7 4.8.9 1.1 1.6 3.5 3.7 12.2.9 3.6-1.8 5.6-9.6 7.1-10.2 1.9-16.9 1.8-23.7-.5-3.2-1.1-8-2.3-10.8-2.7-2.7-.4-7.2-1.5-9.8-2.5-2.6-1.1-6.1-1.9-7.7-1.9-6.4 0-7-1.5-4.6-10.7.9-3.5 1.1-6.5.6-9-1.5-6.3-1.2-6.4 12.6-2.7z"/><path d="M374.5 178.037c-4.7 1.7-8.5 5.7-8.5 8.9 0 1.2.7 4.3 1.6 6.9 1.9 5.7 6.2 8.7 12.3 8.7 7.4 0 9.3-2.3 10.6-12.8.7-6.1-.3-8.5-4.8-11.2-3.8-2.3-5.8-2.4-11.2-.5zm-119.9 13.1c-2.5 1.4-2.8 2-2.2 5.3.4 2.5.1 4.4-.9 5.8-1.3 1.8-1.1 2.4 1.5 6 3.9 5.3 7.8 7 12.9 5.4 4.8-1.4 5.7-2.5 6.5-8.1.3-2.5.9-6.1 1.2-8.2.5-3.1.2-3.9-2-5.3-3.7-2.4-13.4-3-17-.9zm144.7 46.1c-.6.4-2.4 3.9-3.9 7.6-1.5 3.7-4.3 8.5-6.1 10.7-1.8 2.1-3.3 4.7-3.3 5.7 0 3-10.8 12.5-19 16.5-10.5 5.2-20.2 9.1-29 11.7-4.1 1.2-10 3-13 4-4.6 1.5-6.9 1.6-14 .9-4.7-.4-9.8-1.2-11.4-1.8-1.6-.5-4.2-1-5.8-1-5 0-13.8-3-17.1-5.9-1.8-1.5-5.8-4.7-8.9-7-3.2-2.4-6-5.1-6.3-6.2-1.4-4.4-11.5-6.6-13.5-3-1.7 3.3-1.1 8.9 1.4 12.9 5.2 8.2 40.4 25.8 47.7 23.9 1.1-.3 4.5.1 7.5.9 7.4 1.9 11.9 1.8 18.7-.6 3.1-1.1 6.8-2 8.1-2 7.9 0 29.3-6.9 37.1-12 2.2-1.4 6.1-3.2 8.6-3.9 8.5-2.4 16.5-11.8 28.8-33.9 5.5-9.9 6.1-13 3.2-15.6-2.1-1.9-8-3.1-9.8-1.9zm369.7 64.8c-16.8 2.1-40.4 2.9-49 1.6-11-1.7-19.1.3-27.9 7-3.7 2.7-8.7 5.6-11.2 6.4-5.1 1.7-18.2 11.1-20.7 14.7-.9 1.3-4 4.9-6.9 8.1-2.9 3.2-5.3 6.2-5.3 6.7 0 .4-1.6 2.7-3.5 5s-3.5 4.7-3.5 5.4c0 .7-1.3 3.3-2.9 5.8-1.6 2.5-3.2 5.6-3.6 6.9-.5 1.3-2.6 6.1-4.8 10.7-8.8 18.5-13.7 36.4-14.3 52.2-.1 3.6-.6 9.9-1.1 14-1.3 11.2-.9 39 .6 41.8.7 1.3 1 3 .7 3.8-.3.8.1 4.4 1 8 .8 3.6 1.2 6.9.9 7.4-1.1 1.8 6.7 30.9 10.1 37.2.8 1.4 1.4 3.3 1.4 4.3 0 .9.7 2.9 1.5 4.5.8 1.5 1.7 5.5 2.1 8.7 1.1 10.7 18.2 37.6 28.5 44.8 1.4 1 4.3 4.5 6.5 7.8 2.1 3.3 7.8 9.6 12.7 14 4.8 4.4 8.7 8.8 8.7 9.8 0 2-8.4 8.9-10.9 8.9-.9 0-3.1.9-4.9 2-4.8 2.9-8.6 2.5-16.7-2-4-2.2-9-4.6-11.1-5.4-2.2-.7-7.7-3.5-12.4-6.1-14.2-8.1-34.3-18.5-35.7-18.5-.5-.1-4.2-2.6-8.3-5.6-4.1-3-8.8-6.2-10.4-7.2-1.6-.9-4.7-3.2-7-5-2.2-1.7-6.9-4.5-10.4-6.2-7.1-3.3-10.8-6-20.2-14.1-3.6-3.1-8-6.4-9.8-7.3-4.5-2.3-4.8-3.9-1.8-7.9 1.4-1.9 2.6-3.8 2.6-4.4 0-.6 1.8-3.1 4.1-5.6 5.6-6.4 15.1-26.7 14.3-30.6-.4-1.7-.2-4.4.4-6 1.3-3.6-.5-6.1-4.1-6.1-2.8 0-9.7 4.9-9.7 6.9 0 .8-.6 3.3-1.4 5.6-.8 2.2-2.2 6.7-3.2 10-.9 3.3-2.9 7.4-4.3 9-1.4 1.7-4.6 6.1-7.1 9.8-2.6 3.8-5.5 7-6.7 7.3-3.4.9-10.6-1.9-20.5-8.1-5.6-3.5-13.1-7-20.5-9.5-6.5-2.3-12.4-4.7-13.3-5.4-2-1.8-25.2-13.6-26.6-13.6-.7 0-1.7-.6-2.3-1.4-.9-1.1-.2-2.6 3.9-7.2 2.7-3.1 5-6.1 5-6.5 0-1.3 9-11.1 13.3-14.5 4.3-3.5 7.7-8.1 7.7-10.6 0-2.8-4-5.8-7.7-5.8-3 0-4.6 1.2-12.8 9.7-5.2 5.3-9.8 10.5-10.1 11.7-1.1 3.5-11.3 15.5-13.7 16.1-2.1.6-11.1-2.3-20.4-6.6-2.3-1-5.2-1.9-6.5-1.9-1.3 0-4.8-1.2-7.8-2.6-6.7-3.1-16.6-6-29-8.5-18-3.5-19.5-3.9-25-5.4-3-.8-11.1-1.8-18-2.1-13.7-.6-16.6-1.6-17.5-6.2-2.4-11.7-6.4-18.2-17.6-28.1-11.1-9.9-12.8-10.5-24.3-9.1-12.8 1.5-17.6 3.1-35 11.5-14.6 7-15.4 7.6-16.9 11.4-.9 2.2-2.6 4.5-3.7 5.1-1.1.6-2 1.6-2 2.3 0 .7-.8 2.2-1.9 3.3-1 1.1-3 3.9-4.5 6.2-2.2 3.5-3.1 4.2-5.9 4.2-7.2-.1-20.4 1.7-24.1 3.3-2.1.9-5.6 3.3-7.7 5.1-2.1 1.9-5 4.1-6.6 4.9-4.3 2.2-20.3 5.1-21.5 3.9-1.5-1.5 3.8-8 8.1-10 2.5-1.2 4.2-3.1 5.7-6.3 3.3-6.8 19.1-21 36.4-32.6 4.1-2.8 10.7-8 14.5-11.5 3.9-3.5 10.4-8.9 14.5-12 10.4-7.6 17-14.1 17-16.5 0-2.8-2.8-4.9-7.4-5.6-3.7-.6-4.2-.4-8 3.9-2.3 2.6-6.8 6.5-10.1 8.7-3.3 2.3-7.8 5.7-10 7.7s-5.3 4.4-6.9 5.4c-1.5 1-5.4 4.2-8.6 7.1-3.2 3-7.3 6.1-9.2 7.1-10.2 5.2-23.1 16.9-30.2 27.4-2.1 3-6.4 8-9.5 11-3.7 3.5-6.9 7.9-8.9 12.1-1.8 3.6-3.2 6.9-3.2 7.2 0 .4-1.4 2.9-3.2 5.6-2.2 3.2-5.6 6.4-10.7 9.7-4.2 2.7-9.9 7.1-12.7 9.9-2.9 2.7-7.5 7.1-10.2 9.7-5 4.7-10.8 12.3-16.9 22.3-2.7 4.3-3.5 7.1-4.4 14.7-1.5 12.5-1.6 27.7-.1 36.8 2.2 13.9 2.8 16.5 4.9 20.5 5.1 9.7 9.8 26 12.1 42 .4 2.7 1.1 5.5 1.5 6.2.4.6 1 3.1 1.3 5.5.3 2.4 1.1 6.1 1.9 8.3.7 2.2 1.7 5.6 2 7.5.4 1.9 1.4 4.5 2.2 5.8.9 1.5 1.2 3.4.8 5.2-.4 1.6.1 5.4 1 8.7.9 3.2 2.2 7.5 2.8 9.6.8 3 .8 4.6-.2 7-1.4 3.4-4.1 11.4-6.3 18.7-1 3.6-2.2 5-5.9 7.2-4.1 2.6-5.1 2.8-10.5 2.2-4.5-.6-6.5-1.4-8.6-3.5-3.6-3.5-3.5-5 .3-9.3 1.6-1.9 3.4-5 3.9-6.7.8-2.8.6-3.7-1.1-5.5-2.7-2.9-7.1-3.9-10-2.4-2.4 1.4-10.9 18.6-10.9 22.3 0 3.3 2.8 6.7 9.3 11.1 4.8 3.3 6.3 3.8 15.1 4.7 11.5 1.3 16.6.4 23.2-4.2 4.2-2.9 8.4-9.1 8.4-12.3 0-1.6 2.1-6.9 4.7-11.8 2.1-4.1 2.7-24.1.8-27.8-.8-1.5-1.9-5.2-2.4-8.1-2-10.9-3.9-18.5-6.1-23.9-2.2-5.5-2.7-7.8-3.3-17.6-.2-2.8-.8-6.4-1.4-8-.6-1.6-2.3-7.4-3.8-12.9s-3.9-12.5-5.5-15.5c-4.2-8.1-5.9-14.9-6.7-26.8-.8-11.8-.8-12.8-.4-25.2.5-12.8 1.7-16.4 7.2-22.5 2.7-2.9 4.9-5.7 4.9-6.1 0-.5 3.5-4.3 7.8-8.5 4.2-4.1 8.3-8.8 9-10.3.9-2 1.8-2.6 3.4-2.4 2 .3 2.3 1.3 4 13.8 1.1 7.4 2.1 15.6 2.3 18.2.2 2.6.8 5.6 1.4 6.7.6 1.1 1.1 3.3 1.1 4.8 0 1.6 2.2 7.4 5 12.9 2.7 5.4 4.9 10.3 4.9 10.9-.3 2.9.4 4.8 3.9 9.8 3.8 5.7 12.6 13.7 15 13.7.8 0 2.8-.6 4.5-1.4 1.8-.7 5.9-2.3 9.2-3.6 8.2-3.2 21-10.3 26.3-14.7 2.4-1.9 6.6-4.6 9.3-6 2.8-1.3 6.9-4.1 9.2-6.2 2.3-2.1 5.9-4.6 8-5.5 4.5-1.8 7.2-4 18.6-14.9 8.1-7.7 16.4-12.7 21.1-12.7 1 0 3.1 1.5 4.5 3.4 2 2.6 3.7 3.6 6.8 4.1 6.3 1.1 14.3 6.4 23.8 15.8 4.6 4.6 11.1 10.1 14.4 12.2 3.3 2.1 9 6.6 12.7 10.1 4.5 4.2 8.4 6.9 12.3 8.3 8.9 3.4 13.7 6.1 18.5 10.6 4 3.7 23.7 14.5 26.4 14.5.5 0 2.1 1.1 3.5 2.4 1.5 1.3 5.3 3.8 8.6 5.4 5.6 2.8 8.7 3.7 22.5 6.3 12.6 2.5 27.8 6.7 30.7 8.6 3 2 6.3 1.1 10.7-2.8 1.9-1.6 9.2-5.9 16.3-9.4 10.5-5.2 14.3-7.8 21.3-14.2 4.7-4.3 10-8.9 11.8-10.1 1.7-1.3 3.2-2.9 3.2-3.7 0-.7 2.4-4.2 5.4-7.7 2.9-3.5 5.7-7.3 6-8.5.4-1.2 1.9-2.8 3.3-3.5 1.4-.7 4-4.1 6-7.8 5.9-10.9 10.6-17.5 12.9-17.8 2.3-.3 8.3 3.4 19.4 11.8 3.6 2.7 9.9 7 14 9.4 4.1 2.5 8.4 5.2 9.5 6.1 1 .8 2.5 1.5 3.1 1.5.7 0 2.1 1 3.1 2.2 5.7 6.9 18.8 15.6 28.1 18.7 3.5 1.1 9.1 3.9 12.5 6.2 3.4 2.2 10.9 6.4 16.7 9.2 5.8 2.8 12.5 6.4 14.9 8 2.4 1.7 6.7 3.9 9.4 4.9 8.2 3.1 10.7 5.3 10.7 9.6 0 2 1 5.7 2.2 8.2 1.5 3.1 2.2 6.9 2.4 12.5.2 7.3.7 11.7 3.2 30.2.6 4.5 1.5 7 3.3 8.9 2.8 3 17.1 13.4 21.4 15.6 1.7.8 6.5 3.4 10.8 5.6 4.3 2.3 8.8 4.2 10.1 4.2 1.2 0 5.1 1.2 8.7 2.6 8 3.3 19.3 6.4 23.8 6.4 4.6 0 16.3 2.1 17.8 3.2.8.7.7 1.6-.4 3.7-1.6 2.7-1.5 2.8 3.4 9.2 2.8 3.5 6.2 8.9 7.7 11.9 4.6 9.2 9.6 22 9.6 24.3 0 1.2 1.2 4.9 2.6 8.2 1.5 3.3 3 8 3.4 10.5.5 2.5 2 7.9 3.3 12 3 8.8 4.7 16.1 4.7 19.5 0 1.3.6 3.9 1.4 5.7.8 1.8 1.9 6.7 2.5 10.8.6 4.1 1.8 10.6 2.6 14.5.9 3.8 2.1 10.4 2.6 14.5s1.5 9.7 2.3 12.5c3.3 12 4.7 56.4 2.5 78.1-.9 8.6-.9 12.6 0 17.2.8 4.2.9 7.4.2 10.4-.5 2.4-1.2 8.2-1.5 13-.4 4.8-1 9.7-1.5 11-.9 2.4-3.2 23.4-5.1 46.3-1.2 15.6-1.3 16-3.8 24.1-3 10-5.4 20.3-5.7 24.8-.3 4-1.2 7.8-5.3 21.6-1.3 4.7-2.8 10.3-3.2 12.5-1.5 8.1-8.2 22.1-13.9 29.2-1.4 1.7-4.4 5.6-6.5 8.5-7.2 9.8-26.1 23.2-35.2 24.9-5 .9-6.2.8-12.3-1.6-4-1.5-8.1-3.9-10-5.9-3.8-3.9-18.1-24.3-21.2-30.1-1.2-2.2-2.9-4.9-3.9-6-.9-1.1-4.4-6.7-7.7-12.5-13.2-23.1-14.8-25.7-18.2-29.6-4.4-5.1-7.5-10-14.1-22.9-4-7.8-6.4-11.2-11-15.3-6.9-6.1-11.3-12.1-16.4-21.6-4.7-8.9-10.7-15.6-13.9-15.6-3 0-12.2-7.3-16.4-13.2-7.3-10-23.1-24-31.3-27.6-3-1.3-6.8-3.4-8.5-4.6-1.6-1.3-4.1-2.9-5.4-3.6-4.4-2.3-18.5-7.1-23.5-8-4.5-.9-6.3-1.8-15.4-8.5-1.8-1.3-7.3-4-12.2-6-11.8-5-13.4-6.5-12.6-12.3.4-2.8.2-5-.5-5.9-.8-.9-1.2-8.2-1.2-22.6 0-22.1.8-33.3 2.5-34.3 1.4-.9 14.6-4 24.7-5.9 8.8-1.6 13.6-2.9 25-6.5 3.6-1.1 7.7-2 9.3-2 4.8 0 29.7-8.5 45.3-15.5 2.8-1.2 7.9-3.2 11.5-4.5 7.4-2.6 11.7-4.9 17.8-9.7 5.3-4.3 5.6-7.9 1.1-14.7-1.8-2.6-3.6-6.8-4-9.2-.5-2.5-1.8-5.7-2.9-7.1-1.1-1.4-2-3.7-2-5.2 0-1.4-1.2-4.6-2.6-7.1-2.6-4.4-7.4-16.9-7.4-19.1 0-.6-1.7-3-3.7-5.4-4.4-5-10.8-17.3-12.2-23.4-.5-2.4-2.5-6.8-4.4-9.9-1.9-3.2-4.7-8.2-6.2-11.2s-3.5-6.6-4.5-8c-1-1.4-3-6.3-4.5-11s-4.3-11.3-6.2-14.8c-1.9-3.4-4.3-8.8-5.4-11.9-1-3.1-2.3-6.1-2.8-6.7-.4-.6-1.4-2.9-2-5.1-1.6-5.3-4.7-12.9-7.7-18.6-1.3-2.6-2.4-5.8-2.4-7.1 0-1.6-1.4-3.6-4.4-6-6.7-5.7-7.8-12.8-6.4-41.9.7-15.1-.2-24.7-2.5-26.4-2-1.4-9.5-1.1-11 .4-.8.8-.7 3 .1 7.3.8 4.2 1.1 13.2.8 27.3-.4 18.2-.3 21.4 1.2 24.2 1.5 3 1.5 3.5-.4 8-1.5 3.8-3.7 6.2-10.2 11.3-4.5 3.6-9.6 8-11.3 9.8-1.7 1.8-3.5 3.2-4 3.2-.4 0-4.8 2.6-9.6 5.7s-10.6 6.2-12.8 6.9c-2.2.6-6.9 2.5-10.5 4.2-3.6 1.6-8.8 3.7-11.7 4.6-2.8 1-6.2 2.6-7.5 3.6-1.3 1-4.2 2.1-6.4 2.5-8.3 1.4-23.1 4.5-26.4 5.5-1.9.6-8.9 2-15.5 3.3-10 1.8-15.5 2.2-32.5 2.2-20-.1-20.7-.1-28.5-2.9-4.4-1.6-8.9-3.5-10-4.2-1.1-.7-5.4-1.6-9.5-2-9-.8-15.4-3.2-22.9-8.4-3.1-2.2-8-4.7-10.8-5.5-7.6-2.3-9.3-5.1-10.5-17.8-.5-5.6-1.4-11.6-2-13.2-.6-1.7-1.1-7.1-1-12 0-5-.6-16.2-1.4-25-.8-8.8-1.4-17.8-1.3-20 0-2.2-.4-6.7-1.1-10-.7-3.3-1.3-8.6-1.4-11.7-.4-10.1-6.6-13.8-13.6-7.9-3.4 2.8-3.5 3-2.1 6.2.7 1.9 1.6 5.6 2 8.4.4 2.7 1 5.6 1.5 6.3.5.8 1 4.6 1.1 8.5.2 4 .8 11.5 1.4 16.8.7 5.4 1.6 16.8 2.1 25.5.5 8.8 1.4 18.6 2 21.9.8 4.3.8 8 .1 13.3-1.1 7-1 7.4 1.6 12.1 2.7 4.8 2.7 4.9 1 8.5-.9 2-1.7 4.7-1.7 5.9 0 1.2-2.4 7.1-5.4 13.2-3 6-6.2 13.5-7.1 16.5-1 3-2.6 7.3-3.6 9.6-1.1 2.3-1.9 4.5-1.9 4.9 0 .7-1.3 3.7-6.5 15-2.2 4.7-4.6 11.6-5.5 16.2-.5 2.2-2.3 6.3-3.9 9-1.7 2.7-3.7 6.6-4.6 8.6-.8 2-4 7.5-7.1 12.3-6.6 10.2-9.4 16.4-9.4 20.7 0 1.8-.7 5.2-1.6 7.7-.9 2.5-1.6 6.6-1.5 9.2 0 3-.6 6-1.8 8-1.1 1.8-2.2 4.7-2.6 6.4-.5 2.7-.2 3.5 2.2 5.4 2.3 1.8 3.7 2.1 7.9 1.7 5-.5 5.3-.4 9 3.4 5.1 5.3 10.3 7.6 19.9 8.8 14.2 1.9 23.8 4.2 35.5 8.3 10.9 3.9 12.3 4.1 27.5 4.9 16.5.8 25.7 2.1 31.1 4.4 3.1 1.3 3.2 1.5 4 10.1 1 11.1 1.2 17.5 1.1 28.9-.2 17.8.3 21.8 2.5 24.2 7 7.4 14.3-3.9 10.5-16.1-1.4-4.2-1.6-8.8-1.4-24.5.4-22.2.1-21.7 9.6-20.8 3.1.2 12.8.1 21.5-.4 9.4-.5 16.6-.4 17.6.1 2.3 1.2 3.2 8.4 3.6 28.1.3 16.9 1.5 22.2 5.3 23.4 2.6.8 7.5-2 9.2-5.2 1.1-2 1-3.6-.4-9.1-1.6-6.4-1.7-8.3-1.7-21.7 0-3.3-.3-7.7-.6-9.8-.6-3.6-.4-3.8 3.3-5.3 2.6-1.2 5.5-1.5 9.5-1.1 3.2.3 7.3.1 9.1-.3 1.7-.5 11.7-1.4 22-2 14.3-.8 19.2-.8 20.3 0 1.1 1 1.4 5.8 1.5 23.4.4 36.8.1 41.9-1.9 43.4-1.1.9-2.8 1.1-4.7.6-1.6-.4-23.3-.7-48.2-.6-38.3 0-45.5.3-48 1.6-4.3 2.1-13.6 5.6-15.2 5.6-3.4 0-23.9 11-29.1 15.6-3.6 3.2-18.5 12.7-25 15.9-7.3 3.7-16.7 11.2-22.8 18.3-2.7 3.1-8.4 11.8-12.7 19.2-11.1 19.1-17.1 28.8-21 34-3.6 4.8-16.5 29.3-16.5 31.3s-8 17-10.9 20.3c-1.4 1.7-3.8 5.3-5.3 8s-8.3 11-15.1 18.4c-12.8 14-24 22.9-31.5 25-2 .5-9.2 1-16 1-10.1 0-12.9-.3-16-1.9-2-1-5.7-2.4-8.2-3.1-4.5-1.2-8-3.5-8-5.2 0-.6-2.7-4-6-7.6-10.6-11.7-15.1-23.7-15.4-40.1-.1-11.6-.1-11.6 3.1-16.1 1.8-2.5 6-8.6 9.4-13.7 5.4-8.1 7.4-10.1 15.8-16 5.3-3.7 10.7-7.4 12.1-8.1 1.3-.7 3.8-2.2 5.5-3.2 3-1.8 9.1-3.4 25.8-6.4 12.4-2.3 37.2-11 42.7-14.9 2.5-1.7 6.8-4.4 9.5-5.8 3-1.5 6.3-4.3 8.2-7 1.8-2.4 5.3-6.8 7.9-9.6 2.5-2.9 5.6-7.3 6.9-9.9 4.4-8.7 5.8-32 2.2-36.3-1.5-1.7-8.4-16.8-11.1-24.2-2.1-5.8-9-12.4-17.7-16.9-3.7-1.9-11.4-6.4-17-9.9-11.3-7.1-17.6-9.4-29.9-11.1-17.4-2.4-31.3-1.3-42.5 3.2-2.7 1.1-8.4 3.3-12.5 4.8s-8.9 3.4-10.6 4.3c-8.3 4.3-13.9 12-12.8 17.6 1.2 6 3.4 6.2 15.9 1.7 12.4-4.5 25.9-2.8 37.4 4.8 3.9 2.6 8 5.9 9.1 7.3 3.3 4.2 7.3 18.1 6.7 23.4-.7 6.1-4.5 17.5-6.3 19-.8.7-3.6 4.3-6.1 8.2-5.4 7.9-19.9 21.4-24 22.2-1.6.3-5.3 1.2-8.3 2-3 .8-8 1.9-11 2.6-3 .6-7.3 2-9.6 3-2.2 1-4.5 1.9-5.1 1.9-2.1 0-10.9 4.4-16.4 8.2-16.8 11.4-28.3 30.2-31.9 51.8-.5 3-1.4 7.1-2 9-.5 1.9-1 5.5-1 8 0 7.7 3.1 39.3 4.2 42.5.5 1.6 1.4 4.6 1.8 6.5.4 1.9 1.3 4.8 1.8 6.5.6 1.6 1.6 5.5 2.3 8.5.6 3 2 8 3.1 11 1.7 4.9 3.2 10.1 5.7 19.7.5 1.7 2.5 6.7 4.5 11 2.1 4.3 4.5 9.6 5.5 11.8 1 2.2 4.4 9.3 7.7 15.8 6.5 13.1 8.7 15.3 22.9 22.8 3.9 2 10.1 5.3 13.9 7.3 6.9 3.7 6.9 3.7 18.5 3.5 17.3-.2 21.6-1.3 31.3-7.5 12.7-8.1 15.2-10.2 30.8-25.6 8-7.9 17.4-16.8 20.9-19.8 6-5.2 8.8-8.8 22.1-28.4 5.9-8.7 17.1-20.3 32-33.1 5.2-4.4 11.5-10.7 14.1-14 6-7.7 11.9-16.4 11.9-17.7 0-.5 1.8-3.9 4-7.6 2.2-3.6 4.5-8.5 5.1-10.7.9-3.1 3.5-6.4 11.8-14.6l10.8-10.6 9.9-3.1c13-4 21.1-6 45.4-11.5 8.3-1.8 13-2.1 37-2.3 20.7-.1 28.7.2 32.4 1.2 2.7.8 8.4 1.4 12.5 1.4 4.7 0 9.9.8 13.6 1.9 6.1 2 21.3 9.4 26.3 12.9 1.5 1 5.4 3.1 8.6 4.6 3.3 1.5 7.8 4 10 5.7 17.4 12.7 36.5 25.8 42.6 29.2 1.7.9 3.7 3 4.3 4.6.8 2.2 2.8 3.8 7.4 6.1 5.3 2.7 8.6 5.7 19.6 17.6 13.5 14.8 14.7 16.6 24.7 37.4 4.8 9.9 6.7 12.7 15 21.6 5.2 5.6 10 10.8 10.7 11.6 1.7 1.7 12.2 11.4 20.2 18.3 5.4 4.7 30.5 21.1 39 25.5 1.3.6 6.2 3.7 10.8 6.8 10.6 7.1 13.4 8.6 20.3 11.1 13.8 4.9 37.4 7.2 47.8 4.5 2.9-.8 7.4-1.4 10.1-1.4 4.3 0 16.2-3.2 18.6-5 .6-.5 4.2-1.6 8-2.5 3.9-.9 7.8-1.9 8.7-2.1 1-.3 3.5-2 5.7-3.7 9.7-8 14.4-11.2 20.7-14.6 4.9-2.6 7-4.3 7.4-6.1.6-2.3 3.5-6.5 15.5-22.6 2.5-3.3 4.5-6.8 4.5-7.7 0-.8 1.1-2.8 2.4-4.4 3.4-4.1 4.6-6.8 4.6-10.3 0-2.8 1.4-6.9 5.5-16.5.7-1.7 1.6-4.6 2-6.5.4-1.9 1.9-5.7 3.2-8.4 4.2-8.3 9.2-29 9.3-37.9 0-3.2.4-6.6 1-7.6.5-1 1.1-8.1 1.3-15.7.2-7.7 1.1-20.2 2-27.9.8-7.7 1.5-17.8 1.5-22.5-.1-5.6.4-9.9 1.5-12.7 1.6-4.1 6.5-40.1 6.8-49.8.1-2.8-.1-7.9-.5-11.5-.3-3.6-.8-14.6-1.1-24.5-.3-9.9-1-19.1-1.5-20.5-.4-1.4-1.1-7.5-1.4-13.6-.6-11.6-3-28-4.7-32.4-.5-1.4-1.6-8.1-2.3-15-1.6-14.1-2.6-18.9-4.9-24.2-2.2-5.1-4.1-18.8-3.4-25.1.4-4.1-.1-6.6-2.4-12.4-1.6-3.9-2.9-8-2.9-9s-1.4-4.7-3-8.1c-1.7-3.5-3-7.5-3-8.8 0-1.4-.6-4-1.4-5.9-.8-1.9-2.2-6.2-3.1-9.6-.8-3.5-2.9-8.8-4.5-11.8-1.7-3-3-6.3-3-7.3 0-1.7-1-4.4-6.2-17.3-2.6-6.5-4.7-13.7-5.8-20.5-.7-3.7-1.7-6-3.1-7.1-2.7-2-1.9-3.5 2.5-4.3 5.4-1 13.1-8.5 14.5-14.1 1-3.9.9-5.1-.9-9-1.1-2.4-2-5.8-2-7.6 0-1.9-1.3-5.2-3-7.9-2.1-3.3-3.3-6.8-4-12-.9-6.4-1.6-8-4.4-11-1.8-1.9-4-4.7-4.7-6.2-5.7-11.2-9.3-17.4-11.8-20.6-1.6-2-5.5-8.5-8.6-14.3-4.9-9.4-5.5-11.1-4.9-14.7.5-3.4.3-4.2-1.7-5.6-1.3-.9-3.3-1.6-4.5-1.6-1.1 0-3.6-1.1-5.5-2.5-10.7-7.8-21.3-11.3-40.4-13.4-7.2-.8-10.6-2.9-14.7-9-1.7-2.5-4.8-6.6-6.8-9.1-5.4-6.7-19-27.6-19-29.2 0-.8-2-4.7-4.5-8.8-5.9-9.9-6.7-14-5.7-27 1-12 2.6-16.1 8.6-22.3 8-8.3 21.2-10.7 39.3-7.2 4.3.8 10.3 1.5 13.3 1.5 12-.1 37.3-5.9 47.8-11.1 10.5-5.2 24.5-18.1 29-26.8 1.6-3.1 3.6-7 4.5-8.6.9-1.7 1.8-3.7 2.1-4.6.6-2.1 10.6-5.4 13.8-4.6 1.3.4 5.2 2.4 8.6 4.6 5.2 3.4 6.6 5 9.5 10.8 1.9 3.7 3.8 7.9 4.2 9.3.4 1.4 1.7 3.8 2.7 5.3 2.5 3.5 4.5 10.9 5.3 19.5.3 3.7 1.1 8.4 1.7 10.5 1.1 3.6 1 3.9-2.5 7.1-4 3.7-5.2 6.9-4.4 12.7.3 2.2.1 5.2-.4 6.7l-3.8 11.4c-2.8 8.2-2.9 8.7-1.2 10.2 2.2 2 4.2 2 8.6.2 4.6-2 5.6-4.2 7.1-17 2.1-17.1 2.5-18.6 4-18.6 2.1 0 13.5 13.5 16.8 19.8 1.9 3.7 4.8 4.8 8.5 3.2 2.4-1 6.1-6.4 6.1-8.9 0-.5-1.9-2.1-4.2-3.6-11.6-7.6-21.7-21.3-21.8-29.5 0-1.9-.5-5.3-1.1-7.5-.6-2.2-1.4-6.5-1.9-9.6-.4-3.1-1.9-8-3.4-10.8-1.4-2.9-2.6-5.9-2.6-6.6 0-4.6-4.5-12.5-10.7-19.1-10.3-10.7-14.5-13.4-20.9-13.4-6.4 0-8.4-.7-8.4-2.9 0-1 1.5-6.2 3.4-11.7 1.9-5.4 3.9-13.7 4.5-18.4.6-4.7 1.5-11 2.1-14 1.4-7.4 1.5-24.3.1-26.8-.6-1.1-1.1-3.6-1.1-5.6 0-2-1.4-6.1-3.5-10-1.9-3.7-3.5-7.7-3.5-9.1 0-1.4-1.8-4.5-4.2-7.4-2.4-2.7-7.4-8.7-11.3-13.2-4.8-5.7-8.3-8.8-11.3-10.1-2.4-1.1-5.9-3-7.7-4.3-2.7-1.8-5.9-2.5-15.2-3.5-6.5-.6-15.8-1.8-20.8-2.6-13.5-2.1-27.8-2.4-39.5-.9zm38.5 14.6c2.8.6 9.5 1 15 1.1 16 0 19 1.3 29.8 13.1 8.6 9.2 10.9 12.4 17.1 23.9 4 7.4 5.9 16.8 5.3 27.3-.3 4.9-1 10.1-1.6 11.5-.6 1.4-1.7 8.4-2.5 15.6-1.3 13.1-1.9 14.9-8.2 26.4-4.1 7.6-3.4 7.4-22.1 7.3-10.8 0-17.9-.4-19.8-1.2-1.6-.7-7.2-2.3-12.3-3.7-5.2-1.4-11.6-3.5-14.1-4.8-6.8-3.2-27.8-19.6-33.5-26-2.7-3.1-5.8-5.8-6.8-6.2-1.2-.3-3-2.9-4.4-5.9-2.8-6.5-5.5-8.3-9.2-6.4-1.4.8-3.1 2.9-3.9 4.6-1.2 3.1-1.1 3.7 1.8 8.8 3.1 5.6 10.6 13.1 21.7 21.8 3.4 2.7 6.2 5.3 6.2 5.8s1.4 1.6 3 2.4c1.7.9 5.4 3.4 8.3 5.5 2.9 2.2 6.8 4.7 8.7 5.6 1.9.8 5.5 2.6 8 3.9 2.5 1.2 7.9 2.9 12 3.5 4.1.7 9.3 2.1 11.4 3.1 5.2 2.5 8.1 2.9 21.2 3.3 6.1.2 11.6.6 12.1.9 1.5.9-4 11.9-8.3 16.7-2 2.2-6.1 5.4-9.2 7.1-14.6 8.1-24.2 12.7-29.2 14-6.3 1.5-27.4 1.7-39 .3-10.2-1.2-20.1-.2-29.6 3.2-7.1 2.6-8.6 3.6-15.1 10.4-5.4 5.6-7.3 8.2-7.3 10.3 0 1.6-.5 3.8-1.1 4.9-1.6 2.9-2.1 24.1-.8 30.3.6 2.7 3.2 9.5 5.9 15 2.6 5.5 5.7 12.1 6.8 14.7 1.1 2.6 5.5 9.8 9.8 16 4.3 6.2 9.1 13.2 10.7 15.5 1.5 2.4 3.2 4.3 3.7 4.3.4 0 1.9 2 3.3 4.5 2.6 4.6 5.3 8.1 15.3 19.8 3.3 4 7.3 9.7 8.8 12.7 3.2 6.8 6.3 11.7 9.6 15.6 1.4 1.6 3.6 5.1 5 7.7l2.5 4.8-2.3 1.9c-1.5 1.2-4.7 2-10 2.5-4.2.4-9.2 1.1-11.1 1.6-4.8 1.2-27.9-.8-30.8-2.7-1.4-.9-2.3-2.5-2.3-4 0-1.4-1.1-4.5-2.5-6.8-1.4-2.4-3.2-7-4.1-10.2-2-7.9-5.2-13-11.6-18.7-14.9-13.4-20.2-18.6-23.3-22.7-1.9-2.5-4.5-5.2-6-6-1.4-.8-4.6-4.2-7-7.5-2.4-3.4-5.9-7.5-7.7-9.1-10.9-9.8-25-28.3-26.7-35.1-.7-2.7-1.6-6.2-2.1-7.9-.6-1.7-1-4.4-1-6 0-1.6-.7-3.9-1.5-5.2-.9-1.2-2.9-7.2-4.4-13.4-1.6-6.2-3.6-14-4.6-17.3-4.9-17.2-6.7-33.1-6.6-58.5.1-21.9 1.1-33.4 3.5-41.5.8-2.8 2.2-8.1 3.2-11.9.9-3.8 3-9.5 4.6-12.5 1.6-3.1 4.5-8.5 6.3-12.1 1.9-3.6 3.2-7.4 2.9-8.5-.4-1.9 2-6 11.4-19.3 2.1-2.9 7.3-8.4 11.7-12.3 4.4-3.9 8.9-7.8 10-8.8 1.1-1 3.1-2.2 4.4-2.6 1.4-.4 5.8-3.4 9.9-6.6 4.1-3.3 9.1-6.3 11.1-6.9 5.8-1.5 20.2-1.5 23 0 1.8.9 4.7 1.1 11 .5 4.7-.4 14-.9 20.6-1.1 6.6-.2 14-.8 16.5-1.3 5-1.1 22.7-.5 30.5 1zm-559.1 148.4c.5 3.8.8 12.2.8 18.5-.2 9 .2 12.5 1.7 16.5 2.8 7.4 7.7 15.3 15.4 24.6 6.8 8.3 7.5 9.9 5.8 14.1-.5 1.3-1.2 3.4-1.5 4.8-.4 1.4-2.2 4.3-4.1 6.4-3.1 3.5-4.3 4.1-9.8 4.8-11.2 1.6-13 1.1-21.4-5.6-2.3-1.9-7.2-4.5-11-6-5.6-2.1-8.1-3.9-14-9.9-3.9-3.9-7.5-8.1-8.1-9.3-.6-1.1-2-6.5-3.1-12-2.6-13.1-2-19.9 2.3-26 10-14 11-14.9 22.7-20.9 13.1-6.7 15.2-7.4 19.9-7.2l3.5.2.9 7zm21.9 3.3c6.7 6.8 9.1 12.7 6.1 14.9-2.3 1.7-10.1 1.7-13.4 0-2.3-1.2-2.5-1.8-2.6-9.2 0-4.4.2-8.8.4-9.8.6-3.1 3.7-1.8 9.5 4.1zm1.3 30.7c.9 2.3-1.6 7.6-3.4 7.3-.9-.2-2.2-1.8-2.9-3.6-1.2-3.1-1.2-3.3.9-4.2 3.4-1.3 4.8-1.2 5.4.5zm46.9 2.1c3.2.3 6.5.9 7.1 1.5 1.7 1.4 13.8 3.3 19.4 3.1 4.8-.2 10.4 1.7 23.5 7.8 4.4 2.1 10.9 4.5 14.5 5.4 8.4 2.1 22 7.4 24.2 9.5 1.7 1.5 1.6 1.9-1.2 6.1-1.7 2.5-3 5-3 5.6 0 .6-1 2.4-2.2 4-2.1 2.6-3.5 6.3-5.8 15.4-.4 1.9-1.6 5.5-2.5 7.9-.8 2.4-1.3 5.2-1 6.2.4 1.2.1 2.1-.7 2.4-1.8.7-16.2-5.8-20.2-9.1-3.3-2.7-10.5-7.6-17.3-11.9-2.4-1.5-6.8-3-10.5-3.6-3.9-.6-9.3-2.4-14.2-5-7.6-3.9-8.2-4-19-4.3-14.1-.4-22.6-3.7-22.6-8.7 0-1-1.8-3.9-4-6.4-2.2-2.5-4-4.9-4-5.3 0-.4-1.6-2.4-3.5-4.5-6.3-6.8-6.8-10.4-.8-5.7 4 3.1 5.9 2.5 10.1-3.3 5.3-7.1 6-7.5 12.2-8 5.3-.4 8.8-.3 21.5.9zm-133.3 8c.3 6.2-.4 8.4-3.1 8.4-1.7 0-2.5.7-9.4 8.1-3 3.4-3.7 3.7-7.7 3.2-5.6-.5-11 2.4-11 6 0 2.5 5 8.2 8.1 9.2 3.2 1.1 16.9-5.6 23.1-11.3 3.5-3.2 6.5-2.4 9.8 2.5 4.6 6.9 7.4 9.1 20.3 16.3 2 1.1 3.7 2.7 3.7 3.4 0 .8-2.8 3.5-6.3 5.9-3.5 2.5-7.5 6-8.9 7.9-1.4 1.8-5.9 5.5-9.9 8.3-4.1 2.7-10.1 6.9-13.4 9.2-3.3 2.4-7.6 4.8-9.6 5.3-2.5.7-5.7 3.1-9.6 7-3.4 3.5-7.5 6.7-10 7.6-2.4.9-6.4 2.7-9 4-4.9 2.5-12.9 3.2-16.2 1.5-1-.6-3.5-5.2-5.6-10.3-2.1-5.1-4.9-10.8-6.2-12.7-1.3-1.8-2.3-4.2-2.3-5.3 0-1-.6-3.1-1.4-4.6-.7-1.5-1.6-6.1-1.9-10.2-.3-4.1-.9-9.3-1.3-11.5-1-5.8-.7-17 .6-22.6 1-4.2 1.8-5.3 6.5-8.4 2.9-1.9 7.7-4.7 10.7-6.1 2.9-1.4 6.2-3 7.2-3.6 1.1-.6 4.2-1 7-.9 5.6.1 13-2.9 14.7-6 2-3.8 8.8-6.4 18.4-6.9 5-.3 9.7-.2 10.7.2 1.1.6 1.7 2.4 2 6.4zm245.5 27c7.1 3 15.8 7.5 21 10.8 5.2 3.3 18.6 8.6 21.7 8.6 2 0 11.2 4.8 15.7 8.3 1.9 1.4 6 3.7 9.2 5.1 6.6 2.9 7.8 4.8 5 7.9-1.1 1.2-3.8 5.3-5.9 9.2-2.1 3.8-5.8 8.9-8.1 11.2-2.3 2.4-4.8 5.4-5.6 6.9-2 3.9-14 17.4-15.4 17.4-.7 0-1.3.4-1.3.8 0 .5-2.1 2.4-4.7 4.2-2.7 1.8-6.3 4.7-8.1 6.4-3.2 3-7.5 5.4-25 14.2l-9.3 4.7-6.7-1.8c-10.7-2.7-14.4-3.4-19.3-3.5-8.3 0-19.8-3.7-29.9-9.5-5.3-3-10.4-5.5-11.3-5.5-.9 0-2.2-.8-2.9-1.9-.7-1-3.5-3-6.3-4.5-2.7-1.5-8.8-5.1-13.5-8-4.7-3-10.1-5.9-12.1-6.5-6.5-2-12.3-5.9-17.6-11.9-2.8-3.3-7.7-7.6-10.8-9.6-5.8-3.9-23.5-20.2-23.5-21.7 0-.5 1.9-2.1 4.3-3.5 2.3-1.5 6-4.5 8.2-6.6 7-6.9 8-7.1 19.4-4.8 5.5 1.1 12.8 2 16.3 2 5.3 0 7 .5 10.7 3 2.4 1.6 7.6 3.9 11.5 5.1 3.9 1.2 9.6 3 12.7 3.9 3.2 1 10.9 5.3 17.8 9.9 13 8.6 27.3 16.1 30.8 16.1 4.1 0 6.1-5.7 3.3-9.2-1.8-2.2-1.7-2.3 1.6-6 3-3.4 3.4-4.4 3.4-9.4 0-4.8.8-7.3 6.1-18 7.8-15.9 10-17.5 18.6-13.8zm367.2 105.9c4.2 2.1 11.7 11 12.5 14.6 1.6 8.4-.4 19.1-3.7 19.7-2.2.4-6.3-3.1-8.4-7.3-.8-1.7-2.5-4-3.6-5.3-4.2-4.6-14.1-22.8-13.3-24.7.5-1.5 11.8.5 16.5 3zm-94.6 10.5c7.4 5.2 8.4 6.5 12 14.8 7.3 16.9 5.7 21.8-5.8 17.8-8.5-3-19.2-5.6-22.8-5.6-2.8 0-4.6-.8-7.4-3.4l-3.7-3.3 1.7-5.8c1.7-6.1 2.7-7.2 9.6-10.6 2.4-1.2 5.3-3.3 6.4-4.6 2.7-3.1 5-2.9 10 .7zm128.7 37.8c.5 1.9 3 6.6 5.7 10.5 4.8 7.1 6.2 10 8.9 19.2.8 2.7 1.9 5.8 2.4 6.7 2.6 4.6 5 12.8 5 16.9 0 5.7-1.5 7.1-9.5 9.5-5.2 1.5-10.9 1.7-41.5 1.9-33.9.1-35.9 0-43.5-2.1-4.4-1.3-12-2.6-17-2.9-5.6-.4-10.4-1.4-12.7-2.5-2-1-5.6-2.4-8-3-2.3-.6-9.3-3.6-15.4-6.5-9.1-4.4-12.6-6.8-19.3-13.1-7.5-7-8.3-8.1-7.8-10.8.2-1.7.1-7.1-.2-11.9-.4-6.4-.3-9.1.6-9.9 1.2-1 6.6 0 20.3 3.7 3 .8 8.4 1.5 12.1 1.5 3.9 0 9.4.9 13.4 2.1 4.7 1.4 8.8 2 13.8 1.8 4-.2 9.3.3 12 .9 12.2 3.1 13.5 3.2 17.8 1.7 2.3-.8 6.7-1.5 9.8-1.5 3.1 0 6.8-.6 8.3-1.4 1.5-.8 5.2-2.2 8.3-3.1 9.2-2.6 18.3-8.2 22.2-13.6 1.8-2.6 3.9-5 4.6-5.2 1.7-.7 8.5 7.2 9.7 11.1zm-311 17.9c1.6 2.7 3 5.4 3 6 0 .7 2.9 8.6 6.5 17.5 3.6 8.8 6.5 17.2 6.5 18.4 0 1.3 1.4 3.8 3 5.6 1.7 1.8 3 3.8 3 4.5 0 .7.4 2.1.9 3.1.5.9 1.9 4.2 3.1 7.2 1.2 3 2.8 6.6 3.5 8 .8 1.4 2.6 4.6 4 7.2 1.4 2.6 2.5 5.7 2.5 6.9 0 1.1.8 3.3 1.8 4.7 1.1 1.5 3.3 5.8 5.1 9.7 1.8 3.8 4 8.3 4.8 10 6.5 12.2 10.2 20.4 10.3 22.4 0 1.3 1.6 5.3 3.5 8.8 1.9 3.5 3.5 6.8 3.5 7.4 0 .6 1.1 2.5 2.4 4.2 1.3 1.8 3.4 6.6 4.6 10.7 1.2 4.1 2.6 7.9 3.1 8.4 1.4 1.5 1.1 4.4-.8 7.2-1.7 2.7-6.4 5.4-12.8 7.4-2.2.7-10.7 3.8-19 7-8.2 3.1-18.6 6.6-23 7.8-4.4 1.2-13.9 3.8-21.1 5.7-7.2 2-15.7 4-19 4.6-3.2.5-9 1.6-12.9 2.4-19.1 4.3-44.9 6-105 7.2-55.5 1-54.8 1.1-81-3.3-5.5-.9-12.9-1.8-16.5-1.9-9.7-.4-15.9-1.4-21.5-3.6-8.7-3.3-27.4-8.6-40.9-11.5-5.4-1.2-9.4-2.8-13-5.2-2.8-1.9-6.2-3.8-7.6-4.2-2.2-.6-2.5-1.2-2.4-4.6.5-13.2 2.7-22.6 7.3-30 6.7-11 14.1-24.1 15.6-27.9 1-2.2 2.6-5.9 3.6-8.3 1.1-2.3 1.9-5.1 1.9-6.1s1.1-4.4 2.5-7.5c1.4-3.1 2.5-6.2 2.5-6.8 0-1.6 4.7-13.6 7-17.9 1.1-2 2-4.5 2-5.5 0-1.7 3.4-9.5 5.9-13.4 2.6-4.1 8.1-17.5 8.1-19.7 0-3.2 1.5-6 4-7.3 1.6-.8 3.2-.5 7.4 1.5 3 1.4 6.4 3.4 7.7 4.4 5.6 4.3 14 7.3 21.8 7.8 8.9.5 12.8 1.4 23.1 5.5 6.7 2.8 8.6 3.1 18 3.1 36.9-.1 53.3-1.7 70.5-6.7 28.2-8.3 39.9-12.6 46-17 1.6-1.1 5.3-3.1 8-4.2 13.9-6 20.7-9.3 26.1-12.9 7.4-4.9 22.8-16.6 23.2-17.7.7-1.7 3.4-3.8 4.8-3.8.8 0 2.7 2.1 4.4 4.7zm317.2 60.1c.4.4 2.3 5.6 4.2 11.4 1.9 5.8 4.6 12.9 6 15.7 1.4 2.7 2.6 5.6 2.6 6.2 0 1.3 3.7 10.3 8 19.4 1.5 3.3 3.3 8.5 4 11.5 2 9.2 4 14.7 6 16.5 1.2 1 2 3.1 2 4.8 0 1.6 1.3 7.1 2.9 12.1 1.6 5 3.2 12.5 3.6 16.6.9 10 3.2 23.5 4.9 28.5.8 2.2 1.7 8.7 2 14.5.5 9 2.5 20.9 4.4 26 2.1 5.7 3.5 15.9 4.2 31.2.4 9.8 1.2 19 1.8 20.5 3.1 8.2 3.8 47.4 1.3 68.3-1.8 15.2-3.2 24.3-4.2 27-.5 1.4-1.1 5.9-1.3 10-.3 4.1-1.4 17.6-2.5 30-1.1 12.4-2.2 28.1-2.5 35-.8 15.3-2 25.9-3.9 32.5-2.6 9-12.7 36.7-14.2 38.8-.8 1.2-1.5 3.4-1.5 5 0 3.4-3.5 10.3-8.9 17.7-2.2 3-5.4 8-7 11-4.8 9.2-26.7 28.5-36.1 32-3 1.2-6.8 2.7-8.5 3.4-1.6.8-5.5 1.9-8.5 2.6-3 .7-10.5 2.8-16.6 4.6-10 3-12.5 3.4-22.9 3.4-16.7 0-25.2-2-39.4-9.1-6.4-3.2-14.5-7.8-18.1-10.3-3.6-2.4-12.8-8.5-20.5-13.4-17.2-11.1-24.3-16.8-31-25.2-2.9-3.6-8.3-9.9-12.1-14-3.8-4.1-7.8-8.9-8.9-10.5-1-1.7-3.5-5-5.6-7.5-2.1-2.5-5.4-7.9-7.3-12-1.9-4.2-4.4-8.4-5.6-9.5-1.2-1.1-2.9-3.3-3.7-4.8-2.7-5.3-12.1-16.6-22.5-27.2-8-8.2-12.2-11.6-18.6-15.1-4.5-2.5-11.5-7.4-15.5-11-4-3.5-11-8.8-15.7-11.6-4.7-2.8-12.8-8.2-18.1-11.9-5.3-3.8-11.4-7.6-13.5-8.5-2.1-.8-8.4-3.7-13.9-6.4-13-6.4-25.5-10-35-10-4.3 0-9-.7-11.6-1.6-3.7-1.4-9.4-1.7-35.9-1.8-29.7-.1-32.1 0-42 2.3-5.8 1.2-12.1 3.1-14 4-5.1 2.5-22 6.9-31.3 8.1-7.9 1.1-14.5 5.3-27.1 17.5-10.1 9.7-13.6 14.7-13.6 19.5 0 1.1-1.8 4-4 6.4-2.2 2.4-4 4.6-4 5 0 .4-1.7 3.3-3.9 6.4-2.1 3.1-5.3 8-7 10.8-3.2 5.2-10.7 12.8-19.6 19.7-2.7 2.1-8.3 7-12.5 11-6.4 6.1-8.6 9.1-13.4 18.2-6.7 12.9-7.2 13.6-15.1 19.9-3.3 2.7-8.5 7.1-11.5 10-3 2.8-8.9 7.9-13.1 11.3-4.2 3.4-8.9 7.7-10.4 9.5-6.7 8.3-18.4 19.2-22.3 21-2.3 1-8.2 2.4-13.1 2.9-7.9 1-9.8.9-16.9-1-9.8-2.5-22.2-9.1-27.6-14.6-7.2-7.3-13.6-15.6-13.6-17.6 0-1.1-.8-3.6-1.8-5.7-1-2-3.1-7.8-4.6-12.7-1.5-5-3.4-10.3-4.2-11.8-.8-1.6-1.4-3.9-1.4-5.1 0-1.2-1.4-4.3-3-6.9-1.7-2.6-3-5.6-3-6.6 0-1.1-1.4-7.2-3.1-13.7-1.7-6.6-3.5-15.1-3.9-18.9-.4-3.9-1.5-12.6-2.5-19.5-2-14.7-1.5-22.4 2.2-35.5 4.3-15 8-20.8 21.3-33.1 8.9-8.2 17.7-12.6 30-14.9 12.7-2.3 15.7-3.3 24.6-7.5 8.7-4.2 15.9-10.9 22.2-20.6 4.8-7.4 9.4-14.1 12-17.4 2.5-3.1 7.7-17.7 8.8-24.7.7-4.7-3.7-20-7.8-26.8-4.1-7.1-14.1-16-21.7-19.6-3.9-1.8-7.1-3.8-7.1-4.4 0-.5 1.4-1.6 3.1-2.4 2.6-1.1 4.7-1.2 11.3-.3 4.4.7 11.8 1.6 16.3 2.1 9.9 1.1 17 4.1 31 13.4 16.5 11.1 21 15.9 25.3 27.4 1.1 3 3 6.7 4.1 8.3 4.6 6.2 3.1 24.4-2.6 31.2-1.4 1.7-3.5 4.8-4.6 6.9-1.8 3.7-17 16.9-19.4 16.9-.6 0-3.5 1.3-6.5 2.8-5.1 2.7-13 5.4-27.3 9.6-3.2 1-8.8 1.9-12.5 2.1-6.6.3-17.4 3.6-25.7 7.8-10.5 5.3-26.8 19.4-31.4 27.4-1.9 3.2-5.9 9.1-8.8 13-8.2 11.1-8.7 12.6-8.7 28.8v14l3.6 6.5c2 3.6 4.1 8.2 4.7 10.2.7 2 2.2 4.3 3.4 5.1 2.3 1.5 5 5.2 10.3 14 1.6 2.7 4 6.2 5.3 7.8 7.7 9.7 32 15.8 48.6 12.2 3.9-.8 8.9-1.9 11.3-2.4 4.1-.8 10.8-4.1 16.7-8.2 6-4.2 18.4-16.1 20.4-19.6 1.1-2 4-5.5 6.5-7.8 2.4-2.3 5.7-6.3 7.2-9 1.5-2.6 3.9-6.2 5.4-7.8 5-5.5 11-15.4 17.1-27.9 3.3-6.8 7.5-14.1 9.3-16.3 1.8-2.1 4.7-6.5 6.6-9.7 1.8-3.3 5.3-8.3 7.7-11.3 4.1-5 6.4-9.8 8.2-16.9 1.3-4.8 3.5-8.8 9.8-17.6 7.8-10.8 14.3-16.5 24.6-21.6 4.7-2.3 11.6-6.5 15.3-9.4 6.1-4.6 21.4-13.3 35.9-20.2 4.5-2.2 14.3-5.4 23.2-7.6 1.7-.4 12.7-.3 24.5.2 11.7.5 34.4 1 50.3 1.1l29 .2 18 9.2c9.9 5.1 20.5 10.1 23.5 11.2 10.1 3.4 24.2 10.3 32 15.5 13.8 9.1 26 18.7 27.5 21.6 1.9 3.7 7.4 9 15.3 14.7 3.7 2.6 6.5 5.5 6.8 6.9.4 1.3 2.1 3.7 3.9 5.2 1.8 1.5 4.3 4.7 5.5 7.2 2.6 5.2 6 9.5 14.8 18.9 3.5 3.6 7.8 9.3 9.6 12.6 7.1 13 9.1 16.2 12.5 20.2 6.1 7.1 7.6 9.5 12.1 18.7 2.4 4.8 6.2 11.4 8.5 14.5 2.3 3.1 5.3 7.6 6.5 10.1 1.3 2.5 4.2 7 6.5 10s5 6.9 5.9 8.7c5.8 11.4 18.4 25 26.4 28.5 6.2 2.8 21.4 4.3 28.3 2.9 7.1-1.5 24.3-12.1 32.2-19.9 10.2-9.9 22.5-30.9 25.7-43.5 1.1-4.5 3.4-12.5 5-17.7 3.1-10.3 6-25.3 6-31.3 0-2 .9-5.4 2-7.4 1.1-2.1 2-4.9 2-6.3 0-1.4.5-4.1 1-6 1.7-5.8 4-23 4-31 .1-4.1.8-10.9 1.7-15 .8-4.1 1.9-11.8 2.3-17 .4-5.2 1.3-14.5 1.9-20.5 1.3-12.3 2.3-41.8 2.1-66-.1-8.8.3-18 .9-20.5 1-4.6.8-7-2.4-24.5-.8-4.4-2.1-11.9-2.9-16.7-.8-4.8-1.8-9.3-2.3-10-.4-.7-1.1-4.2-1.4-7.8-.4-3.6-1.7-10.8-2.8-16-1.2-5.2-2.6-11.8-3-14.5-.5-2.8-1.5-6.8-2.1-9-.6-2.2-1.7-6.5-2.5-9.5-1.5-6-4.9-16.6-7.1-21.7-.7-1.8-1.6-5.6-2-8.5-.4-2.9-1.8-8.2-3.1-11.8-1.4-3.6-3-9.1-3.7-12.3-.9-3.8-2.3-6.8-4.3-9-3.4-3.6-8.7-15.2-7.8-16.7.8-1.3 59.5-.4 60.7.8z"/><path d="M803 354.237c-3.2 1.7-3.5 2.2-3.8 7-.3 4.5.1 5.5 2.8 8.6 1.7 2 5.1 4.3 7.5 5.3 4.2 1.5 4.6 1.5 7 0 1.4-.9 2.5-2.6 2.5-3.7s.5-2.9 1-4c1.4-2.6-1-9.8-4.2-12.2-3.6-2.7-8.7-3.1-12.8-1zm-346.6 27c-1.2.2-3 1.3-4 2.4-2.4 2.6-1 5 4 6.6 2 .7 6 2.4 9 3.8 2.9 1.4 5.8 2.5 6.5 2.5.6 0 5.3 2 10.4 4.4 5.1 2.5 11.7 5.3 14.7 6.4 25.8 9.2 26.2 9.4 33.1 16.2 6 6 6.7 7.1 8.7 14.5 1.3 4.4 2.8 9.6 3.4 11.7.6 2.2.8 6.1.3 10-1.1 10.3-1 14.4.4 16.2 2 2.4 7.5 2 10.7-.7 2.4-2.1 2.8-3.2 3.2-10.8.3-4.6.5-9.5.4-10.9-.4-8.3-1.1-13-2.5-16.5-.8-2.2-2.6-6.9-3.8-10.3-2-5.4-3.6-7.5-10.5-14.2-8.8-8.3-13.4-10.6-23.4-12-6-.8-15.3-4.2-26.4-9.4-13.8-6.6-29.2-11-34.2-9.9zm-59.9 745.5c-2.6 2.3-2.6 2.5-2.7 16.8-.1 14.5.8 40.6 1.7 49 .2 2.5.7 11.4 1.1 19.7.7 16.9.4 17.8-5.2 14.8-3.4-1.7-8.3-1.9-11.7-.4-3.5 1.6-12.7-1.4-16.7-5.4-4.8-4.8-5.7-7.3-6.4-17.7-.3-5.2-1.3-12-2.1-15s-1.9-13.8-2.5-24c-1.7-30.9-4.6-37.2-14.7-31.1-4 2.5-5.1 6.9-3 12 2.9 7 3.8 11.7 4.1 20.6.4 9.8 1.2 16.8 2.7 23 1.8 7.4 3.5 26 2.9 33.2-.5 7.2-.6 7.3-5.4 11.6-4.8 4.2-5.8 5.8-14.5 23.4-5.8 11.9-9.2 25.6-10.8 43.8-.5 6.8-.4 7.4 1.8 9.1 1.3 1.1 4.1 3.8 6.4 6.1 2.7 2.8 5.2 4.4 7.7 4.8 3.4.7 4 .4 8.6-4.4 2.9-2.9 5.8-5.1 7-5.1 7.2 0 29.3-13 32.1-18.7.6-1.3 2.8-4.2 4.9-6.5 2.1-2.4 6.4-8 9.7-12.6 3.4-4.8 6.5-8.2 7.5-8.2 1.9 0 6.4 5.3 8 9.4 2.3 6.2 26.1 19.5 50.1 28 7 2.4 14.1 5.2 15.9 6.1 6.9 3.6 12.6 4.5 30.1 5 16.7.5 17.8.4 20.3-1.6 4.7-3.7 3.5-6.9-6.1-17.4-3.6-3.8-7.1-8.2-7.9-9.8-.9-1.6-3.4-5.4-5.8-8.5-3.9-5.2-6.2-9.6-15.5-29.4-2.4-5-4.8-8.1-9.5-12.3l-6.3-5.6-.6-8.2c-.4-4.5-1.3-14.7-2.1-22.7-1.5-15.7-1.2-46.2.5-50.6.5-1.5.6-4.9.3-7.6-1.1-8.4-6.3-11-13.3-6.7-3.2 2-3.3 2.1-2.7 7.2 1 7.9 2.1 51.3 1.8 67.7l-.2 14.5-3 2.7c-1.6 1.5-5.4 3.4-8.4 4.3-6.6 1.9-28 2.7-30.1 1.1-2-1.5-5.5-32.2-6-52.1-.3-8.8-.7-22.7-.9-30.9-.3-8.2 0-16 .5-17.4 2.1-5.6-6.3-8.5-11.6-4zm-27 110.9c4.1 1.5 8.2 2.3 13 2.3 3.9.1 7.5.4 8.1.8 2.2 1.5-1.1 11.5-5.3 16.2-2.1 2.4-5.3 6.8-7.1 9.8-4.8 8-21.6 25-28 28.2-7.8 3.9-18.8 7.7-20.5 7-.8-.3-1.7-1.3-2-2.3-.9-3.4 3.1-23.5 5.7-28.6 1.4-2.8 4.3-8.9 6.4-13.6 3-6.4 5.6-10.3 10.8-15.8 7.7-8.2 7.9-8.3 18.9-4zm50.1 5.4c6.5 3.5 17.8 3.3 35.9-.6 11.6-2.4 10.9-2.5 16 2.7 4.5 4.7 8.2 11.3 12.2 21.7 1 2.7 3.3 6.6 5 8.7 1.8 2.1 4.2 5.9 5.3 8.5 1.1 2.6 3.6 6.5 5.5 8.8 1.9 2.2 3.5 4.4 3.5 4.9 0 4.1-18.4 2.7-30.9-2.3-4.2-1.7-12.3-4.9-18.1-7.1-11.6-4.5-30-14.3-34.2-18.2-5.8-5.5-12.8-18.4-12.8-23.8 0-1.8 4.5-5.8 6.6-5.8.7 0 3.4 1.1 6 2.5z"/></g></svg>