<svg version="1.0" xmlns="http://www.w3.org/2000/svg" width="807.373" height="669.156" viewBox="0 0 605.53 501.867"><g fill="#1755d1"><path d="M370.965.508c-8.5 1.2-16.2 3.5-22.1 6.4-2.9 1.5-7.6 3.3-10.4 4.1-2.7.7-8.8 2.9-13.5 4.8-8.1 3.2-11.5 4.8-27.5 12.1-3.8 1.8-15.1 5.9-25 9-9.9 3.2-18.8 6.2-19.7 6.7-1 .5-2.6.9-3.6.9s-2.2.4-2.7.8c-.6.4-3.5 1.6-6.5 2.6-3 1.1-5.9 2.3-6.5 2.7-.5.5-1.7.9-2.7.9-1 0-2.6.4-3.6.9-6.1 3.2-19.1 8.1-21.7 8.1-.8 0-6.2 1.8-12.1 4-5.8 2.2-15.1 5.4-20.7 7-5.6 1.5-14.7 4.5-20.2 6.5s-13.4 4.6-17.5 5.7c-4.1 1.1-11.1 3.7-15.5 5.8-4.4 2.1-12.9 5.5-19 7.5-6 2.1-17.5 6.9-25.5 10.7-18.5 8.9-46.7 18.7-53.7 18.8-4.3 0-14.9 7.6-17.6 12.5-1.8 3.4-3.6 13.7-3.7 21 0 5.8.5 8.1 3.1 13.5 1.7 3.6 4.6 10.8 6.4 16 5.5 15.5 8 22.2 10.3 27.4 1.2 2.7 2.2 5.3 2.2 5.8 0 1.5 4.1 13.2 5.1 14.4.4.6 1.7 4.6 2.8 9 2.4 9.9 5.1 18.6 6 19.9.5.5 1.6 3.5 2.5 6.5 1 3 3.6 9.6 5.7 14.6s3.9 9.8 3.9 10.5c0 .8 1.2 3.7 2.7 6.4 3.1 5.9 9.3 23.1 9.3 26 0 2.5 9.8 31.7 11.1 33 .5.5.9 1.6.9 2.5 0 .8 2.5 7.6 5.6 15 3.1 7.4 6.1 15.5 6.8 18 .6 2.5 2.1 6.3 3.3 8.5 1.2 2.2 4 7.6 6.3 12s4.8 9.2 5.6 10.6c2.9 5.4 11.3 9.5 22.6 10.9 12.2 1.5 19.8.4 31.4-4.6 5.6-2.4 10.6-4.4 11.2-4.4.5 0 1.5-.7 2.2-1.5.7-.8 1.8-1.5 2.6-1.5 1 0 1.2 2.7.8 13.7-.3 7.6-.7 14.1-1 14.4-.2.4-.1 4.9.3 9.9.6 8.3.9 9.7 3.7 13.4 6.3 8.2 19 15.1 32.1 17.5 10.9 1.9 29 2.3 120 2.7 49.5.2 103.7.6 120.5.9 50.1.9 100.5 1.1 116.8.5l15.3-.7 7.7-3.9c6.7-3.4 8-4.5 9.9-8.4 1.3-2.8 2.5-7.9 3.1-13.5.5-5 1.6-10.6 2.5-12.5 1.8-4 2.4-14.5 3.3-58 .3-16.2.7-29.7.9-30 .2-.3-.1-9.3-.6-20-3.7-75-4.5-113.8-2.8-126 .7-5.2 1.3-14.7 1.3-21-.1-9.9-.4-12.1-2.3-15.7-6.7-12.5-16.5-18.7-32.6-20.3-24-2.4-47.3-3.9-65-4.1-24.1-.3-39.6-1.5-41.1-3.1-.6-.7-1.8-3.3-2.7-5.8-2-5.7-6.3-16.6-8.2-20.5-1.2-2.7-5.3-14.6-9.9-29-2.3-7.5-8.1-24.1-11-31.5-1.3-3.6-3-8.1-3.7-10-.7-1.9-2.3-6.4-3.7-10-1.3-3.6-3-8.1-3.7-10-.7-1.9-2.2-5.8-3.4-8.7-1.2-2.8-2.1-5.7-2.1-6.3 0-.6-1.6-4.6-3.6-8.8-2-4.2-4-8.7-4.5-9.9-.9-2.4-9-8-16.1-11.2-5.7-2.6-11.4-3.2-18.8-2.1zm17.3 11.5c3.2 1.5 6.3 3.7 6.9 4.9.6 1.1 2.1 3.2 3.3 4.6 2.5 2.7 7.5 14.2 7.5 17.2 0 1-.5 1.8-1 1.8-.6 0-3.9 1.3-7.3 2.9-3.4 1.6-9.6 4.1-13.7 5.6-10.3 3.8-12.5 4.7-20 8.2-3.6 1.6-9.6 4-13.5 5.3-3.8 1.2-14.9 5.3-24.7 9.1-9.7 3.8-18.2 6.9-19 6.9-.7 0-2.2.6-3.3 1.3-1.1.7-4 1.9-6.5 2.6-6 1.7-14.1 4.6-34 12.1-15.6 5.8-35.2 13.1-54.1 20.1-11.5 4.2-35.1 12.3-48.4 16.5-6 2-14.4 4.8-18.5 6.3-4.1 1.6-10 3.6-13 4.6-3 1-8.3 3-11.7 4.6-6.7 3-13.1 5.3-33.8 11.9-7.1 2.3-14.8 5-17 5.9-7.5 3.3-17 6.9-21.5 8.1-2.5.7-9.9 3-16.4 5.2-6.6 2.1-12.3 3.5-12.7 3.1-.4-.4-2.1-4.1-3.8-8.2-3.4-8-4.1-16.1-2-23.6 1.4-4.9 7.9-11.5 11.4-11.5 1.4 0 4.4-.9 6.7-1.9 2.4-1.1 7.9-3.1 12.3-4.4 13.7-4.3 24.1-8.3 35.8-14 11.7-5.8 25.4-11.6 32.2-13.7 2.2-.7 6-2.3 8.5-3.5 8.2-4.1 19.4-8.2 24.2-8.8 2.6-.4 5.6-1.1 6.5-1.6 1-.5 4.1-1.7 6.8-2.6 2.8-.9 6.8-2.5 9-3.5 2.3-1 6.1-2.3 8.5-3 7.3-1.9 19.2-5.7 23.5-7.6 2.2-.9 8.3-2.9 13.5-4.4 5.3-1.5 12.7-4.1 16.5-5.8 3.9-1.6 8.1-3.3 9.5-3.7 1.4-.4 5-1.9 8-3.2 8.1-3.7 9.1-4.1 14-5.3 2.5-.7 7.7-2.2 11.5-3.5 3.9-1.3 9.7-3.1 13-4.1 3.3-.9 6.5-2 7-2.4.6-.4 4.2-1.7 8-2.9 3.9-1.3 11.5-4.5 17-7.2s13.4-5.8 17.5-7c4.1-1.1 8.5-2.7 9.7-3.5 1.2-.8 2.9-1.4 3.6-1.4.8 0 4-1.2 7.2-2.6 7.1-3.3 23.9-7.5 28-7 1.7.2 5.6 1.6 8.8 3.1zm22.4 37.7c1 1.7 2.9 6.6 5.8 15.3 2.6 8.1 5 13.9 6.9 17.5.8 1.4 2.2 5.2 3.1 8.5 1 3.3 2.6 8.2 3.8 10.8 1.7 4.2 1.8 5 .6 6.3-1.4 1.3-14 5.8-30.7 10.9-4.6 1.4-10 3.2-12 4.1-4.9 2.1-20.8 7.1-25.2 7.9-1.9.4-4.4 1.3-5.5 2-1.1.7-3.5 1.6-5.4 2-1.8.4-4.8 1.6-6.6 2.6-1.8 1.1-6.6 2.9-10.6 4-4.1 1.1-11.5 3.5-16.5 5.4-5 2-11.7 4.2-15 5-3.2.9-7.4 2.2-9.1 3.1-1.8.8-5.2 2.1-7.5 3-2.4.8-5.4 2.6-6.8 3.9l-2.6 2.5-22.9-.2c-31.6-.2-53.1 2.7-62.2 8.5-4.1 2.6-14.3 16.4-14.3 19.3 0 .8-.5 2.4-1.2 3.7-.6 1.2-1.4 2.8-1.7 3.5-.9 1.9-18.6 9.7-32.6 14.3-6.6 2.2-13.3 4.6-15 5.3-1.6.8-9.1 3.4-16.5 5.9-14.7 5-24.9 8.8-35 13.2-9.6 4.1-25.8 9.2-31.5 9.9l-5 .7-5.2-15.8c-2.8-8.7-6.1-18.1-7.2-20.8-6.3-16.1-7.1-18.8-5.8-20.3 1.5-1.9 14.1-7.7 18.7-8.7 4.7-1 20.6-6.2 22.8-7.5 2.9-1.7 28.2-10.7 39.2-13.9 4.1-1.2 11.6-4 16.5-6.1 5-2.2 12.4-5 16.5-6.4 4.1-1.3 9.6-3.3 12.3-4.5 2.6-1.1 9.2-3.1 14.6-4.5 5.4-1.3 11.3-3.2 13-4.1 1.8-.9 9.9-3.8 17.9-6.5 16.7-5.6 18.7-6.3 33.2-12 5.8-2.3 12.8-4.8 15.5-5.6 2.8-.9 8.8-3.1 13.5-4.9 4.7-1.8 10.5-3.8 13-4.4 2.5-.7 5.4-1.6 6.5-2.1 12.9-5.7 18.8-8 23.3-8.9 2.9-.6 7.4-2.1 10-3.4 2.6-1.3 8.1-3.4 12.2-4.7 4.1-1.3 11.1-4 15.5-6 4.4-2.1 12.5-5.2 18-7 5.5-1.8 12.8-4.5 16.3-6.1 3.5-1.6 10.2-4.5 15-6.4 4.8-2 9.8-4.2 11.2-4.8 3.7-1.7 11.3-4.4 12.7-4.6.6 0 1.5.5 2 1.1zm28 76.9c4.1 11.9 6.9 18.8 10.4 26.4 1.5 3.3 3 7.5 3.4 9.2l.7 3.3h-4.4c-10.9.1-115.3.2-132 .1-10.4-.1-18.8-.5-18.8-.9 0-.5 1.7-1.4 3.8-2 2-.6 6.3-1.8 9.5-2.7 3.2-1 9.5-3.3 14-5.2 4.5-1.8 10.7-4 13.7-4.8 3-.7 10.4-3.4 16.5-5.9 6-2.5 12.5-4.9 14.5-5.2 1.9-.4 4.8-1.3 6.3-2.1 3.1-1.6 16.3-6.2 28.2-9.8 4.4-1.4 10.7-3.6 14-4.9 9.1-3.6 14.9-5.5 15.9-5.2.6.1 2.5 4.5 4.3 9.7zm-59.7 47.5c58.1.2 78 .6 79.7 1.5 1.7.9 2.9.9 4.6.2 2.7-1.2 63.4 0 81.7 1.6 15.9 1.4 29 3.7 34 5.9 5.8 2.5 12.6 9.8 14 15.2.6 2.4 1.6 5.1 2.2 6 .9 1.3.8 5.3-.3 15.1-1.7 16.3-1.6 47.1.2 93.4 2.7 71.3 1.2 135-3.6 150.5-.8 2.5-1.7 8.2-2.1 12.7-.8 9.8-2.5 12-11.9 15.1-5.6 1.9-8.9 2.1-45.5 2.2-37.1.1-78.9-.3-143-1.5-31.4-.6-104.8-1-131.4-.7-18.6.3-44.3-1.2-53.1-2.9-7.6-1.5-19.1-7.6-22.6-12-2.9-3.7-3-4.2-3-14.6-.2-34.9 1-205.3 1.4-206 .3-.5.6-10.3.8-21.8.1-11.6.6-23.3 1-26.1 1.4-9.1 9.6-23.9 15.3-27.3 11.3-6.7 24.5-8.2 69.1-7.4 19.3.3 69.9.7 112.5.9zm-205.6 38.2c.3.5 0 17-.5 36.8-.6 19.7-1.1 65.1-1.1 100.8l-.2 64.8-3.5 2.3c-2 1.2-4.3 3-5 3.9-.8.9-6.1 4-11.9 6.7l-10.5 5.1-11.1.2c-10.1.1-11.5-.1-15.6-2.4-5.1-2.9-9.9-9.2-14.4-18.9-.6-1.4-2.3-4.9-3.8-7.9-1.6-3-2.8-6.1-2.8-7.1 0-.9-1.2-3.9-2.5-6.6-1.4-2.8-2.5-5.3-2.5-5.7 0-.4-1.1-3.1-2.4-6-1.3-2.9-3.4-8.4-4.5-12.2-1.2-3.8-2.5-7.4-3-8-1.2-1.5-5.9-14.9-7.7-21.6-2-7.7-5.5-19-6.7-22-1.8-4.5-4.8-12.4-7.2-19-1.2-3.6-3.7-9.7-5.5-13.5-3-6.5-7-18.9-7-21.7 0-1.2 8.5-5.8 10.6-5.8 2.5 0 22-6.7 28.9-10 4.4-2.1 9.6-4.1 11.5-4.5 1.9-.4 4.9-1.6 6.6-2.6 1.7-1 7.1-2.9 12-4.3 4.9-1.3 10.9-3.4 13.3-4.6 2.5-1.2 10.1-4.2 17-6.6 7-2.3 15.8-5.6 19.6-7.3 7.6-3.2 9.1-3.5 9.9-2.3z"/><path d="M267.965 289.808c-.3.3-8.1.7-17.5 1.1l-16.9.6-2.9 2.8c-3.9 3.9-4.8 11.4-3.6 29.7 1.7 24.9 2.5 29.7 5.5 32.1 4.2 3.4 7.1 3.8 39.4 5.3 30.5 1.5 27.7 1.7 32-2.8 4.8-5 5.2-8.2 4-34.6-1.1-22.7-1.8-25.8-7.1-29.8-3-2.2-4.7-2.6-14.4-3.1-6-.4-12.6-.9-14.5-1.2-2-.3-3.8-.3-4-.1zm4.5 22.6c-.5 6.9-1.1 18.6-1.4 26l-.6 13.5-2.7.7c-1.5.4-4.4.3-6.5-.2-2.1-.5-7-.9-10.8-.9-10.1 0-11.1-1-12-11.2-.4-4.6-1.1-10.2-1.6-12.5-1.4-6.6-1.4-24 .1-25.7 1.2-1.6 7.1-2.1 26.4-2.2h9.8l-.7 12.5zm23.8-8.6c2.9 3.8 1.3 5-7.3 5.5l-7 .4v-4.4c0-2.5.2-4.7.4-4.9.3-.2 3-.2 6.2.1 4.7.4 6 1 7.7 3.3zm2.9 18.7c.1 2.7.2 6 .2 7.1.1 3-5.7 4.9-13.7 4.6l-6.2-.3.4-7.4c.2-4.1.5-7.8.8-8.3.2-.4 4.4-.7 9.4-.7h8.9l.2 5zm.2 23.2c0 7.1-1.2 7.9-10.8 7.6l-8-.3-.9-4.4c-.6-2.8-.5-4.7.2-5.4 1.4-1.4 8.4-2.5 14.6-2.3l5 .1-.1 4.7zm-75.7 35.5c-1.2 1.1-.8 3.5 1.4 8.1l2.2 4.4-2.2 5.4c-2.5 5.9-2.5 9.7.1 10.2 1.1.2 2.6-1.2 4.4-3.9l2.7-4.3 1.9 2.7c1.6 2.2 2.8 2.7 6.1 2.7 2.4 0 4.8-.7 5.9-1.7 2.3-2.1 13.5-1.9 15.9.3.8.8 3.5 1.4 5.8 1.4 3.4 0 4.4-.4 4.8-2 .6-2.3 2.3-2.7 2.3-.5 0 .8 1.1 2.2 2.5 3.1 2.1 1.4 3.1 1.5 5 .6 3.1-1.4 3.1-3 .3-7.9-1.6-2.7-2.3-5.4-2.3-9.3v-5.5h-3.5c-1.9 0-4-.4-4.6-.8-.7-.4-3.6-.2-6.5.3-4.1.8-5.6.7-6.8-.4-2.3-1.9-8.1-2.8-9.7-1.5-.8.6-2.1.8-3.1.3-3-1.3-11.5-1.5-13-.3-1 .9-1.8.8-3.1-.5-1.9-1.6-5.3-2.1-6.5-.9zm18.3 10.5c0 3-1.5 6.9-2.2 5.8-2.7-4.3-2.9-5.2-1.2-7.1 2.5-2.7 3.4-2.4 3.4 1.3zm13 2.4c0 .8-.4 1.4-1 1.4-.5 0-1-.9-1-2.1 0-1.1.5-1.7 1-1.4.6.3 1 1.3 1 2.1zm12.4-.2c-.6 1.6-2.4 2.3-2.4.8 0-1 2.2-3.3 2.7-2.8.2.2.1 1.1-.3 2zm47.6-7c-.6.8-1.8 1.2-2.5 1-1.9-.8-5.5 1.4-5.5 3.3 0 .9.7 2.4 1.5 3.4 1.4 1.5 1.4 2-.5 5.8-3 5.6-3.7 11.3-1.6 13 2.2 1.9 4.3.7 6-3.4.8-1.9 1.8-3.5 2.2-3.5.3 0 1.5 1.1 2.6 2.5 2.5 3.2 8.2 3.5 10 .5.7-1.1 1.7-2 2.3-2 .6 0 1.6.9 2.3 2 1.4 2.4 4.5 2.6 6.2.5 1.6-1.9 3.4-1.9 5.1.1 1.6 2 9.3 1.2 12-1.2 1.5-1.4 1.9-1.2 4.1 1.6 2.9 3.7 8.3 4.7 10.2 1.7 1.2-1.8 1.1-1.9-3.7-8l-2.8-3.5 1.8-3.7c1.7-3.6 1.7-3.7-.2-5.1-1.2-.9-3-1.2-4.7-.9-2 .5-2.9.2-3.8-1.4-.9-1.7-2-2.1-6.3-2.1-2.9 0-5.8.5-6.5 1.2-.9.9-1.5.9-2.4 0-1.9-1.9-4.6-1.4-8.4 1.5l-3.5 2.6-1.5-2.1c-.8-1.2-2.1-2.2-2.8-2.2-.8 0-1.9-.7-2.6-1.5-1.6-1.9-5.4-1.9-7-.1zm36.4 13.3c-2.4 3.8-5.5 1.2-3.3-2.9 1-1.9 1.2-1.9 2.7-.4 1.3 1.2 1.4 2.1.6 3.3zm-29-2.1c.9 2.4.7 2.8-.9 1.4-1.7-1.4-2-3-.6-3 .5 0 1.2.7 1.5 1.6zm83.9-7c-3.1 2.3-3.5 2.4-6.8 1.3-2.6-1-4.1-1-5.3-.3-2.5 1.6-2.7 5.1-.3 6.6 2.7 1.6 2.6 2.2-.5 5.3-4.8 4.8-1.1 10.6 4.7 7.1 3-1.8 3.1-1.8 5.3.3 1.2 1.2 3.2 2.1 4.4 2.1 1.1 0 2.4.4 2.7 1 .9 1.5 4.1 1.2 5.5-.5.7-.8 2.7-1.5 4.6-1.5 1.8 0 3.6-.5 3.9-1 1.1-1.8 4.1-1.1 6.5 1.5 1.3 1.4 3.2 2.5 4.2 2.5 1.1 0 3.4-1.1 5.2-2.5 4-3 4.8-3.1 7.1-.5 2 2.2 5.5 2.6 7.3.8 1.9-1.9 1.4-4-1.9-7.4l-3.2-3.3 1.7-3.6c2.5-5.3 1.8-7.9-2.2-8.3-2.2-.2-3.4.2-3.8 1.2-.8 2.2-2.1 2-2.7-.4-.4-1.4-1.4-2-3.4-2-1.6 0-3.3.4-3.8.9-.6.4-2.5 1.1-4.2 1.4-2.6.5-3.5.2-4.3-1.3-1.5-2.7-2.9-2.5-6.6 1.1l-3.2 3.1-2.1-3.1c-2.7-3.8-4.6-3.9-8.8-.5zm31.7 11c0 3.9-.9 4.3-3.5 1.4-1.7-1.9-1.7-2.1 0-4 2.3-2.6 3.5-1.7 3.5 2.6zm-27.5 1.2c0 3.1-1.9 2.8-2.3-.4-.3-1.8 0-2.5 1-2.2.7.3 1.3 1.4 1.3 2.6zm81.6-10.6c-.6.7-3.1 1.3-5.4 1.3-3.6 0-4.2.3-4.5 2.3-.2 1.3.4 3.5 1.3 4.8 1.5 2.3 1.5 2.8.1 5.9-2.8 5.8-1.6 10.5 2.6 10.5 1 0 2.3-.9 3-2 1.5-2.3 3.1-2.6 4.7-.6.7.8 2.8 1.7 4.8 2.1 2.8.5 4 .2 5.9-1.6 2.3-2.1 3.3-2.1 6.6.3 1.4 1 2.2 1 3.8 0 1.1-.6 2.8-1.2 3.8-1.2s2.3-.5 2.8-1c.7-.7 2 0 3.9 2 2.8 2.9 5.8 3.9 6.9 2.1.3-.5 4.2-.7 8.7-.5 8.5.4 10.9-.4 10.9-3.5 0-1-1.1-2.8-2.5-4.1-1.4-1.3-2.5-3-2.5-3.7 0-.8 1.1-2.4 2.5-3.7 5.9-5.5-.5-10.5-6.9-5.5l-2.7 2.2-1.6-2.3c-1.2-1.7-2.2-2.1-4.3-1.6-1.8.3-3.3 0-4-.9-1.3-1.5-8.8-1.1-12.2.7-1.1.5-2.5.4-3.7-.4-1.5-.9-2.4-.8-4.6.6-2.4 1.6-2.8 1.6-4.4.2-1-.9-2.9-1.6-4.4-1.6-1.4 0-2.9-.5-3.2-1-.9-1.4-3.8-1.3-5.4.2zm8.4 9.8c1.9 2.1 1.4 5-.9 5-1.9 0-4-3.6-3.2-5.6.7-1.9 2-1.8 4.1.6zm17-1c.9 1.4-2.3 6.2-3.5 5.5-1.4-.9-1.2-3.9.2-5.3 1.5-1.5 2.5-1.5 3.3-.2zm15.9 2.4c3 3.9 3.1 4.9 1.3 6.5-1 .8-1.8.4-3.3-1.7-2.5-3.4-3.6-6.1-2.8-7.3.9-1.6 2.1-1 4.8 2.5z"/></g></svg>