<svg version="1.0" xmlns="http://www.w3.org/2000/svg" width="814.947" height="788.568" viewBox="0 0 611.21 591.426"><path d="M295.272.235c-.1.1-8.4.3-18.5.4-21.2.3-33.6 1.1-48.7 3.4-6.1.9-14.1 2.1-18 2.6-3.8.6-9.2 1.5-12 2.1-2.7.6-9 1.8-14 2.7-9.2 1.8-11 2.4-25.5 9.3-4.7 2.2-9.6 4.5-11 5.1-1.4.6-3.4 1.9-4.5 2.8-2.6 2.2-19.5 10.9-21.2 10.9-.7 0-3 1.6-5.2 3.5-2.1 1.9-4.1 3.5-4.4 3.5-.3 0-5.2 2.8-10.9 6.2-8.2 5-12.6 8.7-21.5 17.8-6.1 6.3-11.9 12.2-12.7 13-11.2 10.5-16.8 16.6-19.4 21.2-1.8 3.1-3.9 6.2-4.8 6.9-6.1 5-24.4 44.4-24.4 52.4 0 1.3-.7 3.9-1.5 5.9-.8 2-2.2 6-3 8.8-.8 2.9-3 10.5-5 16.8-2 6.3-4 15.3-4.6 20-.6 4.7-1.5 11.9-2 16s-1.1 17.4-1.4 29.5c-.3 12.1-.7 23.6-1 25.6-.5 4 1.4 18.3 4 29.1.8 3.8 2.4 12.3 3.5 19 1 6.8 2.8 15.2 3.9 18.8 1.2 3.6 2.1 7.2 2.1 8 0 .9 1.9 5.4 4.3 10 2.4 4.7 4.9 10.1 5.7 12 .7 1.9 3.1 6.1 5.2 9.4 2.1 3.2 3.8 6.1 3.8 6.4 0 .3 1.1 1.9 2.4 3.6 1.3 1.7 3.3 5.1 4.6 7.6 2.1 4.1 9.7 15.2 18.8 27.5 2 2.7 6 7.2 8.8 10 2.9 2.7 6.6 7 8.4 9.5 7.6 10.8 31.3 34 34.7 34 .5 0 1.8.9 2.8 2 2.7 3 20.3 12.8 23.2 12.9.7.1 3.6 1.2 6.5 2.5s6.9 2.8 8.8 3.4c4.4 1.3 13.7 4.4 21.5 7 8.5 2.8 22.2 6.3 27.5 6.9 2.5.3 4.9.9 5.4 1.4 1.6 1.5 4.5 1 6.6-1.1 2.1-2.1 2.7-7.4 1-8.5-.6-.4-1-8.5-1-21 0-19.9 0-20.4-2.2-21.9-1.2-.9-3.8-1.6-5.8-1.6-5 0-17.6-2.5-26.7-5.4-4.3-1.3-12.3-3.4-17.8-4.7-12.2-2.7-17.3-5.6-26.3-15.5-6.7-7.3-8.4-10-14.1-22.4-6.7-14.5-13.2-23.4-21.6-29.5-3.3-2.4-9.2-6.8-13.2-9.7-3.9-2.8-6.9-5.6-6.6-6.1.3-.5 4-.7 8.2-.5 13.1.9 26.5 8.6 39.5 22.8 17.1 18.7 18.9 20.3 26.3 22.7 3.8 1.3 7.6 2.3 8.4 2.3.9 0 3.1.8 5 1.7 4.8 2.5 13.4 3.6 28.4 3.7 11.1.1 13.6-.2 17-1.9l4-2 .2-18.3.1-18.2-3.4-2.7c-2.9-2.2-4.1-2.5-7.9-2-3.1.5-5.8.1-9.2-1.2-2.6-1-6.8-2.4-9.3-3.1-2.5-.6-6.8-2.2-9.5-3.6-2.8-1.3-5.8-2.4-6.7-2.4-1.5 0-10.3-4.3-17.4-8.6-1.8-1.1-6.3-4.7-10.2-8.1-3.9-3.3-9.7-7.9-12.9-10.1-16.9-11.6-32.1-36.1-37.8-60.7-4.2-18.6-4.3-19-5-35.5-.5-12.1-.3-17.5.9-24.3.9-4.9 1.8-9.3 2.1-9.8.3-.5 1-3.3 1.5-6.2.5-3 1.8-7.2 2.9-9.3 1.1-2.1 3.2-6.2 4.6-8.9 6.3-12.2 11.2-20 13.2-21 5.3-2.7 5.4-2.9 4.7-15.5-.5-9.9-.3-12.3 1.1-15 1.2-2.3 2-7.4 2.6-16.4 1.2-19.2 3.5-32.6 5.9-35 2-2 2.1-2 8.7-.3 3.8.9 7.9 1.7 9.3 1.7 1.4 0 4.4.9 6.5 2 2.2 1.2 6.9 3.3 10.5 4.9 3.6 1.5 9 4.5 12 6.6 15.5 11 17.9 12.5 19.8 12.5 1.1 0 2.5-.6 3.1-1.4.6-.8 2.2-1.6 3.4-1.9 10.7-2.3 32.7-6.5 34.7-6.5 1.4 0 7.5-.4 13.5-.7 6.5-.4 14.7-.2 20 .5 5 .6 12.5 1.4 16.7 1.8 4.2.4 8.3 1.3 9 1.9.6.7 3.5 1.3 6.2 1.3 2.8.1 6.9.7 9.1 1.5 2.2.8 6.3 1.7 9 2.1 2.8.3 7 1.2 9.4 2.1 3.7 1.3 5.1 1.4 10 .3 7.6-1.8 8.7-2.4 15.5-9.1 3.2-3.2 6.8-6.1 8-6.5 1.1-.3 3.2-1.7 4.6-2.9 6.2-5.8 23.4-11.9 38.3-13.7 8.3-1 10-1 11.1.3 2.4 2.5 4 10.2 3.9 18.9-.1 31.6-.5 40.4-1.9 44.7-2 5.9-1.5 8.5 2.1 10.3 13.8 7 24.9 20.8 30 37.5 1 3.3 2.1 6.4 2.5 7 .4.5 1.9 4.6 3.5 9 2.6 7.7 2.7 8.5 2.1 22-.3 7.7-1.5 19.2-2.6 25.5-1.1 6.3-2.3 13-2.7 14.9-.4 2.4-1.4 3.8-3.6 5-1.7.9-4.7 3.1-6.8 4.9l-3.7 3.2-3.3-5.2c-1.8-2.9-5.4-7.8-8-10.8-2.5-3-6.7-8.1-9.3-11.3-7.4-9.1-14.3-15.4-21.5-19.6-3.6-2.2-7.4-4.8-8.4-5.9-2.6-2.8-17.1-8.9-23.2-9.7-2.7-.3-9.3-1.3-14.6-2.1-8.6-1.4-10.3-1.4-17.1 0-14 2.9-24.5 6.1-32.8 10-3 1.4-6.1 2.6-6.8 2.6-3 0-16.1 8.7-22.5 14.9-6.8 6.5-14.7 16.2-14.7 17.9 0 .8-3.7 8.3-11.7 23.7-6.1 11.6-8.9 24-7.9 34.8 1.4 15.5 2.4 22.4 3.9 26.7.8 2.5 2 7.2 2.7 10.5 2 10.3 4.2 16.8 7.6 23.1 1.9 3.3 3.4 6.8 3.4 7.7 0 1 1.5 3.4 3.3 5.4 1.9 2.1 5.3 6.9 7.6 10.8 2.3 3.8 5.5 8.8 7.1 11 1.6 2.2 4.9 6.9 7.3 10.5 2.4 3.6 6.7 9.2 9.5 12.4 2.9 3.3 5.2 6.7 5.2 7.6 0 1 .7 2.3 1.5 3 .8.7 1.5 1.8 1.5 2.6 0 .7 3.3 6.1 7.3 12.1 4 5.9 8 12.5 9 14.5s2.9 5.1 4.3 6.7c1.4 1.7 4.7 7.2 7.3 12.3 7 13.7 8.8 16.6 14.5 24.3 2.9 3.8 7.2 11 9.5 16 2.3 4.9 5.5 10.6 7 12.5 5.7 7.2 10 13.9 13 20.2 4.2 8.6 6 10.2 10.8 9.6 3.5-.5 12.4-5.6 13.8-7.9.4-.5 2.4-1.8 4.5-2.9 2.2-1.1 8.4-5.1 13.7-8.9 12.5-8.7 34-21.7 37.4-22.6 1.5-.4 6-3.3 10-6.6 4.1-3.2 8.2-5.9 9.1-5.9.9 0 2-.4 2.3-1 .3-.5 3.2-1.7 6.3-2.6 6.6-1.9 17.7-7 19.3-9 .6-.8 3.7-2.9 6.8-4.6 3.1-1.8 6.3-3.8 7.2-4.3.9-.6 3.1-1.8 4.9-2.8 1.8-1 6.2-4 9.9-6.6 3.6-2.6 8-5.6 9.8-6.6 1.7-1.1 8.2-6.3 14.5-11.7 38.4-32.7 54.2-52.2 57.3-70.9.4-2.4 1.6-7.6 2.6-11.6 3.8-15 4.7-42.1 1.9-55.8-2.6-13-4.2-19.2-5.4-21-.8-1.2-2.1-4.9-3-8.4-.9-3.5-2.9-8-4.5-10s-4-5.9-5.4-8.6c-1.6-3.2-5.5-7.7-10.8-12.5-10.3-9.3-13.9-11.9-21-15.3-3.1-1.5-5.9-3.3-6.2-4.1-.3-.8-.9-5.4-1.3-10.3-.3-4.8-1.5-11.5-2.5-14.7-1-3.3-1.9-7-1.9-8.3 0-1.2-.9-4.9-2-8-1.1-3.2-2.9-10.8-4-16.8-1.2-6.1-2.8-12.4-3.7-14-2.4-4.8-8.2-20.3-11.3-30.3-1.5-5.1-3.4-10-4.2-10.9-.7-.9-3.2-5.2-5.4-9.7-10.8-21.2-13.3-25.6-15.8-28.7-1.6-1.8-3.2-4.2-3.6-5.4-.4-1.1-2.6-4.4-4.9-7.2-2.2-2.9-4.1-5.5-4.1-5.8 0-1.3-17.2-20.5-25.6-28.5-4.9-4.7-12.5-11.2-16.9-14.5-4.4-3.2-10.9-8.9-14.6-12.6-3.6-3.7-8.4-7.7-10.6-8.9-2.3-1.2-6.1-3.8-8.5-5.9-2.4-2.1-5.4-4.1-6.8-4.6-1.4-.4-5.7-2.4-9.6-4.6-4-2.1-10.4-4.7-14.4-5.8-4-1.1-8-2.7-8.9-3.5-.9-.8-3.7-1.8-6.1-2.2-2.5-.3-5.5-1.3-6.7-2-1.2-.8-3.3-1.4-4.6-1.4-2.1 0-9.6-2.1-13.7-3.8-1.3-.5-45.8-1-46.3-.5zm40.3 12c8.8 1.1 13.4 2.1 18.5 4.3 1.1.5 4.7 1.4 8 2.1 3.3.6 6.5 1.5 7.2 2.1.6.5 4.1 1.7 7.8 2.8 7.8 2.2 18.3 7.7 30.6 16 4.9 3.3 9.1 6 9.5 6 .5 0 9.5 7.7 20.3 17.6 3.1 2.8 7.4 6.1 9.7 7.3 6.4 3.6 28.4 27.6 36.6 40 2 3.1 5 7.4 6.5 9.5 6.4 9 26.7 48.7 27.6 54.1.8 4.2 5.5 17.3 7.3 20 .8 1.2 2.1 4.4 2.8 7.1.8 2.7 2.2 7.4 3.1 10.4.9 3 2.1 7.7 2.6 10.5.4 2.7 1.3 5.9 1.8 7 1.9 4.1 3.1 8.9 3.1 12.7 0 2.1.6 5.1 1.4 6.6 1.5 3 2.8 16 1.7 16.7-.4.2-5.4-.3-11.2-1.1-16.3-2.3-36.5-2.9-41.9-1.1-2.5.8-5.8 1.8-7.4 2.1-1.6.4-5.8 2.5-9.4 4.7-3.6 2.1-7 3.9-7.5 3.9-.6 0-.7-2.1-.2-5.3.4-2.8 1.2-8.4 1.7-12.2 1.8-13.1 1.9-25.5.2-35.4-.9-5.2-2-10.2-2.5-11-1-2-4.9-11.5-8.4-20.5-1.5-3.9-4.6-9.4-6.9-12.4-2.2-2.9-5.1-6.8-6.4-8.5-1.3-1.8-4.5-4.6-7.1-6.4-2.6-1.8-5.3-3.8-5.9-4.6-1.3-1.6-1.9-34.8-.7-45 .8-7-.6-16.7-3-21.7-.7-1.4-1.5-4.1-1.9-6.2-.9-4.7-4.6-7.3-10.4-7.1-8.2.3-26.7 3.6-36.2 6.4-9.6 2.9-11.9 4.3-28 16.6-3.8 2.9-7.1 5.3-7.5 5.3-.3 0-2.3 1.3-4.3 2.9l-3.7 2.9-17.5-3.4c-9.6-1.9-19.7-3.8-22.5-4.3-13.9-2.7-42.2-5.5-46.9-4.7-1.7.3-7.9 1-13.7 1.5-9.7.9-18.7 2.7-33.8 6.6-6.4 1.7-9.8.7-16.4-5-5.9-5.1-29.1-16.6-35.2-17.5-2.7-.4-6.3-1.2-8-1.8-9.2-3.2-14.4-4.4-16.4-3.7-5.5 1.7-11.7 22.7-13 44.2-.6 9.4-1.4 14.7-2.5 16.8-1.2 2.2-1.6 5.7-1.6 13.3v10.4l-4 5.7c-2.2 3.1-4 6.1-4 6.7 0 .5-2.2 4.4-4.9 8.7-8 12.7-12.4 24.9-15.4 42.7-1.8 10.2-1.3 41.1.8 50 .9 4.1 2.5 11.3 3.5 16 2.7 12.4 7.6 25.1 12.6 32.6 2.4 3.6 4.4 7 4.4 7.6 0 2.3 7.1 11.6 13.6 17.9 3.8 3.6 11.5 9.6 17.1 13.3 5.6 3.6 11.1 8 12.3 9.5 2.1 3.1 9.2 6.9 23 12.4 10.8 4.3 27.5 9.6 34.8 11.1 5.3 1 5.7 1.3 6.4 4.6.5 1.9.5 6.4.2 9.9-.4 4.9-1.1 6.9-3 8.8-2.2 2.2-2.9 2.3-8.7 1.7-16.6-1.8-26-3.6-34.6-6.6-8.9-3.1-9.7-3.7-15.1-9.8-9.6-11.1-24.7-26-26.3-26-.8 0-1.9-.6-2.5-1.3-1.1-1.3-10.7-6.2-17.2-8.7-4.1-1.6-19.2-2.4-26.8-1.5-7.1.9-8.7 3.2-7.1 10.3 1.2 5.7 4.8 9.6 14.7 15.9 16.1 10.3 25.1 20.4 31.1 35.1 2.4 5.9 4.7 9.8 11.8 20.2 4.1 6.1 14.3 15.1 21.2 18.7 2.5 1.4 15.9 4.8 23.1 5.9 2.5.4 6.3 1.5 8.5 2.4 2.3 1 8.4 2.8 13.8 4.1 13.9 3.4 14.1 3.6 14.5 15.6.1 5.4-.1 11.8-.6 14.3-.7 4.2-1 4.5-3.7 4.2-1.7-.2-3.4-.7-4-1.1-1.3-1-8.6-2.8-14.5-3.7-2.5-.3-6.2-1.7-8.2-3-2-1.3-7-3.1-11-4-4-.9-9.8-2.8-12.8-4.2-3-1.3-7.7-3.3-10.6-4.2-2.8-1-7-3-9.2-4.4-2.3-1.4-4.4-2.6-4.7-2.6-.7 0-8.8-5.9-15.3-11.2-6.9-5.5-20.7-19.7-26.2-26.8-2.4-3-6.6-7.8-9.4-10.5-2.8-2.8-6.6-7-8.4-9.3-5.4-6.8-18-26-18.8-28.4-.3-1.3-1.9-3.9-3.3-5.8-3.7-4.8-6.4-9.5-13.7-23.8-6.6-13-8.4-18.8-11.6-37.2-1-6.3-3.1-16.5-4.6-22.5-2.3-9.7-2.6-12.7-2.5-25.4.2-8.2.7-14.9 1.3-15.5 1.4-1.4 1.3-9.9-.2-11.4-1.4-1.4-1.2-22.3.3-32.2.6-3.6 1.3-9.2 1.6-12.5.2-3.3.9-6.4 1.4-7 .5-.5.9-1.7.9-2.6 0-1.7 8.4-28.8 10.1-32.4.5-1.1 1.8-5.5 2.8-9.8 1.1-4.3 2.3-8.3 2.9-9 .5-.7 1.4-2.8 2.2-4.7 4.2-11.5 10-22.6 15.4-29.8 2.3-3.2 5.4-7.7 6.8-10.2 2.9-4.9 8.2-10.6 20.2-21.5 4.2-3.9 8.2-8.1 8.9-9.5 1.5-3 10.7-10.5 21.2-17.4 12.8-8.4 13.3-8.6 28-16.5 2.1-1.1 4.6-2.1 5.3-2.1.8 0 4-1.7 7.1-3.8 6.2-4.1 10.8-6.4 26.6-13.3 8.6-3.7 31-8.6 50-10.9 5-.6 10.6-1.5 12.6-2.1 7.8-2.4 82-3.2 99.9-1.2zm17.5 227.3c14.7 2.1 24.6 5.8 30.5 11.4 2.5 2.3 5.9 5.1 7.5 6.1 5.5 3.3 14.7 11.8 18.7 17.3 2.3 3 5.8 7.3 7.9 9.4 4.4 4.5 9.9 13.6 9.9 16.3 0 3.3 3 5.5 7.6 5.5 4.1 0 4.6-.3 8.3-5.3 2.9-3.9 5.3-6 8.9-7.5 2.7-1.2 8.6-4.4 13.1-7.2 4.4-2.7 8.3-5 8.6-5 .3 0 2.3-1.1 4.3-2.5s4.6-2.5 5.8-2.5c1.2 0 3.8-.7 5.7-1.5 4.7-1.9 26.5-2 39.7-.1 7.7 1.1 11.3 2.3 19 6.1 15 7.4 30.5 19.6 33.7 26.4 1 1.9 3.2 5.7 4.9 8.3 1.7 2.5 3.7 7 4.4 10 .7 2.9 1.9 6.5 2.7 8.1.7 1.5 1.8 4.6 2.2 7 .5 2.3 1.6 7.6 2.5 11.7 2.2 9.7 2.2 27.6.1 40-.9 5.2-2.1 12.8-2.6 16.8-1.2 8.9-6 19.6-12.9 29-7.5 10.3-32.1 33.6-48.1 45.7-15.3 11.5-41.7 29.5-43.3 29.5-.2 0-2.8 1.5-5.6 3.4-2.9 1.9-7.8 4.4-10.9 5.6-3.1 1.2-7.8 3-10.4 4.1-2.7 1-8.1 4-12 6.6-8.3 5.6-11.5 7.3-13.2 7.3-.6 0-3.6 1.7-6.6 3.9-3 2.1-7.2 4.8-9.4 6-2.2 1.2-6 3.7-8.5 5.6-2.5 1.9-5.2 3.8-6 4.2-1.5.7-9.5 5.9-23.3 15.1l-6.8 4.6-2.4-3c-1.4-1.6-3.9-5.4-5.7-8.4-1.8-3-4.6-7-6.4-9-1.8-2-6-8.9-9.4-15.5-3.4-6.6-7.4-13.5-8.9-15.4-4.6-5.9-10.1-15.1-14.1-23.6-1.3-2.8-3.7-7-5.4-9.4-5.5-7.8-20.5-32.5-23.5-38.7-1.7-3.4-5.1-8.5-7.6-11.5-2.6-3-6.2-7.7-8-10.4-1.9-2.8-4.7-6.3-6.4-7.9-1.7-1.7-3.1-3.3-3.1-3.8 0-1.4-9.1-15.9-13.2-21.1-2-2.6-4.2-6.3-4.7-8.2-.5-1.9-1.8-4.7-2.9-6.2-2.1-3-4.7-11-6.7-20.8-.7-3.3-2-8.5-2.8-11.5-3.7-13.4-4.7-27.4-2.7-36.2 1.7-7.5 17.3-38.8 22.8-45.6 5.4-6.8 12.3-14.2 13.3-14.2.4 0 3.5-1.6 6.9-3.5 3.3-1.9 8-3.9 10.2-4.6 2.3-.6 5.1-1.6 6.2-2.4 2.6-1.6 22.4-7.9 29.1-9.3 5.1-1 6.9-1 19 .8z" fill="#343434"/></svg>