<svg version="1.0" xmlns="http://www.w3.org/2000/svg" width="788.521" height="777.935" viewBox="0 0 591.391 583.451"><path d="M84.36.29c-.3.4-14.6 1.2-31.7 1.9-30.6 1.1-31 1.2-33.6 3.6-2.8 2.6-3.4 8-1.3 12.5 1.5 3.3-.5 54.9-2.8 70.6-.8 5.7-1.4 16.2-1.4 23.4.1 7.1-.1 24.7-.4 39-.3 14.3-.8 39.3-1.1 55.5-.4 16.2-1.1 35.3-1.6 42.5-.8 11.3-2 38.7-3.4 74.5-.2 5.8-.9 13.6-1.5 17.5-.7 4.6-.9 12.7-.5 23.5.5 13.3.4 17.8-.9 23-1 4.3-1.6 11.4-1.6 21 0 8-.5 16.3-1 18.5-1.6 6.8-2.1 30.2-.9 49.5 1.1 19.3 1.3 25.9 2.4 70.8l.7 27.3 2.4.9c1.3.5 2.4 1.3 2.4 1.7 0 .5 1.6 2.1 3.6 3.7 3.1 2.4 4 2.7 5.5 1.7 1.2-.7 8.9-1.3 20.1-1.6 11.5-.3 20-1 22.8-1.9 2.5-.8 8.6-1.7 13.5-2 7.7-.5 15.8-1.4 36.7-4.3 2.1-.3 4.2-1.1 4.8-1.7.5-.7 1.2-9 1.5-18.7.2-9.6.8-19.4 1.2-21.9.5-2.5.5-17.3 0-33-.4-15.7-.8-30.3-.9-32.5-.1-7.6 2.2-46 3.2-52.5.6-3.6 1.2-19.1 1.4-34.5.3-15.4.9-42.2 1.5-59.5 1-27.6 1.3-75.8.8-120.5-.1-8.8.5-19 1.7-27.5 1.5-11.4 1.7-17.8 1.2-41.5-.3-17.2-.2-30.3.4-34 .6-3.3 1.5-10.5 2-16 .4-5.5 1.1-11.8 1.4-14 2.6-19 3.7-33.7 2.7-36.6-.6-1.8-1.1-7.6-1.1-13 0-9.6 0-9.7-3.1-12.3-3-2.6-3.2-2.6-20.9-2.6-9.7 0-19-.3-20.6-.6-1.6-.3-3.2-.3-3.6.1zm31.5 11.1c.9.3 2.4 2.2 3.3 4.2 2.1 5.1 2.2 36.9.1 51.7-3.4 23.9-4.2 34.3-3.8 52 .7 32 .5 43.8-1.2 55.5-1.4 9.5-1.6 16.3-1.1 39 .9 41.6.6 80.2-.9 124.5-.8 22-1.5 41.8-1.5 44 0 8.5-1.2 33.1-1.8 35.8-.3 1.6-.7 8.3-.9 15-.2 6.7-.8 16.7-1.4 22.2-.7 7-.7 12.8.1 19.5 1.4 12.1.5 73.3-1.2 80.8-.8 3.4-1.9 5.7-3.3 6.6-2.9 1.9-13.2 3.4-29.7 4.6-7.5.5-15.6 1.4-18.1 1.9-2.6.6-11.9 1.2-20.8 1.3-14.7.3-16.4.1-17.6-1.5-1.6-2.2-2.4-17.3-2.9-58.2-.3-19.7-1-34.3-2.1-42.5-1.6-12.3-1.5-18.8.5-32.5 1.4-9.2 3-36.9 4.1-70 .6-16.5 1.4-37.7 1.8-47 2.4-49.9 3.1-62.4 3.7-66.4.5-4.3 2.8-86.7 3.8-138.6.2-14.3.9-29.8 1.5-34.5.6-4.7 1.5-19.8 2.1-33.5.6-13.8 1.3-26 1.5-27.1.5-2.4 4-3.3 16.5-4 4.1-.3 8.8-1 10.3-1.6 1.8-.7 6.4-.9 12.5-.5 5.3.3 10.6.2 11.7-.3 2.2-.9 31.9-1.2 34.8-.4zm256.7-3.9c-5.2.6-23.5 5.1-32 7.9-4.1 1.4-12.2 4.8-18 7.6-5.8 2.8-11.4 5.5-12.5 5.9-1.1.4-4.5 1.8-7.5 2.9-7.4 2.9-10.8 4.7-15.5 8.4-2.1 1.7-4.6 3.5-5.5 4.1-5.6 3.4-17.2 11.4-21 14.4-6 4.8-20 19-20 20.3 0 .6-1.7 3-3.7 5.3-9.4 10.7-14.8 19.4-18.9 30.1-1.3 3.6-3.9 9.5-5.8 13.2-1.8 3.7-4.4 9.2-5.7 12.2-1.2 3-3.2 7.1-4.4 9-1.2 1.9-3.4 6.9-4.9 11-1.5 4.1-4.3 11.6-6.1 16.7-1.8 5-4 10.4-4.8 12-3.2 6.2-5.9 24-5.9 38.7 0 20.9 1.2 41.4 2.7 47.1.7 2.7 1.6 7 2 9.5 1 7 7.9 27.3 11.2 33 .8 1.4 2.5 4.8 3.7 7.5 1.3 2.8 4 6.9 5.9 9.2 1.9 2.4 5.1 7.1 7 10.5 2 3.5 5.9 8.5 8.7 11.3 2.9 2.7 6.3 6.6 7.5 8.6 2.3 3.5 13.5 12.9 15.5 12.9.5 0 2.4 2 4.3 4.5 3.5 4.5 11.2 11.5 12.8 11.5.4 0 3.5 2.6 6.7 5.7 15.1 14.8 19.7 18.3 30.7 23.7 12 5.9 20.1 9.6 21.1 9.6.4 0 3.4 1.2 6.8 2.6 9 3.9 9.9 4.2 12.6 5 3.5 1 34.3.6 46.5-.6 17.8-1.9 22.9-2.7 27-4.4 2.2-1 6.3-1.9 9-2 2.8-.2 8.1-1.3 11.8-2.4 3.8-1.2 9.6-2.6 12.9-3.2 4.6-.7 6.9-1.7 9.2-3.9 3.8-3.5 6.8-5.1 9.7-5.1 1.2 0 4.3-1.6 6.9-3.5 2.6-1.9 7-4.5 9.6-5.6 2.6-1.2 6.6-3.5 8.8-5.1 2.3-1.6 7.3-4.8 11.1-7 7.7-4.4 14.8-10.8 17.1-15.1.8-1.5 5.2-7 9.7-12.2 9-10.3 14.9-17.8 18.6-23.4 1.3-2 4.1-5.4 6.2-7.6 2.1-2.2 4.5-5.8 5.4-7.9.9-2.2 2.7-5.4 4-7 4.3-5.6 9.8-19 15.8-38.1.9-2.8 3.4-10 5.7-16 4.9-13 4.6-10.6 6.1-41.1 1.1-23.1 1.1-24.4-.9-31.5-1.1-4.1-3-11.2-4.3-15.9-1.3-4.7-3.7-11.1-5.5-14.2-1.8-3.1-3.5-6.7-3.9-8-.4-1.3-3.4-7.5-6.8-13.8-3.3-6.3-8.3-16-11.1-21.5-4.6-9.1-8.3-15-17.8-28.6-3.4-4.8-29.3-31.5-37.1-38.1-2.4-2.1-6.1-4.5-8.3-5.5-2.2-1-6.4-3.9-9.4-6.4-4.9-4-9.7-6.8-20.5-11.5-1.6-.7-6.9-3-11.7-5.2-4.8-2.2-12.2-4.7-16.5-5.6-4.3-.9-10.7-2.4-14.3-3.5-9.1-2.7-19.4-5.1-22.2-5.1-1.2 0-6.5-1.6-11.7-3.5-5.1-1.9-10.1-3.4-11-3.3-.9 0-3.2.3-5.1.5zm10 14.7c4.1.7 9.3 1.8 11.5 2.4 2.2.7 9.6 2.3 16.5 3.8 15 3.1 30.1 7.2 31.4 8.5.6.5 1.9.9 3 .9 1.2 0 5 1.4 8.4 3 3.5 1.7 6.7 3 7.1 3 1.4 0 18.5 10.1 21.1 12.4 3.7 3.3 9.7 7.6 10.7 7.6 2.3.1 12.5 9.1 24.5 21.5 17.5 18.3 24.6 28.8 39.1 58 2.2 4.4 4.9 9.3 6.2 11 1.2 1.6 2.8 4.8 3.5 7 .7 2.2 2.7 6.9 4.6 10.5 5.1 10.1 6 12.8 8.4 25 2 9.9 2.2 13.2 1.6 26.4-1 26.4-1.7 30.9-7.3 46.2-5.7 15.7-7.9 21.9-9.8 28.4-1.6 5.5-7.9 18.5-10.7 21.9-1.1 1.5-2.6 3.9-3.4 5.6-.8 1.6-4.8 7.3-8.9 12.5-4.2 5.2-9.4 11.9-11.7 14.9-2.3 3-7.1 8.9-10.8 13.1-3.7 4.1-7.5 9-8.4 10.7-.8 1.7-3.9 4.8-6.8 6.7-12.9 8.8-24.2 15.9-27.2 17.1-1.8.8-3.8 2.1-4.6 2.9-.7.9-1.6 1.6-2.1 1.6s-2.8.8-5.2 1.9c-2.3 1-5.5 2.3-7 3-1.6.6-4.5 2.4-6.5 4-2.3 1.8-6.4 3.5-10.7 4.5-3.8.9-8.8 2.2-11 2.7-2.2.6-6.9 1.4-10.5 1.9-3.6.5-8.4 1.5-10.6 2.3-9.7 3.5-29.1 5.6-48.9 5.4-11.9-.1-19.7-.6-21-1.3-1.1-.7-3.1-1.6-4.5-2.2-5.2-2-32.5-15.1-36.8-17.6-1.3-.7-7.5-6.2-13.9-12.2-6.4-6-13.3-11.8-15.5-12.9-2.1-1.2-5.6-4.3-7.6-7-2.1-2.7-5.7-6.3-8.1-8-2.4-1.6-6.3-5-8.5-7.5-2.3-2.4-7.3-7.6-11.3-11.5-4.6-4.4-8.1-8.9-9.6-12.2-1.3-2.9-4-7.2-6-9.6-2-2.5-5.1-7.1-6.8-10.3-1.8-3.3-3.5-6.4-3.9-6.9-2.3-3.4-10-27.7-10-31.8 0-1.3-.7-4.4-1.5-6.7-2.2-6.1-3.3-52.6-1.5-60.7 1.9-8.7 2.9-12.1 6-20.3 1.6-4.1 3.1-8.8 3.5-10.5.4-1.6 1.7-5.4 3.1-8.3 1.3-2.9 2.4-5.7 2.4-6.3 0-.6 2-5 4.4-9.7 4.4-8.7 19.6-42.6 19.6-43.9 0-.3.7-1.4 1.6-2.4.9-1 2.3-3.1 3.2-4.8.9-1.7 4.7-6.8 8.5-11.5 3.7-4.7 6.7-8.8 6.7-9.3 0-2.2 18.8-19.6 24-22.3 3.6-1.8 12.7-7.9 18.3-12.3 2.7-2 5.5-3.7 6.3-3.7.8 0 4-1.4 7.1-3 3.1-1.7 6.1-3 6.8-3 .6 0 4.3-1.5 8.1-3.4 10.1-5.1 21-9.3 28.4-11.1 7.1-1.8 11-2.8 15.5-4.3 4.2-1.4 8.8-1.4 17.5.2z" fill="#343434"/></svg>