<svg width="100" height="100" xmlns="http://www.w3.org/2000/svg" clip-rule="evenodd" fill-rule="evenodd" stroke-linejoin="round" stroke-miterlimit="1.414"><path fill="#ffeb3b" d="M0 0h100v100H0z"/><path d="M11.03 36.77l.405 7.335c0 1.53-.225 2.745-.675 3.645-.45.9-1.215 1.575-2.295 2.025 1.14.39 1.92.983 2.34 1.777.42.795.63 2.018.63 3.668l-.495 7.92c0 1.17.142 2.025.427 2.565.286.54.803.81 1.553.81.75 0 1.425-.075 2.025-.225l.45 3.42c-1.26.27-2.445.405-3.555.405-1.83 0-3.247-.51-4.253-1.53C6.582 67.565 6.08 66.17 6.08 64.4l.495-8.595c0-1.26-.173-2.265-.518-3.015-.344-.75-1.117-1.2-2.317-1.35v-3.33c1.23-.15 2.018-.585 2.362-1.305.345-.72.518-1.83.518-3.33l-.36-7.605c0-1.83.48-3.255 1.44-4.275.96-1.02 2.37-1.53 4.23-1.53 1.2 0 2.4.15 3.6.45l-.45 3.33c-.84-.15-1.44-.225-1.8-.225-.93 0-1.537.232-1.823.697-.285.466-.427 1.283-.427 2.453zm10.395 20.61V43.565h-3.87v-3.78h3.87v-1.71c0-2.94.675-5.055 2.025-6.345 1.26-1.23 3.105-1.845 5.535-1.845s4.59.525 6.48 1.575l-1.305 3.6c-1.44-.75-2.79-1.125-4.05-1.125-1.26 0-2.13.308-2.61.922-.48.615-.72 1.553-.72 2.813v2.115h6.66v3.78h-6.66V58.64l3.78.18v3.6H18.635V59l1.485-.135c.45-.06.78-.187.99-.383.21-.195.315-.562.315-1.102zm26.685.27l-2.745-3.6-3.735 4.635 2.115.135v3.6h-9.36v-3.555l1.395-.135c.69-.09 1.29-.45 1.8-1.08l5.175-6.48-5.535-7.65-2.295-.27v-3.465H45.41v3.555l-1.305.09c-.36.03-.592.165-.697.405-.106.24-.053.495.157.765l2.565 3.42 3.465-4.5-1.845-.135v-3.6h9.135v3.51l-1.35.09c-.63.03-1.23.405-1.8 1.125l-4.95 6.255 5.895 7.83 2.295.27v3.555h-10.71v-3.555l1.395-.09c.39-.03.623-.158.697-.383.075-.224-.007-.472-.247-.742zm24.84-17.865h9.495v3.51l-1.395.09c-.6.06-1.005.42-1.215 1.08L74.03 62.42h-6.885l-6.3-17.91c-.15-.42-.308-.705-.473-.855-.164-.15-.442-.24-.832-.27l-1.305-.09v-3.51H68.81v3.6l-2.745.135L70.7 58.325h.09l4.5-14.805-2.34-.135zM89.06 63.14l-.495-7.92c0-1.65.21-2.873.63-3.668.42-.794 1.2-1.387 2.34-1.777-1.08-.45-1.845-1.125-2.295-2.025-.45-.9-.675-2.115-.675-3.645l.405-7.335c0-1.17-.142-1.987-.427-2.453-.286-.465-.893-.697-1.823-.697-.36 0-.96.075-1.8.225l-.45-3.33c1.2-.3 2.4-.45 3.6-.45 1.86 0 3.27.51 4.23 1.53.96 1.02 1.44 2.445 1.44 4.275l-.36 7.605c0 1.5.173 2.61.518 3.33.344.72 1.132 1.155 2.362 1.305v3.33c-1.2.15-1.973.6-2.317 1.35-.345.75-.518 1.755-.518 3.015l.495 8.595c0 1.77-.502 3.165-1.507 4.185-1.006 1.02-2.423 1.53-4.253 1.53-1.11 0-2.295-.135-3.555-.405l.45-3.42c.6.15 1.275.225 2.025.225s1.267-.27 1.553-.81c.285-.54.427-1.395.427-2.565z" fill="currentColor" fill-rule="nonzero"/></svg>