<svg width="167.7" height="96.1" xmlns="http://www.w3.org/2000/svg"><path fill="#1c3997" d="M14.2 81.9v14.2h153.5V0H0v81.9z"/><path d="M91.9 33.4h-1.8v12c0 .6 0 1.2-.1 1.8 0 .6-.2 1.2-.4 1.7s-.6.9-1.1 1.2c-.5.3-1.1.5-2 .5v4.6c3 0 5.2-.7 6.6-2.2 1.4-1.4 2.2-3.7 2.2-6.9V31.6h-3.4zm17.6 12.7v-1.7h1.8v-2.8c-.9 0-1.5-.2-2-.5s-.8-.7-1.1-1.2c-.2-.5-.4-1.1-.4-1.7 0-.6-.1-1.2-.1-1.8v-4.8h3.6v-2.9h-3.6v-5.2h-3.4v1.8h-1.8v11.9c0 3.1.7 5.4 2.2 6.9 1.1 1.1 2.7 1.8 4.8 2zm-23-14.5h-4.9v.9c-1.9-.7-2.5-.9-4.3-.9-1 0-1.9.2-2.8.6-.9.4-1.6.9-2.2 1.6-.6.7-1.1 1.4-1.4 2.3-.3.9-.5 1.8-.5 2.8 0 1.1.2 2 .5 2.9.3.9.8 1.7 1.5 2.3.7.6 1.4 1.2 2.2 1.5.8.4 1.8.5 2.8.5 1.8 0 3-.4 4.2-1.3v1.3h3.1v-1.8h1.8zm-4.9 8.7c-.2.4-.4.8-.8 1.1-.3.3-.7.6-1.1.8-.4.2-.9.3-1.4.3-.5 0-1-.1-1.4-.3-.4-.2-.8-.4-1.1-.8-.3-.3-.6-.7-.7-1.1-.2-.4-.3-.9-.3-1.4 0-.5.1-.9.3-1.4.2-.4.4-.8.7-1.1.3-.3.7-.6 1.1-.8.4-.2.9-.3 1.4-.3.5 0 1 .1 1.4.3.4.2.8.4 1.1.8.3.3.6.7.8 1.1.2.4.3.9.3 1.4 0 .5-.1 1-.3 1.4zm46.9 19.5h-1.8v12.8h5.2V58h-3.4zM108 66.9l-3.7-8.9h-2.9v1.8h-1.8l5.7 12.8h5.2l6.6-14.6h-5.4zm17.7-35.3l-3.6 7-3.7-7h-2.8v1.8h-1.9l5.6 10.1-6.2 11.6h5.5l12.5-23.5zM144.3 58v-2.9h-3.6v-5.2h-3.4v1.8h-1.8v11.9c0 3.1.7 5.4 2.2 6.9 1.1 1.1 2.8 1.8 4.9 2.1v-1.7h1.8V68c-.9 0-1.5-.2-2-.5s-.8-.7-1.1-1.2c-.2-.5-.4-1.1-.4-1.7 0-.6-.1-1.2-.1-1.8V58z" fill="#fff"/><path d="M91.9 25.3h-1.8v3.4h5.2v-5.2h-3.4zm36.6 24.6v1.8h-1.8v3.4h5.2v-5.2z" fill="#f9596d"/></svg>