<svg id="Sheet-9" version="1.1" width="1260.677" height="186.873" xmlns:xlink="http://www.w3.org/1999/xlink" xmlns="http://www.w3.org/2000/svg"><defs id="defs832"><linearGradient id="New_Gradient_Swatch_copy_5" x1="105.574" y1="120.762" x2="302.74" y2="277.524" gradientUnits="userSpaceOnUse"><stop offset="0" stop-color="#64519d" id="stop826"/><stop offset="1" stop-color="#d30b6c" id="stop828"/></linearGradient><linearGradient id="New_Gradient_Swatch_copy_5-2" x1="148.325" y1="66.992" x2="345.491" y2="223.755" xlink:href="#New_Gradient_Swatch_copy_5" gradientTransform="translate(-86.249 -86.249)"/><linearGradient xlink:href="#New_Gradient_Swatch_copy_5" id="linearGradient941" gradientUnits="userSpaceOnUse" x1="105.574" y1="120.762" x2="302.74" y2="277.524" gradientTransform="translate(-86.249 -86.249)"/><style id="style824">.cls-1{fill:#330229}</style></defs><path class="cls-1" d="M400.744 40.102h27.5v106.59h-27.5v-12.577q-12.366 15.564-34.749 15.562-21.32 0-36.56-16.308-15.244-16.309-15.242-39.972 0-23.663 15.242-39.971 15.239-16.308 36.56-16.308 22.384 0 34.749 15.562zm-50.737 74.933q8.314 8.424 21.105 8.421 12.79 0 21.211-8.42 8.42-8.42 8.42-21.639 0-13.215-8.42-21.638-8.424-8.418-21.211-8.42-12.79 0-21.105 8.42-8.314 8.425-8.314 21.638 0 13.22 8.314 21.638z" id="path836"/><path class="cls-1" d="M508.849 66.537h-24.09v44.341q0 5.546 2.772 8.101 2.768 2.558 8.1 2.878a118.842 118.842 0 0013.218-.107v24.943q-28.355 3.197-39.972-5.33-11.621-8.524-11.618-30.485V66.537h-18.547V40.102h18.547V18.571l27.5-8.314v29.845h24.09z" id="path838"/><path class="cls-1" d="M600.57 40.102h27.5v106.59h-27.5v-12.577q-12.366 15.564-34.748 15.562-21.32 0-36.56-16.308-15.245-16.309-15.243-39.972 0-23.663 15.242-39.971 15.24-16.308 36.56-16.308 22.385 0 34.75 15.562zm-50.737 74.933q8.315 8.424 21.105 8.421 12.791 0 21.212-8.42 8.419-8.42 8.42-21.639 0-13.215-8.42-21.638-8.424-8.418-21.212-8.42-12.79 0-21.105 8.42-8.314 8.425-8.314 21.638 0 13.22 8.314 21.638z" id="path840"/><path class="cls-1" d="M694.052 149.677q-24.093 0-40.185-16.202-16.098-16.198-16.095-40.078 0-23.873 16.095-40.078 16.094-16.198 40.185-16.201a55.255 55.255 0 0128.353 7.461 49.635 49.635 0 0119.4 20.039L718.14 78.475a24.144 24.144 0 00-9.7-10.446 28.196 28.196 0 00-14.603-3.837q-12.366 0-20.465 8.207-8.104 8.209-8.1 20.998 0 12.581 8.1 20.786 8.1 8.208 20.465 8.207a29.225 29.225 0 0014.816-3.73 23.485 23.485 0 009.7-10.34l23.877 13.643a53.362 53.362 0 01-19.826 20.146 54.668 54.668 0 01-28.353 7.568z" id="path842"/><path class="cls-1" d="M801.734 149.677q-24.093 0-40.185-16.202-16.098-16.198-16.095-40.078 0-23.873 16.095-40.078 16.094-16.198 40.185-16.201a55.255 55.255 0 0128.353 7.461 49.635 49.635 0 0119.4 20.039l-23.664 13.857a24.144 24.144 0 00-9.7-10.446 28.196 28.196 0 00-14.602-3.837q-12.366 0-20.465 8.207-8.105 8.209-8.101 20.998 0 12.581 8.1 20.786 8.1 8.208 20.466 8.207a29.225 29.225 0 0014.816-3.73 23.485 23.485 0 009.7-10.34l23.876 13.643a53.361 53.361 0 01-19.826 20.146 54.668 54.668 0 01-28.353 7.568z" id="path844"/><path class="cls-1" d="M940.054 40.102h27.5v106.59h-27.5v-12.577q-12.367 15.564-34.749 15.562-21.32 0-36.56-16.308-15.245-16.309-15.243-39.972 0-23.663 15.243-39.971 15.239-16.308 36.56-16.308 22.384 0 34.749 15.562zm-50.737 74.933q8.314 8.424 21.105 8.421 12.79 0 21.21-8.42 8.42-8.42 8.422-21.639 0-13.215-8.421-21.638-8.424-8.418-21.211-8.42-12.791 0-21.105 8.42-8.314 8.425-8.314 21.638 0 13.22 8.314 21.638z" id="path846"/><path class="cls-1" d="M1097.577 37.118q18.332 0 29.312 11.938 10.977 11.941 10.98 31.977v65.66h-27.501V82.95q0-9.593-4.69-14.922-4.692-5.326-13.218-5.33-9.383 0-14.603 6.182-5.226 6.186-5.222 17.908v59.904h-27.5V82.95q0-9.593-4.69-14.922-4.692-5.326-13.218-5.33-9.169 0-14.603 6.182-5.436 6.186-5.436 17.908v59.904h-27.5V40.102h27.5v11.299q9.593-14.28 29.632-14.283 19.611 0 28.993 15.349 10.657-15.35 31.764-15.35z" id="path848"/><path class="cls-1" d="M1233.177 40.102h27.5v106.59h-27.5v-12.577q-12.367 15.564-34.75 15.562-21.319 0-36.56-16.308-15.244-16.309-15.242-39.972 0-23.663 15.243-39.971 15.238-16.308 36.56-16.308 22.384 0 34.749 15.562zm-50.737 74.933q8.313 8.424 21.104 8.421 12.791 0 21.212-8.42 8.419-8.42 8.42-21.639 0-13.215-8.42-21.638-8.424-8.418-21.212-8.42-12.79 0-21.104 8.42-8.314 8.425-8.314 21.638 0 13.22 8.314 21.638z" id="path850"/><path d="M159.663 159.92q-27.211 26.953-66.227 26.953-39.021 0-66.227-26.953Q-.002 132.967 0 93.437 0 53.91 27.21 26.953 54.414 0 93.435 0q39.015 0 66.227 26.953 27.205 26.953 27.21 66.484 0 39.532-27.21 66.483zM56.087 131.94q15.017 14.89 37.35 14.889 22.331 0 37.348-14.889 15.017-14.884 15.017-38.503 0-23.614-15.017-38.505-15.016-14.884-37.349-14.888-22.332 0-37.349 14.888-15.016 14.89-15.016 38.505 0 23.62 15.016 38.503z" id="path852" fill="url(#linearGradient941)"/><path id="rect854" fill="url(#New_Gradient_Swatch_copy_5-2)" d="M183.279 3.594h41.071v179.685h-41.071z"/></svg>