<svg xmlns="http://www.w3.org/2000/svg" width="305" height="90"><g fill="none"><path fill="#04151F" d="M98.161 45.352c0-12.922 9.88-21.642 22.947-21.642 10.942 0 16.444 6.399 18.945 12.17l-10.88 5.08c-1.063-3.26-4.314-6.084-8.065-6.084-6.065 0-10.13 4.642-10.13 10.476 0 5.834 4.065 10.476 10.13 10.476 3.751 0 7.002-2.823 8.065-6.085l10.88 5.019c-2.439 5.583-8.003 12.232-18.945 12.232-13.068 0-22.947-8.782-22.947-21.642zm74.527-.062c0-5.646-3.251-9.85-10.004-9.85h-6.065V55.2h6.003c6.315 0 10.066-4.641 10.066-9.91zM143.99 66.242V24.4h18.633c13.13 0 22.884 7.528 22.884 20.89 0 13.36-9.754 20.952-22.822 20.952H143.99zm74.027 0l-15.38-21.204v21.204h-12.63V24.4h13.004l14.506 19.823V24.4h12.63v41.842h-12.13zm23.007 0l13.194-30.801h-19.57V24.4h34.075v8.782l-13.88 33.059h-13.819zm36.103 0l13.193-30.801h-19.57V24.4h34.075v8.782l-13.88 33.059h-13.818zM38.048 0C17.035 0 0 17.195 0 38.406c0 21.21 38.048 51.208 38.048 51.208s38.05-29.997 38.05-51.208C76.097 17.196 59.061 0 38.047 0"/><path fill="#FFE115" d="M38.048 13.715c-12.81 0-23.193 10.481-23.193 23.412 0 12.93 10.383 23.412 23.193 23.412 12.81 0 23.194-10.483 23.194-23.412 0-12.931-10.384-23.412-23.194-23.412"/><path fill="#04151F" d="M38.047 26.564c-5.778 0-10.462 4.73-10.462 10.563 0 5.832 4.684 10.561 10.462 10.561 5.779 0 10.465-4.729 10.465-10.561 0-5.833-4.686-10.563-10.465-10.563"/></g></svg>