<svg xmlns="http://www.w3.org/2000/svg" width="332.5" height="67.802" viewBox="0 0 249.375 50.852" version="1.2"><path d="M79.617 35.68c-1.777 1.777-4.219 2.703-6.555 2.703-5.105 0-9.363-3.7-9.363-9.293 0-5.625 4.07-9.293 9.363-9.293 2.336 0 4.852.965 6.665 2.742l-.739.703c-1.554-1.629-3.812-2.37-5.96-2.37-4.407 0-8.22 2.85-8.22 8.218 0 5.258 3.778 8.219 8.255 8.219 2.074 0 4.257-.778 5.816-2.368zM87.5 19.945v2l-.11 2.516c.887-2.773 3.555-4.664 6.59-4.664 1.11 0 2.407.262 3.555.89l-.484.926a6.42 6.42 0 00-3.07-.777c-3.665.035-6.407 3.144-6.407 6.477v10.921h-1.148V19.945zm29.984 14.848c-1.738 2.406-4.96 3.59-7.921 3.59-4.848 0-9.11-3.367-9.11-9.254 0-5.594 3.926-9.406 9.07-9.406 4.926 0 9.813 2.851 9.11 9.922h-17.067c.407 5.218 4.07 7.664 7.997 7.664 2.59 0 5.624-1.149 7.07-3.145zm.149-6.184c.148-5.074-3.074-7.812-8.11-7.812-4.293 0-7.625 2.816-7.957 7.812zm23.691 9.625v-2.332l.219-2.629c-1.258 3.555-4.961 5.223-8.145 5.184-5.035 0-9.253-3.555-9.253-9.367 0-5.738 4.148-9.367 9.18-9.367 3.37 0 7.222 1.777 8.218 5.406l-.219-2.961v-2.223h1.11v18.29zm-16.07-9.144c0 5.219 3.742 8.293 8.183 8.293 5.555 0 7.922-3.996 7.922-8.477 0-4.297-2.703-8.11-8.07-8.11-4.441 0-8.035 3.11-8.035 8.294m28.691-14.77v5.625h6.516v.965h-6.516v11.883c0 2.664.407 4.664 3.625 4.664.926 0 2.332-.441 3.297-.926l.48.926c-1.109.594-2.59 1.035-3.702 1.035-3.848-.035-4.813-2.11-4.813-5.699V20.91h-3.996v-.965h3.996V14.43zm14.102-.554c0 1.332-1.965 1.332-1.965 0 0-1.262 1.965-1.262 1.965 0m-1.594 24.468h1.113V19.945h-1.113zm28.578 0h-1.996l-2.965-7.996-2.218-7.11-2.297 7.145-2.961 7.961h-2l-6.516-18.289h2l5.516 16.18 5.59-16.18h1.296l5.551 16.18 5.48-16.18h2zm10.957-9.144c0-5.48 4.145-9.438 9.293-9.438 5.145 0 9.735 3.145 9.031 10.29H207.84c.367 4.296 3.664 6.812 7.441 6.812 2.403 0 5.219-.961 6.59-2.777l1.293 1.039c-1.777 2.332-4.96 3.515-7.883 3.515-5.148 0-9.293-3.629-9.293-9.441m16.696-.738c-.04-4.52-3-7.036-7.403-7.036-3.777 0-7.035 2.555-7.441 7.036zm9.918-16.032v11.625c1.48-2.965 4.441-4.297 7.59-4.297 5.109 0 9.183 3.407 9.183 9.442 0 6.074-4.04 9.441-9.148 9.441-3.106 0-6.106-1.554-7.625-4.332v4.035h-1.778V12.32zm.039 16.735c0 4.55 3.183 7.699 7.476 7.699 4.11 0 7.477-2.59 7.477-7.664 0-5.145-3.367-7.7-7.477-7.7-4.219 0-7.476 3.11-7.476 7.665" fill="#595c61"/><path d="M0 50.852h50.852V0H0zM16.688 9.629c2.496-2.563 5.503-3.652 9.093-3.652 6.274 0 11.942 5.414 11.942 12.199 0 2.086-.368 3.91-1.157 5.57h-2.414l-1.047 4.379c-.73.61-1.5 1.098-2.296 1.48l.011.012a10.2 10.2 0 01-1.113.45h-.008c-.125.042-.246.09-.37.124v-6.617c1.948-1.16 3.077-3.097 3.077-5.207 0-3.777-3.23-6.34-6.914-6.34-3.844 0-7.043 2.63-7.043 6.375 0 2.102 1.031 3.938 3.078 5.2v6.558a11.207 11.207 0 01-1.367-.562c-.094-.043-.187-.082-.277-.125l.008-.012a12.338 12.338 0 01-2.125-1.336l-1.032-4.379h-2.437a12.447 12.447 0 01-1.164-5.281c0-3.297 1.152-6.403 3.555-8.836m17.64 35.246h-5.312L25.46 31.477h-.066L21.84 44.875h-5.473L10.25 24.172h6.148l3.168 13.457h.067l1.828-7.05c.355.12.496.163.496.163l-.012-2.035 1.176-4.535h4.645l1.136 4.488-.011 2.082s.14-.043.5-.164l1.8 7.106h.063l3.234-13.512h6.117zm0 0" fill="#d9022b"/></svg>