<svg width="233.484" height="65.833" viewBox="0 0 175.113 49.375" version="1.2" xmlns="http://www.w3.org/2000/svg"><path d="M0 25.906v-.496C0 12.336 8.742 2.902 20.688 2.902c9.171 0 16.93 4.871 17.855 14.43h-5.297C32.141 10.609 28.262 7.156 20.75 7.156c-9.113 0-15.207 7.094-15.207 18.196v.492c0 11.226 5.664 18.008 15.145 18.008 7.203 0 12.19-3.637 13.296-10.793h4.989c-1.54 10.18-8.559 15.171-18.41 15.171C7.82 48.23 0 39.473 0 25.906m44.883-10.484h5.11v5.797c2.03-3.637 4.8-6.168 10.589-6.352v4.809c-6.465.308-10.59 2.344-10.59 10.3v17.7h-5.11zM87.18 28.434c-.496-6.66-3.942-9.313-9.239-9.313-5.234 0-8.742 3.578-9.605 9.313zm-24.32 3.453v-.492c0-9.747 6.214-16.528 15.081-16.528 7.45 0 14.47 4.5 14.47 16.035v1.664h-24.26c.246 7.34 3.754 11.41 10.344 11.41 4.988 0 7.879-1.851 8.559-5.609h5.11c-1.106 6.473-6.466 9.863-13.731 9.863-9.11 0-15.575-6.414-15.575-16.343m58.857-.121v-.496c0-8.262-3.938-12.149-10.219-12.149-6.406 0-10.223 4.504-10.223 12.336v.492c0 8.14 4.372 12.028 9.793 12.028 5.97 0 10.649-3.946 10.649-12.211m-25.735.433v-.496c0-9.867 6.157-16.836 15.024-16.836 5.355 0 8.68 2.59 10.527 5.735V0h5.11v47.676h-5.11v-5.551c-1.847 3.148-6.34 6.105-11.02 6.105-8.437 0-14.53-5.98-14.53-16.03m71.249 12.28a3.932 3.932 0 013.942-3.949 3.932 3.932 0 013.941 3.95 3.931 3.931 0 01-3.941 3.945 3.931 3.931 0 01-3.942-3.946"/><path d="M159.18 32.484v-.437c0-7.52-4.16-18.832-10.61-18.832-6.52 0-10.613 11.312-10.613 18.77v.5c0 7.394 4.035 12.242 10.613 12.242 6.512 0 10.61-4.91 10.61-12.243m-26.559 0v-.5c0-9.757 6.766-24.074 15.95-24.074 9.179 0 15.94 14.254 15.94 24.012v.5c0 9.82-6.66 16.953-15.906 16.953-9.242 0-15.984-7.383-15.984-16.89" fill="#f37f1e"/></svg>