<svg xmlns="http://www.w3.org/2000/svg" width="335.68" height="228.8"><defs><linearGradient x1="76.265" y1="115.391" x2="175.49" y2="115.391" gradientUnits="userSpaceOnUse" gradientTransform="scale(10)" spreadMethod="pad" id="a"><stop offset="0" stop-color="#ff3e89"/><stop offset="1" stop-color="#00c2cb"/></linearGradient></defs><path d="M17.256 201.573c-4.993 0-9.118-1.66-12.373-4.977C1.628 193.277 0 189.184 0 184.317c0-4.898 1.628-8.998 4.883-12.3 3.255-3.303 7.38-4.954 12.373-4.954 3.001 0 5.775.702 8.319 2.109 2.544 1.407 4.528 3.31 5.949 5.712l-5.641 3.27c-.822-1.485-1.99-2.646-3.508-3.483-1.516-.838-3.223-1.256-5.119-1.256-3.224 0-5.824 1.01-7.799 3.033-1.974 2.023-2.962 4.647-2.962 7.87 0 3.191.988 5.8 2.962 7.822 1.975 2.023 4.575 3.033 7.8 3.033 1.895 0 3.61-.418 5.141-1.256 1.534-.837 2.695-1.982 3.485-3.437l5.641 3.27c-1.421 2.403-3.397 4.307-5.926 5.714-2.527 1.405-5.308 2.11-8.342 2.11m33.847-24.367h6.54l-8.64 23.74c-1.232 3.385-2.867 5.845-4.903 7.38-2.035 1.533-4.568 2.22-7.598 2.064v-5.69c1.643.032 2.947-.316 3.912-1.042.962-.727 1.729-1.896 2.298-3.508l-9.719-22.944h6.684l6.182 15.932 5.244-15.932m23.227-.664c3.193 0 5.918 1.21 8.178 3.626 2.26 2.419 3.39 5.382 3.39 8.89 0 3.508-1.13 6.47-3.39 8.888-2.26 2.417-4.985 3.626-8.177 3.626-3.319 0-5.878-1.153-7.68-3.461v2.797h-6.115v-33.182h6.115v12.277c1.802-2.307 4.361-3.461 7.68-3.461zm-5.83 17.326c1.232 1.25 2.797 1.874 4.693 1.874 1.897 0 3.468-.624 4.716-1.874 1.25-1.248 1.874-2.852 1.874-4.81 0-1.96-.624-3.564-1.874-4.812-1.248-1.249-2.82-1.872-4.716-1.872-1.896 0-3.461.623-4.693 1.872-1.232 1.248-1.85 2.851-1.85 4.812 0 1.958.618 3.562 1.85 4.81m26.879-2.299c.821 2.971 3.05 4.457 6.684 4.457 2.339 0 4.108-.791 5.309-2.37l4.93 2.845c-2.338 3.38-5.783 5.071-10.334 5.071-3.919 0-7.064-1.185-9.433-3.556-2.371-2.37-3.556-5.356-3.556-8.958 0-3.573 1.169-6.551 3.507-8.936 2.34-2.387 5.342-3.58 9.007-3.58 3.478 0 6.346 1.2 8.604 3.604 2.26 2.4 3.391 5.372 3.391 8.912 0 .789-.08 1.626-.237 2.512zm-.095-4.74h12.088c-.348-1.611-1.067-2.813-2.157-3.602-1.09-.79-2.331-1.185-3.722-1.185-1.642 0-3 .418-4.076 1.255-1.074.838-1.785 2.016-2.133 3.533m28.586-5.547c.567-1.517 1.509-2.655 2.82-3.413 1.312-.759 2.773-1.138 4.385-1.138v6.826c-1.866-.22-3.532.158-5.002 1.138-1.469.98-2.204 2.607-2.204 4.883v11.33h-6.116v-23.703h6.116v4.077m43.518-13.557v33.182h-6.495v-21.521l-9.357 15.395-.764.026-9.315-15.34v21.44h-6.541v-33.182h6.73l9.516 15.668 9.467-15.668h6.759m23.892 9.48h6.116v23.702h-6.116v-2.797c-1.834 2.308-4.408 3.461-7.727 3.461-3.16 0-5.87-1.209-8.13-3.626-2.26-2.418-3.39-5.38-3.39-8.888s1.13-6.471 3.39-8.89c2.26-2.417 4.97-3.626 8.13-3.626 3.319 0 5.893 1.154 7.727 3.461zm-11.283 16.662c1.233 1.25 2.797 1.874 4.693 1.874 1.896 0 3.468-.624 4.718-1.874 1.248-1.248 1.872-2.852 1.872-4.81 0-1.96-.624-3.564-1.872-4.812-1.25-1.249-2.822-1.872-4.718-1.872s-3.46.623-4.693 1.872c-1.232 1.248-1.848 2.851-1.848 4.812 0 1.958.616 3.562 1.848 4.81m41.1-16.662h5.973v22.565c0 3.665-1.209 6.463-3.626 8.39-2.418 1.929-5.334 2.893-8.746 2.893-2.56 0-4.812-.491-6.756-1.471a10.28 10.28 0 01-4.48-4.313l5.215-2.987c1.201 2.212 3.27 3.319 6.21 3.319 1.929 0 3.445-.506 4.551-1.518 1.107-1.01 1.659-2.449 1.659-4.313v-2.56c-1.801 2.402-4.33 3.603-7.584 3.603-3.35 0-6.155-1.178-8.415-3.532-2.26-2.355-3.389-5.223-3.389-8.604 0-3.35 1.137-6.21 3.413-8.58 2.275-2.37 5.072-3.556 8.391-3.556 3.255 0 5.783 1.2 7.584 3.604zm-11.4 16.14c1.248 1.218 2.836 1.826 4.764 1.826 1.928 0 3.516-.608 4.764-1.825 1.248-1.216 1.872-2.773 1.872-4.67 0-1.863-.624-3.405-1.872-4.62-1.248-1.218-2.836-1.826-4.764-1.826-1.928 0-3.516.608-4.764 1.825-1.25 1.216-1.873 2.758-1.873 4.622 0 1.896.624 3.453 1.873 4.669m36.099-16.805c2.59 0 4.732.869 6.422 2.608 1.691 1.739 2.536 4.14 2.536 7.205v14.553h-6.114v-13.794c0-1.58-.427-2.79-1.28-3.627-.854-.837-1.991-1.256-3.414-1.256-1.58 0-2.844.49-3.792 1.47s-1.422 2.449-1.422 4.408v12.8h-6.115v-23.703h6.115v2.654c1.485-2.212 3.84-3.318 7.064-3.318m34.368 21.404c-2.434 2.417-5.404 3.626-8.912 3.626-3.508 0-6.471-1.209-8.888-3.626-2.418-2.418-3.627-5.38-3.627-8.888s1.21-6.471 3.627-8.89c2.417-2.417 5.38-3.626 8.888-3.626s6.478 1.21 8.912 3.626c2.433 2.419 3.65 5.382 3.65 8.89 0 3.508-1.217 6.47-3.65 8.888zm-13.487-4.196c1.217 1.233 2.741 1.849 4.575 1.849 1.833 0 3.365-.616 4.598-1.85 1.232-1.231 1.848-2.795 1.848-4.691s-.616-3.462-1.848-4.694c-1.233-1.233-2.765-1.849-4.598-1.849-1.834 0-3.358.616-4.575 1.85-1.216 1.231-1.825 2.797-1.825 4.693 0 1.896.609 3.46 1.825 4.692m21.451 7.159v-34.606h6.116v34.605h-6.116m14.743-26.546c-1.011 0-1.889-.37-2.631-1.114-.743-.742-1.114-1.62-1.114-2.632 0-1.01.371-1.896 1.114-2.654.742-.759 1.62-1.138 2.63-1.138 1.044 0 1.936.38 2.679 1.138.743.758 1.115 1.644 1.115 2.654 0 1.012-.372 1.89-1.115 2.632-.743.743-1.635 1.114-2.679 1.114zm-3.034 26.546v-23.702h6.115v23.702h-6.115m29.723-23.702h6.116v23.702h-6.116v-2.797c-1.834 2.308-4.408 3.461-7.727 3.461-3.16 0-5.87-1.209-8.13-3.626-2.26-2.418-3.39-5.38-3.39-8.888s1.13-6.471 3.39-8.89c2.26-2.417 4.97-3.626 8.13-3.626 3.319 0 5.893 1.154 7.727 3.461zm-11.283 16.662c1.233 1.25 2.797 1.874 4.693 1.874 1.896 0 3.47-.624 4.718-1.874 1.248-1.248 1.872-2.852 1.872-4.81 0-1.96-.624-3.564-1.872-4.812-1.248-1.249-2.822-1.872-4.718-1.872s-3.46.623-4.693 1.872c-1.232 1.248-1.848 2.851-1.848 4.812 0 1.958.616 3.562 1.848 4.81" fill="#37404e"/><path d="M1057.74 1496.44c.02 15.59 1.74 31.8 5.9 48.19 15.23 59.96 61.85 124.46 181.56 165.64 3.28 1.13 10.48 5.76 10.48 5.76l10.49-5.76c119.7-41.18 164.99-105.3 181.55-165.64 4.18-15.2 6.11-30.31 6.45-44.93 13.51 7.77 28.41 14.39 44.69 18.98 59.53 16.79 138.71 8.67 234.23-74.41 2.62-2.28 11.25-6.45 11.25-6.45l-.77-11.71c24.19-124.26-8.7-195.54-52.67-240.05-11.08-11.22-23.2-20.45-35.69-28.05 13.49-7.81 26.67-17.41 38.78-29.21 44.31-43.16 76.86-115.79 52.68-240.05-.67-3.41-.2-12.211-.2-12.211l-10.29-5.949c-95.52-83.078-173.69-90.238-234.23-74.41-13.99 3.66-26.97 8.91-38.93 15.172-1.07.097-2.14.25-3.21.457-.11-15.2-1.85-30.989-5.9-46.938-15.22-59.949-61.85-124.461-181.55-165.641-3.29-1.128-10.77-7.449-10.77-7.449l-10.2 7.449c-119.71 41.18-165 105.301-181.56 165.641-4.17 15.199-6.11 30.32-6.44 44.93-13.51-7.77-28.42-14.391-44.69-18.981-59.54-16.789-138.712-8.672-234.231 74.41-2.617 2.282-12.481 5.02-12.481 5.02l1.992 13.141c-24.179 124.259 8.7 195.539 52.68 240.049 7.512 7.61 15.5 14.3 23.77 20.19a31.194 31.194 0 007.558 10.45c-11.957 7.32-23.617 16.09-34.429 26.62-44.297 43.16-76.86 115.79-52.668 240.05.66 3.41-.821 13.56-.821 13.56l11.301 4.6c95.52 83.08 173.699 90.24 234.229 74.41 15.26-3.99 29.31-9.86 42.14-16.88zm237.67-529.241c-2.77-.551-5.56-1.039-8.37-1.461V786.59c0-17.301-14.05-31.352-31.36-31.352-17.3 0-31.35 14.051-31.35 31.352v179.93c-.62.109-1.23.218-1.85.332-20.01-56.922-57.5-79.063-57.5-79.063a31.296 31.296 0 00-21.66-4.578 270.066 270.066 0 00-6.33-8.332c-8.44-24.379-15.43-58.899-6.37-94.57 11.12-43.789 47.51-87.188 131.25-118.231 83.75 31.043 120.14 74.442 131.26 118.231 9.27 36.511 1.73 71.832-6.98 96.293-2.73 3.41-5.23 6.679-7.48 9.757a31.32 31.32 0 00-26.37 3.481s-36.74 21.699-56.89 77.359zM934.262 1115.02c-21.063-6.46-44.371-17.53-63.84-36.5-32.371-31.53-51.75-84.739-36.762-172.782 68.75-57.008 124.531-66.828 168.01-54.558 5.5 1.55 27.08 12.308 32.54 16.761 20.5 16.719 32.59 38.969 31.17 61.52-.86 13.551-6.13 26.629-17.01 34.609-12.83 9.399-31.85 10.852-56.761 3.371l-40.269-23.242c-14.981-8.648-34.18-3.508-42.828 11.481-8.653 14.98-3.512 34.179 11.476 42.832l40.262 23.248c18.922 17.83 27.191 35.03 25.461 50.85-1.473 13.4-10.16 24.51-21.473 32.03-8.707 5.79-19.136 9.53-29.976 10.38zm715.968-31.14c-6.11 5.96-28.35 20.22-34.01 22.55-32.83 13.47-50.28 10.71-69.09-1.79-5.03-3.35-10.02-6.99-13.14-12.05-3.61-5.87-7.1-15.07-8.54-23.18-2.82-15.86 8.01-31.01 25.67-47.65l40.26-23.248c14.99-8.653 20.13-27.852 11.48-42.832-8.66-14.989-27.85-20.129-42.84-11.481l-40.26 23.242c-24.5 7.348-43.31 6.079-56.13-2.921-5.04-4.219-9.22-9.02-12.35-14.532-3.13-6.25-4.84-13.316-5.29-20.527-.72-11.449 1.72-23.449 7.43-33.973 16.36-15.679 38.29-31.258 65.56-38.949 43.48-12.269 99.26-2.449 168.01 54.563 14.99 88.039-4.39 141.248-36.76 172.778zm-484.82 17.39c-59.32 53.33-108.44 58.32-134.95 55.54 16.28-79.59 54.7-146.39 115.56-200.232 15.66 21.563 35.93 66.612 19.39 144.692zm311.31 18.28c4.03 12.74 7.41 25.84 10.15 39.31-26.5 2.78-75.65-2.18-135-55.54-16.53-78.04 3.72-123.082 19.37-144.648 10.48 9.289 20.3 18.957 29.47 29.019 6.69 6.508 12.49 13.509 17.52 20.699 18.73 23.91 34.08 49.77 46.03 77.59 4.55 10.58 9.03 21.77 12.46 33.57zm-120.86 121.92c-22.93-15.22-51.99-29.21-88.82-40.24-2.92-.87-5.95-1.31-8.99-1.31h-2.37c-3.04 0-6.07.44-8.99 1.31-36.03 10.79-64.62 24.42-87.3 39.25a129.768 129.768 0 01-24.21-42.31c24.64-12.24 51.32-30.42 79.3-56.83 2.22-2.09 4.11-4.49 5.64-7.12l1.18-2.05c1.52-2.64 2.65-5.48 3.35-8.45 8.69-36.61 11.18-68.2 9.67-95.28 7.7-1.42 15.63-2.16 23.73-2.16 8.56 0 16.92.82 25.02 2.41-1.72 27.45.68 59.64 9.56 97.08.7 2.97 1.83 5.81 3.35 8.45l1.19 2.05a31.51 31.51 0 005.63 7.12c27.37 25.83 53.48 43.78 77.69 56.02-5.53 15.6-13.96 29.84-24.63 42.06zm-278.56 158.68c-16.89 19.51-43.3 42.82-78.722 52.81-43.476 12.27-99.258 2.45-168.008-54.56-14.992-88.04 4.391-141.25 36.75-172.78 26.989-26.29 61.352-37.41 86.879-42.1 3.352.51 6.563.94 9.59 1.3a31.367 31.367 0 0016.531 22.81s37.15 20.96 95.43 10.59c.53 1.55 1.08 3.09 1.65 4.62l-157.412 90.88c-14.988 8.66-20.129 27.85-11.476 42.84 8.648 14.98 27.847 20.13 42.828 11.47l157.12-90.71c1.15 1.41 2.32 2.81 3.5 4.19-39.32 45.8-39.76 89.37-39.76 89.37a31.383 31.383 0 007.96 22.34c-.94 2.2-1.9 4.51-2.86 6.93zm484.74-210.93c25.34 4.87 58.74 16.08 85.1 41.76 32.36 31.53 51.75 84.74 36.75 172.78-68.75 57.01-124.52 66.83-168.01 54.56-36.26-10.22-63.07-34.41-79.9-54.19a273.34 273.34 0 00-3.86-9.4c6.26-6.12 9.83-14.74 9.41-23.85 0 0-.43-42.7-38.59-87.99 1.07-1.22 2.13-2.46 3.17-3.72l153.91 88.86c14.99 8.66 34.18 3.51 42.84-11.47 8.65-14.99 3.51-34.18-11.48-42.84l-153.52-88.63c.65-1.71 1.28-3.42 1.89-5.15 59.29 11.14 97.21-10.26 97.21-10.26a31.33 31.33 0 0015.74-19.26c2.93-.33 6.05-.73 9.34-1.2zm-189.59 163.65c-77.07 25.7-154.13 25.83-231.19.04 10.85-24.34 39.72-64.43 115.61-89.14 75.84 24.7 104.73 64.76 115.58 89.1zm18.65 146.71c-.34 9.65-1.61 19.59-4.16 29.62-11.12 43.79-47.51 87.18-131.26 118.22-83.74-31.04-120.13-74.43-131.25-118.22-2.55-10.03-3.83-19.97-4.16-29.62.35-2.33.44-4.74.24-7.19-.13-1.56-.19-3.11-.19-4.65.11-2.57.27-5.11.5-7.62 2.77-20.75 16.73-37.43 33.73-45.87 12.16-6.03 26.13-8.01 38.47-2.57 14.56 6.41 25.32 22.16 31.31 47.47v46.49c0 17.31 14.05 31.36 31.35 31.36 17.31 0 31.36-14.05 31.36-31.36v-46.49c5.99-25.31 16.75-41.06 31.31-47.47 12.34-5.44 26.31-3.46 38.47 2.57 17 8.44 30.96 25.12 33.73 45.87.22 2.51.39 5.05.5 7.62 0 1.54-.06 3.09-.19 4.65-.2 2.45-.11 4.86.24 7.19" fill="url(#a)" fill-rule="evenodd" transform="matrix(.13333 0 0 -.13333 0 228.8)"/><path d="M39.284 225.983l2.155-6.947h1.464l2.154 6.947 2.431-6.947h1.753l-3.37 9.654h-1.615l-2.03-6.616h-.111l-2.03 6.616H38.47l-3.37-9.654h1.754l2.43 6.947m21.013-4.668c-.658-.682-1.466-1.023-2.424-1.023-.957 0-1.765.341-2.424 1.023-.658.68-.986 1.508-.986 2.478 0 .972.328 1.798.986 2.479.659.681 1.467 1.023 2.424 1.023.958 0 1.766-.342 2.424-1.023.66-.681.988-1.507.988-2.479 0-.97-.329-1.797-.988-2.478zm1.195 6.042c-.976.952-2.183 1.43-3.619 1.43-1.436 0-2.642-.478-3.618-1.43-.976-.953-1.464-2.14-1.464-3.564 0-1.422.488-2.61 1.464-3.562.976-.954 2.182-1.43 3.618-1.43s2.643.476 3.62 1.43c.975.952 1.463 2.14 1.463 3.562 0 1.423-.488 2.611-1.464 3.564m7.913 1.333h-1.629v-9.654h2.541l2.915 6.062 2.913-6.062h2.528v9.654h-1.63v-7.54l-3.37 6.697h-.912l-3.356-6.698v7.54m21.491-9.653v1.532h-5.152v2.556h4.627v1.45h-4.627v2.582h5.317v1.534h-6.946v-9.654h6.78m12.252 0h1.629v9.654h-1.768l-5.47-7.045v7.045H95.91v-9.654h1.63l5.608 7.21v-7.21m6.793 3.397v-3.397h1.078v3.397h-1.078m9.164-2.126c-.474 0-.864.096-1.168.289-.304.194-.456.485-.456.877 0 .391.152.691.456.898.304.208.951.43 1.942.67.99.24 1.735.575 2.237 1.008.501.432.752 1.07.752 1.912 0 .843-.317 1.527-.953 2.053-.635.524-1.468.786-2.499.786-1.51 0-2.85-.52-4.02-1.56l1.023-1.23c.976.847 1.988 1.271 3.038 1.271.524 0 .941-.113 1.25-.338.308-.226.462-.526.462-.898 0-.373-.145-.664-.434-.87-.291-.207-.79-.396-1.499-.567-.71-.17-1.248-.327-1.616-.47a3.679 3.679 0 01-.98-.558c-.572-.433-.857-1.096-.857-1.99 0-.893.325-1.58.974-2.064.65-.483 1.452-.724 2.41-.724.617 0 1.229.1 1.837.302a4.793 4.793 0 011.575.857l-.871 1.23c-.285-.26-.672-.471-1.16-.636a4.485 4.485 0 00-1.443-.248m18.735.22v8.163h-1.63v-8.163h-2.929v-1.491h7.487v1.49h-2.928m14.239-1.49v1.532h-5.152v2.556h4.626v1.45h-4.626v2.582h5.317v1.534h-6.947v-9.654h6.782m9.418 8.176c.563 0 1.046-.095 1.451-.284.405-.188.828-.49 1.27-.904l1.05 1.078c-1.021 1.131-2.263 1.698-3.721 1.698-1.46 0-2.671-.47-3.634-1.41-.961-.938-1.442-2.126-1.442-3.562s.49-2.633 1.47-3.59c.982-.958 2.219-1.436 3.715-1.436 1.497 0 2.747.551 3.75 1.657l-1.035 1.132c-.46-.442-.896-.75-1.306-.926-.409-.174-.89-.262-1.442-.262-.976 0-1.796.316-2.459.946-.663.631-.995 1.436-.995 2.416 0 .982.33 1.8.988 2.459.658.659 1.439.988 2.34.988m8.522 1.478v-9.654h1.63v4.184h4.792v-4.184h1.63v9.654h-1.63v-3.95h-4.792v3.95h-1.63m24.446-1.478c.562 0 1.044-.095 1.45-.284.405-.188.829-.49 1.27-.904l1.05 1.078c-1.022 1.131-2.263 1.698-3.722 1.698-1.46 0-2.67-.47-3.632-1.41-.962-.938-1.444-2.126-1.444-3.562s.491-2.633 1.471-3.59c.981-.958 2.22-1.436 3.716-1.436s2.745.551 3.75 1.657l-1.037 1.132c-.46-.442-.894-.75-1.305-.926-.41-.174-.89-.262-1.443-.262-.976 0-1.796.316-2.458.946-.663.631-.995 1.436-.995 2.416 0 .982.33 1.8.988 2.459.659.659 1.439.988 2.341.988m15.199-5.897c-.659-.682-1.467-1.023-2.424-1.023-.957 0-1.765.341-2.424 1.023-.659.68-.988 1.508-.988 2.478 0 .972.33 1.798.988 2.479.659.681 1.467 1.023 2.424 1.023.957 0 1.765-.342 2.424-1.023.659-.681.987-1.507.987-2.479 0-.97-.328-1.797-.987-2.478zm1.195 6.042c-.976.952-2.183 1.43-3.619 1.43-1.436 0-2.643-.478-3.619-1.43-.976-.953-1.464-2.14-1.464-3.564 0-1.422.488-2.61 1.464-3.562.976-.954 2.183-1.43 3.619-1.43 1.436 0 2.643.476 3.619 1.43.976.952 1.464 2.14 1.464 3.562 0 1.423-.488 2.611-1.464 3.564m6.284 1.333v-9.654h1.629v8.107h4.405v1.547h-6.034m10.578 0v-9.654h1.631v8.107h4.405v1.547h-6.036m17.362-9.654v1.532h-5.152v2.556h4.626v1.45h-4.626v2.582h5.317v1.534h-6.947v-9.654h6.782m9.418 8.176c.562 0 1.046-.095 1.451-.284.405-.188.828-.49 1.27-.904l1.05 1.078c-1.023 1.131-2.263 1.698-3.723 1.698-1.458 0-2.669-.47-3.632-1.41-.962-.938-1.442-2.126-1.442-3.562s.489-2.633 1.47-3.59c.98-.958 2.219-1.436 3.715-1.436s2.747.551 3.75 1.657l-1.035 1.132c-.462-.442-.896-.75-1.306-.926-.41-.174-.89-.262-1.444-.262-.976 0-1.794.316-2.457.946-.664.631-.995 1.436-.995 2.416 0 .982.33 1.8.987 2.459.659.659 1.439.988 2.341.988m12.169-6.685v8.163h-1.631v-8.163h-2.928v-1.491h7.486v1.49h-2.928m7.458-1.49h1.629v9.654h-1.63v-9.654m11.478 9.654h-1.823l-3.881-9.654h1.823l2.969 7.21 2.97-7.21h1.823l-3.881 9.654m14.806-9.654v1.532h-5.153v2.556h4.627v1.45h-4.627v2.582h5.318v1.534h-6.947v-9.654h6.781" fill="#37404e"/></svg>