<svg xmlns="http://www.w3.org/2000/svg" height="20.653" width="180"><path fill="#010101" d="M15.49 14.002a8.73 8.73 0 01-1 2.93 7.18 7.18 0 01-1.7 2.07 6.39 6.39 0 01-2.29 1.23 9.33 9.33 0 01-2.73.41 8.22 8.22 0 01-3.19-.59 7.69 7.69 0 01-2.5-1.7 5.93 5.93 0 01-1.23-1.7 8.62 8.62 0 01-.62-2 14.26 14.26 0 01-.23-2.09v-4.47a11.52 11.52 0 01.23-2.09 8.23 8.23 0 01.62-2 5.61 5.61 0 011.23-1.71 7.69 7.69 0 012.5-1.7 8.22 8.22 0 013.19-.59 8.55 8.55 0 012.73.41 6.39 6.39 0 012.29 1.23 7.24 7.24 0 011.72 2.08 8.73 8.73 0 011 2.93H10.4a3.74 3.74 0 00-.8-1.52 2.28 2.28 0 00-1.8-.67 2.78 2.78 0 00-1.18.23 2.15 2.15 0 00-.8.62 3.4 3.4 0 00-.31.51 2.44 2.44 0 00-.23.82 8.72 8.72 0 00-.15 1.41c0 .59-.05 1.34-.05 2.29s0 1.7.05 2.29a13.1 13.1 0 00.15 1.41 4.88 4.88 0 00.23.82c.1.18.21.36.31.51a2 2 0 00.8.62 2.78 2.78 0 001.18.23 2.28 2.28 0 001.8-.67 3.74 3.74 0 00.8-1.52h5.1zm0 5.92v-3.79l7.92-11.76h-7.58V.002h13.68v3.79l-7.95 11.76h7.95v4.37zm14.76-.03V.002h14.01v4.37h-8.94v3.33h7.64v4.37h-7.64v3.48h8.94v4.37H30.25zm30.98-5.89a8.73 8.73 0 01-1 2.93 7.18 7.18 0 01-1.7 2.07 6.39 6.39 0 01-2.29 1.23 9.33 9.33 0 01-2.73.41 8.22 8.22 0 01-3.19-.59 7.69 7.69 0 01-2.5-1.7 5.93 5.93 0 01-1.24-1.72 8.62 8.62 0 01-.62-2 14.26 14.26 0 01-.21-2.13v-4.48a11.52 11.52 0 01.25-2.02 8.23 8.23 0 01.62-2 5.61 5.61 0 011.24-1.72 7.69 7.69 0 012.5-1.7 8.22 8.22 0 013.15-.58 8.55 8.55 0 012.73.41 6.39 6.39 0 012.29 1.23 7.24 7.24 0 011.72 2.08 8.73 8.73 0 011 2.93h-5.1a3.74 3.74 0 00-.8-1.52 2.28 2.28 0 00-1.8-.67 2.78 2.78 0 00-1.18.23 2.15 2.15 0 00-.8.62 3.4 3.4 0 00-.31.51 2.44 2.44 0 00-.23.82 8.72 8.72 0 00-.15 1.41c0 .59-.05 1.34-.05 2.29s0 1.7.05 2.29a13.1 13.1 0 00.12 1.42 4.88 4.88 0 00.23.82c.1.18.21.36.31.51a2 2 0 00.8.62 2.78 2.78 0 001.18.23 2.28 2.28 0 001.8-.67 3.74 3.74 0 00.8-1.52h5.1zm11.17 5.92v-7.89h-5.37v7.89h-5.06V.002h5.06v7.66h5.37V.002h5.06v19.92zm22.76-5.92a8.73 8.73 0 01-1 2.93 7.18 7.18 0 01-1.7 2.07 6.39 6.39 0 01-2.29 1.23 9.33 9.33 0 01-2.73.41 8.22 8.22 0 01-3.19-.59 7.69 7.69 0 01-2.5-1.7 5.93 5.93 0 01-1.24-1.72 8.62 8.62 0 01-.62-2 14.26 14.26 0 01-.21-2.13v-4.48a11.52 11.52 0 01.22-2.02 8.23 8.23 0 01.62-2 5.61 5.61 0 011.24-1.72 7.69 7.69 0 012.5-1.7 8.22 8.22 0 013.18-.58 8.55 8.55 0 012.73.41 6.39 6.39 0 012.29 1.23 7.24 7.24 0 011.72 2.08 8.73 8.73 0 011 2.93h-5.1a3.74 3.74 0 00-.8-1.52 2.28 2.28 0 00-1.8-.67 2.78 2.78 0 00-1.18.23 2.15 2.15 0 00-.8.62 3.4 3.4 0 00-.31.51 2.44 2.44 0 00-.23.82 8.72 8.72 0 00-.15 1.41c0 .59-.05 1.34-.05 2.29s0 1.7.05 2.29a13.1 13.1 0 00.15 1.41 4.88 4.88 0 00.23.82c.1.18.21.36.31.51a2 2 0 00.8.62 2.78 2.78 0 001.18.23 2.28 2.28 0 001.8-.67 3.74 3.74 0 00.8-1.52h5.1zm11.1 5.87l-3.62-7.39h-1.71v7.39h-5V.002H104a7.42 7.42 0 013 .55 6.71 6.71 0 012.21 1.45 6.08 6.08 0 011.34 2 6.27 6.27 0 01.45 2.39 5.38 5.38 0 01-.31 1.85 6.94 6.94 0 01-.78 1.5 6.4 6.4 0 01-1.06 1.13 7.79 7.79 0 01-1.19.75l4.45 8.29h-5.87zM106 6.362a2 2 0 00-.57-1.4 2.15 2.15 0 00-1.6-.63H101v4h2.84a2 2 0 001.6-.63 1.86 1.86 0 00.56-1.34zm22.35 6.93a7.07 7.07 0 01-4.77 6.84 9 9 0 01-3 .52 8.66 8.66 0 01-3-.52 7.14 7.14 0 01-2.45-1.47 7 7 0 01-2.27-5.37V.002h5v13.17a3.14 3.14 0 00.7 2.22 2.54 2.54 0 002 .77 2.7 2.7 0 002-.77 3.07 3.07 0 00.72-2.22V.002h5v13.3zm13.46 6.63l-6.36-10.02v10.02h-4.88V.002h4.26l6.36 10.02V.002h4.88v19.92zm21.96-5.92a8.73 8.73 0 01-1 2.93 7.18 7.18 0 01-1.7 2.07 6.39 6.39 0 01-2.29 1.23 9.33 9.33 0 01-2.73.41 8.22 8.22 0 01-3.19-.59 7.69 7.69 0 01-2.5-1.7 5.93 5.93 0 01-1.24-1.72 8.62 8.62 0 01-.62-2 14.26 14.26 0 01-.21-2.13v-4.48a11.52 11.52 0 01.22-2.02 8.23 8.23 0 01.62-2 5.61 5.61 0 011.24-1.72 7.69 7.69 0 012.5-1.7 8.22 8.22 0 013.18-.58 8.55 8.55 0 012.73.41 6.39 6.39 0 012.29 1.23 7.24 7.24 0 011.72 2.08 8.73 8.73 0 011 2.93h-5.1a3.74 3.74 0 00-.8-1.52 2.28 2.28 0 00-1.8-.67 2.78 2.78 0 00-1.18.23 2.15 2.15 0 00-.8.62 3.4 3.4 0 00-.31.51 2.44 2.44 0 00-.23.82 8.72 8.72 0 00-.15 1.41c0 .59-.05 1.34-.05 2.29s0 1.7.05 2.29a13.1 13.1 0 00.15 1.41 4.88 4.88 0 00.23.82c.1.18.21.36.31.51a2 2 0 00.8.62 2.78 2.78 0 001.18.23 2.28 2.28 0 001.8-.67 3.74 3.74 0 00.8-1.52h5.1zm11.17 5.92v-7.89h-5.37v7.89h-5.06V.002h5.06v7.66h5.37V.002H180v19.92z"/></svg>