<svg xmlns="http://www.w3.org/2000/svg" width="405" viewBox="0 0 405 304"><path fill="#c72437" d="M100.5 0H405v304.48H100.5z"/><path fill="#fff" d="M206.5 78.1l80.4 82.1v-39.9l-68.8-70.1h-67.8v204.1h67.8v-27.8h-40V78.1h28.4z"/><path fill="#fff" d="M299 226.4l-80.4-82.1v39.8l68.8 70.2h67.9V50.1h-67.9V78h40v148.4H299z"/><path d="M17.8 276.5c0-25.2 13.9-33 28.7-33 16.4 0 29.3 9.1 29.3 33.1V302h-7.6v-6.6H25.3v9.1h-7.5v-28zm7.5 6.4h42.9v-7c0-14.7-8-19-20.5-19-17.3 0-22.4 7.1-22.4 22.4v3.7zm42.9-49.4v-6.3H25.3v9h-7.5v-50.3h18.4v10.2l-10.9.6v18h17.3v-24.2h7.8v24.2h17.8v-21.1l-11.2-.7v-10.2h18.8v50.8h-7.6zM25.3 114.3l50.5.8.3 10.8L34 157.4v.9l34.2-.5V144h7.6v29.1h-7.6v-6.8l-42.9-.6v9.6h-7.5v-20l41.4-31.7v-.9l-33.9.3v13h-7.5v-28.4h7.5v6.7zm0-35.5h42.9V68.7h7.6v29.1h-7.6v-6.6H25.3v9.1h-7.5v-29h7.5v7.4zm-18 14.5L.2 73.5l9-2.6 3.7 20.6zm18-31.9h-7.5v-28h7.5v6.3h17.4v-4.8L25.3 20v6.3h-7.5V1.2h7.5v7.7L44 26.6 68.2 5.4V0h7.6v26.5h-7.6v-5.6l-18 14.7v4.2h18v-7h7.6v26h-7.6v-6.7H25.3v9.3z" fill="#c72437"/></svg>