<svg xmlns="http://www.w3.org/2000/svg" width="675.351" height="144" clip-rule="evenodd" fill-rule="evenodd" stroke-linejoin="round" stroke-miterlimit="2"><path d="M12.726 108l19.547-91.617 21.305-2.813-17.297 80.719c2.625 1.922 5.367 2.883 8.226 2.883 2.86 0 5.532-.891 8.016-2.672 2.484-1.781 4.746-4.207 6.785-7.277 2.039-3.07 3.856-6.668 5.449-10.793 1.594-4.125 2.942-8.543 4.043-13.254a125.49 125.49 0 002.496-14.555c.563-4.992.844-9.926.844-14.801s-.504-9.035-1.512-12.48c-1.007-3.445-2.437-6.258-4.289-8.437-1.851-2.18-4.066-3.774-6.644-4.782-2.578-1.008-5.438-1.511-8.578-1.511-5.344 0-10.313.796-14.907 2.39-4.593 1.594-8.578 3.903-11.953 6.926s-6.023 6.691-7.945 11.004c-1.922 4.312-2.883 9.211-2.883 14.695 0 1.828.106 3.317.317 4.465.211 1.148.433 2.063.668 2.742.234.68.457 1.207.668 1.582.21.375.316.703.316.985-4.828 0-8.602-1.008-11.32-3.024C1.359 46.36 0 42.914 0 38.039c0-3.281.644-6.504 1.933-9.668 1.289-3.164 3.106-6.152 5.449-8.965 2.344-2.812 5.157-5.402 8.438-7.769 3.281-2.367 6.902-4.418 10.863-6.152 3.961-1.735 8.215-3.082 12.762-4.043C43.992.481 48.703 0 53.578 0c4.64 0 8.812.516 12.515 1.547 3.703 1.031 6.985 2.473 9.844 4.324 2.859 1.852 5.309 4.055 7.348 6.61a35.44 35.44 0 014.992 8.437c1.289 3.07 2.238 6.352 2.848 9.844.609 3.492.914 7.066.914 10.723 0 5.484-.493 10.992-1.477 16.523-.984 5.531-2.355 10.828-4.113 15.891-1.758 5.062-3.867 9.785-6.328 14.168-2.461 4.382-5.168 8.191-8.121 11.425-2.954 3.235-6.106 5.778-9.458 7.629-3.351 1.852-6.808 2.778-10.371 2.778-2.812 0-5.671-.61-8.578-1.829-2.906-1.218-5.906-3.164-9-5.835L33.398 108zM175.57 53.297c-2.813 2.953-6.445 5.461-10.899 7.523-4.453 2.063-9.328 3.54-14.625 4.43-.562 6.656-1.839 12.656-3.832 18-1.992 5.344-4.511 9.891-7.558 13.641-3.047 3.75-6.539 6.633-10.477 8.648-3.937 2.016-8.109 3.024-12.515 3.024-3.329 0-6.411-.41-9.247-1.231-2.835-.82-5.273-2.133-7.312-3.937-2.039-1.805-3.633-4.149-4.781-7.032-1.149-2.882-1.723-6.386-1.723-10.511 0-2.813.293-6.012.879-9.598.586-3.586 1.523-7.277 2.812-11.074a66.367 66.367 0 014.993-11.145 42.794 42.794 0 017.453-9.738c2.929-2.859 6.316-5.168 10.16-6.926 3.844-1.758 8.227-2.636 13.148-2.636 12.329 0 18.493 7.664 18.493 22.992v.14c.234.094.457.141.668.141h.878c1.688 0 3.504-.246 5.45-.738a45.18 45.18 0 005.871-1.934 50.17 50.17 0 005.765-2.777 63.146 63.146 0 005.133-3.199zm-37.477 12.375c-1.5-.375-2.519-1.113-3.058-2.215-.539-1.101-.809-2.379-.809-3.832 0-2.015.41-3.668 1.231-4.957.82-1.289 1.91-2.238 3.269-2.848-.094-1.546-.258-2.847-.492-3.902-.234-1.055-.563-1.922-.984-2.601-.422-.68-.95-1.161-1.583-1.442-.632-.281-1.441-.422-2.425-.422-1.735 0-3.399.668-4.992 2.004-1.594 1.336-3.106 3.106-4.536 5.309-1.429 2.203-2.742 4.722-3.937 7.558a74.434 74.434 0 00-3.059 8.754c-.843 3-1.5 5.965-1.968 8.895-.469 2.93-.704 5.59-.704 7.98 0 2.391.129 4.336.387 5.836s.68 2.684 1.266 3.551 1.347 1.465 2.285 1.793c.937.328 2.086.492 3.445.492 1.735 0 3.481-.773 5.238-2.32 1.758-1.547 3.387-3.656 4.887-6.328 1.5-2.672 2.824-5.836 3.973-9.492 1.148-3.657 2.004-7.594 2.566-11.813z" fill-rule="nonzero"/><path d="M173.25 10.055l21.304-2.883-6.89 32.414c1.453-.891 2.753-1.605 3.902-2.144 1.148-.539 2.191-.95 3.129-1.231.937-.281 1.793-.457 2.566-.527a24.272 24.272 0 012.215-.106c2.531 0 4.84.422 6.926 1.266 2.086.844 3.879 2.238 5.379 4.184 1.5 1.945 2.66 4.488 3.48 7.628.821 3.141 1.231 6.985 1.231 11.532 0 2.812-.27 5.965-.809 9.457-.539 3.492-1.418 7.043-2.637 10.652-1.218 3.609-2.836 7.125-4.851 10.547a39.769 39.769 0 01-7.383 9.141c-2.906 2.671-6.328 4.816-10.266 6.433-3.937 1.617-8.461 2.426-13.57 2.426-6.656 0-11.672-1.617-15.047-4.852-3.375-3.234-5.062-7.757-5.062-13.57 0-1.359.07-2.73.211-4.113.14-1.383.398-2.754.773-4.114zm4.64 74.883c-.281 1.218-.422 2.32-.422 3.304 0 4.453 2.532 6.68 7.594 6.68 1.547 0 3.047-.527 4.5-1.582 1.453-1.055 2.801-2.461 4.043-4.219 1.242-1.758 2.379-3.82 3.41-6.187a57.196 57.196 0 002.637-7.453 64.336 64.336 0 001.687-7.981c.399-2.719.598-5.344.598-7.875 0-1.734-.152-3.433-.457-5.097-.305-1.665-.773-3.153-1.406-4.465-.633-1.313-1.43-2.356-2.391-3.129-.961-.774-2.098-1.16-3.41-1.16-.516 0-1.172.035-1.969.105-.797.07-1.617.211-2.461.422-.843.211-1.629.48-2.355.809-.727.328-1.301.75-1.723 1.265zM216.281 108l15.258-72h20.742l-1.828 8.93a128.917 128.917 0 013.867-3.305 29.914 29.914 0 014.113-2.847 24.471 24.471 0 014.465-2.004c1.547-.516 3.187-.774 4.922-.774 1.64 0 3.082.305 4.324.914 1.242.61 2.285 1.406 3.129 2.391.844.984 1.477 2.133 1.898 3.445.422 1.313.633 2.672.633 4.078 0 1.266-.211 2.52-.633 3.762a9.74 9.74 0 01-1.933 3.34c-.867.984-1.957 1.793-3.27 2.426-1.312.632-2.836.949-4.57.949-1.359 0-2.402-.235-3.129-.703-.727-.469-1.277-1.055-1.652-1.758a8.274 8.274 0 01-.809-2.285 37.424 37.424 0 00-.527-2.285c-.188-.704-.434-1.289-.739-1.758-.304-.469-.808-.703-1.511-.703-2.203 0-4.055.504-5.555 1.511-1.5 1.008-3.141 2.332-4.922 3.973L237.023 108zm108 11.531c-1.031 5.157-2.52 9.329-4.465 12.516-1.945 3.188-4.113 5.672-6.504 7.453-2.391 1.781-4.887 2.977-7.488 3.586-2.602.609-5.098.914-7.489.914-2.203 0-4.277-.293-6.222-.879-1.946-.586-3.645-1.453-5.098-2.601-1.453-1.149-2.613-2.602-3.48-4.36-.868-1.757-1.301-3.808-1.301-6.152 0-3 .715-5.648 2.144-7.945 1.43-2.297 3.27-4.301 5.52-6.012 2.25-1.711 4.769-3.176 7.559-4.395a79.528 79.528 0 018.261-3.093l1.758-7.735c-1.547 1.688-3.094 3.059-4.641 4.114-1.546 1.054-3.046 1.863-4.5 2.425-1.453.563-2.859.95-4.218 1.161-1.36.21-2.672.316-3.938.316-2.156 0-4.172-.328-6.047-.984a12.603 12.603 0 01-4.886-3.094c-1.383-1.406-2.473-3.188-3.27-5.344-.797-2.156-1.195-4.758-1.195-7.805 0-1.312.094-2.754.281-4.324.188-1.57.469-3.269.844-5.098L285.679 36h20.742l-10.336 48.938a16.217 16.217 0 00-.421 3.656c0 .844.07 1.641.211 2.391.14.75.375 1.418.703 2.003a3.957 3.957 0 001.3 1.407c.539.351 1.231.527 2.075.527a8.006 8.006 0 003.691-.879c1.148-.586 2.191-1.406 3.129-2.461.937-1.054 1.769-2.308 2.496-3.762a35.944 35.944 0 001.934-4.71L321.257 36H342l-14.274 66.797c2.203-.75 4.195-1.652 5.977-2.707 1.781-1.055 3.41-2.391 4.886-4.008 1.477-1.617 2.813-3.551 4.008-5.801 1.195-2.25 2.285-4.945 3.27-8.086h6.047c-1.454 4.782-3.176 8.766-5.168 11.954-1.993 3.187-4.114 5.8-6.364 7.839-2.25 2.04-4.57 3.598-6.961 4.676-2.39 1.078-4.711 1.899-6.961 2.461zm-20.039-3.726a62.058 62.058 0 00-5.344 2.285c-1.688.82-3.176 1.723-4.465 2.707-1.289.984-2.32 2.074-3.094 3.27a7.161 7.161 0 00-1.16 3.972c0 .516.094 1.055.281 1.617a4.64 4.64 0 00.879 1.547c.399.469.903.844 1.512 1.125.609.282 1.336.422 2.18.422 1.5 0 3.035-1.043 4.605-3.129 1.571-2.086 2.824-5.308 3.762-9.668zm5.906-88.594L323.296 0h15.118l-17.438 27.211zm130.711 54.984c-3.75 4.36-7.512 7.958-11.285 10.793-3.774 2.836-7.348 5.239-10.723 7.207a23.075 23.075 0 01-5.027 4.043 30.494 30.494 0 01-5.766 2.672 34.471 34.471 0 01-6.047 1.477 39.268 39.268 0 01-5.801.457c-3.609 0-6.738-.551-9.386-1.652-2.649-1.102-4.84-2.532-6.574-4.289-1.735-1.758-3.012-3.727-3.833-5.907-.82-2.179-1.23-4.371-1.23-6.574 0-1.687.223-3.246.668-4.676.445-1.429 1.02-2.707 1.723-3.832a13.519 13.519 0 012.425-2.918c.914-.82 1.864-1.465 2.848-1.933 4.031-7.219 7.43-14.356 10.195-21.41a332.914 332.914 0 007.524-21.27l21.305-2.813c.281 6.235.55 11.637.808 16.208.258 4.57.504 8.531.738 11.882.235 3.352.446 6.2.633 8.543.188 2.344.363 4.418.528 6.223.164 1.805.281 3.445.351 4.922.07 1.476.106 3.012.106 4.605 0 1.078-.036 2.063-.106 2.953a12.42 12.42 0 01-.457 2.532 79.578 79.578 0 005.731-3.621 48.662 48.662 0 004.605-3.622zm-58.008 5.204c0 3.375.668 5.894 2.004 7.558 1.336 1.664 3.598 2.496 6.785 2.496 1.594 0 3.141-.222 4.641-.668a10.3 10.3 0 004.008-2.25c1.171-1.054 2.109-2.425 2.812-4.113.703-1.687 1.055-3.797 1.055-6.328 0-1.219-.035-2.402-.106-3.551-.07-1.148-.152-2.367-.246-3.656a143.628 143.628 0 00-.387-4.324c-.164-1.594-.351-3.446-.562-5.555a485.487 485.487 0 01-.668-7.313c-.234-2.765-.492-6-.773-9.703a121.913 121.913 0 01-5.133 13.641 272.323 272.323 0 01-6.539 13.57 7.726 7.726 0 012.355 1.969c.633.797.949 1.805.949 3.023 0 .891-.14 1.758-.421 2.602a7.062 7.062 0 01-1.266 2.285 6.357 6.357 0 01-2.004 1.617c-.773.399-1.652.598-2.637.598a7.051 7.051 0 01-2.25-.352c-.703-.234-1.242-.75-1.617-1.546zm28.547-60.188h-3.023L399.726 0h4.57l8.649 11.531L435.585 0h6.329z" fill-rule="nonzero"/><path d="M493.171 82.195a82.296 82.296 0 01-6.925 9.844 52.06 52.06 0 01-8.789 8.508c-3.258 2.484-6.868 4.488-10.829 6.012-3.961 1.523-8.308 2.285-13.043 2.285-3.421 0-6.515-.434-9.281-1.301-2.765-.867-5.133-2.215-7.101-4.043-1.969-1.828-3.481-4.183-4.536-7.066-1.054-2.883-1.582-6.364-1.582-10.442 0-2.765.282-5.953.844-9.562.563-3.61 1.453-7.313 2.672-11.11 1.219-3.796 2.836-7.523 4.852-11.179 2.015-3.656 4.453-6.926 7.312-9.809 2.86-2.883 6.211-5.203 10.055-6.961 3.844-1.758 8.226-2.636 13.148-2.636 3.235 0 5.871.386 7.91 1.16 2.039.773 3.657 1.793 4.852 3.058a10.123 10.123 0 012.461 4.395 19.92 19.92 0 01.668 5.168c0 4.172-.914 8.051-2.742 11.637a31.029 31.029 0 01-7.348 9.386c-3.07 2.672-6.598 4.828-10.582 6.469a39.146 39.146 0 01-12.445 2.883 215.577 215.577 0 00-.246 3.058 36.854 36.854 0 00-.106 2.707c0 2.438.223 4.442.668 6.012.445 1.57 1.102 2.801 1.969 3.692.867.89 1.945 1.511 3.234 1.863 1.289.351 2.801.527 4.535.527 2.86 0 5.45-.375 7.77-1.125a27.18 27.18 0 006.504-3.094 36.527 36.527 0 005.73-4.64 142.729 142.729 0 005.45-5.696zM453.867 72c2.718-.187 5.343-.961 7.875-2.32a23.946 23.946 0 006.679-5.309c1.922-2.179 3.457-4.664 4.606-7.453a22.6 22.6 0 001.723-8.683c0-1.782-.258-3.211-.774-4.29-.516-1.078-1.453-1.617-2.812-1.617-1.829 0-3.622.879-5.379 2.637-1.758 1.758-3.41 4.043-4.957 6.855-1.547 2.813-2.918 5.989-4.114 9.528A84.29 84.29 0 00453.867 72zm11.25-44.789L478.265 0h15.117l-17.437 27.211z" fill-rule="nonzero"/><path d="M500.484 24.61c1.031-5.157 2.543-9.329 4.535-12.516 1.992-3.188 4.207-5.672 6.645-7.453 2.437-1.781 4.968-2.977 7.593-3.586 2.625-.61 5.11-.914 7.453-.914 2.157 0 4.254.375 6.293 1.125 2.039.75 3.844 1.804 5.414 3.164a15.855 15.855 0 013.797 4.887c.961 1.898 1.442 4.019 1.442 6.363 0 2.25-.141 4.219-.422 5.906h-6.75c.094-.797.164-1.476.211-2.039.047-.562.07-1.172.07-1.828 0-1.641-.551-2.871-1.652-3.691-1.102-.821-2.379-1.231-3.832-1.231-.75 0-1.606.164-2.567.492-.961.328-1.922.926-2.882 1.793-.961.867-1.852 2.074-2.672 3.621-.821 1.547-1.465 3.516-1.934 5.907L518.765 36h10.547l-1.055 5.766H517.64l-16.594 77.765c-1.031 5.157-2.519 9.329-4.464 12.516-1.946 3.188-4.102 5.672-6.469 7.453-2.367 1.781-4.84 2.977-7.418 3.586-2.578.609-5.039.914-7.383.914-2.156 0-4.254-.375-6.293-1.125a17.782 17.782 0 01-5.449-3.164 15.62 15.62 0 01-3.832-4.887c-.961-1.898-1.442-4.019-1.442-6.363 0-3.328.645-6.129 1.934-8.402 1.289-2.274 3.059-4.219 5.309-5.836s4.875-2.988 7.875-4.113c3-1.125 6.211-2.204 9.632-3.235zm-18.422 86.976a57.687 57.687 0 00-6.293 2.496c-1.945.914-3.621 1.969-5.027 3.164-1.407 1.196-2.508 2.543-3.305 4.043-.797 1.5-1.195 3.211-1.195 5.133 0 .563.14 1.125.422 1.688a4.861 4.861 0 001.195 1.511 7.05 7.05 0 001.828 1.125c.703.305 1.477.457 2.32.457.75 0 1.512-.175 2.285-.527.774-.352 1.524-.961 2.25-1.828.727-.867 1.395-2.028 2.004-3.481.61-1.453 1.149-3.257 1.618-5.414zm72-14.414c0 1.594-.305 3.082-.914 4.465a11.477 11.477 0 01-2.496 3.621 11.737 11.737 0 01-3.656 2.426c-1.383.586-2.871.879-4.465.879-1.594 0-3.082-.293-4.465-.879a11.3 11.3 0 01-3.621-2.426 11.3 11.3 0 01-2.426-3.621c-.586-1.383-.879-2.871-.879-4.465 0-1.594.293-3.082.879-4.465a11.3 11.3 0 012.426-3.621 11.802 11.802 0 013.621-2.461c1.383-.609 2.871-.914 4.465-.914 1.594 0 3.082.305 4.465.914 1.382.61 2.601 1.43 3.656 2.461a11.477 11.477 0 012.496 3.621c.609 1.383.914 2.871.914 4.465zM613.687 108l36.773-64.195h-5.203c-1.125 0-2.168.023-3.129.07-.961.047-1.804.141-2.531.281-.726.141-1.289.364-1.687.668-.399.305-.598.715-.598 1.231 0 .234.082.375.246.422.164.047.352.14.563.281.211.141.398.375.562.703.164.328.246.914.246 1.758 0 1.359-.222 2.519-.668 3.48-.445.961-1.043 1.746-1.793 2.356a7.891 7.891 0 01-2.496 1.371 8.934 8.934 0 01-2.847.457 7.047 7.047 0 01-2.426-.422 7.228 7.228 0 01-2.11-1.195 5.544 5.544 0 01-1.511-1.969c-.375-.797-.563-1.711-.563-2.742 0-1.453.387-3.035 1.16-4.746.774-1.711 1.875-3.293 3.305-4.746 1.43-1.453 3.176-2.66 5.238-3.621 2.063-.961 4.407-1.442 7.032-1.442h34.101l-35.297 60.891c1.313 0 2.543.094 3.692.281 1.148.188 2.25.387 3.304.598 1.055.211 2.075.41 3.059.597.984.188 2.016.282 3.094.282 1.125 0 2.097-.258 2.918-.774.82-.515 1.371-1.5 1.652-2.953-.938-.094-1.629-.422-2.074-.984-.446-.563-.668-1.243-.668-2.039 0-.704.176-1.418.527-2.145a6.353 6.353 0 011.512-1.969c.656-.586 1.488-1.078 2.496-1.476 1.008-.399 2.191-.598 3.551-.598 2.203 0 3.808.668 4.816 2.004 1.008 1.336 1.512 2.965 1.512 4.887 0 1.64-.399 3.375-1.195 5.203-.797 1.828-1.946 3.492-3.446 4.992-1.5 1.5-3.34 2.742-5.519 3.727-2.18.984-4.653 1.476-7.418 1.476zm-4.711-20.461c-.75 4.172-1.922 7.617-3.516 10.336-1.593 2.719-3.492 4.899-5.695 6.539a20.162 20.162 0 01-7.348 3.446 35.404 35.404 0 01-8.402.984c-3.328 0-6.363-.434-9.105-1.301-2.743-.867-5.086-2.215-7.032-4.043-1.945-1.828-3.457-4.183-4.535-7.066-1.078-2.883-1.617-6.364-1.617-10.442 0-2.765.281-5.964.844-9.597.562-3.633 1.465-7.348 2.707-11.145a66.698 66.698 0 014.851-11.18c1.993-3.656 4.418-6.914 7.278-9.773 2.859-2.859 6.199-5.168 10.019-6.926 3.821-1.758 8.168-2.636 13.043-2.636 3.141 0 5.742.375 7.805 1.125 2.062.75 3.703 1.757 4.922 3.023 1.219 1.266 2.062 2.695 2.531 4.289.469 1.594.703 3.234.703 4.922 0 1.828-.211 3.398-.633 4.711-.421 1.312-.984 2.379-1.687 3.199-.703.82-1.512 1.43-2.426 1.828a7.045 7.045 0 01-2.848.598c-1.781 0-3.468-.563-5.062-1.688a31.46 31.46 0 001.301-4.359c.304-1.406.457-2.789.457-4.148 0-1.735-.317-3.153-.949-4.254-.633-1.102-1.629-1.653-2.989-1.653-1.547 0-3.07.692-4.57 2.075-1.5 1.382-2.941 3.199-4.324 5.449s-2.66 4.828-3.832 7.734a88.924 88.924 0 00-3.059 8.93 82.335 82.335 0 00-2.039 9c-.492 2.953-.738 5.625-.738 8.015 0 2.25.211 4.149.633 5.696.421 1.547 1.019 2.777 1.793 3.691.773.914 1.687 1.57 2.742 1.969 1.054.398 2.215.598 3.48.598 1.406 0 2.883-.235 4.43-.704a29.401 29.401 0 004.641-1.863 41.217 41.217 0 004.429-2.566 44.472 44.472 0 003.797-2.813z" fill-rule="nonzero"/></svg>