<svg xmlns="http://www.w3.org/2000/svg" class="sc-clGIgy fAglPS" width="946.745" height="253.49"><g data-name="Layer 2"><g data-name="Layer 1"><path d="M373.06 100.4H384v70.2h48.85v-16.44h-32.3v-19h32.28v-16.47h-32.28V100.4h32.28V84h-59.77zm157 0h10.81v36.16L471.76 84v86.6h16.45v-50.28l69.09 50.28V84h-27.25zm104 40.75h10.8v12a27.21 27.21 0 01-10.8 2.21 28.54 28.54 0 01-20.18-8.28 28.51 28.51 0 01-6.08-9 28.71 28.71 0 010-22.09 28.53 28.53 0 016.08-9 28.82 28.82 0 019.09-6.14A27.28 27.28 0 01634 98.56a28 28 0 0114.73 4.17l8.71-14A44.48 44.48 0 00634 82.12a42.93 42.93 0 00-17.48 3.56 45.55 45.55 0 00-23.88 23.88 44.74 44.74 0 000 35 46.21 46.21 0 009.65 14.23 45.1 45.1 0 0014.23 9.58 43.89 43.89 0 0017.48 3.46 44.62 44.62 0 007.68-.61 42 42 0 006.68-1.77 52.1 52.1 0 006.33-2.82c2.09-1.11 4.27-2.36 6.56-3.76v-38.29H634zm64.68 29.45h48.84v-16.44h-32.29v-19h32.27v-16.47h-32.27V100.4h32.27V84h-48.84zm77.7-69.95h24.79v69.95h16.44v-69.95h24.43V84.08h-65.68zm166.76 8.91a45.85 45.85 0 00-9.63-14.24 45.13 45.13 0 00-14.23-9.57 44.08 44.08 0 00-17.5-3.51 42.77 42.77 0 00-17.36 3.56 45.55 45.55 0 00-23.88 23.88A42.76 42.76 0 00857 127a43.31 43.31 0 003.56 17.51 45.45 45.45 0 0023.88 23.85 42.61 42.61 0 0017.38 3.64 43.1 43.1 0 0017.5-3.56 45.32 45.32 0 0023.86-23.85 44.74 44.74 0 000-35M928 138.08a28.28 28.28 0 01-15.1 15.1 28.71 28.71 0 01-22.09 0 28.46 28.46 0 01-15.1-15.1 28.83 28.83 0 010-22.09 28.64 28.64 0 0115.1-15.1 28.71 28.71 0 0122.09 0A28.46 28.46 0 01928 116a28.71 28.71 0 010 22.09"/><path d="M246.87 19.41v20a144.31 144.31 0 0157.6 115.23V162c0 4.81-9.6 15.35-36 24.73-28.59 10.14-66.93 15.72-108 15.72-41.07 0-79.38-5.58-108-15.72-26.44-9.38-36-19.92-36-24.73v-7.31A144.31 144.31 0 0174.06 39.42v-20A160.33 160.33 0 000 154.65V162c0 16.61 20.06 31.55 52.05 41.95a82.29 82.29 0 0075.5 49.54h65.83a82.29 82.29 0 0075.5-49.54c32-10.4 52.05-25.34 52.05-41.95v-7.31a160.33 160.33 0 00-74.06-135.28M193.38 237h-65.83a65.76 65.76 0 01-53.09-27c24.86 5.61 54.36 8.86 86 8.86s61.14-3.25 86-8.86a65.76 65.76 0 01-53.09 27" fill-rule="evenodd"/><path d="M276.49 117.72v-1.12c0-21.22-17.83-38.42-39.83-38.42H84.27c-22 0-39.83 17.2-39.83 38.42v1.12s-.64 13 22.69 32c26.51 21.6 59.93 32.39 93.35 32.39 33.42 0 66.84-10.79 93.34-32.39 23.34-19 22.67-32 22.67-32m-162.93 22.17A16.46 16.46 0 11130 123.43a16.46 16.46 0 01-16.46 16.46m93.81 0a16.46 16.46 0 1116.46-16.46 16.46 16.46 0 01-16.46 16.46M230.41 0H214v16.46H107V0H90.52v32.92h139.89z" fill="#00a4ff"/></g></g></svg>