<svg data-name="logo - full" width="185.641" height="67.516" xmlns="http://www.w3.org/2000/svg"><path fill="#1c1300" d="M62.986 6.136q0 1.896.122 3.067h-.922a13.595 13.595 0 00-2.417-6.422 5.638 5.638 0 00-4.5-1.854h-1.33a5.792 5.792 0 00-1.813.2 1.222 1.222 0 00-.77.786 6.424 6.424 0 00-.202 1.878v10.172h1.41a3.72 3.72 0 003.25-1.574 9.803 9.803 0 001.545-3.751h.932a50.825 50.825 0 00-.122 3.798v1.933c0 1.374.077 3.282.241 5.735h-.95q-.845-5.333-4.916-5.328h-1.41v9.281a6.043 6.043 0 00.341 2.363 1.764 1.764 0 001.209.987 12.125 12.125 0 002.76.288v.887q-4.95-.122-7.373-.122-2.009 0-5.076.081l-1.289.04v-.81a6.914 6.914 0 001.953-.316 1.413 1.413 0 00.846-.932 7.819 7.819 0 00.225-2.22V4.276a7.819 7.819 0 00-.225-2.22 1.406 1.406 0 00-.846-.927A7.236 7.236 0 0041.706.8V0q4.351.113 13.133.121c3.949 0 6.75-.044 8.42-.121a82.6 82.6 0 00-.273 6.136z" data-name="Path 24"/><path fill="#1c1300" d="M81.76 8.237a3.935 3.935 0 01.927 2.628 3.476 3.476 0 01-.866 2.444 2.938 2.938 0 01-2.277.947 3.186 3.186 0 01-2.175-.704 2.39 2.39 0 01-.806-1.879 3.663 3.663 0 011.773-3.15 1.899 1.899 0 00-.484-.045 2.036 2.036 0 00-.643.085 3.825 3.825 0 00-2.599 1.854 5.954 5.954 0 00-1.069 3.315v10.696a3.15 3.15 0 00.9 2.583 4.577 4.577 0 002.88.732v.846a7.767 7.767 0 01-.927-.045c-2.74-.077-4.567-.122-5.479-.122-.724 0-2.376.045-4.95.122a5.965 5.965 0 01-.805.045v-.846a2.626 2.626 0 002.025-.63 3.447 3.447 0 00.565-2.282V12.116a4.997 4.997 0 00-.565-2.7 2.225 2.225 0 00-2.025-.846v-.85c.855.08 1.692.121 2.498.121a25.247 25.247 0 005.881-.564v3.757a6.84 6.84 0 012.216-2.806 5.353 5.353 0 013.263-1.073 3.402 3.402 0 012.742 1.082z" data-name="Path 25"/><path fill="#1c1300" d="M101.059 9.792a14.677 14.677 0 010 16.736 11.306 11.306 0 01-14.483 0 14.585 14.585 0 010-16.736 11.25 11.25 0 0114.483 0zm-10.013.675a21.627 21.627 0 00-1.028 7.69 21.39 21.39 0 001.028 7.67c.675 1.673 1.602 2.51 2.761 2.51s2.106-.83 2.779-2.476a21.868 21.868 0 001.008-7.695 21.6 21.6 0 00-1.028-7.71q-1.029-2.5-2.761-2.502c-1.155 0-2.073.841-2.757 2.524z" data-name="Path 26"/><path fill="#1c1300" d="M125.597 8.723a4.403 4.403 0 01.968 1.98 14.83 14.83 0 01.288 3.274v10.858a3.35 3.35 0 00.585 2.282 2.635 2.635 0 001.993.63v.846a183.21 183.21 0 00-5.319-.166c-.81 0-2.553.06-5.238.166v-.846a2.025 2.025 0 001.692-.63 3.935 3.935 0 00.484-2.282V12.28a4.676 4.676 0 00-.544-2.501 2.151 2.151 0 00-1.96-.846 3.6 3.6 0 00-2.815 1.35 4.928 4.928 0 00-1.174 3.334v11.22a3.895 3.895 0 00.483 2.282 2.025 2.025 0 001.692.63v.846a151.294 151.294 0 00-4.99-.166c-.81 0-2.664.06-5.565.166v-.846a2.626 2.626 0 002.025-.63 3.447 3.447 0 00.565-2.281V12.123a4.997 4.997 0 00-.564-2.7 2.225 2.225 0 00-2.026-.846v-.85a26.74 26.74 0 002.498.121 25.218 25.218 0 005.881-.565v3.636a6.683 6.683 0 016.613-3.757 5.582 5.582 0 014.428 1.561z" data-name="Path 27"/><path fill="#1c1300" d="M139.102 7.71h4.759v.81h-4.76v16.306a2.7 2.7 0 00.424 1.717 1.674 1.674 0 001.35.504q1.737 0 2.745-2.423l.675.367a5.56 5.56 0 01-5.515 4.156 5.46 5.46 0 01-4.034-1.375 4.32 4.32 0 01-1.148-2.115 15.797 15.797 0 01-.301-3.494V8.518h-3.375v-.81h3.375V2.38a12.323 12.323 0 005.8-1.289z" data-name="Path 28"/><path fill="#1c1300" d="M49.691 66.929q-2.743-.129-9.225-.122-8.775 0-13.133.122v-.81a7.101 7.101 0 001.953-.318 1.413 1.413 0 00.846-.931 7.825 7.825 0 00.225-2.221V42.624a7.825 7.825 0 00-.225-2.22 1.384 1.384 0 00-.846-.928 7.038 7.038 0 00-1.953-.328v-.794q4.351.121 13.133.121 5.922 0 8.42-.121-.273 3.354-.277 5.973a22.642 22.642 0 00.121 2.75h-.929a11.457 11.457 0 00-2.176-6.06 5.684 5.684 0 00-4.432-1.736h-1.647a5.816 5.816 0 00-1.818.207 1.215 1.215 0 00-.765.785 6.406 6.406 0 00-.203 1.879v10.012h1.29a3.717 3.717 0 003.249-1.575 9.841 9.841 0 001.545-3.753h.932a50.76 50.76 0 00-.122 3.791v1.94c0 1.37.077 3.283.241 5.735h-.931q-.846-5.332-4.917-5.332h-1.289v10.172a6.408 6.408 0 00.203 1.879 1.224 1.224 0 00.765.79 6.039 6.039 0 001.818.195h1.968a5.91 5.91 0 004.617-1.953 13.122 13.122 0 002.475-6.642h.923c-.077.9-.122 2.025-.122 3.389a53.885 53.885 0 00.286 6.129z" data-name="Path 29"/><path fill="#1c1300" d="M71.888 47.075a4.35 4.35 0 01.967 1.98 14.73 14.73 0 01.288 3.269v10.858a3.389 3.389 0 00.578 2.282 2.65 2.65 0 001.994.625v.85a161.111 161.111 0 00-5.32-.161c-.805 0-2.553.05-5.237.162v-.85a2.025 2.025 0 001.692-.626 3.906 3.906 0 00.483-2.282V50.627a4.687 4.687 0 00-.544-2.502 2.142 2.142 0 00-1.953-.85 3.587 3.587 0 00-2.82 1.35 4.914 4.914 0 00-1.167 3.323v11.225a3.908 3.908 0 00.484 2.282 2.025 2.025 0 001.692.625v.85a135.497 135.497 0 00-4.995-.161c-.806 0-2.66.05-5.56.162v-.85a2.626 2.626 0 002.025-.626 3.456 3.456 0 00.565-2.282V50.46a4.986 4.986 0 00-.565-2.7 2.25 2.25 0 00-2.025-.851v-.846c.855.081 1.692.122 2.497.122a25.25 25.25 0 005.882-.565v3.631a6.685 6.685 0 016.608-3.75 5.571 5.571 0 014.43 1.575z" data-name="Path 30"/><path fill="#1c1300" d="M97.596 65.198a2.25 2.25 0 002.025.846v.85a25.776 25.776 0 00-2.497-.12 25.247 25.247 0 00-5.882.564v-3.47a5.162 5.162 0 01-5.238 3.632 7.34 7.34 0 01-6.023-2.765 12.902 12.902 0 01-2.196-8.325 14.065 14.065 0 011.147-5.999 8.23 8.23 0 013.184-3.672 8.755 8.755 0 014.653-1.233 6.053 6.053 0 014.473 1.537v-6.865a4.83 4.83 0 00-.585-2.7 2.25 2.25 0 00-1.993-.85v-.853c.855.081 1.692.122 2.497.122a25.848 25.848 0 005.882-.565V62.5a4.986 4.986 0 00.553 2.697zm-7.594-.402a4.142 4.142 0 001.229-2.624v-14.13a3.425 3.425 0 00-2.941-1.37 3.625 3.625 0 00-3.303 2.461 17.476 17.476 0 00-1.125 7.349 18.16 18.16 0 00.947 7.1 3.1 3.1 0 002.84 2.181 3.341 3.341 0 002.353-.963z" data-name="Path 31"/><path fill="#1c1300" d="M109.683 63.18a3.36 3.36 0 00.585 2.282 2.65 2.65 0 001.994.625v.846a168.629 168.629 0 00-5.358-.155c-.837 0-2.7.05-5.6.155v-.846a2.628 2.628 0 002.025-.625 3.456 3.456 0 00.565-2.282V50.459a5.01 5.01 0 00-.565-2.7 2.25 2.25 0 00-2.025-.846v-.846c.862.08 1.692.121 2.498.121a25.238 25.238 0 005.881-.565zm-.464-26.705a3.13 3.13 0 010 4.563 4.759 4.759 0 01-5.359 0 3.13 3.13 0 010-4.563 4.759 4.759 0 015.36 0z" data-name="Path 32"/><path fill="#1c1300" d="M124.787 45.882a6.718 6.718 0 011.973.87 1.327 1.327 0 00.725.278.738.738 0 00.625-.378 2.547 2.547 0 00.342-1.114h.847q-.167 2.054-.162 7.105h-.846a10.215 10.215 0 00-1.591-4.461 4.05 4.05 0 00-3.566-1.8 2.925 2.925 0 00-1.994.69 2.376 2.376 0 00-.785 1.895 3.348 3.348 0 00.927 2.367 20.64 20.64 0 002.9 2.403l1.168.846a21.085 21.085 0 013.627 3.31 5.603 5.603 0 011.168 3.636 5.117 5.117 0 01-1.029 3.15 6.464 6.464 0 01-2.76 2.099 9.835 9.835 0 01-3.825.724 7.875 7.875 0 01-3.787-.846 20.061 20.061 0 00-1.854-.85.617.617 0 00-.704.26 2.785 2.785 0 00-.464 1.155h-.846q.158-2.304.162-8.073h.846q.801 7.425 5.438 7.425a2.97 2.97 0 001.994-.704 2.7 2.7 0 00.826-2.16 4.025 4.025 0 00-.504-2.025 6.35 6.35 0 00-1.27-1.575 62.505 62.505 0 00-2.297-1.9q-1.813-1.45-2.76-2.341a8.194 8.194 0 01-1.612-2.1 5.517 5.517 0 01-.675-2.7 4.79 4.79 0 012.025-4.074 8.005 8.005 0 014.917-1.497 9.844 9.844 0 012.821.385z" data-name="Path 33"/><path fill="#1c1300" d="M140.794 46.069h4.75v.8h-4.75v16.318a2.637 2.637 0 00.423 1.712 1.638 1.638 0 001.35.504q1.737 0 2.745-2.423l.69.362a5.578 5.578 0 01-5.523 4.16 5.479 5.479 0 01-4.035-1.37 4.423 4.423 0 01-1.147-2.12 16.166 16.166 0 01-.301-3.494V46.87h-3.376v-.801h3.375v-5.333a12.339 12.339 0 005.812-1.289z" data-name="Path 34"/><path fill="#1c1300" d="M155.169 63.18a3.389 3.389 0 00.578 2.282 2.65 2.65 0 001.994.625v.846a167.58 167.58 0 00-5.353-.155c-.837 0-2.7.05-5.6.155v-.846a2.621 2.621 0 002.009-.625 3.451 3.451 0 00.57-2.282V50.459a5.002 5.002 0 00-.57-2.7 2.25 2.25 0 00-2.01-.846v-.846c.858.08 1.693.121 2.494.121a25.288 25.288 0 005.888-.565zm-.463-26.705a3.15 3.15 0 010 4.563 4.768 4.768 0 01-5.364 0 3.15 3.15 0 010-4.563 4.768 4.768 0 015.364 0z" data-name="Path 35"/><path fill="#1c1300" d="M0 33.026v.643h.322a4.07 4.07 0 013.026 1.575 10.21 10.21 0 011.451 4.653 79.355 79.355 0 01.419 9.464 24.975 24.975 0 001.35 9.225 8.206 8.206 0 004.351 4.617 21.096 21.096 0 008.345 1.325v-1.224a4.635 4.635 0 01-3.057-.936 6.433 6.433 0 01-1.326-3.717 77.929 77.929 0 01-.387-9.302q0-7.875-3.415-11.432a17.843 17.843 0 00-9.286-4.844l.261-.065z" data-name="Path 36"/><path fill="#1c1300" d="M183.582 33.026l.261.065a17.825 17.825 0 00-9.286 4.844q-3.415 3.55-3.415 11.432a79.346 79.346 0 01-.383 9.302 6.543 6.543 0 01-1.325 3.717 4.678 4.678 0 01-3.067.936v1.224a21.132 21.132 0 008.354-1.325 8.237 8.237 0 004.352-4.617 25.09 25.09 0 001.35-9.225 79.569 79.569 0 01.414-9.464 10.334 10.334 0 011.451-4.653 4.08 4.08 0 013.031-1.575h.322v-.661z" data-name="Path 37"/><path fill="#1c1300" d="M18.657 7.864a23.546 23.546 0 00-1.35 8.948 80.028 80.028 0 01-.418 9.524 10.19 10.19 0 01-1.452 4.653 3.845 3.845 0 01-3.026 1.517h-.322v.52h2.068a17.775 17.775 0 009.025-4.75q3.413-3.52 3.415-11.462a74.077 74.077 0 01.387-9.013 6.408 6.408 0 011.35-3.713 4.536 4.536 0 013.027-.972V1.892a20.338 20.338 0 00-8.325 1.39 8.444 8.444 0 00-4.379 4.582z" data-name="Path 38"/><path fill="#1c1300" d="M170.206 30.99a10.316 10.316 0 01-1.452-4.654 79.763 79.763 0 01-.422-9.524 23.567 23.567 0 00-1.35-8.948A8.478 8.478 0 00162.6 3.28a20.378 20.378 0 00-8.325-1.391v1.224a4.552 4.552 0 013.03.972 6.446 6.446 0 011.35 3.712 74.358 74.358 0 01.383 9.014q0 7.94 3.424 11.462a17.741 17.741 0 009.025 4.75h2.066v-.52h-.322a3.854 3.854 0 01-3.026-1.515z" data-name="Path 39"/></svg>