<svg xmlns="http://www.w3.org/2000/svg" width="708.6" height="263.24"><g fill="none" fill-rule="evenodd"><path d="M39.8 190V98.6l-32 14.5L0 95.6l59.5-27.3h.9v121.8H39.8zm9.4-138c-14.9 0-26.4-11-26.4-26 0-14.9 11.5-26 26.4-26 14.9 0 26.4 11 26.4 26 0 14.9-11.5 26-26.4 26zm0-37c-6.4 0-11 4.6-11 11s4.6 11 11 11 11-4.6 11-11-4.6-11-11-11zm70.5 94.4c-1.4 4.8-1.8 10.6-1.8 19.8v60.9H97.2v-65.2c0-7.8.5-13.1 1.4-17.5C103.7 83 122.7 67 154.2 67s50.5 16.1 55.6 40.4c.9 4.4 1.4 9.6 1.4 17.5v65.2h-20.7v-60.9c0-9.2-.5-14.9-1.8-19.8-4.1-14-14.7-22.5-34.5-22.5s-30.4 8.5-34.5 22.5zm216.7 39.5c1.4-4.8 1.8-10.6 1.8-19.8V68.2h20.7v65.2c0 7.8-.5 13.1-1.4 17.5-5.1 24.4-24.1 40.4-55.6 40.4s-50.5-16-55.5-40.3c-.9-4.4-1.4-9.6-1.4-17.5V68.3h20.7v60.9c0 9.2.5 14.9 1.8 19.8 4.1 14 14.7 22.5 34.5 22.5 19.7-.1 30.3-8.6 34.4-22.6zm88.2 41.1V98.6l-31.9 14.5-7.8-17.5 59.5-27.3h.9v121.8h-20.7zM434 52c-14.9 0-26.4-11-26.4-26 0-14.9 11.5-26 26.4-26 14.9 0 26.4 11 26.4 26 0 14.9-11.5 26-26.4 26zm0-37c-6.4 0-11 4.6-11 11s4.6 11 11 11 11-4.6 11-11-4.6-11-11-11zm76.2 72.6h-40.7V68.3h108.9v19.3h-47.6v50.5c0 8 .7 13.8 2.5 18.6 3.9 9.9 12.9 14.7 27.6 14.7 5.3 0 11.9-.7 18.4-2.3l4.6 19.3c-7.8 2.1-16.1 3-24.8 3-24.4 0-39.5-10.6-45.7-27.3-2.1-5.7-3.2-12.2-3.2-21.1zm151.1 83.1c10.8 0 16.8-1.6 20.4-4.1 3.9-2.8 5.5-6.9 5.5-12.2 0-6-1.8-10.6-7.1-13.3-3.7-1.8-9.2-3-19.5-3h-11.5c-13.6 0-21.4-1.6-27.3-4.6-11.3-5.7-17.2-16.3-17.2-29.4 0-13.8 6.4-24.8 17.7-30.8 6.2-3.2 13.8-5.1 26.2-5.1h55.1v19.3h-56.3c-7.6 0-12.4 1.1-15.9 3.7-3.7 2.5-5.5 6.7-5.5 11.9 0 6 2.5 10.3 7.1 12.9 3.2 1.8 7.6 2.8 16.1 2.8h12.4c14.7 0 22.5 1.6 28.7 4.6 12.4 6 18.4 17.5 18.4 31 0 10.3-3.9 19.3-11.5 25.7-7.4 6.2-18.1 9.9-35.6 9.9h-55.4v-19.3z" fill="#11a7c9" fill-rule="nonzero"/><path d="M30.01 249.058c0 4.1-1.297 7.489-3.89 10.166-2.594 2.678-5.963 4.016-10.11 4.016-4.115 0-7.458-1.338-10.028-4.016-2.57-2.677-3.856-6.066-3.856-10.166v-6.013c0-4.085 1.281-7.47 3.844-10.155 2.563-2.685 5.902-4.027 10.017-4.027 4.147 0 7.52 1.342 10.121 4.027 2.601 2.685 3.901 6.07 3.901 10.155zm-6.702-6.059c0-2.6-.65-4.735-1.95-6.403-1.3-1.667-3.09-2.501-5.37-2.501-2.28 0-4.047.83-5.302 2.49-1.254 1.66-1.882 3.798-1.882 6.414v6.059c0 2.647.635 4.804 1.905 6.471 1.27 1.668 3.037 2.502 5.301 2.502 2.295 0 4.085-.834 5.37-2.502 1.286-1.667 1.928-3.824 1.928-6.471zm22.635 7.642v12.117h-6.701v-33.414h13.31c3.84 0 6.862.98 9.065 2.938 2.203 1.958 3.305 4.536 3.305 7.734 0 3.197-1.102 5.768-3.305 7.71-2.203 1.944-5.224 2.915-9.065 2.915zm0-5.163h6.61c1.866 0 3.281-.509 4.245-1.526.964-1.018 1.446-2.314 1.446-3.89 0-1.607-.478-2.934-1.435-3.982-.956-1.048-2.375-1.572-4.257-1.572h-6.609zm48.453 2.593H80.557v9.547h16.18v5.14h-22.88v-33.414H96.69v5.164H80.557v8.4h13.839zm37.46 14.688h-6.679l-13.494-22.835-.137.023v22.812h-6.702v-33.415h6.702l13.494 22.812.137-.023v-22.789h6.679zm44.007-8.721c0-1.285-.455-2.318-1.366-3.098-.91-.78-2.505-1.515-4.784-2.203-3.978-1.148-6.985-2.51-9.02-4.085-2.034-1.576-3.052-3.733-3.052-6.472 0-2.739 1.167-4.976 3.5-6.713 2.333-1.736 5.313-2.604 8.939-2.604 3.672 0 6.663.975 8.973 2.926 2.31 1.95 3.427 4.356 3.35 7.217l-.045.138h-6.495c0-1.545-.516-2.796-1.55-3.752-1.032-.957-2.481-1.435-4.348-1.435-1.79 0-3.175.398-4.154 1.194-.979.795-1.469 1.813-1.469 3.052 0 1.132.524 2.061 1.572 2.788 1.048.727 2.858 1.496 5.428 2.307 3.687 1.025 6.48 2.379 8.376 4.062 1.898 1.683 2.846 3.893 2.846 6.632 0 2.86-1.128 5.118-3.385 6.77-2.257 1.652-5.236 2.478-8.939 2.478-3.64 0-6.816-.937-9.524-2.81-2.708-1.875-4.023-4.503-3.947-7.884l.046-.138h6.518c0 1.99.608 3.447 1.824 4.372 1.216.926 2.91 1.389 5.083 1.389 1.821 0 3.213-.375 4.177-1.125.964-.75 1.446-1.752 1.446-3.006zm42.646-4.98c0 4.1-1.296 7.489-3.89 10.166-2.593 2.678-5.962 4.016-10.109 4.016-4.115 0-7.458-1.338-10.028-4.016-2.57-2.677-3.856-6.066-3.856-10.166v-6.013c0-4.085 1.281-7.47 3.844-10.155 2.563-2.685 5.902-4.027 10.017-4.027 4.147 0 7.52 1.342 10.121 4.027 2.601 2.685 3.901 6.07 3.901 10.155zm-6.7-6.059c0-2.6-.651-4.735-1.951-6.403-1.3-1.667-3.09-2.501-5.37-2.501-2.28 0-4.047.83-5.302 2.49-1.254 1.66-1.882 3.798-1.882 6.414v6.059c0 2.647.635 4.804 1.905 6.472 1.27 1.667 3.037 2.501 5.301 2.501 2.295 0 4.085-.834 5.37-2.502 1.286-1.667 1.928-3.824 1.928-6.471zm42.37-13.655v22.17c0 3.748-1.239 6.64-3.717 8.674-2.479 2.035-5.722 3.052-9.73 3.052-3.994 0-7.218-1.017-9.674-3.052-2.456-2.035-3.683-4.926-3.683-8.675v-22.169h6.724v22.17c0 2.203.589 3.851 1.767 4.945 1.178 1.094 2.8 1.64 4.865 1.64 2.096 0 3.74-.542 4.934-1.629 1.194-1.086 1.79-2.738 1.79-4.957v-22.169zm16.554 20.058v13.357h-6.702v-33.415h12.6c3.81 0 6.789.869 8.938 2.605 2.15 1.737 3.225 4.158 3.225 7.264 0 1.728-.452 3.212-1.354 4.452-.903 1.239-2.226 2.241-3.97 3.006 1.973.581 3.392 1.553 4.256 2.915.865 1.361 1.297 3.044 1.297 5.048v2.456c0 .933.126 1.909.379 2.926.252 1.017.684 1.771 1.296 2.26v.482h-6.907c-.612-.49-1.01-1.308-1.194-2.455a20.664 20.664 0 01-.275-3.259v-2.364c0-1.667-.455-2.964-1.366-3.89-.91-.925-2.191-1.388-3.844-1.388zm0-5.164h5.783c1.882 0 3.285-.397 4.211-1.193.926-.795 1.388-1.973 1.388-3.534 0-1.53-.462-2.746-1.388-3.649-.926-.903-2.291-1.354-4.096-1.354h-5.898zm53.593 7.16l.046.138c.06 3.596-1.037 6.445-3.293 8.549-2.257 2.104-5.39 3.155-9.398 3.155-4.024 0-7.29-1.292-9.8-3.878-2.509-2.586-3.763-5.913-3.763-9.983v-6.632c0-4.055 1.224-7.382 3.672-9.983 2.448-2.601 5.63-3.901 9.547-3.901 4.13 0 7.359 1.059 9.684 3.178 2.326 2.119 3.458 5.007 3.397 8.663l-.046.138h-6.518c0-2.203-.528-3.89-1.583-5.06-1.056-1.17-2.7-1.756-4.934-1.756-2.005 0-3.596.815-4.774 2.444-1.178 1.63-1.767 3.706-1.767 6.23v6.68c0 2.554.62 4.646 1.859 6.276 1.24 1.63 2.914 2.444 5.026 2.444 2.096 0 3.645-.562 4.647-1.687 1.002-1.124 1.503-2.796 1.503-5.014zm29.359-3.327h-13.839v9.547h16.18v5.14h-22.88v-33.414h22.834v5.164h-16.134v8.4h13.839zm33.267 14.688h-6.701v-33.415h6.7zm37.69 0h-6.679l-13.494-22.835-.138.023v22.812h-6.701v-33.415h6.701l13.494 22.812.138-.023v-22.789h6.678zm37.276 0h-6.679l-13.494-22.835-.137.023v22.812h-6.702v-33.415h6.702l13.494 22.812.137-.023v-22.789h6.679zm37.138-13.701c0 4.1-1.296 7.489-3.89 10.166-2.593 2.678-5.963 4.016-10.109 4.016-4.115 0-7.458-1.338-10.029-4.016-2.57-2.677-3.855-6.066-3.855-10.166v-6.013c0-4.085 1.281-7.47 3.844-10.155 2.563-2.685 5.902-4.027 10.017-4.027 4.147 0 7.52 1.342 10.12 4.027 2.602 2.685 3.902 6.07 3.902 10.155zm-6.7-6.059c0-2.6-.651-4.735-1.952-6.403-1.3-1.667-3.09-2.501-5.37-2.501-2.28 0-4.046.83-5.3 2.49-1.255 1.66-1.883 3.798-1.883 6.414v6.059c0 2.647.635 4.804 1.905 6.472 1.27 1.667 3.037 2.501 5.301 2.501 2.295 0 4.085-.834 5.37-2.502 1.286-1.667 1.928-3.824 1.928-6.471zm26.696 10.878l.413 1.813h.138l.39-1.767 7.275-24.579h7.068l-11.36 33.415h-6.885l-11.336-33.415h7.068zm37.253 1.675h-11.727l-2.272 7.206h-6.77l11.498-33.414h6.862l11.451 33.414h-6.77zm-10.074-5.255h8.422l-4.13-13.127h-.139zm49.324-15.789H586.1v28.25h-6.7v-28.25h-9.41v-5.164h25.565zm33.857 14.55c0 4.1-1.296 7.489-3.89 10.166-2.593 2.678-5.963 4.016-10.109 4.016-4.115 0-7.458-1.338-10.029-4.016-2.57-2.677-3.855-6.066-3.855-10.166v-6.013c0-4.085 1.281-7.47 3.844-10.155 2.563-2.685 5.902-4.027 10.017-4.027 4.146 0 7.52 1.342 10.12 4.027 2.602 2.685 3.902 6.07 3.902 10.155zm-6.7-6.059c0-2.6-.651-4.735-1.952-6.403-1.3-1.667-3.09-2.501-5.37-2.501-2.28 0-4.046.83-5.301 2.49-1.255 1.66-1.882 3.798-1.882 6.414v6.059c0 2.647.635 4.804 1.905 6.471 1.27 1.668 3.037 2.502 5.301 2.502 2.295 0 4.085-.834 5.37-2.502 1.286-1.667 1.928-3.824 1.928-6.471zm22.634 6.403v13.356h-6.701v-33.414h12.599c3.81 0 6.789.869 8.939 2.605 2.15 1.737 3.224 4.158 3.224 7.264 0 1.728-.451 3.212-1.354 4.452-.903 1.239-2.226 2.241-3.97 3.006 1.973.581 3.392 1.553 4.257 2.915.864 1.361 1.296 3.044 1.296 5.048v2.456c0 .933.127 1.909.379 2.926.252 1.017.685 1.771 1.297 2.26v.482h-6.908c-.612-.49-1.01-1.308-1.193-2.455a20.664 20.664 0 01-.276-3.259v-2.364c0-1.667-.455-2.964-1.365-3.89-.91-.925-2.192-1.388-3.844-1.388zm0-5.164h5.783c1.882 0 3.286-.397 4.211-1.193.926-.795 1.389-1.974 1.389-3.534 0-1.53-.463-2.746-1.389-3.649-.925-.903-2.29-1.354-4.096-1.354h-5.898zm46.41 9.8c0-1.285-.455-2.318-1.365-3.098-.91-.78-2.506-1.515-4.785-2.203-3.978-1.148-6.985-2.51-9.02-4.085-2.034-1.576-3.052-3.733-3.052-6.472 0-2.739 1.167-4.976 3.5-6.713 2.333-1.736 5.313-2.605 8.939-2.605 3.672 0 6.663.976 8.973 2.927 2.31 1.95 3.427 4.356 3.35 7.217l-.045.138h-6.495c0-1.546-.516-2.796-1.55-3.752-1.032-.957-2.481-1.435-4.348-1.435-1.79 0-3.175.398-4.154 1.194-.979.795-1.468 1.813-1.468 3.052 0 1.132.524 2.061 1.572 2.788 1.048.727 2.857 1.496 5.427 2.307 3.687 1.025 6.48 2.379 8.376 4.062 1.898 1.683 2.846 3.893 2.846 6.632 0 2.86-1.128 5.118-3.385 6.77-2.257 1.652-5.236 2.478-8.939 2.478-3.64 0-6.815-.937-9.523-2.81-2.708-1.875-4.024-4.503-3.948-7.884l.046-.138h6.518c0 1.99.608 3.447 1.824 4.372 1.217.926 2.91 1.389 5.083 1.389 1.821 0 3.213-.375 4.177-1.125.964-.75 1.446-1.752 1.446-3.006z" fill="#41a7c9"/></g></svg>