<svg width="140" height="39" fill="none" xmlns="http://www.w3.org/2000/svg"><path fill-rule="evenodd" clip-rule="evenodd" d="M10.53 0H0l21.988 38.084 5.254-9.1L10.53 0zm19.734 23.75l4.894-8.477L26.352 0H16.57l13.694 23.75zM43.976 0L38.18 10.038 32.392 0h11.584zM10.432 27.966l5.837 10.11H4.595l5.837-10.11zm45.264 5.373c.638-.648.957-1.523.957-2.624v-18.92h-4.018v18.272c0 .648-.298.972-.893.972H49v3.304h4.145c1.063 0 1.913-.335 2.551-1.004zM52.603 5.12c-.531.518-.797 1.188-.797 2.008 0 .821.266 1.49.797 2.009.553.518 1.233.778 2.04.778.809 0 1.478-.26 2.01-.778.552-.518.829-1.188.829-2.009 0-.82-.277-1.49-.83-2.008-.53-.519-1.2-.778-2.008-.778s-1.488.26-2.04.778zm7.659 10.237c-.66 1.253-.989 2.7-.989 4.342 0 1.641.34 3.12 1.02 4.438.68 1.317 1.638 2.343 2.87 3.078 1.233.734 2.647 1.101 4.241 1.101 1.36 0 2.52-.216 3.476-.648.978-.453 1.722-.94 2.232-1.457a14.861 14.861 0 001.53-1.847l-3.22-2.009c-.914 1.642-2.253 2.462-4.018 2.462-1.105 0-2.03-.356-2.774-1.069-.744-.712-1.158-1.598-1.243-2.656h11.51V19.57c0-1.642-.318-3.078-.956-4.309-.638-1.253-1.541-2.214-2.71-2.883-1.17-.691-2.509-1.037-4.018-1.037-1.53 0-2.902.356-4.113 1.07-1.212.69-2.158 1.673-2.838 2.947zm9.406.39c.66.604 1.042 1.435 1.148 2.494h-7.398c.128-1.059.51-1.89 1.148-2.495.638-.605 1.51-.907 2.615-.907 1.02 0 1.85.302 2.487.907zm5.906-3.953h3.954v-4.99h4.017v4.99h4.337v3.304h-4.337v8.488c0 .648.298.972.893.972h3.061v3.305h-4.464c-1.063 0-1.913-.324-2.55-.972-.639-.67-.957-1.555-.957-2.657V15.1h-3.954v-3.304zM97.096 24.43l-3.922-12.635h-4.337l5.453 16.069h5.931l5.452-16.07h-4.336L97.415 24.43h-.32zm9.166-4.73c0-1.642.329-3.089.988-4.342.68-1.274 1.626-2.257 2.838-2.948 1.212-.713 2.583-1.069 4.113-1.069 1.51 0 2.849.346 4.018 1.037 1.169.67 2.073 1.63 2.71 2.883.638 1.231.957 2.668.957 4.309v1.523h-11.511c.085 1.058.5 1.944 1.244 2.656.744.713 1.668 1.07 2.774 1.07 1.764 0 3.103-.821 4.017-2.463l3.221 2.009a14.82 14.82 0 01-1.531 1.847c-.51.518-1.254 1.004-2.232 1.457-.956.432-2.115.648-3.475.648-1.595 0-3.008-.367-4.241-1.101-1.233-.735-2.19-1.76-2.87-3.078-.68-1.318-1.02-2.797-1.02-4.438zm11.543-1.458c-.107-1.059-.489-1.89-1.148-2.495-.638-.605-1.467-.907-2.487-.907-1.106 0-1.977.302-2.615.907-.638.605-1.021 1.436-1.148 2.495h7.398zm6.698-2.884c-.722 1.275-1.084 2.765-1.084 4.471s.362 3.207 1.084 4.503a7.547 7.547 0 002.966 2.949c1.254.69 2.668 1.036 4.241 1.036 1.573 0 2.986-.345 4.24-1.036a7.54 7.54 0 002.966-2.949c.723-1.296 1.084-2.797 1.084-4.503s-.361-3.196-1.084-4.47c-.723-1.297-1.711-2.29-2.966-2.981-1.254-.691-2.667-1.037-4.24-1.037-1.573 0-2.987.346-4.241 1.037-1.254.69-2.243 1.684-2.966 2.98zm4.114 8.1c-.787-.886-1.18-2.095-1.18-3.629 0-1.533.393-2.732 1.18-3.596.786-.886 1.817-1.328 3.093-1.328 1.275 0 2.306.443 3.093 1.328.786.864 1.179 2.063 1.179 3.596 0 1.534-.393 2.743-1.179 3.629-.787.864-1.818 1.296-3.093 1.296-1.276 0-2.307-.432-3.093-1.296z" fill="#6279F0"/></svg>