<svg width="362.885" height="98.716" fill="none" xmlns="http://www.w3.org/2000/svg"><path fill-rule="evenodd" clip-rule="evenodd" d="M27.294 0H0l56.994 98.716 13.619-23.589zm51.151 61.56l12.687-21.973L68.306 0H42.95zM113.987 0L98.965 26.02 83.962 0zM27.04 72.488l15.13 26.205H11.91zm117.326 13.928c1.653-1.68 2.48-3.947 2.48-6.802V30.572h-10.414v47.362c0 1.68-.772 2.52-2.314 2.52h-7.108v8.565h10.744c2.755 0 4.96-.868 6.612-2.603zm-8.017-73.143c-1.377 1.344-2.066 3.08-2.066 5.207s.689 3.862 2.066 5.206c1.433 1.344 3.196 2.016 5.29 2.016s3.83-.672 5.207-2.016c1.433-1.344 2.149-3.079 2.149-5.206 0-2.128-.716-3.863-2.15-5.207-1.377-1.343-3.112-2.015-5.206-2.015-2.094 0-3.857.672-5.29 2.015zm19.852 26.536c-1.708 3.247-2.562 6.998-2.562 11.253s.881 8.09 2.645 11.505c1.763 3.415 4.242 6.074 7.438 7.977 3.196 1.904 6.86 2.856 10.992 2.856 3.527 0 6.53-.56 9.01-1.68 2.534-1.176 4.462-2.435 5.785-3.779 1.377-1.4 2.7-2.995 3.967-4.787l-8.348-5.206c-2.369 4.255-5.84 6.382-10.414 6.382-2.865 0-5.262-.924-7.19-2.771-1.929-1.848-3.003-4.143-3.224-6.886h29.837v-3.947c0-4.255-.826-7.978-2.48-11.169-1.652-3.247-3.994-5.738-7.025-7.473-3.03-1.792-6.502-2.688-10.413-2.688-3.968 0-7.522.924-10.662 2.772-3.141 1.791-5.593 4.338-7.356 7.641zm24.382 1.008c1.708 1.567 2.7 3.723 2.975 6.466h-19.175c.33-2.743 1.323-4.899 2.976-6.466 1.652-1.568 3.912-2.351 6.777-2.351 2.645 0 4.794.783 6.447 2.351zm15.307-10.245h10.248V17.64h10.414v12.932h11.24v8.565h-11.24V61.14c0 1.68.771 2.52 2.314 2.52h7.935v8.565H215.23c-2.755 0-4.96-.84-6.612-2.52-1.653-1.735-2.48-4.03-2.48-6.885V39.137H195.89zm55.786 32.75l-10.166-32.75h-11.24l14.133 41.652h15.374l14.131-41.652H262.67l-10.167 32.75zm23.76-12.26c0-4.255.852-8.006 2.56-11.253 1.763-3.303 4.215-5.85 7.356-7.641 3.142-1.848 6.695-2.772 10.661-2.772 3.914 0 7.385.896 10.415 2.688 3.03 1.735 5.373 4.226 7.024 7.473 1.654 3.191 2.481 6.914 2.481 11.17v3.946h-29.837c.22 2.743 1.296 5.038 3.225 6.886 1.928 1.847 4.323 2.771 7.19 2.771 4.572 0 8.043-2.127 10.412-6.382l8.35 5.206c-1.268 1.792-2.59 3.387-3.97 4.787-1.321 1.344-3.25 2.603-5.785 3.779-2.478 1.12-5.482 1.68-9.007 1.68-4.134 0-7.797-.952-10.993-2.856-3.196-1.903-5.676-4.562-7.439-7.977s-2.644-7.25-2.644-11.505zm29.919-3.779c-.277-2.743-1.268-4.899-2.976-6.466-1.653-1.568-3.802-2.351-6.446-2.351-2.867 0-5.125.783-6.778 2.351-1.654 1.567-2.647 3.723-2.976 6.466zm17.361-7.474c-1.871 3.303-2.81 7.166-2.81 11.589s.939 8.313 2.81 11.672c1.874 3.304 4.438 5.85 7.688 7.642 3.25 1.792 6.916 2.688 10.993 2.688 4.078 0 7.74-.896 10.99-2.688 3.253-1.791 5.814-4.338 7.688-7.642 1.875-3.359 2.81-7.25 2.81-11.672 0-4.423-.935-8.286-2.81-11.589-1.874-3.359-4.435-5.934-7.688-7.725-3.25-1.792-6.912-2.688-10.99-2.688-4.077 0-7.742.896-10.993 2.688-3.25 1.791-5.814 4.366-7.688 7.725zm10.664 20.994c-2.04-2.295-3.059-5.43-3.059-9.405 0-3.975 1.02-7.082 3.06-9.321 2.036-2.296 4.709-3.443 8.016-3.443 3.305 0 5.977 1.147 8.017 3.443 2.038 2.24 3.056 5.346 3.056 9.321 0 3.975-1.018 7.11-3.056 9.405-2.04 2.24-4.712 3.36-8.017 3.36-3.307 0-5.98-1.12-8.017-3.36z" fill="#6279f0"/></svg>