<svg width="512" height="512" fill="none" xmlns="http://www.w3.org/2000/svg"><g clip-path="url(#clip0_747_0)" fill="#4E4C82"><path d="M80 256c0-120.176 89.826-219.372 206-234.11A238.163 238.163 0 00256 20C125.661 20 20 125.661 20 256s105.661 236 236 236c10.163 0 20.176-.643 30-1.89C169.826 475.372 80 376.176 80 256z" fill-opacity=".5"/><path d="M256 512c-68.38 0-132.667-26.629-181.02-74.98C26.629 388.667 0 324.38 0 256c0-68.38 26.629-132.667 74.98-181.02C123.333 26.629 187.62 0 256 0c68.38 0 132.667 26.629 181.02 74.98C485.371 123.333 512 187.62 512 256c0 68.38-26.629 132.667-74.98 181.02C388.667 485.371 324.38 512 256 512zm0-472C136.897 40 40 136.897 40 256s96.897 216 216 216 216-96.897 216-216S375.103 40 256 40z"/><path d="M333.8 168.624c-15.922-9.061-34.825-8.881-50.568.474l-76.001 45.165c-5.633 3.348-10.421 7.64-14.23 12.606V181c0-11.046-8.954-20-20-20s-20 8.954-20 20v151c0 11.046 8.954 20 20 20s20-8.954 20-20v-44.869c3.81 4.966 8.598 9.258 14.23 12.606l76.001 45.165h.001c8.011 4.761 16.839 7.145 25.678 7.145 8.53 0 17.07-2.222 24.89-6.671 15.779-8.979 25.2-25.132 25.2-43.211v-90.33c-.001-18.079-9.422-34.232-25.201-43.211zM319 302.165c0 4.882-3.121 7.387-4.981 8.445-1.567.89-5.709 2.666-10.353-.095h.001l-76.001-45.165c-4.194-2.492-4.82-6.302-4.82-8.351 0-2.049.626-5.858 4.82-8.351l76-45.165c4.645-2.761 8.785-.986 10.353-.095 1.86 1.059 4.981 3.563 4.981 8.445v90.332z"/></g><defs><clipPath id="clip0_747_0"><path fill="#fff" d="M0 0h512v512H0z"/></clipPath></defs></svg>