<svg xmlns="http://www.w3.org/2000/svg" width="335.53" height="116.879"><path d="M281.725 60.93c1.747 0 3.84-.38 6.281-1.143v7.423c-2.486 1.112-5.54 1.668-9.158 1.668-3.991 0-6.896-1.008-8.718-3.025-1.817-2.016-2.729-5.042-2.729-9.076V39.15h-4.776v-4.218l5.496-3.336 2.877-7.72h6.379v7.784h10.236v7.49h-10.236v17.628c0 1.419.397 2.466 1.192 3.14.795.676 1.85 1.014 3.156 1.014m-24.573 7.294h-9.974V46.868c0-2.637-.469-4.617-1.409-5.937-.936-1.32-2.43-1.978-4.479-1.978-2.793 0-4.81.932-6.052 2.796-1.242 1.864-1.862 4.955-1.862 9.272v17.204h-9.979V31.66h7.624l1.34 4.677h.557c1.112-1.765 2.643-3.101 4.596-4.007 1.948-.904 4.17-1.357 6.655-1.357 4.25 0 7.476 1.15 9.68 3.45 2.2 2.302 3.303 5.62 3.303 9.96zm-76.88-36.566h10.924l6.897 20.573c.59 1.788.992 3.903 1.214 6.344h.196a27.707 27.707 0 011.404-6.344l6.769-20.573h10.696l-15.467 41.243c-1.42 3.815-3.444 6.671-6.072 8.568-2.626 1.898-5.693 2.846-9.205 2.846a23.29 23.29 0 01-5.067-.555v-7.916c1.196.283 2.507.424 3.924.424 1.767 0 3.31-.537 4.627-1.617 1.317-1.079 2.348-2.71 3.09-4.89l.59-1.8zM152.34 68.225V20.408h10.139V59.85h19.396v8.374z" fill="#565759"/><path d="M59.602 12.104a48.93 48.93 0 016.99-3.075 39.636 39.636 0 018.164-1.953 28.48 28.48 0 018.822.22 22.307 22.307 0 014.26 1.343 18.257 18.257 0 013.8 2.322c1.149.92 2.17 2.068 3.01 3.271l.355.515.173.257.132.241.512.939c.159.347.313.693.47 1.036.157.347.266.72.4 1.075.491 1.442.809 2.966.969 4.536.142 1.556.114 3.154-.019 4.753-.13 1.583-.423 3.179-.804 4.757-.363 1.56-2.195 6.767-2.853 8.58l.728 3.107 4.433-.87c.503-1.22 1.208-3.766 1.61-5.049a42.567 42.567 0 001.347-5.385c.332-1.852.546-3.73.574-5.613.04-1.907-.078-3.818-.408-5.68a24.16 24.16 0 00-1.648-5.424c-.207-.426-.383-.863-.614-1.267-.23-.407-.46-.812-.693-1.216-.26-.404-.541-.8-.815-1.197l-.208-.292-.2-.238-.4-.48C96.473 9.892 95.145 8.7 93.66 7.744a20.848 20.848 0 00-4.693-2.216 25.327 25.327 0 00-4.927-.968c-3.296-.28-6.494.035-9.481.677-5.973 1.322-11.043 3.788-15.24 6.294-.24.148-.467.296-.697.441.176.123.352.253.524.387.153-.083.302-.17.457-.254" fill="#515152"/><path d="M35.791 85.4a5.033 5.033 0 014.444-5.504 4.93 4.93 0 015.45 4.418 5.027 5.027 0 01-4.443 5.5A4.928 4.928 0 0135.79 85.4m18.387 2c.226-.967.33-1.954.365-2.94a15.279 15.279 0 00-.307-2.944 24.16 24.16 0 005.622-4.655c-.638-1.557-1.434-3.048-2.436-4.39-2.588.265-5.031.95-7.216 2.011-.711-.684-1.534-1.253-2.384-1.752-.854-.5-1.774-.88-2.714-1.197a23.377 23.377 0 00-1.21-7.106c-1.674-.248-3.372-.238-5.052-.076a21.427 21.427 0 00-1.935 7.186c-.947.32-1.875.699-2.735 1.203-.861.505-1.693 1.066-2.417 1.756-2.076-1.15-4.357-1.97-6.821-2.467-1.067 1.316-1.934 2.785-2.647 4.32a21.027 21.027 0 005.296 5.19c-.23.967-.325 1.953-.36 2.945.01.982.093 1.97.301 2.94a24.007 24.007 0 00-5.62 4.656c.635 1.557 1.435 3.05 2.439 4.392 2.587-.267 5.025-.955 7.219-2.016.709.685 1.526 1.252 2.38 1.75.852.503 1.773.884 2.71 1.2a23.492 23.492 0 001.212 7.106c1.679.246 3.372.237 5.056.08a21.553 21.553 0 001.93-7.192c.945-.312 1.877-.698 2.74-1.198.857-.504 1.692-1.072 2.417-1.76 2.075 1.155 4.355 1.974 6.816 2.471 1.065-1.316 1.933-2.788 2.647-4.325a20.96 20.96 0 00-5.296-5.188" fill="#ee991f" fill-rule="evenodd"/><path d="M23.768 83.226a60.373 60.373 0 01-4.13-2.042 47.096 47.096 0 01-6.592-4.316c-2.112-1.659-4.131-3.583-5.804-5.8-.432-.54-.792-1.134-1.178-1.704-.345-.592-.702-1.187-.989-1.806-.592-1.231-1.073-2.522-1.339-3.843a13.65 13.65 0 01-.213-3.968c.04-.364.06-.792.14-1.062.072-.308.1-.594.199-.917.098-.32.18-.641.282-.96l.359-.937c1.07-2.48 2.885-4.695 5.119-6.587a28.913 28.913 0 012.564-1.92h-.003l1.575-4.421-3.726-.806a34.864 34.864 0 00-3.924 3.474c-2.421 2.506-4.361 5.506-5.38 8.805L.4 55.664c-.09.419-.153.845-.228 1.263-.076.413-.096.892-.138 1.328-.054.477-.027.81-.03 1.197.012 1.72.286 3.36.764 4.937.486 1.572 1.198 3.03 2.012 4.373.4.68.867 1.307 1.316 1.93.484.6.95 1.208 1.471 1.752 2.024 2.266 4.33 4.07 6.632 5.638 3.887 2.6 7.844 4.44 11.573 5.87-.006-.134-.016-.267-.017-.4.001-.11.008-.215.013-.326m78.007 9.167c-.754-3.71-1.994-7.01-3.315-9.913a4.603 4.603 0 01-.29.31c.511 1.266.987 2.6 1.407 4a36.819 36.819 0 011.251 5.734c.277 1.997.321 4.092.116 6.182a21.22 21.22 0 01-.607 3.111c-.844 3.05-2.14 5.903-4.914 7.704-1.88 1.22-4.127 2.275-6.366 2.656-2.753.473-5.644.217-8.382-.203-2.818-.437-5.703-1.258-8.624-2.304-1.493-.565-3.012-1.16-4.507-1.869a68.938 68.938 0 01-4.598-2.312c-.76-.435-1.547-.857-2.302-1.33l-1.168-.694-1.154-.733c-.787-.486-4.58-2.776-4.96-3.054l-4.591.6-.797 3.467c.46.327 1.84 1.436 2.31 1.743.924.62 1.824 1.25 2.762 1.822 1.804 1.178 3.673 2.212 5.528 3.183 1.829.933 3.648 1.8 5.486 2.547 1.79.741 3.608 1.345 5.388 1.904 3.472 1.024 6.91 1.688 10.26 1.872a32.324 32.324 0 004.773-.054c1.527-.13 3.018-.37 4.454-.765a20.602 20.602 0 004.034-1.512 17.864 17.864 0 003.451-2.28c.253-.227.517-.433.753-.673.24-.24.474-.476.704-.716.232-.26.456-.528.68-.79l.162-.2.133-.182.257-.362a16.227 16.227 0 001.863-3.369 19.71 19.71 0 001.04-3.524 24.1 24.1 0 00.361-3.487 29.703 29.703 0 00-.598-6.509" fill="#515152"/><path d="M86.603 69.11a6.439 6.439 0 11.633-9.082 6.44 6.44 0 01-.633 9.082m15.917-2.762c2.312-.461 4.493-1.139 6.743-2.04-.016-1.336-.096-2.68-.319-3.997a32.918 32.918 0 00-7.07-1.288c-.2-.862-.554-1.68-.866-2.507-.363-.801-.743-1.605-1.197-2.364a37.965 37.965 0 004.25-5.613c-.8-1.07-1.649-2.1-2.608-3.035-2.276.787-4.5 1.89-6.466 3.107-.688-.556-1.436-1.043-2.179-1.518-.777-.422-1.537-.882-2.364-1.2.272-2.316.324-4.68.143-7.037-1.267-.447-2.59-.69-3.9-.95-1.392 2.075-2.523 4.12-3.407 6.343-.88-.042-1.766-.04-2.646.06-.888.026-1.754.254-2.63.383a39 39 0 00-4.013-5.78c-1.261.467-2.528.923-3.71 1.565.05 2.423.405 4.843.963 7.114-.76.452-1.408 1.066-2.118 1.594-.62.63-1.316 1.186-1.87 1.88-2.08-.948-4.366-1.776-6.65-2.32a25.49 25.49 0 00-2.103 3.432 33.977 33.977 0 004.952 5.183c-.248.848-.596 1.673-.741 2.55a16.923 16.923 0 00-.426 2.613c-2.317.453-4.493 1.137-6.744 2.036.014 1.336.094 2.678.32 4a32.47 32.47 0 007.067 1.283c.201.864.55 1.68.864 2.507.365.803.744 1.61 1.2 2.363a38.32 38.32 0 00-4.253 5.613c.805 1.072 1.65 2.105 2.608 3.043a33.419 33.419 0 006.47-3.11c.688.558 1.434 1.043 2.175 1.514.776.422 1.537.885 2.364 1.2a36.6 36.6 0 00-.14 7.04c1.267.448 2.587.692 3.899.953 1.388-2.08 2.52-4.125 3.404-6.347a17.077 17.077 0 002.65-.06c.884-.024 1.748-.254 2.627-.386a39.125 39.125 0 004.016 5.785c1.257-.468 2.525-.925 3.708-1.565a32.459 32.459 0 00-.966-7.118c.76-.449 1.408-1.062 2.118-1.59.624-.63 1.32-1.188 1.87-1.88 2.082.945 4.367 1.773 6.65 2.322a26.168 26.168 0 002.106-3.434 33.872 33.872 0 00-4.952-5.184c.248-.85.594-1.676.744-2.548.214-.862.342-1.734.427-2.614" fill="#7fc52c" fill-rule="evenodd"/><path d="M40.154 37.513a7.793 7.793 0 01-9.396-5.764 7.796 7.796 0 119.396 5.763m20.81 1.155c.24-.787.532-1.555.719-2.352.156-.808.387-1.598.479-2.414a45.747 45.747 0 006.177-1.425c.039-1.163.084-2.337.033-3.5a40.73 40.73 0 00-6.16-1.912l-.453-2.425-.693-2.363a45.324 45.324 0 004.782-4.123c-.42-1.09-1.04-2.089-1.57-3.129a40.01 40.01 0 00-6.352 1.18c-.454-.685-1.02-1.29-1.522-1.933-.53-.63-1.137-1.183-1.704-1.774a45.05 45.05 0 002.315-5.896c-.87-.777-1.883-1.364-2.832-2.033a40.036 40.036 0 00-5.067 4.01c-.721-.391-1.494-.674-2.24-1.013-.76-.3-1.553-.517-2.328-.777a44.804 44.804 0 00-.672-6.304C42.743.204 41.57.152 40.42 0a39.83 39.83 0 00-2.628 5.921c-.821-.024-1.632.11-2.446.156-.816.064-1.611.275-2.415.407-1.047-1.872-2.2-3.56-3.515-5.277-1.124.293-2.2.734-3.272 1.182-.064 2.156.104 4.374.41 6.471-.738.36-1.418.819-2.095 1.276-.699.43-1.316.967-1.95 1.484a41.527 41.527 0 00-5.565-3.036 23.552 23.552 0 00-2.338 2.579 37.876 37.876 0 003.368 5.542c-.488.662-.874 1.383-1.262 2.107-.426.703-.717 1.47-1.045 2.223a41.873 41.873 0 00-6.325-.107c-.387 1.1-.651 2.236-.88 3.38a37.733 37.733 0 005.54 3.35c-.124.81-.13 1.631-.136 2.454-.046.824.04 1.641.113 2.457a42.113 42.113 0 00-5.641 2.864c.193 1.15.43 2.286.789 3.396a37.083 37.083 0 006.444.387c.305.76.597 1.53 1.012 2.24.377.733.755 1.459 1.232 2.128-1.31 1.6-2.601 3.377-3.672 5.18.739.901 1.44 1.84 2.284 2.641 2.07-.746 3.997-1.6 5.873-2.67.634.52 1.243 1.074 1.94 1.508.671.466 1.343.94 2.075 1.308-.421 2.032-.741 4.2-.859 6.302 1.067.463 2.12.955 3.239 1.28a37.543 37.543 0 003.97-5.105c.8.175 1.593.375 2.409.441.813.099 1.625.204 2.445.187a43.444 43.444 0 002.165 5.987c1.156-.112 2.328-.136 3.459-.382.552-2.16.952-4.21 1.139-6.373.776-.248 1.58-.417 2.337-.736.75-.325 1.532-.573 2.25-.967a46.087 46.087 0 004.687 4.307c.974-.63 1.963-1.253 2.888-1.959a41.027 41.027 0 00-1.94-6.18c.57-.584 1.178-1.137 1.72-1.75.512-.638 1.074-1.238 1.539-1.914a45.985 45.985 0 006.132 1.628c.568-1.01 1.16-2.02 1.647-3.076-1.454-1.686-2.948-3.202-4.578-4.573" fill="#e23937" fill-rule="evenodd"/><path d="M335.53 94.262c0 1.883-.681 3.351-2.048 4.406-1.366 1.053-3.218 1.58-5.56 1.58-2.536 0-4.49-.328-5.853-.982v-2.4a15.557 15.557 0 002.867.88c1.033.214 2.06.32 3.072.32 1.66 0 2.909-.316 3.746-.942.84-.63 1.259-1.506 1.259-2.627 0-.744-.147-1.35-.448-1.821-.293-.475-.793-.912-1.49-1.31-.698-.4-1.76-.854-3.183-1.36-1.991-.714-3.414-1.557-4.267-2.533-.853-.976-1.276-2.248-1.276-3.819 0-1.648.613-2.96 1.853-3.936 1.243-.977 2.879-1.464 4.918-1.464 2.128 0 4.084.391 5.87 1.171l-.777 2.167c-1.765-.743-3.481-1.112-5.152-1.112-1.315 0-2.344.281-3.084.848-.744.566-1.112 1.35-1.112 2.354 0 .742.133 1.35.41 1.824.271.472.731.907 1.38 1.3.651.398 1.64.832 2.978 1.312 2.245.8 3.787 1.656 4.63 2.574.845.92 1.267 2.106 1.267 3.57m-16.934 5.694h-11.927V78.564h11.927v2.208h-9.438v6.893h8.866v2.195h-8.867v7.872h9.439zm-16.68-18.334c-1.619-.762-3.238-1.142-4.859-1.142-2.35 0-4.207.781-5.565 2.346-1.362 1.568-2.044 3.711-2.044 6.432 0 2.8.66 4.963 1.969 6.49 1.312 1.526 3.183 2.29 5.613 2.29 1.49 0 3.195-.268 5.104-.805v2.179c-1.482.556-3.31.836-5.485.836-3.152 0-5.583-.958-7.293-2.867-1.715-1.915-2.57-4.63-2.57-8.152 0-2.205.411-4.137 1.238-5.795.821-1.657 2.013-2.936 3.569-3.833 1.556-.897 3.387-1.347 5.496-1.347 2.24 0 4.203.411 5.88 1.23zm-22.262-3.058h2.486v21.392h-2.486zm-5.933 0h2.679l-7.711 21.392h-2.459l-7.668-21.392h2.636l4.915 13.84a39.496 39.496 0 011.347 4.64 38.813 38.813 0 011.373-4.727zm-28.301 10.36h3.408c1.754 0 3.042-.35 3.862-1.048.82-.698 1.23-1.744 1.23-3.139 0-1.413-.418-2.435-1.25-3.059-.834-.624-2.172-.936-4.018-.936h-3.232zm0 2.134v8.898h-2.487V78.564h5.867c2.624 0 4.56.5 5.813 1.504 1.253 1.006 1.885 2.52 1.885 4.537 0 2.828-1.437 4.74-4.304 5.736l5.808 9.615h-2.94l-5.18-8.898zm-6.78 8.898h-11.926V78.564h11.926v2.208h-9.44v6.893h8.866v2.195H229.2v7.872h9.44zm-15.962-5.694c0 1.883-.68 3.351-2.047 4.406-1.367 1.053-3.22 1.58-5.562 1.58-2.536 0-4.484-.328-5.85-.982v-2.4a15.621 15.621 0 002.866.88 15.16 15.16 0 003.076.32c1.656 0 2.906-.316 3.744-.942.838-.63 1.259-1.506 1.259-2.627 0-.744-.15-1.35-.444-1.821-.301-.475-.797-.912-1.496-1.31-.699-.4-1.76-.854-3.18-1.36-1.99-.714-3.413-1.557-4.267-2.533-.853-.976-1.28-2.248-1.28-3.819 0-1.648.619-2.96 1.858-3.936 1.237-.977 2.876-1.464 4.918-1.464 2.123 0 4.079.391 5.865 1.171l-.774 2.167c-1.766-.743-3.484-1.112-5.15-1.112-1.32 0-2.349.281-3.089.848-.742.566-1.112 1.35-1.112 2.354 0 .742.134 1.35.41 1.824.273.472.733.907 1.38 1.3.65.398 1.644.832 2.977 1.312 2.247.8 3.79 1.656 4.636 2.574.844.92 1.262 2.106 1.262 3.57" fill="#828383"/></svg>