<svg width="199.983" viewBox="20.27 266.98 600 36.279" height="36.279" xmlns="http://www.w3.org/2000/svg"><path d="M236.67 272.606v64.8h23.5v-77.4l-23.5 12.6m24-32.6c-.9-2.5-2.8-5-5.1-6.6-5.4-3.2-13-2.3-17.2 2.1-3.1 2.9-4.6 7.8-3.8 12.5.6 4.4 4.2 7.9 7.2 9.3 5 2 12.4 1.6 16.9-4 2.6-3.2 3.5-8.8 2-13.3m-141.2 32.6c-1.2-4.8-5.3-9-10-10.1-10.8-2.7-20.7 1.5-26.3 11l-.5.9-.4-1c-2.8-7.1-7.3-11-13.3-11.6-10-1.6-17.7 2.3-25.1 12.3l-.9 1.3v-14.7c-1.4.7-22.7 11.6-22.7 11.6v65.1h22.7v-48.8c0-3.8 3.8-7.2 7.6-7 3.5.1 7.1 3.5 7.1 7v48.7h23.7v-48.7c0-3.9 4.1-7.2 8-7 3.5.2 6.9 3.5 6.9 7v48.7h23.9v-56.4c0-2.2 0-5.6-.7-8.3m66.5 55.7c-2-.2-2.6-4.5-2.6-4.5l-4.3-25.7-1-5c-1.1-5.3-2.1-10.9-4.2-16-6.7-15.4-25.7-18-39.8-13.8-2.3.7-4.4 1.8-4.4 1.8v9.6c5.8-2.5 11.4-2.7 16-.5 5.9 2.9 7.6 10.2 7.9 13.2 0 .1.5 3.4.5 3.4-6.9 1-15.4 2.7-21.7 7.2-7 5-10.7 13-9.9 21.3.3 8.9 7.1 15.9 13.7 18.4 8.8 3.1 20.9 2.6 28.1-5.7l.9-1 2 2c5.2 5.5 11 5.3 17.6 5.1l3.5-.1v-9.4c.1 0-2.2-.3-2.3-.3zm-30.2-26.2l4.3 20.8c-11 12.8-29.3-9.6-4.3-20.8zm75.2-42c-10.4 0-16 12-16.1 12.2l-1 2.3v-14.6l-23.1 12.6v65h23.2v-41.6l.1-1.6c.2-3.4.4-7 2-10 3.5-6.7 11.5-6.6 17.1-5.8l4.1-17.5c0 .1-2.6-1-6.3-1m330.9 1.1s-2.6-1.1-6.3-1.1c-10.4 0-16 12-16.1 12.2l-1 2.3v-14.6l-23.1 12.6v65h23.2v-41.6l.1-1.6c.2-3.4.4-7 2-10 3.5-6.7 11.5-6.6 17.1-5.8l4.1-17.4m-48.7-22c-.9-2.5-2.8-5-5.1-6.6-5.4-3.2-13-2.3-17.2 2.1-3.1 2.9-4.6 7.8-3.8 12.5.6 4.4 4.2 7.9 7.2 9.3 5 2 12.4 1.6 16.9-4 2.6-3.2 3.4-8.7 2-13.3m80.7 88.5c-9.2-.7-13.5-17.6-13.5-17.6l39.9-12.9s-.8-17.4-10.4-26.9c-8.8-8.7-22.2-11.2-34.5-6.2-7.3 2.8-14.1 10.4-17.2 19.4-6.1 17-2.5 36 9.1 47.3 10.7 10.2 27.3 10 39.2 6.4l6-2.6v-10.8s-7.2 4.7-18.6 3.9zm-14.1-28.6c-.6-7.3.3-15.1 2-18.7 1.8-3.6 3.8-5.1 6.3-5.4 10.6-1.3 11.7 18.1 11.7 18.1l-20 6c0 .1 0 0 0 0zm-90.7-26.5v64.8h23.5v-77.4l-23.5 12.6m-171.5-2.4c-8.8-8.7-22.2-11.2-34.5-6.2-7.3 2.8-14.1 10.4-17.2 19.4-6.1 17-2.5 36 9.1 47.3 10.7 10.2 27.3 10 39.2 6.4l6-2.6v-10.8s-7.3 4.7-18.6 3.8c-9.2-.7-13.5-17.6-13.5-17.6l39.9-12.9c0 .1-.8-17.3-10.4-26.8zm-30.1 29s0-.1 0 0c-.6-7.4.3-15.2 2-18.8 1.8-3.6 3.8-5.1 6.3-5.4 10.6-1.3 11.7 18.1 11.7 18.1zm90.2 25.9c-6.2-3.2-11.3-7.9-12-21.4-.8-15.7 2.4-26.8 10.8-30 6.4-2.4 15.1 2.9 15.1 2.9l.1-12.7s-12-5.8-25.5-1.5c-12.2 3.9-20 13.4-22.8 28.9-2 11.3-.4 23.8 5.2 33.6 6.4 10.6 18.7 16.1 32.6 14.3 3.8-.5 11.7-2.9 11.7-2.9l-.1-11.8c0-.1-8.7 3.9-15.1.6m106.6 2.4c-2-.2-2.6-4.5-2.6-4.5l-4.3-25.7-1-5c-1.1-5.3-2.1-10.9-4.2-16-6.7-15.4-25.7-18-39.8-13.8-2.3.7-4.4 1.8-4.4 1.8v9.6c5.8-2.5 11.4-2.7 16-.5 5.9 2.9 7.6 10.2 7.9 13.2 0 .1.5 3.4.5 3.4-6.9 1-15.4 2.7-21.7 7.2-7 5-10.7 13-9.9 21.3.3 8.9 7.1 15.9 13.7 18.4 8.8 3.1 20.9 2.6 28.1-5.7l.9-1 2 2c5.2 5.5 11 5.3 17.6 5.1l3.5-.1v-9.4c.1.1-2.2-.3-2.3-.3zm-30.2-26.1l4.3 20.8c-11 12.8-29.3-9.6-4.3-20.8zm-58.9 35.8h23.1v-100.5l-23.1 12.4v88.1" fill="#343434"/></svg>