<svg width="1333.332" height="168.354" viewBox="0 0 999.999 126.266" xmlns="http://www.w3.org/2000/svg"><path d="M999.309 77.344c-3.5-23.215-31.286-24.586-49.672-25.492 0 0-75.88-2.059-83.883-2.407-7.043-.304-15.234-1.664-16.035-9.53-.84-8.231 6.582-12.048 13.332-13.474 13.48-2.851 26.945-3.09 40.308-3.09 29.38 0 56.403 3.22 84.938 8.438L991.39 8.9l.027-.165C969.89 4.73 940.12 0 908.324 0c-14.875 0-28.863.848-41.582 2.52-15.023 1.972-31.469 5.418-39.543 15.992-6.851 8.98-7.554 24.156-3.402 34.508 7.137 17.792 32.422 18.48 48.18 19.195 0 0 76.328 2.176 84.418 2.539 7.042.316 15.234 1.719 16.035 9.82.715 7.235-4.102 12.477-14.067 14.551-13.023 2.715-26.761 3.078-40.11 3.078-32.452 0-61.116-3.39-94.073-8.5l-2.688 23.121c21.738 4.336 55.13 9.442 91.793 9.442h.457c13.992-.004 28.11-.008 41.988-2.008 12.243-1.762 25.079-4.438 34.723-12.82 9.496-8.25 10.606-22.497 8.856-34.094M108.117 95.168L32.23.852H0v124.613h28.504v-86.39l63.164 78.51c8.93 11.099 23.937 11.138 32.898 0l63.164-78.51v86.39h28.504V.852h-32.23l-75.887 94.316M454.691.852H288.938v124.613h167.144l4.188-25.203H317.44V75.758h131.59v-25.2H317.44V26.056h137.25V.852m275.048 124.574L781.73.852h-29.425l-39.793 95.355-46.903-84.016a23.63 23.63 0 00-40.965 0l-46.902 84.016L537.95.852h-29.426l51.993 124.574h30.25l54.359-98.29 54.363 98.29h30.25"/></svg>