<svg width="401.9" height="63.8" xmlns="http://www.w3.org/2000/svg" clip-rule="evenodd" fill-rule="evenodd" stroke-linejoin="round" stroke-miterlimit="2"><path d="M0 23.8h13.6v4.7c3.7-3.6 7.9-5.3 12.5-5.3 5.7 0 10.1 2.4 13.1 7.2 3.1-4.9 7.4-7.3 13.1-7.3 1.8 0 3.5.3 5.1.8 1.6.5 3 1.4 4.1 2.5 1.2 1.1 2.1 2.6 2.7 4.4.7 1.8 1 4 1 6.5v25H51.6v-19c0-2-.1-3.6-.4-4.8-.3-1.3-.7-2.2-1.2-2.9-.5-.7-1.1-1.2-1.8-1.4-.7-.2-1.5-.4-2.3-.4-4.4 0-6.5 3.2-6.5 9.5v19H25.7v-19c0-2-.1-3.6-.4-4.8-.3-1.3-.6-2.3-1.1-3-.5-.8-1.1-1.3-1.8-1.5-.8-.3-1.6-.4-2.6-.4-.9 0-1.7.1-2.4.4-.8.3-1.4.7-2 1.5-.6.7-1 1.7-1.4 3-.3 1.3-.5 2.9-.5 5v19H0zm142.4 11.4v27.2h-13.6V35.2h-4.5V23.8h4.5V12.3h13.6v11.6h7.7v11.3zm13-26.2c0-1.1.2-2 .6-3 .4-.9 1-1.7 1.7-2.4s1.5-1.3 2.4-1.7c.9-.4 1.9-.6 3-.6s2 .2 3 .6c.9.4 1.7 1 2.4 1.7s1.3 1.5 1.7 2.4c.4.9.6 1.9.6 3s-.2 2-.6 3c-.4.9-1 1.7-1.7 2.4s-1.5 1.3-2.4 1.7c-.9.4-1.9.6-3 .6s-2-.2-3-.6c-.9-.4-1.7-1-2.4-1.7s-1.3-1.5-1.7-2.4c-.4-.9-.6-1.9-.6-3zm14.5 14.8v38.5h-13.6V23.8zm61.8 0h13.6v4.9c1.9-2.3 3.7-3.8 5.6-4.5 1.9-.8 4.1-1.2 6.7-1.2 2.7 0 5 .4 6.9 1.3 1.9.9 3.6 2.1 4.9 3.7 1.1 1.3 1.9 2.8 2.3 4.4.4 1.6.6 3.4.6 5.5v24.5h-13.6V42.9c0-1.9-.1-3.4-.4-4.6-.3-1.2-.8-2.1-1.5-2.8-.6-.6-1.3-1-2-1.3-.8-.2-1.6-.4-2.4-.4-2.3 0-4.1.7-5.3 2.1-1.2 1.4-1.8 3.3-1.8 5.9v20.6h-13.6zM281.6 0h13.6v62.3h-13.6zm52.5 23.8h13.8v38.5h-13.7V58c-2.9 3.7-6.8 5.5-11.8 5.5-2.8 0-5.4-.5-7.7-1.5-2.4-1-4.4-2.5-6.2-4.3-1.8-1.9-3.1-4-4.1-6.5-1-2.5-1.5-5.2-1.5-8.2 0-2.8.5-5.4 1.4-7.8 1-2.5 2.3-4.6 4-6.5 1.7-1.9 3.7-3.3 6.1-4.4 2.4-1.1 5-1.6 7.8-1.6 4.8 0 8.8 1.7 11.9 5zm-17 19.2c0 1.3.2 2.4.7 3.5.5 1.1 1.1 2 1.8 2.8.8.8 1.7 1.4 2.8 1.9 1.1.5 2.2.7 3.5.7 1.2 0 2.3-.2 3.4-.7 1.1-.5 2-1.1 2.8-1.9.8-.8 1.4-1.7 1.9-2.8.5-1.1.7-2.2.7-3.4 0-1.2-.2-2.3-.7-3.4-.5-1.1-1.1-2-1.9-2.8-.8-.8-1.7-1.4-2.8-1.9-1.1-.5-2.2-.7-3.4-.7-1.3 0-2.4.2-3.5.7-1.1.5-2 1.1-2.8 1.9-.8.8-1.4 1.7-1.8 2.7-.5 1.1-.7 2.2-.7 3.4zm53.6-43v27.6c3.2-3.4 7.2-5 12-5 2.9 0 5.5.5 7.8 1.6 2.4 1.1 4.4 2.5 6.1 4.4 1.7 1.8 3 4 3.9 6.5 1 2.5 1.4 5.1 1.4 7.9 0 2.9-.5 5.5-1.5 8s-2.3 4.7-4.1 6.5c-1.8 1.9-3.8 3.3-6.2 4.4-2.4 1.1-4.9 1.6-7.7 1.6-5 0-9-1.8-11.9-5.5v4.3h-13.4V0zm17.1 43.2c0-1.2-.2-2.3-.7-3.4-.5-1.1-1.1-2-1.9-2.8-.8-.8-1.7-1.4-2.8-1.9-1.1-.5-2.2-.7-3.5-.7-1.2 0-2.3.2-3.4.7-1.1.5-2 1.1-2.7 1.9-.8.8-1.4 1.7-1.9 2.8-.5 1.1-.7 2.2-.7 3.4 0 1.2.2 2.3.7 3.4.5 1.1 1.1 2 1.9 2.7.8.8 1.7 1.4 2.8 1.9 1.1.5 2.2.7 3.4.7 1.2 0 2.3-.2 3.4-.7 1.1-.5 2-1.1 2.7-1.9.8-.8 1.4-1.7 1.9-2.8.6-1 .8-2.1.8-3.3zm-270.3-8.4c-1.2-2.5-2.8-4.7-4.8-6.5-2.1-1.8-4.5-3.3-7.4-4.3-2.8-1-5.9-1.5-9.2-1.5-3.4 0-6.4.5-9.3 1.6-2.8 1.1-5.3 2.5-7.3 4.3-2.1 1.8-3.7 4-4.8 6.5-1.2 2.5-1.7 5.1-1.7 8v.5h14.3V43c0-1.2.2-2.3.7-3.4.5-1.1 1.1-2 1.9-2.8.8-.8 1.7-1.4 2.8-1.9 1.1-.5 2.2-.7 3.4-.7 1.2 0 2.3.2 3.4.7 1.1.5 2 1.1 2.8 1.9.8.8 1.4 1.7 1.9 2.8.5 1.1.7 2.2.7 3.4 0 1.3-.2 2.4-.7 3.5-.5 1.1-1.1 2-1.9 2.8-.8.8-1.7 1.4-2.8 1.9-1.1.5-2.2.7-3.4.7h-.2v11.9c3.3 0 6.5-.5 9.3-1.5 2.9-1 5.3-2.4 7.4-4.2 2.1-1.8 3.7-4 4.8-6.5 1.2-2.5 1.8-5.3 1.8-8.4 0-3.1-.6-5.9-1.7-8.4zM179 51.4c1.2 2.5 2.8 4.7 4.8 6.5 2.1 1.8 4.5 3.3 7.4 4.3 2.8 1 5.9 1.5 9.2 1.5 3.4 0 6.4-.5 9.3-1.6 2.8-1.1 5.3-2.5 7.3-4.3 2.1-1.8 3.7-4 4.8-6.5 1.2-2.5 1.7-5.1 1.7-8v-.5h-14.3v.4c0 1.2-.2 2.3-.7 3.4-.5 1.1-1.1 2-1.9 2.8-.8.8-1.7 1.4-2.8 1.9-1.1.5-2.2.7-3.4.7-1.2 0-2.3-.2-3.4-.7-1.1-.5-2-1.1-2.8-1.9-.8-.8-1.4-1.7-1.9-2.8-.5-1.1-.7-2.2-.7-3.4 0-1.3.2-2.4.7-3.5.5-1.1 1.1-2 1.9-2.8.8-.8 1.7-1.4 2.8-1.9 1.1-.5 2.2-.7 3.4-.7h.2V22.4c-3.3 0-6.5.5-9.3 1.5-2.9 1-5.3 2.4-7.4 4.2-2.1 1.8-3.7 4-4.8 6.5-1.2 2.5-1.8 5.3-1.8 8.4 0 3.1.6 5.9 1.7 8.4z" fill="#fd8f82" fill-rule="nonzero"/></svg>