<svg version="1.1" id="Vrstva_1" x="0" y="0" xml:space="preserve" width="344.4" height="89.54" xmlns="http://www.w3.org/2000/svg"><style type="text/css" id="style9">.st0{fill:#1a1a18}.st2{fill:#fff}</style><g id="g41" transform="translate(-248.74 -252.87)"><g id="g27"><path class="st0" d="M386.11 282.96h8.79l.77 3.35h.28c2.65-2.44 6.14-4.19 9.7-4.19 8.37 0 13.53 6.91 13.53 17.58 0 11.93-7.04 18.77-14.51 18.77-3 0-5.72-1.25-8.16-3.56l.35 5.37v10.05h-10.74v-47.37zm21.98 16.89c0-6.07-1.81-8.93-5.65-8.93-2.02 0-3.7.91-5.58 2.93v13.74c1.74 1.53 3.56 2.02 5.23 2.02 3.35 0 6-2.72 6-9.76z" id="path11"/><path class="st0" d="M421.63 272.5c0-3.35 2.51-5.51 6.07-5.51 3.56 0 6.07 2.16 6.07 5.51 0 3.42-2.51 5.58-6.07 5.58-3.56 0-6.07-2.16-6.07-5.58zm.7 10.46h10.74v34.67h-10.74z" id="path13"/><path class="st0" d="M437.81 282.96h8.79l.77 3.35h.28c2.65-2.44 6.14-4.19 9.7-4.19 8.37 0 13.54 6.91 13.54 17.58 0 11.93-7.05 18.77-14.51 18.77-3 0-5.72-1.25-8.16-3.56l.35 5.37v10.05h-10.74v-47.37zm21.98 16.89c0-6.07-1.81-8.93-5.65-8.93-2.02 0-3.7.91-5.58 2.93v13.74c1.74 1.53 3.56 2.02 5.23 2.02 3.34 0 6-2.72 6-9.76z" id="path15"/><path class="st0" d="M472.14 300.27c0-11.23 8.09-18.14 16.4-18.14 10.05 0 14.93 7.26 14.93 16.68 0 1.95-.21 3.77-.42 4.74h-20.44c.98 4.68 4.26 6.7 8.65 6.7 2.51 0 5.02-.77 7.46-2.16l3.49 6.49c-3.63 2.58-8.37 3.91-12.49 3.91-9.9-.02-17.58-6.64-17.58-18.22zm22.12-3.98c0-3.42-1.53-6-5.44-6-3.07 0-5.65 1.95-6.35 6z" id="path17"/><path class="st0" d="M508.14 304.8v-13.39h-4.67v-8.09l5.3-.35 1.26-10.6h8.93v10.6h8.16v8.44h-8.16v13.25c0 3.91 1.81 5.37 4.39 5.37 1.12 0 2.3-.14 3.21-.49l1.67 7.53c-1.81.7-4.46 1.4-7.88 1.4-8.65 0-12.21-5.51-12.21-13.67z" id="path19"/><path class="st0" d="M528.08 307.94c0-7.33 5.65-11.3 19.32-12.7-.28-2.86-1.74-4.54-5.3-4.54-2.79 0-5.58.98-9.07 2.93l-3.77-6.98c4.54-2.79 9.49-4.54 14.93-4.54 8.93 0 13.95 4.95 13.95 15.84v19.67h-8.79l-.77-3.49h-.28c-2.86 2.58-6 4.33-9.91 4.33-6.33.01-10.31-4.73-10.31-10.52zm19.33-.56v-5.51c-6.91.91-9 2.79-9 5.23 0 2.02 1.33 3 3.7 3 2.16 0 3.62-1.04 5.3-2.72z" id="path21"/><path class="st0" d="M561.84 272.5c0-3.35 2.51-5.51 6.07-5.51 3.56 0 6.07 2.16 6.07 5.51 0 3.42-2.51 5.58-6.07 5.58-3.56 0-6.07-2.16-6.07-5.58zm.7 10.46h10.74v34.67h-10.74z" id="path23"/><path class="st0" d="M577.94 306.4v-37.53h10.74v37.95c0 2.23 1.12 2.93 1.95 2.93.42 0 .7 0 1.25-.14l1.26 7.95c-1.19.49-3 .91-5.37.91-7.39 0-9.83-4.81-9.83-12.07z" id="path25"/></g><g id="g39"><path d="M276.03 252.87h-19.19c-4.47 0-8.1 3.63-8.1 8.1v73.34c0 4.47 3.63 8.1 8.1 8.1h106.51v-89.54z" id="path29" fill="#462482"/><g id="g37"><g id="g33"><path class="st2" d="M322.08 330.85l-13.87-13.23.01-19.81h25.56c3.06 0 4.6-1.6 4.6-4.81v-2.27h-30.16v-11.75h43.96v18.3c0 1.96-.29 3.7-.89 5.21-.59 1.51-1.43 2.79-2.53 3.84-1.1 1.05-2.39 1.85-3.88 2.4-1.49.56-3.11.83-4.86.83h-17.94z" id="path31"/></g><path class="st2" id="rect35" d="M286.42 278.98h18.33v11.75h-18.33z"/></g></g></g></svg>