<svg width="1623.967" height="336.625" viewBox="0 0 1217.975 252.469" xmlns:xlink="http://www.w3.org/1999/xlink" xmlns="http://www.w3.org/2000/svg"><defs><clipPath id="j"><path d="M63 58h95v32H63zm0 0"/></clipPath><clipPath id="k"><path d="M63.078 89.68h94.188v-3.508c0-15.488-12.559-28.05-28.051-28.05H91.129c-15.492 0-28.05 12.562-28.05 28.05zm0 0"/></clipPath><clipPath id="l"><path d="M94 58h64v32H94zm0 0"/></clipPath><clipPath id="m"><path d="M94.473 89.734h62.793V86.23c0-15.492-12.559-28.05-28.051-28.05h-6.692c-15.492 0-28.05 12.558-28.05 28.05zm0 0"/></clipPath><clipPath id="n"><path d="M0 223h95v33H0zm0 0"/></clipPath><clipPath id="o"><path d="M94.21 223.824H.286v2.742c0 15.914 12.899 28.817 28.813 28.817h36.3c15.915 0 28.813-12.903 28.813-28.817zm0 0"/></clipPath><clipPath id="p"><path d="M0 223h64v33H0zm0 0"/></clipPath><clipPath id="q"><path d="M63.113 223.824H.285v3.508c0 15.492 12.559 28.05 28.05 28.05h6.727c15.493 0 28.051-12.558 28.051-28.05zm0 0"/></clipPath><clipPath id="r"><path d="M126 58h32v84h-32zm0 0"/></clipPath><clipPath id="s"><path d="M126.227 58.262v83.02h1.148c16.793 0 30.406-13.618 30.406-30.41V86.136c0-15.399-12.48-27.875-27.875-27.875zm0 0"/></clipPath><clipPath id="t"><path d="M189 2h32v142h-32zm0 0"/></clipPath><clipPath id="u"><path d="M189.34 2.992V143.18h3.504c15.492 0 28.05-12.559 28.05-28.051V31.043c0-15.492-12.558-28.05-28.05-28.05zm0 0"/></clipPath><clipPath id="v"><path d="M0 115.129h31.555v140.25H0zm0 0"/></clipPath><clipPath id="w"><path d="M31.555 255.379v-140.25h-3.2c-15.66 0-28.355 12.7-28.355 28.355v83.54c0 15.66 12.695 28.355 28.355 28.355zm0 0"/></clipPath><clipPath id="x"><path d="M63 58h32v60H63zm0 0"/></clipPath><clipPath id="y"><path d="M63.113 117.918v-31.61c0-15.492 12.559-28.046 28.051-28.046h3.504v59.656zm0 0"/></clipPath><clipPath id="z"><path d="M63 144h32v112H63zm0 0"/></clipPath><clipPath id="A"><path d="M63.113 255.379v-82.36c0-15.492 12.559-28.05 28.051-28.05h3.504v82.363c0 15.492-12.555 28.047-28.047 28.047zm0 0"/></clipPath><clipPath id="B"><path d="M.664 2.93H220.06v31.554H.664zm0 0"/></clipPath><clipPath id="C"><path d="M28.71 34.484h191.35V30.98c0-15.492-12.559-28.05-28.051-28.05H.664v3.507c0 15.493 12.555 28.047 28.047 28.047"/></clipPath><clipPath id="D"><path d="M.285 2.93H189.34v31.554H.285zm0 0"/></clipPath><clipPath id="E"><path d="M28.336 34.484H189.34V30.98c0-15.492-12.559-28.05-28.05-28.05H.284v3.507c0 15.493 12.559 28.047 28.05 28.047"/></clipPath><clipPath id="F"><path d="M0 113h221v32H0zm0 0"/></clipPath><clipPath id="G"><path d="M.664 144.934h192.18c15.492 0 28.05-12.559 28.05-28.051v-3.508H28.712c-15.492 0-28.047 12.559-28.047 28.05zm0 0"/></clipPath><clipPath id="H"><path d="M0 113h190v32H0zm0 0"/></clipPath><clipPath id="I"><path d="M.285 144.934H161.29c15.492 0 28.05-12.559 28.05-28.051v-3.508H28.337c-15.492 0-28.05 12.559-28.05 28.05zm0 0"/></clipPath><clipPath id="J"><path d="M0 144.95h31.555v110.448H0zm0 0"/></clipPath><clipPath id="K"><path d="M31.555 255.398V144.95H28.12C12.59 144.95 0 157.54 0 173.07v54.207c0 15.528 12.59 28.121 28.121 28.121zm0 0"/></clipPath><symbol overflow="visible" id="a"><path d="M21.61 0v-36.516h44.03c19.282 0 24.485-11.078 24.485-29.937 0-18.063-5.203-29.266-24.484-29.266H21.75c-8.219 0-12.86 3-12.86 12.844V0zm0-46.906v-32.14c0-4.376.687-6.282 6.156-6.282h33.359c13.266 0 15.734 6.562 15.734 18.875 0 12.703-2.187 19.547-15.734 19.547zm0 0"/></symbol><symbol overflow="visible" id="b"><path d="M8.89 0h12.72v-78.766c0-5.203 2.453-6.562 6.828-6.562H62.5c12.844 0 14.766 6.703 14.766 18.594 0 11.625-1.094 20.109-12.72 20.109h-23.39c-3.687 0-5.734 1.906-5.734 4.781v2.188c0 2.328 1.781 4.375 3.547 6.015L75.625 0h16.953l-39.25-35.563v-.671h15.453c16.547 0 21.75-12.172 21.75-30.5 0-17.782-5.61-28.985-23.25-28.985H22.97c-9.016 0-14.078 4.235-14.078 14.485zm0 0"/></symbol><symbol overflow="visible" id="c"><path d="M53.875-96.813c-35 0-47.719 12.297-47.719 48.954 0 36.64 12.719 48.953 47.719 48.953 35.281 0 47.734-12.313 47.734-48.953 0-36.657-12.453-48.953-47.734-48.953zM19.422-47.858c0-28.86 7.25-38.563 34.453-38.563 27.219 0 34.469 9.703 34.469 38.563 0 28.984-7.25 38.562-34.469 38.562-27.203 0-34.453-9.578-34.453-38.562zm0 0"/></symbol><symbol overflow="visible" id="d"><path d="M85.188 0v-10.39h-34.86c-23.531 0-30.906-11.626-30.906-37.61S27.078-85.328 51-85.328h32.828v-10.39H46.766c-32.813 0-40.61 21.046-40.61 47.718 0 26.672 7.922 48 39.922 48zm0 0"/></symbol><symbol overflow="visible" id="e"><path d="M82.047 0v-10.39H27.89c-5.328 0-6.282-1.782-6.282-6.563v-26.813H80.14v-10.39H21.609v-24.75c0-4.781.953-6.422 6.282-6.422H81.5v-10.39H22.297c-8.344 0-13.406 3.28-13.406 13.53v68.657C8.89-3.97 13.953 0 22.297 0zm0 0"/></symbol><symbol overflow="visible" id="f"><path d="M6.844 0h57.015c14.766 0 19.828-10.797 19.828-23.797 0-15.047-7.109-19.828-19.828-24.062L27.766-59.891c-8.485-2.875-9.032-7.937-9.032-13.14 0-8.875 3.563-12.297 10.797-12.297h49.516v-10.39H27.219c-15.188 0-21.75 8.75-21.75 22.421 0 13.266 4.922 19.828 16.406 23.656l37.89 12.578c9.563 3.157 10.657 8.204 10.657 13.266 0 8.344-2.875 13.406-10.11 13.406H6.844zm0 0"/></symbol><symbol overflow="visible" id="g"><path d="M-1.375 0h13.406l10.672-25.984h50.734L84.234 0h13.407L61.406-86.297c-2.734-6.562-6.297-10.516-13.265-10.516-7.25 0-10.266 3.829-13.125 10.516zm46.234-80.266c.813-1.921 1.641-4.656 3.282-4.656 1.64 0 2.593 2.734 3.422 4.656l18.046 43.891H26.531zm0 0"/></symbol><symbol overflow="visible" id="h"><path d="M95.172-95.719H82.734v78.625c0 .828 0 2.328-1.64 2.328-1.375 0-1.922-1.234-2.594-2.328l-45.547-72.75c-2.328-3.687-5.328-6.969-12.297-6.969-5.343 0-11.765 2.594-11.765 11.344V0h12.437v-78.219c0-2.187 1.375-2.734 1.922-2.734.953 0 1.781.687 2.734 2.328L71.11-6.422c3.687 5.875 7.39 7.516 12.578 7.516 6.843 0 11.484-3.969 11.484-12.031zm0 0"/></symbol><symbol overflow="visible" id="i"><path d="M59.078 0c29.406 0 35.688-23.656 35.688-48.266 0-24.625-6.97-47.453-37.61-47.453h-34.86c-8.343 0-13.405 3.281-13.405 13.531v68.657C8.89-3.281 13.953 0 22.297 0zm-5.75-85.328c23.938 0 28.172 16.547 28.172 37.062 0 20.5-3.547 37.875-27.484 37.875H27.89c-5.188 0-6.282-1.5-6.282-6.562v-61.953c0-4.516 1.235-6.422 6.282-6.422zm0 0"/></symbol></defs><use xlink:href="#a" x="274.351" y="153" width="100%" height="100%" fill="#000c5e" transform="translate(0 -2.93)"/><use xlink:href="#b" x="369.2" y="153" width="100%" height="100%" fill="#000c5e" transform="translate(0 -2.93)"/><use xlink:href="#c" x="467.195" y="153" width="100%" height="100%" fill="#000c5e" transform="translate(0 -2.93)"/><use xlink:href="#d" x="574.898" y="153" width="100%" height="100%" fill="#000c5e" transform="translate(0 -2.93)"/><use xlink:href="#e" x="663.457" y="153" width="100%" height="100%" fill="#000c5e" transform="translate(0 -2.93)"/><use xlink:href="#f" x="750.239" y="153" width="100%" height="100%" fill="#000c5e" transform="translate(0 -2.93)"/><use xlink:href="#f" x="833.875" y="153" width="100%" height="100%" fill="#000c5e" transform="translate(0 -2.93)"/><use xlink:href="#g" x="922.981" y="153" width="100%" height="100%" fill="#000c5e" transform="translate(0 -2.93)"/><use xlink:href="#h" x="1019.198" y="153" width="100%" height="100%" fill="#000c5e" transform="translate(0 -2.93)"/><use xlink:href="#i" x="1123.209" y="153" width="100%" height="100%" fill="#000c5e" transform="translate(0 -2.93)"/><g clip-path="url(#j)" transform="translate(0 -2.93)"><g clip-path="url(#k)" clip-rule="evenodd"><path d="M60.078 92.68h100.188V55.12H60.078zm0 0" fill="#0fe1e8"/></g></g><g clip-path="url(#l)" transform="translate(0 -2.93)"><g clip-path="url(#m)" clip-rule="evenodd"><path d="M91.473 92.734h68.793V55.18H91.473zm0 0" fill="#2efdd1"/></g></g><g clip-path="url(#n)" transform="translate(0 -2.93)"><g clip-path="url(#o)" clip-rule="evenodd"><path d="M-2.715 258.383h99.926v-37.559H-2.715zm0 0" fill="#0fe1e8"/></g></g><g clip-path="url(#p)" transform="translate(0 -2.93)"><g clip-path="url(#q)" clip-rule="evenodd"><path d="M-2.715 258.383h68.828v-37.559H-2.715zm0 0" fill="#00c5fa"/></g></g><g clip-path="url(#r)" transform="translate(0 -2.93)"><g clip-path="url(#s)" clip-rule="evenodd"><path d="M123.227 144.281h37.554v-89.02h-37.554zm0 0" fill="#2efdd1"/></g></g><g clip-path="url(#t)" transform="translate(0 -2.93)"><g clip-path="url(#u)" clip-rule="evenodd"><path d="M186.34 146.18h37.555V-.008H186.34zm0 0" fill="#0082fa"/></g></g><g clip-path="url(#v)" transform="translate(0 -2.93)"><g clip-path="url(#w)" clip-rule="evenodd"><path d="M-3 258.379h37.555v-146.25H-3zm0 0" fill="#00a3f8"/></g></g><g clip-path="url(#x)" transform="translate(0 -2.93)"><g clip-path="url(#y)" clip-rule="evenodd"><path d="M60.113 120.918h37.555V55.262H60.113zm0 0" fill="#0fe1e8"/></g></g><g clip-path="url(#z)" transform="translate(0 -2.93)"><g clip-path="url(#A)" clip-rule="evenodd"><path d="M60.113 258.379h37.555v-116.41H60.113zm0 0" fill="#0fe1e8"/></g></g><g clip-path="url(#B)" transform="translate(0 -2.93)"><g clip-path="url(#C)" clip-rule="evenodd"><path d="M-2.336 37.484H223.06V-.07H-2.336zm0 0" fill="#0082fa"/></g></g><g clip-path="url(#D)" transform="translate(0 -2.93)"><g clip-path="url(#E)" clip-rule="evenodd"><path d="M-2.715 37.484H192.34V-.07H-2.715zm0 0" fill="#005efa"/></g></g><g clip-path="url(#F)" transform="translate(0 -2.93)"><g clip-path="url(#G)" clip-rule="evenodd"><path d="M-2.336 147.934h226.23v-37.559H-2.335zm0 0" fill="#0082fa"/></g></g><g clip-path="url(#H)" transform="translate(0 -2.93)"><g clip-path="url(#I)" clip-rule="evenodd"><path d="M-2.715 147.934H192.34v-37.559H-2.715zm0 0" fill="#00a3f8"/></g></g><g clip-path="url(#J)" transform="translate(0 -2.93)"><g clip-path="url(#K)" clip-rule="evenodd"><path d="M-3 258.398h37.555V141.95H-3zm0 0" fill="#00c5fa"/></g></g></svg>