<svg xmlns="http://www.w3.org/2000/svg" width="362.59" height="154.339"><path d="M149.371 2.62c-22.067 1.153-19.031 68.875-19.031 68.875s-.937 7.477-4.094 11.782c-3.157 4.304-8.445 7.382-9.781 6.03l8.219-36.187h-12.125c0 .001-6.46 36.224-13.532 37.563-7.07 1.339-5.063-6.054-5.063-13.63 0-11.158 1.52-23.391-6.562-24.401-8.081-1.01-16.687 12.78-16.687 12.78s1.018-8.083-7.063-12.124c-8.081-4.04-28.281 6.062-28.281 6.062 1.882-8.531-1.535-19.292-11.125-19.187-8.469.511-14.437 6.406-20.187 11.094l8.093 8.093s8.053-9.082 12.094-4.03c4.04 5.05-15.554 98.825-15.554 98.825h12.125l11.523-48.326s26.262 2.03 31.312-4.031c5.051-6.061 9.094-22.219 9.094-22.219s11.12-12.144 10.109-8.103c-1.01 4.04-2.035 31.312 3.016 32.322 5.05 1.01 15.156 0 15.156 0l-12.25 39.281-14 1.125-2.031 10.125h23.25l16.313-50.781s7.321-1.05 11.468-3.313 7.386-6.269 10.375-9.25c.659 5.062.867 9.04 7.063 12.25 8.03 4.16 19.179 1.162 23.969-2.5 11.616 7.577 21.218-1.5 21.218-1.5s11.096 10.102 17.157 0c16.667 11.112 25.75-.468 25.75-.468s.782 5.457 14.812 6.406c14.03.949 20.719-12.656 20.719-12.656 2.744 3.484 4.14 10.898 10.906 11.625 6.766.727 13.527-3.606 18.656-8.97 3.82 7.199 7.713 7.76 12.594 9.5 4.88 1.741 14.3-3.448 18.281-6.187 5.077 9.138 20.019 8.46 24.407 1.657.06.478 1.184 1.499 7.093 3.468 2.342-1.71 3.009-4.53 5.813-8.343-2.526-1.01-7.625-3.532-7.625-3.532-1.503-8.413-6.027-16.218-10.844-23.968l5.063-11.094-10.094-3.031c-6.225 13.504-11.467 25.478-15.656 33.437-4.19 7.96-19.689 8.27-22.72 1.375 20.295-15.19 22.544-38.571 5.032-36.338-16.207 2.067-14.742 30.538-14.742 30.538s-5.958 5.79-14.04 6.8c-8.08 1.01 2.563-36 2.563-36h-11.093s-6.679 26.361-14.688 35c-7.219 7.786-10.336 3.141-12.312 2.219-2.047-.955 22.754-88.011 22.754-88.011l-14.167.127-14.806 51.384c-8.081-.164-17.169-1.326-25.25 5.875-10.86 10.202-6.663 33.062-19.219 28.948-4.04 1.01 6.844-30.76 6.844-30.76-.74-5.173-16.73-7.528-24.688-2.626-15.786 9.725-14.345 29.024-17.312 36.063-6.997 3.234-8.934 1.096-11.699-6 11.626-13.598 29.776-82.052 6.543-83.063a11.05 11.05 0 00-1.063 0zm.86 16.333c.107-.015.204-.009.312 0 4.828.392-9.61 46.98-9.61 46.98-1.497-.495 2.536-46.03 9.298-46.98zm152.85 44.935c2.305-1.939 3.983-1.532 4.344-.2.36 1.331-8.701 13.254-8.701 13.254.048-4.484 2.051-11.115 4.357-13.054zm-75.257 2.68c2.892-.081 4.036-.497 5.453.584l-4.593 20.343c-1.01 3.072-14.704 5.557-16.22-1.468-1.42-6.587 2.451-11.738 5.266-15.271 2.273-2.854 6.375-4.083 10.094-4.188zm-45.03.568a6.918 6.918 0 012.437.406l-5.156 18.521c-2.526 3.536-9.278 5.058-9.923-.099-.838-6.712 5.038-18.677 12.641-18.828zm-126.36.016c1.336.028 2.53.352 3.468 1.156 5 4.286.587 19.164-4.5 22.562-6.115 4.086-18.687 1.22-18.687 1.22l5-19.282c.58 0 8.928-5.781 14.719-5.656zm283.5 9.593s6.09 12.99 5 15c-2.726 5.03-12.32-.08-11.782-1.78l6.782-13.22z"/><path d="M278.543 29.31c10.91-.37 10.27 16.659-.72 15.508-7.866-.823-10.19-15.137.72-15.508z"/><g fill="#fa023c"><path d="M145.313.013c-22.067 1.152-19.032 68.875-19.032 68.875s-.937 7.477-4.094 11.781c-3.156 4.305-8.445 7.382-9.78 6.031l8.218-36.187H108.5s-6.46 36.224-13.531 37.562c-7.071 1.339-5.064-6.054-5.064-13.63 0-11.157 1.52-23.39-6.561-24.401-8.081-1.01-16.688 12.781-16.688 12.781s1.019-8.084-7.062-12.125c-8.081-4.04-28.282 6.063-28.282 6.063 1.882-8.532-1.534-19.292-11.125-19.188C11.72 38.087 5.752 43.982 0 48.67l8.094 8.094s8.053-9.082 12.094-4.031c4.04 5.05-15.554 98.825-15.554 98.825h12.125l11.522-48.325s26.262 2.03 31.313-4.032c5.05-6.06 9.093-22.218 9.093-22.218s11.12-12.144 10.11-8.104c-1.01 4.041-2.035 31.312 3.016 32.322 5.05 1.01 15.156 0 15.156 0l-12.25 39.282-14 1.125-2.031 10.125h23.25l16.312-50.782s7.322-1.049 11.469-3.312c4.147-2.264 7.386-6.27 10.375-9.25.658 5.061.866 9.04 7.062 12.25 8.03 4.16 19.179 1.161 23.969-2.5 11.617 7.576 21.219-1.5 21.219-1.5s11.095 10.101 17.156 0c16.668 11.111 25.75-.469 25.75-.469s.782 5.457 14.813 6.406c14.03.95 20.718-12.656 20.718-12.656 2.745 3.484 4.14 10.898 10.906 11.625 6.767.727 13.528-3.606 18.657-8.969 3.82 7.198 7.713 7.76 12.594 9.5 4.88 1.74 14.3-3.449 18.28-6.187 5.077 9.137 20.02 8.46 24.407 1.656.061.478 1.184 1.499 7.094 3.469 2.342-1.71 3.008-4.53 5.812-8.344-2.525-1.01-7.625-3.531-7.625-3.531-1.503-8.413-6.026-16.219-10.844-23.969l5.063-11.094-10.094-3.031c-6.224 13.505-11.467 25.478-15.656 33.438-4.19 7.959-19.688 8.269-22.719 1.375 20.295-15.19 22.543-38.572 5.031-36.338-16.206 2.067-14.741 30.537-14.741 30.537s-5.959 5.79-14.04 6.8c-8.081 1.01 2.563-36 2.563-36h-11.094s-6.678 26.362-14.688 35c-7.218 7.787-10.336 3.142-12.312 2.22C235.328 87.12 260.129.063 260.129.063L245.963.19l-14.807 51.384c-8.081-.164-17.169-1.325-25.25 5.875-10.86 10.202-6.663 33.062-19.219 28.949-4.04 1.01 6.844-30.761 6.844-30.761-.739-5.172-16.73-7.527-24.687-2.625-15.787 9.724-14.346 29.023-17.313 36.062-6.996 3.235-8.934 1.097-11.698-6 11.626-13.598 29.776-82.052 6.542-83.062a11.05 11.05 0 00-1.063 0zm.86 16.333c.107-.015.204-.01.312 0 4.828.392-9.61 46.98-9.61 46.98-1.498-.496 2.535-46.03 9.297-46.98zm152.85 44.935c2.305-1.94 3.982-1.533 4.343-.201.36 1.331-8.7 13.254-8.7 13.254.048-4.484 2.05-11.115 4.356-13.053zm-75.258 2.68c2.893-.082 4.036-.498 5.454.583l-4.594 20.344c-1.01 3.071-14.704 5.556-16.219-1.469-1.42-6.587 2.45-11.738 5.265-15.271 2.273-2.853 6.375-4.083 10.094-4.188zm-45.03.567a6.918 6.918 0 012.437.406l-5.156 18.521c-2.525 3.536-9.278 5.058-9.922-.098-.839-6.713 5.037-18.678 12.64-18.829zm-126.36.016c1.336.029 2.531.353 3.469 1.156 5 4.286.586 19.165-4.5 22.563-6.115 4.085-18.688 1.219-18.688 1.219l5-19.282c.58 0 8.929-5.781 14.719-5.656zm283.5 9.594s6.09 12.99 5 15c-2.726 5.029-12.319-.08-11.781-1.781l6.781-13.22z"/><path d="M274.484 26.703c10.91-.371 10.27 16.658-.719 15.508-7.867-.824-10.191-15.137.72-15.508z"/></g></svg>