<svg width="199.969" viewBox="32.27 213.57 435.403 33.445" height="33.445" xmlns="http://www.w3.org/2000/svg"><path d="M65.98 221.99c0-4.6-1.035-8.284-3.101-11.05-2.068-2.769-5.135-4.154-9.203-4.154-1.334 0-2.568.05-3.701.15-1.134.1-2.068.218-2.8.35v26.91c.932.598 2.15 1.1 3.65 1.499 1.5.398 3.017.6 4.552.6 7.067 0 10.603-4.768 10.603-14.304m15.204-.401c0 4.07-.5 7.77-1.5 11.103-1 3.336-2.468 6.203-4.402 8.603-1.934 2.4-4.335 4.269-7.2 5.603-2.87 1.332-6.17 2.002-9.905 2.002-2.068 0-4-.204-5.802-.603a27.757 27.757 0 01-5.2-1.699v19.805H32.27v-69.32a58.568 58.568 0 014.601-1.15 81.365 81.365 0 015.451-.952c1.902-.265 3.834-.483 5.802-.65a67.328 67.328 0 015.652-.25c4.334 0 8.202.65 11.603 1.95 3.401 1.303 6.269 3.137 8.603 5.503 2.333 2.366 4.118 5.251 5.352 8.652 1.233 3.401 1.85 7.203 1.85 11.403" fill="#232f36"/><path d="M132.315 195.283c-3.009 10.138-6.15 19.639-9.426 28.508a342.595 342.595 0 01-10.732 25.807c-1.402 3.002-2.805 5.554-4.206 7.651-1.405 2.102-2.942 3.837-4.61 5.204a16.266 16.266 0 01-5.66 3.003c-2.104.628-4.556.948-7.36.948-2.34 0-4.494-.215-6.464-.65-1.97-.435-3.589-.918-4.857-1.452l2.6-11.901c1.535.53 2.903.9 4.103 1.1 1.2.2 2.47.3 3.804.3 2.667 0 4.718-.719 6.154-2.15 1.434-1.435 2.653-3.42 3.654-5.953-3.404-6.668-6.807-14.153-10.21-22.457-3.402-8.303-6.605-17.62-9.605-27.958h15.803c.67 2.602 1.458 5.419 2.362 8.453a403.13 403.13 0 002.865 9.203c1.003 3.1 2.025 6.118 3.062 9.052a263.243 263.243 0 002.966 8.001c.87-2.4 1.773-5.066 2.71-8.001.939-2.934 1.86-5.953 2.763-9.052a660.103 660.103 0 002.612-9.203c.837-3.034 1.59-5.851 2.26-8.453zM155.15 247.9c-3.414-6.67-6.88-14.472-10.392-23.408-3.514-8.937-6.845-18.673-9.99-29.209h15.805a230.863 230.863 0 002.362 8.453c.903 3.035 1.84 6.102 2.814 9.202.97 3.1 1.94 6.119 2.913 9.053a161.476 161.476 0 002.864 8.001c.869-2.4 1.807-5.066 2.81-8.001a355.726 355.726 0 002.962-9.053c.97-3.1 1.908-6.167 2.812-9.202a236.202 236.202 0 002.36-8.453h15.413c-3.144 10.536-6.472 20.272-9.981 29.21-3.51 8.935-6.973 16.738-10.384 23.407zm70.302-31.612a15.472 15.472 0 00-.654-3.699 9.272 9.272 0 00-1.7-3.202c-.767-.932-1.735-1.702-2.9-2.3-1.168-.602-2.618-.902-4.352-.902-1.667 0-3.1.286-4.3.85-1.2.568-2.202 1.32-3.001 2.252a10.065 10.065 0 00-1.851 3.25 21.293 21.293 0 00-.95 3.751zm-35.012 5.703c0-4.667.715-8.753 2.15-12.252 1.433-3.504 3.317-6.42 5.652-8.754a23.485 23.485 0 018.052-5.301c3.033-1.2 6.151-1.802 9.353-1.802 7.468 0 13.37 2.284 17.703 6.853 4.333 4.567 6.502 11.288 6.502 20.155 0 .868-.032 1.82-.1 2.851a195.89 195.89 0 01-.199 2.751h-33.809c.333 3.068 1.766 5.503 4.302 7.302 2.534 1.801 5.934 2.703 10.202 2.703 2.735 0 5.419-.252 8.054-.753 2.631-.5 4.781-1.114 6.452-1.85l1.997 12.104c-.798.402-1.866.801-3.197 1.198-1.336.404-2.82.751-4.454 1.054a71.27 71.27 0 01-5.251.75 52.965 52.965 0 01-5.601.299c-4.736 0-8.853-.702-12.354-2.103-3.5-1.397-6.402-3.315-8.702-5.75s-4.002-5.317-5.102-8.652c-1.1-3.335-1.65-6.936-1.65-10.803m56.963-.401c0-3.801.616-7.385 1.85-10.75 1.234-3.37 3.017-6.305 5.353-8.806 2.332-2.498 5.165-4.484 8.502-5.951 3.333-1.466 7.135-2.201 11.404-2.201 2.8 0 5.366.25 7.7.752 2.335.5 4.6 1.217 6.802 2.15l-3.1 11.902a37.64 37.64 0 00-4.6-1.4c-1.67-.399-3.537-.6-5.602-.6-4.402 0-7.688 1.368-9.854 4.101-2.169 2.734-3.25 6.336-3.25 10.803 0 4.736 1.015 8.402 3.05 11.003 2.033 2.601 5.584 3.904 10.653 3.904 1.8 0 3.734-.168 5.802-.504 2.065-.33 3.967-.865 5.701-1.598l2.102 12.205c-1.737.733-3.901 1.363-6.504 1.897-2.6.535-5.467.802-8.602.802-4.8 0-8.937-.718-12.404-2.15-3.467-1.434-6.317-3.384-8.552-5.853-2.235-2.467-3.868-5.384-4.9-8.75-1.035-3.37-1.551-7.02-1.551-10.956" fill="#232f36"/><path d="M314.776 239.997c0 3-.952 5.285-2.851 6.85-1.9 1.566-4.05 2.352-6.452 2.352-2.401 0-4.55-.786-6.452-2.352-1.901-1.565-2.852-3.85-2.852-6.85 0-3.003.95-5.286 2.852-6.855 1.902-1.565 4.05-2.348 6.452-2.348 2.401 0 4.552.783 6.452 2.348 1.9 1.569 2.85 3.852 2.85 6.855m41.011-18.507c0-4.6-.918-8.217-2.752-10.852-1.834-2.634-4.451-3.951-7.85-3.951-3.401 0-6.037 1.317-7.902 3.95-1.869 2.636-2.803 6.253-2.803 10.853 0 4.602.934 8.252 2.803 10.956 1.865 2.699 4.5 4.051 7.902 4.051 3.399 0 6.016-1.352 7.85-4.051 1.834-2.704 2.752-6.354 2.752-10.956m15.205 0c0 4.137-.6 7.922-1.8 11.354-1.201 3.435-2.937 6.37-5.202 8.804-2.268 2.433-4.986 4.317-8.153 5.65-3.169 1.335-6.72 2-10.652 2-3.87 0-7.388-.665-10.554-2-3.168-1.333-5.887-3.217-8.152-5.65-2.27-2.435-4.037-5.369-5.303-8.804-1.268-3.432-1.9-7.217-1.9-11.354 0-4.132.65-7.902 1.95-11.304 1.302-3.4 3.102-6.3 5.403-8.7 2.3-2.402 5.033-4.267 8.201-5.602s6.62-2.002 10.355-2.002c3.8 0 7.284.667 10.452 2.002 3.166 1.335 5.885 3.2 8.151 5.601 2.267 2.401 4.036 5.301 5.303 8.701 1.266 3.402 1.9 7.172 1.9 11.304m41.766-13.003a113.07 113.07 0 00-4.702-1.049c-1.799-.367-3.734-.55-5.8-.55-.935 0-2.051.083-3.351.249-1.303.165-2.285.348-2.95.548V247.9h-14.906v-49.817c2.667-.932 5.817-1.815 9.452-2.65 3.635-.834 7.686-1.25 12.153-1.25.802 0 1.767.05 2.902.15 1.134.099 2.266.234 3.4.4 1.134.167 2.267.367 3.4.6 1.135.235 2.103.518 2.904.849zm22.208 11.403c0 8.337 3.366 12.504 10.102 12.504 1.535 0 2.965-.2 4.301-.601 1.335-.4 2.467-.865 3.402-1.4v-23.806a33.602 33.602 0 00-2.602-.352c-.998-.1-2.167-.15-3.5-.15-3.935 0-6.869 1.3-8.802 3.904-1.935 2.6-2.9 5.9-2.9 9.9m32.708 21.407c0 8.606-2.185 14.989-6.552 19.156-4.369 4.166-11.12 6.252-20.256 6.252-3.202 0-6.401-.285-9.602-.851-3.2-.566-6.17-1.316-8.904-2.25l2.602-12.502a43.975 43.975 0 007.352 2.2c2.565.53 5.485.799 8.752.799 4.269 0 7.286-.933 9.052-2.8 1.767-1.87 2.652-4.266 2.652-7.203v-1.9a24.088 24.088 0 01-4.953 1.652c-1.7.366-3.55.55-5.55.55-7.27 0-12.839-2.153-16.705-6.454-3.867-4.3-5.801-10.318-5.801-18.055 0-3.867.599-7.384 1.8-10.555 1.2-3.166 2.95-5.882 5.251-8.149 2.3-2.27 5.117-4.02 8.453-5.252 3.334-1.235 7.103-1.852 11.304-1.852 1.8 0 3.651.085 5.55.25 1.9.167 3.786.385 5.653.65a78.05 78.05 0 015.352.952c1.7.368 3.216.75 4.55 1.15z" fill="#00a8f8"/></svg>