<svg xmlns="http://www.w3.org/2000/svg" width="200" viewBox="32.27 213.57 435.47 72.87"><path d="M500 500H0V0h500v500z" fill="#fff"/><path d="M66.008 241.698c0-4.6-1.034-8.285-3.1-11.051-2.068-2.768-5.136-4.153-9.204-4.153-1.334 0-2.568.05-3.7.149-1.134.1-2.069.219-2.801.35v26.91c.932.599 2.151 1.1 3.651 1.499s3.016.6 4.551.6c7.067 0 10.603-4.767 10.603-14.304m15.205-.401c0 4.07-.5 7.77-1.501 11.103-1 3.336-2.467 6.203-4.4 8.603-1.936 2.401-4.337 4.27-7.202 5.603-2.87 1.332-6.17 2.003-9.904 2.003-2.068 0-4.001-.205-5.802-.604a27.757 27.757 0 01-5.201-1.698v19.804H32.299v-69.32a58.568 58.568 0 014.6-1.15 81.365 81.365 0 015.452-.952 108.57 108.57 0 015.801-.65 67.328 67.328 0 015.652-.249c4.334 0 8.203.65 11.603 1.949 3.402 1.303 6.27 3.137 8.603 5.504 2.334 2.366 4.118 5.25 5.352 8.651 1.233 3.401 1.85 7.203 1.85 11.403" fill="#232f36"/><path d="M132.344 214.99c-3.01 10.138-6.15 19.64-9.426 28.508a342.595 342.595 0 01-10.732 25.808c-1.403 3.001-2.805 5.554-4.207 7.65-1.404 2.102-2.94 3.837-4.609 5.204a16.266 16.266 0 01-5.66 3.003c-2.104.629-4.557.948-7.361.948-2.339 0-4.494-.215-6.464-.65-1.969-.434-3.588-.917-4.856-1.451l2.6-11.902c1.534.53 2.903.9 4.102 1.1 1.2.2 2.47.3 3.805.3 2.667 0 4.718-.718 6.153-2.149 1.435-1.436 2.654-3.42 3.655-5.953-3.404-6.669-6.807-14.154-10.21-22.457-3.403-8.304-6.606-17.62-9.606-27.958h15.804a236.28 236.28 0 002.362 8.452c.904 3.036 1.86 6.102 2.864 9.203 1.004 3.1 2.025 6.118 3.063 9.052a263.243 263.243 0 002.965 8.002c.87-2.4 1.773-5.067 2.711-8.002a360.2 360.2 0 002.762-9.052 660.103 660.103 0 002.612-9.203 514.85 514.85 0 002.26-8.452h15.413zm22.834 52.617c-3.413-6.669-6.879-14.472-10.392-23.408-3.514-8.936-6.845-18.672-9.989-29.208h15.805a230.863 230.863 0 002.361 8.453 661.145 661.145 0 005.728 18.254 161.476 161.476 0 002.864 8.002 488.74 488.74 0 002.81-8.002 355.726 355.726 0 002.962-9.052c.97-3.1 1.908-6.167 2.812-9.202a236.202 236.202 0 002.36-8.453h15.413c-3.144 10.536-6.472 20.272-9.982 29.208-3.51 8.936-6.972 16.74-10.383 23.408h-12.369zm70.302-31.611a15.472 15.472 0 00-.653-3.7 9.272 9.272 0 00-1.7-3.201c-.767-.933-1.735-1.703-2.9-2.301-1.168-.602-2.618-.901-4.353-.901-1.667 0-3.1.285-4.3.85-1.2.567-2.201 1.319-3 2.252a10.046 10.046 0 00-1.852 3.25 21.293 21.293 0 00-.95 3.75h19.708zm-35.012 5.702c0-4.667.716-8.752 2.15-12.252 1.433-3.503 3.317-6.42 5.652-8.754a23.485 23.485 0 018.053-5.301c3.033-1.2 6.15-1.802 9.353-1.802 7.467 0 13.369 2.284 17.703 6.853 4.333 4.567 6.501 11.288 6.501 20.156 0 .867-.031 1.818-.099 2.85a195.96 195.96 0 01-.2 2.752h-33.808c.333 3.067 1.766 5.502 4.301 7.301 2.534 1.801 5.935 2.703 10.203 2.703 2.734 0 5.418-.252 8.054-.752 2.631-.5 4.78-1.115 6.451-1.85l1.997 12.103c-.797.402-1.865.802-3.196 1.199-1.336.404-2.82.75-4.455 1.054a72.25 72.25 0 01-5.25.75 52.965 52.965 0 01-5.602.298c-4.735 0-8.852-.702-12.354-2.102-3.5-1.398-6.401-3.316-8.701-5.75-2.301-2.435-4.002-5.318-5.103-8.653-1.1-3.335-1.65-6.936-1.65-10.803m56.963-.401c0-3.801.617-7.384 1.85-10.75 1.235-3.37 3.017-6.304 5.354-8.805 2.332-2.499 5.164-4.485 8.502-5.952 3.332-1.466 7.134-2.201 11.403-2.201 2.8 0 5.367.25 7.701.752 2.335.5 4.6 1.217 6.802 2.15l-3.1 11.902a37.64 37.64 0 00-4.6-1.4c-1.67-.398-3.538-.6-5.602-.6-4.403 0-7.688 1.368-9.855 4.102-2.168 2.734-3.25 6.335-3.25 10.802 0 4.736 1.015 8.403 3.05 11.003 2.034 2.601 5.585 3.905 10.654 3.905 1.8 0 3.734-.169 5.801-.505 2.066-.33 3.968-.865 5.702-1.598l2.102 12.206c-1.737.732-3.902 1.363-6.504 1.897-2.6.534-5.468.801-8.602.801-4.8 0-8.937-.718-12.404-2.15-3.467-1.434-6.317-3.383-8.552-5.853-2.235-2.467-3.868-5.383-4.9-8.75-1.035-3.37-1.552-7.02-1.552-10.956" fill="#232f36"/><path d="M314.804 259.704c0 3-.951 5.285-2.85 6.85-1.9 1.566-4.05 2.352-6.452 2.352s-4.55-.786-6.452-2.352c-1.902-1.565-2.853-3.85-2.853-6.85 0-3.002.951-5.286 2.853-6.854 1.901-1.565 4.05-2.349 6.452-2.349 2.401 0 4.552.784 6.451 2.349 1.9 1.568 2.851 3.852 2.851 6.854m41.011-18.507c0-4.6-.918-8.216-2.753-10.852-1.834-2.634-4.45-3.95-7.85-3.95-3.4 0-6.036 1.316-7.902 3.95-1.868 2.636-2.802 6.252-2.802 10.852 0 4.602.934 8.252 2.802 10.956 1.866 2.699 4.501 4.051 7.903 4.051 3.398 0 6.015-1.352 7.85-4.05 1.834-2.705 2.752-6.355 2.752-10.957m15.204 0c0 4.138-.6 7.922-1.8 11.354-1.2 3.436-2.936 6.37-5.201 8.804-2.268 2.434-4.987 4.317-8.153 5.65-3.169 1.335-6.72 2.001-10.652 2.001-3.87 0-7.389-.666-10.555-2.001-3.167-1.333-5.886-3.216-8.151-5.65-2.27-2.434-4.038-5.368-5.303-8.804-1.268-3.432-1.9-7.216-1.9-11.354 0-4.132.65-7.902 1.95-11.303 1.302-3.4 3.102-6.3 5.403-8.702 2.3-2.4 5.033-4.266 8.2-5.6 3.168-1.336 6.62-2.003 10.356-2.003 3.799 0 7.284.667 10.451 2.002 3.166 1.335 5.885 3.2 8.152 5.601 2.267 2.401 4.035 5.301 5.303 8.702 1.266 3.401 1.9 7.171 1.9 11.303m41.766-13.003a113.07 113.07 0 00-4.702-1.049c-1.799-.367-3.735-.55-5.8-.55-.935 0-2.052.083-3.351.25-1.304.164-2.286.348-2.951.547v40.215h-14.905v-49.816c2.667-.932 5.816-1.816 9.452-2.65 3.635-.834 7.685-1.25 12.153-1.25.802 0 1.767.05 2.901.149 1.135.099 2.267.234 3.4.4 1.135.167 2.268.367 3.401.6 1.135.235 2.103.518 2.904.85l-2.502 12.304zm22.208 11.403c0 8.337 3.365 12.504 10.101 12.504 1.535 0 2.966-.2 4.302-.6 1.335-.4 2.467-.866 3.401-1.401v-23.805a33.602 33.602 0 00-2.601-.353 36.02 36.02 0 00-3.5-.149c-3.935 0-6.87 1.3-8.802 3.903-1.936 2.6-2.9 5.9-2.9 9.901m32.707 21.407c0 8.605-2.185 14.988-6.551 19.155-4.37 4.166-11.12 6.252-20.256 6.252-3.202 0-6.402-.284-9.603-.85-3.199-.566-6.17-1.316-8.904-2.25l2.602-12.503a43.975 43.975 0 007.353 2.2c2.565.531 5.484.799 8.751.799 4.27 0 7.287-.933 9.053-2.8 1.767-1.87 2.651-4.266 2.651-7.203v-1.9a24.088 24.088 0 01-4.952 1.652c-1.7.366-3.55.55-5.55.55-7.27 0-12.84-2.153-16.706-6.454-3.867-4.3-5.8-10.318-5.8-18.055 0-3.867.598-7.384 1.799-10.554 1.2-3.166 2.95-5.883 5.252-8.15 2.3-2.269 5.117-4.02 8.453-5.252 3.333-1.235 7.103-1.851 11.303-1.851 1.8 0 3.652.084 5.551.249 1.9.168 3.785.386 5.652.65 1.867.267 3.65.587 5.352.952 1.7.368 3.216.75 4.55 1.15v44.213z" fill="#00a8f8"/></svg>