<svg width="613" height="145" fill="none" xmlns="http://www.w3.org/2000/svg"><path d="M127.47 83.49c12.51 0 30.61-2.58 30.61-17.46a14.034 14.034 0 00-.31-3.42l-7.45-32.36c-1.72-7.12-3.23-10.35-15.73-16.6C124.89 8.69 103.76.5 97.51.5 91.69.5 90 8 83.06 8c-6.68 0-11.64-5.6-17.89-5.6-6 0-9.91 4.09-12.93 12.5 0 0-8.41 23.72-9.49 27.16a6.43 6.43 0 00-.22 1.94c0 9.22 36.3 39.45 84.94 39.45v.04zM160 72.07c1.73 8.19 1.73 9.05 1.73 10.13 0 14-15.74 21.77-36.43 21.77-46.76.03-87.72-27.37-87.72-45.48a18.45 18.45 0 011.51-7.33C22.27 52 .5 55 .5 74.22c0 31.48 74.59 70.28 133.65 70.28 45.28 0 56.7-20.48 56.7-36.65 0-12.72-11-27.16-30.83-35.78" fill="#E00"/><path d="M160 72.07c1.73 8.19 1.73 9.05 1.73 10.13 0 14-15.74 21.77-36.43 21.77-46.76.03-87.72-27.37-87.72-45.48a18.45 18.45 0 011.51-7.33l3.66-9.06a6.428 6.428 0 00-.22 1.9c0 9.22 36.3 39.45 84.94 39.45 12.51 0 30.61-2.58 30.61-17.46a14.034 14.034 0 00-.31-3.42l2.23 9.5zM579.74 92.8c0 11.89 7.15 17.67 20.19 17.67 4.015-.1 8.005-.664 11.89-1.68V95a24.84 24.84 0 01-7.68 1.16c-5.37 0-7.36-1.68-7.36-6.73V68.3h15.56V54.1h-15.56v-18l-17 3.68V54.1h-11.29v14.2h11.25v24.5zm-53 .32c0-3.68 3.69-5.47 9.26-5.47 3.405.02 6.795.443 10.1 1.26v7.15a21.51 21.51 0 01-10.63 2.63c-5.46 0-8.73-2.1-8.73-5.57zm5.2 17.56c6 0 10.84-1.26 15.36-4.31v3.37h16.82V74.08c0-13.56-9.14-21-24.39-21-8.52 0-16.94 2-26 6.1l6.1 12.52c6.52-2.74 12-4.42 16.83-4.42 7 0 10.62 2.73 10.62 8.31v2.73a49.529 49.529 0 00-12.62-1.58c-14.31 0-22.93 6-22.93 16.73 0 9.78 7.78 17.24 20.19 17.24l.02-.03zm-92.46-.91h18.09V80.92h30.29v28.82H506V36.12h-18.07v28.29h-30.29V36.12h-18.09l-.07 73.65zm-68.86-27.9c0-8 6.31-14.1 14.62-14.1A17.221 17.221 0 01397 72.09v19.45A16.362 16.362 0 01385.24 96c-8.2 0-14.62-6.1-14.62-14.09v-.04zm26.61 27.91h16.83V32.44l-17 3.68v20.93a28.303 28.303 0 00-14.2-3.68c-16.19 0-28.92 12.51-28.92 28.5a28.246 28.246 0 0017.462 26.46 28.242 28.242 0 0010.938 2.14 25.116 25.116 0 0014.93-4.83l-.04 4.14zM320 67c5.36 0 9.88 3.47 11.67 8.83h-23.2C310.15 70.3 314.36 67 320 67zm-28.67 15c0 16.2 13.25 28.82 30.28 28.82 9.36 0 16.2-2.53 23.25-8.42l-11.26-10c-2.63 2.74-6.52 4.21-11.14 4.21a14.391 14.391 0 01-13.68-8.83h39.65v-4.23c0-17.67-11.88-30.39-28.08-30.39a28.568 28.568 0 00-29 28.81l-.02.03zM262 51.58c6 0 9.36 3.78 9.36 8.31 0 4.53-3.36 8.31-9.36 8.31h-17.89V51.58H262zm-36 58.16h18.09V82.92h13.77l13.89 26.82H292l-16.2-29.45a22.266 22.266 0 0013.88-20.72c0-13.25-10.41-23.45-26-23.45H226v73.62z" fill="#000"/></svg>