<svg xmlns="http://www.w3.org/2000/svg" viewBox="0 0 272.253 64.731" height="244.653" width="1028.986"><path d="M187.04 36.42V8.11h6.351v56.621h-6.35zM1.96 53.27C.406 51.715.11 50.132.124 43.431c.013-6.215.233-8.005 1.62-13.195.831-3.105 1.828-4.401 3.79-4.929 1.424-.383 3.672-.217 3.996.295.407.643.26 2.148-.527 5.4-.826 3.407-1.222 5.383-1.46 7.27-.15 1.188-.148 1.187.648-.636 1.52-3.482 3.212-6.018 5.68-8.516 1.693-1.714 2.825-2.617 3.916-3.126 3.231-1.506 6.134-1.096 7.086 1 .636 1.4.63 2.293-.043 5.974-.316 1.73-.479 3.393-.382 3.906.203 1.086 1.018 1.553 2.033 1.167.562-.213.796-.62 1.27-2.198 1.673-5.562 5.783-9.577 10.8-10.55 6.231-1.208 10.793 2.585 10.292 8.558-.416 4.965-4.057 8.544-10.829 10.644-1.273.395-2.315.813-2.315.928 0 .346 1.655 1.633 2.618 2.036 1.322.554 4.357.487 6.32-.14 1.98-.632 4.75-2.232 6.436-3.718l1.218-1.073.186-2.712c.222-3.222.707-6.026 1.656-9.58.83-3.105 1.826-4.401 3.79-4.929 1.423-.383 3.67-.217 3.994.295.412.65.258 2.159-.558 5.503-.845 3.46-1.65 7.717-1.49 7.877.052.052.305-.473.561-1.167 1.275-3.455 4.212-7.927 6.546-9.97 3.586-3.136 7.9-3.666 9.482-1.165.85 1.342.606 4.255-.945 11.327-.08.364.429-.47 1.13-1.852.703-1.382 1.78-3.254 2.396-4.159 4.478-6.585 11.395-9.03 13.63-4.818.653 1.23.464 3.716-.728 9.593-1.371 6.759-1.532 7.974-1.21 9.17.53 1.964 2.404 1.775 4.809-.485l1.617-1.52.072-3.031c.041-1.729.256-3.712.5-4.618 1.05-3.893 3.477-7.421 6.384-9.283 3.32-2.125 7.834-2.547 11.17-1.042 2.852 1.285 5.3 4.546 6.166 8.209.171.727.358 1.488.414 1.69.126.456 1.704.3 5.58-.554l2.712-.597v-3.58l-1.389-.002c-2.103-.002-3.306-.423-3.77-1.32-.529-1.024-.501-2.568.067-3.705.57-1.141 1.638-1.552 4.088-1.573l1.774-.015.173-.992c1.598-9.202 4.792-16.708 8.804-20.693 1.655-1.644 2.803-2.28 4.878-2.706 4.854-.996 7.747 4.172 6.43 11.487-.752 4.177-2.545 7.668-5.71 11.122l-1.587 1.732 3.665.091c2.573.064 3.792.198 4.094.449.676.562.803 1.908.3 3.168-.898 2.243-3.323 2.952-10.109 2.955l-4.035.002-.054 1.786c-.258 8.52.769 12.441 3.618 13.82 2.496 1.209 6.107.312 8.463-2.1l.968-.991.081-3.017c.132-4.919 1.693-8.742 4.802-11.764 3.739-3.635 9.178-4.822 13.041-2.846 4.905 2.508 5.351 9.827.873 14.305-1.603 1.603-4.976 3.38-8.154 4.294l-2.16.621.557.752c.862 1.167 2.589 1.875 4.571 1.875 2.52 0 4.092-.867 6.62-3.651 1.597-1.76 2.182-2.236 2.75-2.236 1.243 0 1.729.85 1.717 3.005-.013 2.321-.639 3.658-2.617 5.584-2.606 2.537-5.437 3.582-9.703 3.582-4.048 0-7.269-1.273-9.223-3.643l-.777-.944-.873.717c-3.438 2.82-6.082 3.87-9.737 3.87-6.07 0-9.904-3.053-11.623-9.257-.301-1.088-.548-2.3-.548-2.695 0-.394-.093-.775-.207-.845-.115-.07-1.037.107-2.051.395-1.014.288-2.952.669-4.307.845l-2.463.322-.582 1.73c-1.266 3.762-4.035 7-7.318 8.555-1.617.766-1.916.817-4.768.817-2.858 0-3.147-.05-4.762-.821-1.04-.497-2.261-1.376-3.09-2.224l-1.369-1.403-1.276 1.061c-3.03 2.519-5.53 3.523-8.743 3.514-2.471-.007-3.852-.546-5.017-1.96-1.655-2.007-1.88-5.113-.79-10.867 1.002-5.283 1.075-6.065.603-6.457-.327-.271-.5-.268-.907.018-2.118 1.49-4.938 7.182-6.843 13.811-1.368 4.764-1.952 5.46-4.575 5.46-1.018 0-1.47-.151-2.145-.718-2.064-1.737-2.435-4.526-1.58-11.87.83-7.12.64-8.014-1.273-6.003-1.866 1.962-3.894 6.573-5.745 13.066-1.375 4.822-1.967 5.526-4.65 5.526-1.16 0-1.452-.116-2.21-.873-.48-.48-1.025-1.403-1.212-2.05-.186-.648-.362-1.214-.392-1.258-.03-.043-.514.236-1.077.62-1.393.954-3.892 2.204-5.652 2.828-1.894.671-6.749.93-9.053.482-4.419-.86-7.821-3.69-9.11-7.582-.556-1.679-.655-1.768-1.573-1.418-.424.162-1.702.295-2.842.296-4.805.002-7.027-2.639-6.53-7.763.187-1.925-.004-2.861-.584-2.861-.649 0-2.778 2.637-3.957 4.901-1.476 2.833-2.246 4.833-3.532 9.18-1.431 4.838-1.991 5.498-4.663 5.498-1.161 0-1.452-.116-2.215-.879zm110.056-6.633c1.033-.788 2.117-2.68 2.4-4.187.163-.87.082-1.05-.932-2.063-1.701-1.702-2.483-3.63-2.6-6.414-.107-2.577-.197-2.668-1.93-1.94-2.66 1.12-4.129 4.707-3.866 9.447.145 2.628 1.01 4.604 2.422 5.536 1.169.772 3.224.599 4.506-.38zm-74.11-7.552c3.198-1.53 4.867-4.043 4.142-6.24-.231-.7-.563-1.074-1.183-1.333-2.71-1.133-5.709 2.273-6.149 6.983l-.16 1.713.861-.172c.474-.095 1.594-.523 2.49-.951zm123.826 0c3.197-1.53 4.866-4.043 4.141-6.24-.231-.7-.563-1.074-1.183-1.333-2.71-1.133-5.709 2.273-6.149 6.983l-.16 1.713.861-.172c.474-.095 1.594-.523 2.49-.951zm-20.985-17.812c1.816-2.147 3.714-5.782 4.374-8.374.556-2.182.45-5.89-.186-6.526-.886-.887-2.11.304-3.182 3.098-1.659 4.32-3.655 13.72-2.913 13.72.157 0 1.015-.863 1.907-1.918zm74.604 32.418c-6.031-.44-10.404-4.121-11.768-9.908-.806-3.42-.37-8.522.952-11.141 2.217-4.39 5.815-6.688 10.949-6.99 3.005-.177 5.053.2 7.428 1.366 4.799 2.357 7.219 7.13 6.913 13.636-.363 7.728-4.854 12.458-12.357 13.016-.655.048-1.607.058-2.117.02zm3.541-5.157c1.603-.473 3.632-2.606 4.215-4.43 1.023-3.196.818-7.503-.477-10.059-2.103-4.15-7.761-4.96-11.038-1.58-1.694 1.747-2.195 3.412-2.189 7.263.006 3.257.433 4.936 1.706 6.692 1.516 2.093 4.82 2.99 7.783 2.114zm16.933 4.58c-.454-.277-.96-.89-1.125-1.362-.204-.587-.299-4.453-.299-12.222 0-9.71.06-11.49.41-12.227.492-1.038 1.336-1.466 2.89-1.466.94 0 1.31.153 1.972.814l.814.815v5.139c0 2.826.092 5.139.205 5.139.112 0 1.095-.904 2.183-2.008 1.087-1.105 3.845-3.784 6.129-5.954 3.923-3.728 4.209-3.945 5.205-3.945 1.952 0 3.342 2.24 2.438 3.93-.134.25-2.406 2.471-5.05 4.935l-4.805 4.48 5.06 4.871c2.784 2.68 5.233 5.205 5.444 5.612 1.027 1.987-1.327 4.495-3.458 3.685-.39-.148-3.523-3.03-6.963-6.406l-6.256-6.137-.133 5.546c-.074 3.05-.226 5.73-.34 5.957-.62 1.238-2.91 1.664-4.321.803zm29.268-.057c-.87-.346-2.06-1.49-2.58-2.481-.232-.442-.416-1.439-.416-2.25 0-3.008 2.111-5.08 5.16-5.063 2.824.015 4.98 2.165 4.98 4.967 0 2.917-2.182 5.14-5.013 5.107-.808-.009-1.767-.135-2.131-.28zm4.523-1.165c1.738-1.11 2.363-3.764 1.337-5.677-1.829-3.41-6.969-2.78-7.961.975-1.04 3.937 3.157 6.917 6.624 4.702zm-4.467-.704c-.458-.458-.431-4.99.033-5.625.292-.4.615-.462 1.848-.36.932.077 1.695.305 2.027.607.724.655.715 2.095-.017 2.608l-.55.385.725 1.096c.572.864.656 1.163.4 1.415-.256.251-.467.15-.98-.474l-1.153-1.389c-.821-.983-1.29-.766-1.383.641-.083 1.283-.399 1.647-.95 1.096zm3.066-3.443c.813-.813.205-1.535-1.292-1.535-.706 0-.772.08-.772.926 0 .872.052.926.873.926.48 0 1.016-.143 1.191-.317z"/><path d="M187.04 36.42V8.11h6.351v56.621h-6.35zM1.965 53.275C.595 51.905.205 50.217.056 45.02c-.147-5.112.263-9.092 1.405-13.634 1.236-4.92 2.086-5.906 5.382-6.25 1.238-.13 1.732-.07 2.256.274.905.593.875 1.363-.235 6.02-.859 3.605-1.585 7.615-1.41 7.789.043.044.487-.835.986-1.954 2.294-5.153 5.749-9.367 9.02-11.003 3.156-1.58 5.571-1.538 6.964.117 1.026 1.218 1.097 2.288.421 6.318-.334 1.99-.527 3.937-.43 4.325.221.878.955 1.293 1.94 1.095.684-.136.822-.366 1.492-2.48 1.843-5.817 6.01-9.594 11.444-10.37 4.996-.715 8.594 1.604 9.426 6.073.368 1.979-.013 4.497-.963 6.372-1.44 2.84-4.986 5.31-9.74 6.784-1.273.395-2.315.801-2.315.902 0 .27 1.36 1.492 2.063 1.854 1.121.577 3.534.823 5.213.53 2.044-.355 5.931-2.278 7.856-3.886 1.453-1.214 1.507-1.304 1.527-2.58.054-3.475 1.597-11.534 2.584-13.494.9-1.788 1.943-2.441 4.289-2.686 1.259-.132 1.729-.071 2.286.294.646.423.69.569.565 1.823-.075.75-.554 3.148-1.064 5.331-1.008 4.31-1.44 7.13-.914 5.953 2.32-5.183 3.811-7.584 6.2-9.975 2.265-2.267 4.441-3.361 6.713-3.375 3.987-.025 4.68 2.03 3.163 9.382-.435 2.11-.787 3.896-.782 3.968.004.073.612-1.058 1.35-2.513 1.726-3.408 3.189-5.447 5.373-7.49 4.015-3.755 8.334-4.516 10.312-1.816.848 1.157.686 4.036-.59 10.496-1.375 6.95-1.455 7.5-1.243 8.464.536 2.445 2.852 2.077 5.686-.902l.924-.971.049-2.832c.09-5.164 1.534-8.964 4.557-11.986 2.592-2.593 5.692-3.947 9.014-3.94 5.235.01 9.117 3.343 10.588 9.088l.483 1.889 1.158-.013c.636-.007 2.493-.293 4.127-.636l2.97-.623v-3.623l-1.257-.006c-1.745-.01-3.297-.409-3.694-.951-.883-1.207-.71-3.725.326-4.761.571-.572.857-.632 2.988-.632h2.356l.587-2.945C133.895 9.619 138.9 1.351 144.575.173c2.803-.582 5.116.78 6.275 3.693.482 1.21.582 1.975.57 4.377-.025 5.724-1.82 10.012-6.176 14.75l-1.642 1.786h3.96c4.497 0 4.642.061 4.642 1.95 0 3.339-2.6 4.393-10.842 4.398l-3.478.002-.182 2.315c-.216 2.74.226 8.022.819 9.792.968 2.892 2.855 4.167 5.89 3.982 2.106-.129 3.358-.694 5.114-2.309l1.32-1.213.063-3.042c.054-2.596.18-3.377.856-5.323 1.996-5.735 6.019-9.302 11.352-10.064 4.996-.715 8.594 1.604 9.426 6.073.368 1.979-.013 4.497-.963 6.372-1.474 2.907-5.314 5.51-10.245 6.943l-2.026.589.41.626c.226.345.944.94 1.596 1.321.981.575 1.51.695 3.071.692 2.656-.003 4.033-.759 6.674-3.66 1.83-2.01 2.16-2.262 2.873-2.193 1.72.169 2.201 3.106.968 5.895-.659 1.488-2.887 3.715-4.697 4.694-2.721 1.473-7.536 1.971-10.822 1.12-1.97-.51-4.146-1.794-5.293-3.124-.969-1.124-.932-1.129-2.766.373-2.988 2.446-5.61 3.298-9.525 3.093-3.335-.175-5.092-.854-7.16-2.769-1.966-1.82-3.258-4.364-3.971-7.822a109.252 109.252 0 01-.507-2.538c-.003-.054-.152.017-.334.157-.544.42-3.447 1.13-6.043 1.478l-2.432.326-.56 1.727a14.668 14.668 0 01-3.953 6.235c-2.714 2.522-5.197 3.422-8.867 3.213-2.997-.171-5.172-1.146-7.096-3.18l-1.33-1.406-1.694 1.384c-2.84 2.32-5.202 3.244-8.308 3.254-5.791.018-7.498-3.64-5.865-12.57 1.174-6.42 1.167-7.267-.062-6.877-.646.205-2.225 2.223-3.422 4.374-1.15 2.064-2.781 6.296-3.622 9.392-1.293 4.764-2.04 5.689-4.59 5.689-1.113 0-1.492-.135-2.251-.802-1.937-1.7-2.3-4.492-1.497-11.518.598-5.23.623-7.015.101-7.186-.595-.196-2.166 1.546-3.216 3.567-1.511 2.91-2.579 5.713-3.8 9.979-.583 2.04-1.245 4.022-1.47 4.403-.613 1.038-1.695 1.557-3.248 1.557-1.202 0-1.484-.11-2.248-.873-.48-.48-1.025-1.403-1.212-2.05-.186-.648-.368-1.22-.404-1.27-.037-.05-.605.28-1.264.733-1.91 1.314-4.843 2.612-6.974 3.086-2.696.6-7.21.402-9.534-.417-3.394-1.196-6.435-4.316-7.23-7.417-.302-1.18-.414-1.328-.887-1.174-.297.096-1.672.234-3.054.305-2.382.122-2.59.09-3.96-.632-1.183-.622-1.585-1.024-2.208-2.207-.732-1.387-.758-1.56-.65-4.296.12-3.096-.075-3.662-1.08-3.124-2.144 1.148-5.166 7.101-7.194 14.176-.46 1.601-1.018 3.222-1.242 3.603-.61 1.037-1.693 1.557-3.246 1.557-1.203 0-1.484-.11-2.249-.874zm110.102-6.69c1.076-.872 2.162-2.758 2.388-4.149.134-.828.03-1.048-.965-2.043-1.676-1.676-2.464-3.622-2.6-6.419-.1-2.063-.168-2.315-.618-2.315-1.64 0-3.81 1.981-4.601 4.198-.577 1.617-.812 5.992-.409 7.594.37 1.47 1.295 2.906 2.322 3.605 1.121.763 3.231.542 4.483-.472zm-74.955-7.107c3.098-1.274 4.746-2.915 5.086-5.067.344-2.176-1.152-3.544-3.245-2.97-2.132.587-3.955 3.606-4.244 7.031-.166 1.96-.043 2.012 2.403 1.006zm123.825 0c3.098-1.274 4.746-2.915 5.086-5.067.344-2.176-1.152-3.544-3.245-2.97-2.132.587-3.955 3.606-4.244 7.031-.166 1.96-.043 2.012 2.403 1.006zm-20.854-17.406c2.399-2.667 4.216-5.949 5.014-9.055.593-2.307.544-5.734-.093-6.52-.435-.539-.583-.577-1.174-.308-.846.386-2.26 3.264-3.184 6.478-1.095 3.81-2.394 10.79-2.007 10.79.11 0 .76-.623 1.445-1.385zm72.389 31.145c-4.605-1.288-7.772-4.69-8.925-9.585-.626-2.658-.383-7.274.51-9.692 1.994-5.406 6.466-8.376 12.588-8.362 6.59.014 11.543 3.997 12.901 10.372.535 2.51.347 6.554-.416 8.978-1.135 3.607-3.901 6.581-7.368 7.921-1.99.77-7.128.973-9.29.368zm6.992-4.857c1.423-.647 3.157-2.665 3.74-4.353.674-1.95.664-6.636-.019-8.716-1.245-3.796-4.795-5.66-8.84-4.642-1.712.43-3.754 2.48-4.443 4.458-.695 1.999-.71 6.941-.025 8.902 1.151 3.3 3.28 4.846 6.666 4.84 1.226-.002 2.213-.168 2.92-.489zm16.582 4.875c-1.652-.744-1.673-.93-1.588-14.073l.077-11.78.864-.772c.705-.63 1.101-.772 2.162-.772 1.097 0 1.425.127 2.113.814l.814.815v5.139c0 2.826.095 5.139.212 5.139.117 0 .623-.43 1.125-.953.501-.525 3.254-3.204 6.118-5.954 4.985-4.787 5.251-5 6.263-5 1.512 0 2.686 1.192 2.686 2.726 0 1.064-.105 1.197-3.374 4.28-1.855 1.75-4.128 3.9-5.051 4.78l-1.678 1.6 5.09 4.882c2.8 2.686 5.246 5.252 5.435 5.702.586 1.394-.062 2.77-1.613 3.427-1.608.681-2.02.389-8.731-6.207l-6.35-6.24-.132 5.616-.133 5.617-.687.687c-.848.847-2.408 1.074-3.622.527zm28.75-.41c-2.474-1.308-3.472-4.57-2.147-7.017 1.864-3.444 7.317-3.328 9.021.192 1.683 3.476-.676 7.373-4.445 7.343-.919-.007-1.83-.202-2.43-.519zm4.577-.692c2.359-1.193 2.78-5.361.718-7.097-3.314-2.788-8.219.204-7.131 4.35.739 2.818 3.735 4.101 6.413 2.747zm-4.153-.949c-.08-.208-.112-1.62-.07-3.139l.076-2.76 1.654.026c1.198.018 1.8.157 2.183.504.68.615.678 1.834-.003 2.515l-.531.532.706 1.066c.557.842.637 1.135.38 1.387-.255.251-.466.15-.98-.474-.36-.436-.879-1.061-1.152-1.389-.791-.947-1.331-.772-1.331.431 0 1.097-.659 2.016-.933 1.301zm3.13-3.68c.483-.772.027-1.293-1.131-1.293-1.046 0-1.067.018-1.067.942 0 .923.02.94.966.86.53-.045 1.085-.274 1.232-.509z"/><path d="M187.04 36.42V8.11h6.351v56.621h-6.35zM2.41 53.627C.54 52.453-.186 48.85.068 41.996c.164-4.413.725-8.292 1.712-11.817.648-2.317 1.168-3.346 2.035-4.028 1.355-1.067 4.58-1.39 5.582-.559.56.465.456 1.8-.408 5.222-.76 3.01-1.604 7.357-1.596 8.221.002.236.591-.794 1.31-2.288 3.055-6.354 6.887-10.299 11.107-11.435 2.46-.663 4.731.356 5.343 2.396.26.866.21 1.663-.302 4.822-.337 2.082-.533 4.103-.435 4.492.223.89 1.034 1.336 2.033 1.116.638-.14.823-.363 1.053-1.274 1.604-6.357 5.928-10.707 11.496-11.565 6.47-.997 10.824 3.244 9.683 9.433-.857 4.653-4.34 7.816-10.768 9.777-1.218.371-2.214.764-2.214.874 0 .384 1.465 1.597 2.381 1.971 1.479.604 3.33.768 4.968.44 2.091-.42 5.468-2.09 7.525-3.72l1.721-1.364.174-2.481c.313-4.442 1.626-10.77 2.644-12.739.231-.447.722-1.05 1.09-1.34 1.356-1.066 4.581-1.388 5.582-.558.56.465.457 1.8-.407 5.222-.776 3.072-1.612 7.4-1.588 8.221.006.236.224-.107.484-.762 3.134-7.91 8.231-13.097 12.87-13.097 3.91 0 4.554 2.22 2.907 10.021-.365 1.728-.66 3.217-.657 3.308.003.09.703-1.169 1.555-2.798 1.892-3.62 2.962-5.104 5.17-7.17 4.014-3.755 8.57-4.506 10.397-1.714.753 1.152.546 4.191-.705 10.361-1.408 6.944-1.534 8.152-.97 9.241.372.72.58.844 1.428.844 1.153 0 1.795-.383 3.659-2.182l1.358-1.31.008-2.686c.005-1.513.196-3.492.438-4.53 1.997-8.579 9.855-13.466 17.209-10.704 3.084 1.158 5.823 4.79 6.567 8.706.302 1.59.305 1.593 1.235 1.59.512 0 2.3-.286 3.974-.634 1.673-.348 3.132-.578 3.241-.511.11.066.199-.763.199-1.843v-1.963l-2.03-.184c-2.541-.23-2.909-.43-3.271-1.775-.382-1.417-.086-3.07.689-3.845.557-.557.856-.619 3-.619h2.381l.171-.992c2.288-13.275 7.581-22.47 13.59-23.61 2.092-.397 3.49.044 4.776 1.505 1.75 1.987 2.382 4.973 1.866 8.81-.626 4.657-2.548 8.642-5.964 12.369l-1.758 1.918h3.958c4.216 0 4.451.068 4.556 1.323.125 1.51-.045 2.145-.806 3.011-1.274 1.451-2.58 1.753-8.376 1.937l-5.076.16-.184 1.72c-.236 2.204.066 7.083.58 9.362.743 3.294 2.636 4.977 5.598 4.977 2.282 0 3.822-.633 5.642-2.317l1.578-1.461-.17-1.5c-.331-2.927.73-7.308 2.464-10.169 2.862-4.723 8.126-7.342 13.078-6.506 4.468.753 6.945 4.603 6.058 9.416-.838 4.547-4.07 7.592-10.071 9.487-3.635 1.148-3.43.943-2.188 2.184 1.38 1.381 3.328 1.875 5.596 1.42 1.915-.385 3.003-1.134 5.205-3.584.995-1.107 2.072-2.08 2.394-2.16 2.44-.613 2.926 3.792.764 6.93-2.277 3.306-6.146 5.139-10.845 5.139-3.838 0-6.7-1.037-8.878-3.215-1.433-1.433-1.347-1.434-3.16.061-2.543 2.097-5.453 3.145-8.743 3.15-4.935.008-8.532-2.17-10.505-6.36-.83-1.762-1.655-4.678-1.655-5.846 0-.963-.153-1.011-1.535-.487-.99.376-4.16.996-7.163 1.403-.2.027-.638.861-.972 1.854-.854 2.538-2.11 4.503-3.956 6.188-2.716 2.478-5.215 3.393-8.707 3.187-3.082-.182-4.903-.957-6.935-2.95l-1.646-1.615-1.542 1.275c-2.692 2.225-5.527 3.356-8.404 3.353-2.986-.003-4.635-.86-5.784-3.008-.884-1.653-.816-5.916.18-11.192 1.016-5.384.664-6.545-1.34-4.42-2.099 2.226-4.331 6.962-6.02 12.773-1.457 5.015-1.91 5.619-4.352 5.795-1.421.103-1.607.049-2.487-.724-1.43-1.256-1.919-2.946-1.876-6.498.019-1.601.227-4.335.463-6.075.558-4.122.562-5.93.014-6.14-.731-.28-2.209 1.513-3.702 4.49-1.265 2.523-1.973 4.514-4.13 11.602-.714 2.35-1.585 3.187-3.456 3.325-1.08.08-1.593-.021-2.27-.446-.854-.536-1.885-2.304-1.897-3.25-.008-.62-.116-.595-1.481.344-1.856 1.277-4.86 2.6-6.867 3.026-3.794.804-8.119.372-11.152-1.114-2.645-1.295-5.286-4.58-5.817-7.236-.147-.732-.24-.803-.854-.644-1.397.36-4.7.443-5.808.145-1.476-.398-3.072-1.864-3.636-3.342-.355-.93-.422-1.723-.316-3.753.074-1.416.081-2.723.016-2.905-.23-.641-1.077-.318-2.113.806-2.15 2.333-4.386 7.015-5.897 12.352-1.05 3.704-1.377 4.48-2.226 5.275-.97.909-3.13 1.055-4.342.294zm109.128-6.6c1.192-.727 2.195-2.162 2.741-3.919l.475-1.527-1.3-1.378c-1.785-1.893-2.395-3.383-2.551-6.229-.113-2.058-.183-2.315-.632-2.315-1.689 0-3.824 1.97-4.622 4.264-.38 1.087-.497 2.178-.497 4.607 0 2.894.061 3.3.677 4.498.373.723 1.075 1.583 1.56 1.91 1.125.758 2.986.798 4.149.089zm-72.97-8.202c2.492-1.272 4.02-3.64 3.642-5.649-.247-1.318-1.028-1.92-2.453-1.888-1.426.031-2.294.615-3.455 2.328-1.033 1.522-1.388 2.64-1.584 4.986l-.148 1.784 1.437-.494c.79-.272 1.943-.752 2.56-1.067zm123.824 0c2.493-1.272 4.02-3.64 3.643-5.649-.247-1.318-1.028-1.92-2.453-1.888-1.426.031-2.294.615-3.455 2.328-1.033 1.522-1.388 2.64-1.584 4.986l-.148 1.784 1.437-.494c.79-.272 1.943-.752 2.56-1.067zm-19.92-19.859c2.083-3.222 3.03-6.202 3.03-9.538 0-3.59-1.159-4.546-2.653-2.19-1.408 2.22-2.962 7.305-3.824 12.515-.23 1.382-.479 2.87-.555 3.307-.13.75-.055.707 1.374-.787.831-.869 2.014-2.357 2.628-3.307zM212.468 53.2c-3.078-.828-5.697-2.805-7.292-5.506-1.506-2.548-1.849-4.043-1.857-8.098-.007-3.953.45-5.883 1.956-8.258 2.487-3.92 7.264-6.096 12.454-5.671 6.365.52 10.524 4.225 11.797 10.51.8 3.942.146 8.474-1.668 11.568-1.589 2.712-4.889 5.03-7.979 5.608-2.015.376-5.729.3-7.41-.153zm7.353-5.041c1.6-.797 2.677-2.118 3.387-4.15.684-1.962.67-6.904-.026-8.903-.688-1.978-2.73-4.027-4.443-4.458-2.8-.705-4.931-.248-6.84 1.468-1.982 1.783-2.485 3.321-2.487 7.612-.003 3.728.317 4.908 1.881 6.96 1.647 2.158 5.735 2.863 8.529 1.47zm16.168 5.009c-1.52-.78-1.556-1.086-1.573-13.515-.016-12.011.03-12.467 1.34-13.384.821-.576 2.844-.555 3.575.037 1.057.856 1.156 1.43 1.156 6.72v5.106l3.24-3.176c9.057-8.876 9.33-9.119 10.23-9.119 1.72 0 2.919 1.125 2.928 2.747.006.972-.167 1.192-3.232 4.101a2878.33 2878.33 0 00-5.055 4.81l-1.816 1.735 5.17 4.97c3.137 3.016 5.277 5.28 5.445 5.761.57 1.637-.815 3.393-2.675 3.393-1.243 0-2.674-1.21-9.205-7.78-2.545-2.56-4.718-4.655-4.83-4.655-.11 0-.2 2.438-.2 5.42v5.42l-.728.793c-.95 1.035-2.47 1.284-3.77.616zm28.787-.354c-3.655-1.93-3.48-7.556.283-9.139 4.197-1.765 8.532 2.403 6.804 6.54-1.144 2.738-4.496 3.967-7.087 2.6zm4.654-.73c1.308-.767 1.846-1.745 1.958-3.562.085-1.395.006-1.794-.52-2.576-1.89-2.821-6.167-2.62-7.608.358-.93 1.92-.582 3.875.944 5.3 1.364 1.272 3.532 1.472 5.226.48zm-4.163-.76c-.096-.097-.174-1.457-.174-3.023 0-2.661.036-2.86.555-3.025.8-.254 2.937.116 3.48.602.62.555.586 1.796-.068 2.45l-.532.532.69 1.091c.55.874.617 1.138.332 1.324-.247.161-.518.013-.885-.485-1.623-2.202-2.514-2.523-2.514-.908 0 .977-.513 1.813-.884 1.441zm2.958-3.494c.195-.123.314-.509.264-.856-.075-.537-.258-.644-1.213-.713l-1.125-.081v.941c0 .886.05.941.86.937.473-.002 1.02-.105 1.214-.228z"/><path d="M187.04 36.42V8.11h6.351v56.621h-6.35zM2.446 53.648C.866 52.655.295 50.703.067 45.523c-.191-4.338.17-8.36 1.15-12.804.871-3.951 1.524-5.65 2.48-6.455 1.347-1.133 4.665-1.496 5.742-.628.508.409.401 1.647-.441 5.103-.897 3.68-1.615 7.347-1.596 8.158.007.313.526-.517 1.159-1.853 3.03-6.393 7.025-10.593 11.083-11.651 1.938-.506 3.538-.219 4.579.821 1.179 1.18 1.307 2.378.647 6.065-.673 3.757-.684 4.709-.065 5.473.404.499.64.567 1.44.417.569-.106 1.011-.364 1.09-.633.071-.25.269-.987.437-1.638.996-3.846 4.146-7.78 7.536-9.41 3.122-1.502 6.689-1.705 9.444-.538 1.111.47 2.656 1.914 3.224 3.012.68 1.315.994 3.831.703 5.638-.784 4.868-4.563 8.144-11.722 10.16l-1.52.429.462.642c.65.905 2.845 1.924 4.572 2.123 2.745.315 6.388-1.058 9.92-3.739l1.86-1.411.333-3.523c.353-3.731 1.35-8.69 2.208-10.983.284-.76.865-1.674 1.292-2.034 1.347-1.133 4.665-1.496 5.743-.628.508.409.4 1.647-.442 5.103-.894 3.667-1.614 7.343-1.598 8.158.007.334.264-.041.626-.912 3.304-7.948 8.138-12.776 12.793-12.776 3.894 0 4.474 2.196 2.737 10.36-.412 1.932-.704 3.469-.65 3.414.055-.054.629-1.187 1.276-2.517 3.709-7.62 9.256-12.171 13.635-11.187 3.227.725 3.463 3.115 1.31 13.272-1.375 6.488-1.288 8.48.381 8.672 1.317.152 2.047-.208 3.757-1.85l1.669-1.603.005-2.55c.01-5.395 1.408-9.12 4.636-12.362 3.746-3.764 9.413-4.818 13.842-2.577 2.645 1.338 5.035 4.803 5.67 8.221.307 1.646.312 1.654 1.212 1.654.497 0 2.113-.25 3.591-.555 1.478-.305 2.956-.558 3.283-.562.566-.007.595-.109.595-2.091v-2.084h-1.948c-1.543 0-2.088-.109-2.616-.524-1.215-.956-1.242-3.605-.05-4.891.575-.621.794-.67 2.995-.67h2.375l.29-1.521C133.88 9.132 139.48.209 145.723.12c2.293-.033 3.612.834 4.764 3.13 1.773 3.533.988 10.386-1.72 15.023-1.01 1.732-2.177 3.252-4.027 5.248l-1.164 1.257h3.853c4.502 0 4.686.083 4.686 2.126 0 1.07-.142 1.457-.819 2.228-1.277 1.454-2.633 1.731-8.47 1.731h-4.96l-.19 1.516c-.219 1.75.039 7.525.422 9.465.367 1.856 1.278 3.507 2.466 4.468.91.736 1.232.831 3.113.917 1.843.083 2.268.011 3.482-.594.761-.38 1.916-1.195 2.566-1.811l1.181-1.122.04-2.781c.045-3.164.546-5.393 1.752-7.787.958-1.902 1.375-2.47 3.192-4.339 3.197-3.29 8.716-4.528 12.686-2.846 1.111.47 2.656 1.914 3.224 3.012.68 1.315.994 3.831.703 5.638-.753 4.675-4.246 7.838-10.937 9.902l-2.323.717.626.813c1.357 1.76 4.02 2.413 6.687 1.64 1.412-.408 1.817-.71 4.126-3.074 2.674-2.74 3.248-3.031 4.159-2.12 1.082 1.082.903 4.23-.348 6.113-2.297 3.458-5.653 5.239-10.34 5.485-4.173.219-7.489-.883-9.794-3.254-.626-.645-1.25-1.172-1.386-1.172-.136 0-.474.256-.751.57-.78.88-3.797 2.74-5.267 3.245-2.904 1-7.209.802-9.909-.454-1.622-.755-3.99-3.168-4.854-4.949-.78-1.605-1.773-5.202-1.773-6.42 0-.641-.082-.745-.463-.583-1.285.545-4.165 1.223-6.35 1.493-1.795.223-2.447.404-2.447.679 0 .747-1.427 3.939-2.412 5.398-4.37 6.467-13.15 7.422-18.17 1.976l-1.044-1.132-1.521 1.253c-.836.69-2.081 1.56-2.767 1.932-2.46 1.34-6.189 1.877-8.244 1.189-3.742-1.253-4.672-4.666-3.302-12.123 1.016-5.529 1.125-6.84.585-7.046-.658-.253-1.619.513-2.766 2.205-2.036 3-3.603 6.665-5.109 11.942-1.29 4.52-2.097 5.429-4.663 5.246-1.68-.12-2.406-.71-3.275-2.661-.52-1.169-.604-1.779-.583-4.274.013-1.6.217-4.334.453-6.074.866-6.376.496-7.64-1.569-5.36-1.848 2.042-4.133 7.332-5.685 13.168-1.055 3.966-1.842 5.015-3.911 5.213-2.161.208-3.713-1.02-4.136-3.274-.092-.492-.203-.895-.246-.895-.043 0-1.071.597-2.286 1.327-6.858 4.122-15.463 3.803-19.988-.742-1.226-1.231-3.024-4.464-3.024-5.437 0-.413-.128-.47-.728-.325-1.555.375-4.727.465-5.835.165-1.487-.402-3.08-1.865-3.647-3.348-.36-.94-.423-1.71-.31-3.753.08-1.414.087-2.72.018-2.902-.248-.655-1.089-.307-2.246.93-2.14 2.287-4.21 6.689-5.89 12.521-1.388 4.82-1.928 5.558-4.186 5.725-1.056.078-1.586-.024-2.228-.428zm108.872-6.487c1.265-.661 2.243-1.954 2.856-3.774l.598-1.777-1.427-1.541c-1.686-1.82-2.503-4.015-2.503-6.718 0-1.67-.01-1.692-.728-1.69-.888.001-2.474.936-3.23 1.904-1.401 1.793-1.723 3.041-1.727 6.698-.003 3.18.048 3.546.673 4.762.86 1.674 2.061 2.51 3.609 2.51.64 0 1.486-.169 1.879-.374zm-73.633-7.953c2.303-1.053 3.373-1.946 4.08-3.405 1.033-2.135.453-4.155-1.305-4.541-2.601-.572-5.326 2.73-5.783 7.008-.11 1.027-.156 1.911-.102 1.965.178.178 1.235-.171 3.11-1.027zm123.825 0c2.303-1.053 3.373-1.946 4.08-3.405 1.033-2.135.453-4.155-1.305-4.541-2.601-.572-5.326 2.73-5.783 7.008-.11 1.027-.156 1.911-.102 1.965.178.178 1.235-.171 3.11-1.027zM141.583 20.28c2.474-3.237 3.944-7.174 4.003-10.72.04-2.421-.431-3.625-1.378-3.515-1.81.21-4.449 7.898-5.706 16.615l-.172 1.19.97-.925c.533-.509 1.56-1.7 2.283-2.645zm71.387 33.047c-1.478-.288-4.055-1.546-5.314-2.592-4.493-3.734-5.844-12.373-2.876-18.4 1.938-3.938 5.723-6.296 10.685-6.659 3.969-.29 7.781.942 10.305 3.328 3.337 3.157 4.829 8.719 3.756 14.01-1.384 6.83-6.135 10.664-13.106 10.575-1.243-.016-2.795-.134-3.45-.262zm7.117-5.252c2.435-1.242 3.599-3.985 3.599-8.48 0-3.943-.474-5.407-2.356-7.277-1.488-1.479-2.723-1.984-4.852-1.984-2.89 0-4.91 1.27-6.204 3.899-.86 1.747-.876 1.841-.876 5.356 0 3.364.044 3.672.74 5.158.407.869.943 1.807 1.19 2.085 1.924 2.153 5.875 2.714 8.76 1.243zm16.517 5.358c-.828-.16-1.847-1.277-2.038-2.234-.284-1.417-.185-22.237.11-23.3.511-1.84 2.612-2.636 4.45-1.686 1.22.632 1.36 1.335 1.36 6.81v5.047l5.833-5.654c3.208-3.11 6.155-5.861 6.549-6.115 2.343-1.512 5.078 1.218 3.558 3.551-.254.39-2.534 2.65-5.066 5.02l-4.605 4.312 5.332 5.178c5.297 5.144 5.333 5.186 5.333 6.311 0 1.577-1.084 2.68-2.633 2.68-1.009 0-1.29-.188-3.923-2.622-1.56-1.443-4.442-4.24-6.405-6.218-1.962-1.978-3.66-3.595-3.77-3.595-.111 0-.202 2.414-.202 5.365 0 5.963-.077 6.268-1.746 6.966-.89.371-1.089.389-2.137.184zm28.357-.506c-2.054-1.123-2.88-2.641-2.73-5.01.082-1.288.264-1.852.837-2.604 1.476-1.936 4.167-2.561 6.389-1.486 2.068 1.001 3.169 3.454 2.565 5.713-.387 1.445-.93 2.22-2.132 3.047-1.162.799-3.763.978-4.93.34zm4.109-.699c1.63-.824 2.373-2.019 2.373-3.822 0-2.175-.99-3.642-2.884-4.277-1.334-.446-2.194-.37-3.477.308-1.337.707-2.37 2.384-2.37 3.847 0 1.215.9 3.052 1.776 3.626 1.578 1.034 2.973 1.131 4.582.318zm-.92-2.064c-1.222-1.702-1.935-1.767-2.05-.187-.059.819-.206 1.146-.544 1.21-.418.08-.463-.194-.463-2.842v-2.93h1.66c1.997 0 2.838.47 2.838 1.584 0 .745-.58 1.591-1.09 1.591-.142 0 .104.528.548 1.173.929 1.35.934 1.368.424 1.563-.247.095-.714-.316-1.322-1.162zm.25-3.029c0-.744-.07-.799-1.124-.875l-1.125-.081v1.914l1.125-.082c1.055-.076 1.124-.13 1.124-.875z"/><path d="M187.04 36.42V8.11h6.351v56.621h-6.35zM2.475 53.65c-3.123-1.905-3.328-14.465-.396-24.31.643-2.158 1.235-3.001 2.541-3.621 1.196-.568 4.145-.652 4.766-.136.575.477.446 1.609-.757 6.642-.51 2.131-1.005 4.691-1.1 5.689l-.174 1.814.938-2.102c2.31-5.174 6.112-9.89 9.15-11.349 4.01-1.924 7.284-1.133 7.765 1.878.105.654-.035 2.286-.356 4.168-.637 3.723-.656 4.593-.117 5.362.43.613 1.52.78 2.215.34.208-.131.539-.874.735-1.65.703-2.782 2.072-5.183 4.115-7.22 2.911-2.904 5.423-3.931 9.516-3.893 5.042.048 8.171 4.053 7.32 9.37-.75 4.671-4.206 7.807-10.876 9.865l-2.306.712.454.605c1.299 1.732 4.374 2.613 7.137 2.044 1.958-.404 5.87-2.357 7.758-3.873l1.476-1.186.328-3.388c.535-5.52 1.864-11.223 2.93-12.58.797-1.011 2.214-1.56 4.108-1.589 2.2-.033 2.617.295 2.434 1.908-.075.66-.56 2.973-1.078 5.14-.99 4.14-1.507 7.77-.929 6.512 2.772-6.033 3.557-7.32 6.017-9.868 2.92-3.025 5.731-4.214 8.382-3.547 1.909.48 2.378 1.275 2.348 3.976-.02 1.768-.655 5.606-1.585 9.571-.069.291.413-.587 1.07-1.95 3.878-8.05 9.387-12.66 13.911-11.644 3.072.69 3.357 2.796 1.576 11.658-1.639 8.153-1.656 9.691-.113 10.278.99.376 2.573-.415 4.281-2.139l1.39-1.402v-2.613c0-5.08 1.498-9.12 4.493-12.111 2.053-2.051 4.38-3.282 7.033-3.72 6.095-1.007 10.841 2.42 12.523 9.043l.494 1.946 1.023-.08c.563-.044 1.857-.261 2.876-.482 1.018-.22 2.417-.466 3.109-.544l1.256-.144v-4.166h-1.948c-1.538 0-2.089-.11-2.611-.52-1.215-.956-1.144-3.856.124-5.038.477-.444.935-.527 2.893-.527 2.2 0 2.333-.032 2.45-.595l.69-3.374C134.243 8.582 139.942.165 145.75.138c2.41-.012 3.725.9 4.8 3.33.76 1.72 1.006 3.999.73 6.759-.484 4.835-2.568 9.124-6.29 12.945-.738.758-1.342 1.43-1.342 1.492 0 .063 1.718.115 3.818.115 4.587 0 4.772.093 4.59 2.299-.085 1.017-.295 1.6-.757 2.092-1.272 1.357-2.064 1.521-7.915 1.636-3.714.074-5.485.204-5.618.414-.291.457-.243 6.352.072 8.864.35 2.793 1.08 4.74 2.171 5.793 1.135 1.094 2.109 1.443 4.055 1.451 1.974.008 3.406-.59 5.437-2.275l1.488-1.233-.004-2.708c-.008-4.965 1.485-8.814 4.638-11.958 2.911-2.903 5.423-3.93 9.516-3.892 5.043.048 8.172 4.053 7.32 9.37-.75 4.674-4.205 7.807-10.885 9.868-1.273.393-2.315.756-2.315.806 0 .05.368.512.818 1.024.548.624 1.265 1.065 2.165 1.333 1.707.507 2.648.503 4.443-.017 1.257-.364 1.759-.745 4-3.042 1.442-1.477 2.78-2.627 3.059-2.627 1.871 0 2.398 3.257.984 6.086-.817 1.636-3.225 3.838-5.215 4.77-5.56 2.6-12.986 1.223-15.91-2.952-.394-.563-.404-.56-1.786.65-2.657 2.324-5.923 3.617-9.137 3.617-4.837 0-8.384-2.075-10.412-6.092-.875-1.735-1.849-5.111-1.849-6.414 0-.638-.084-.746-.463-.592-1.384.563-4.058 1.19-6.257 1.466l-2.492.314-.167.886c-.091.487-.66 1.872-1.262 3.079-3.204 6.412-10.102 9.078-15.976 6.175-1.25-.618-2.321-1.397-3.08-2.242l-1.165-1.295-1.833 1.473c-3.033 2.435-5.839 3.428-8.979 3.176-4.075-.327-5.947-2.98-5.613-7.957.08-1.19.461-3.857.847-5.926.784-4.204.795-5.445.047-5.586-1.148-.218-4.164 4.312-5.889 8.844-.382 1.005-1.138 3.336-1.68 5.18-1.125 3.834-1.55 4.612-2.803 5.136-1.99.831-3.913.158-4.862-1.702-.695-1.363-1.145-4.264-.947-6.108.087-.81.325-2.96.528-4.78.574-5.147.607-5.722.349-6.183-.372-.664-.861-.521-1.915.56-1.702 1.748-3.906 6.815-5.723 13.162-.458 1.6-1.005 3.242-1.216 3.65-.822 1.59-3.178 2.246-4.888 1.362-.748-.387-2.074-2.61-2.081-3.489-.004-.509-.26-.41-2.218.859-4.184 2.71-9.014 3.625-13.854 2.626-2.556-.528-4.288-1.404-6.024-3.046a11.212 11.212 0 01-3.065-4.958c-.308-1.044-.4-1.132-1.018-.982-.373.09-1.522.233-2.552.318-2.615.215-4.5-.357-5.753-1.745-1.258-1.393-1.604-2.775-1.405-5.628.088-1.266.09-2.487.003-2.712-.458-1.193-2.295.279-4.064 3.256-1.493 2.514-2.762 5.61-4.027 9.83-.589 1.964-1.24 3.904-1.448 4.31-.834 1.638-3.354 2.28-5 1.277zm108.164-6.23c1.595-.35 3.348-2.555 3.867-4.868.23-1.022.198-1.099-.899-2.175-.625-.614-1.47-1.844-1.877-2.735-.615-1.346-.74-1.985-.748-3.8l-.008-2.182h-.794c-1.622.001-3.342 1.507-4.44 3.888-.513 1.111-.586 1.715-.586 4.841 0 3.147.067 3.698.566 4.63.312.583.81 1.279 1.107 1.547.588.532 2.367 1.223 2.812 1.093.152-.045.602-.153 1-.24zm-74.38-7.57c3.842-1.294 6.056-3.518 6.056-6.085 0-.851-.17-1.258-.774-1.863-2.055-2.055-5.505.384-6.582 4.655-.353 1.4-.639 3.832-.45 3.832.082 0 .87-.242 1.75-.539zm123.824 0c3.843-1.294 6.057-3.518 6.057-6.085 0-.851-.17-1.258-.774-1.863-2.055-2.055-5.505.384-6.582 4.655-.353 1.4-.639 3.832-.45 3.832.082 0 .87-.242 1.75-.539zm-17.467-20.962c2.27-3.511 3.547-8.673 2.832-11.44-.288-1.112-.45-1.335-1.018-1.4-.806-.095-1.29.39-2.196 2.197-1.322 2.637-3 9.112-3.736 14.417l-.165 1.19 1.633-1.695c.899-.933 2.091-2.404 2.65-3.269zm70.09 34.31c-6.349-1.686-9.83-7.043-9.439-14.528.225-4.296 1.419-7.178 3.975-9.596 2.567-2.428 5.215-3.36 9.433-3.322 5.612.052 9.422 2.283 11.66 6.827 1.558 3.166 1.93 8.23.869 11.843-1.364 4.644-5.037 8.063-9.59 8.926-1.987.377-5.181.308-6.908-.15zm5.821-4.484c2.235-.387 4.436-2.964 5.048-5.91.491-2.367.19-6.477-.605-8.244-.811-1.803-2.655-3.497-4.313-3.96-1.862-.522-4.399-.218-5.899.708-1.458.9-2.79 2.927-3.21 4.889-.405 1.887-.345 5.417.122 7.246.74 2.892 2.783 4.973 5.301 5.4 1.275.215 1.646.202 3.556-.13zm18.078 4.72c-.893-.173-1.853-1.305-2.033-2.397-.288-1.742-.19-22.076.113-23.163.56-2.016 3.19-2.709 4.806-1.265l.864.771.133 5.296.132 5.296 5.688-5.549c3.13-3.051 6.046-5.78 6.483-6.066 1.197-.781 2.153-.668 3.201.38.963.963 1.148 1.945.56 2.964-.177.307-2.452 2.564-5.057 5.016l-4.735 4.46 5.33 5.214c5.241 5.127 5.331 5.233 5.331 6.316 0 1.552-1.098 2.647-2.654 2.647-1.263 0-1.421-.136-9.715-8.322l-4.564-4.505v5.421c0 4.903-.05 5.502-.516 6.265-.345.567-.844.936-1.52 1.123-.553.154-1.066.264-1.138.245a21.14 21.14 0 00-.708-.147zm28.792-.363c-2.035-.815-3.214-2.556-3.214-4.747 0-2.882 2.087-5.024 4.893-5.024 1.534 0 2.717.493 3.713 1.549 3.056 3.238.752 8.556-3.677 8.488-.6-.009-1.372-.129-1.715-.266zm3.435-.62c1.685-.706 2.673-2.228 2.673-4.118 0-4.62-6.171-6.223-8.253-2.144-1.896 3.717 1.787 7.85 5.58 6.262zm-3.738-4.105v-2.93h1.72c1.367 0 1.828.109 2.249.53.876.876.577 2.261-.59 2.734-.23.093-.248.205-.056.354.453.355 1.175 1.5 1.175 1.865 0 .699-.72.297-1.531-.852-1.122-1.591-1.847-1.617-1.96-.069-.059.819-.206 1.146-.544 1.21-.418.08-.463-.194-.463-2.842zm3.307-1.21c0-.744-.07-.799-1.124-.875l-1.125-.081v1.913l1.125-.082c1.055-.076 1.124-.13 1.124-.875z"/><path d="M187.04 36.42V8.11h6.351v56.621h-6.35zM2.682 53.75c-3.189-1.386-3.594-12.981-.823-23.546 1.028-3.92 2.248-4.978 5.58-4.84 2.855.118 2.815-.243.897 8.015-.372 1.6-.744 3.684-.828 4.63l-.151 1.72.901-2c2.796-6.204 6.817-10.797 10.533-12.031 1.907-.633 4.49-.45 5.376.383 1.08 1.015 1.26 2.604.677 5.975-.852 4.919-.622 6.218 1.103 6.218.98 0 1.449-.517 1.8-1.985 1.173-4.922 5.249-9.395 9.644-10.585 2.288-.62 5.924-.46 7.44.325 2.564 1.328 3.878 3.667 3.871 6.89-.012 5.62-3.49 9.293-10.948 11.56l-2.312.704.576.78c.801 1.083 2.584 1.875 4.581 2.035 2.473.199 5.504-.806 8.521-2.824 1.279-.855 2.53-1.782 2.781-2.06.338-.373.527-1.326.728-3.664.42-4.873 1.67-10.53 2.705-12.23.782-1.287 2.213-1.91 4.38-1.91 2.801 0 2.876.23 1.671 5.165-1.002 4.105-1.664 7.666-1.559 8.378.056.38.364-.123.937-1.528 1.387-3.402 3.156-6.133 5.482-8.463 2.545-2.551 4.057-3.364 6.523-3.507 2.303-.133 3.207.323 3.82 1.93.554 1.447.434 2.867-.688 8.186-.428 2.024-.771 3.75-.764 3.837.007.086.542-.96 1.188-2.324 3.387-7.149 7.867-11.38 12.314-11.631 2.087-.118 3.195.344 3.846 1.603.654 1.265.33 5.15-.944 11.318-1.428 6.913-1.401 8.417.159 9.01.94.358 2.532-.405 4.23-2.025l1.359-1.297.125-3.44c.102-2.808.254-3.82.829-5.51 1.152-3.389 3.073-6.037 5.592-7.71 3.526-2.34 8.356-2.8 11.751-1.118 2.7 1.338 4.873 4.408 5.813 8.215l.467 1.89 1.169-.087c.643-.047 2.235-.315 3.538-.595 1.303-.28 2.642-.508 2.977-.508.583 0 .607-.085.607-2.117v-2.117H128.2c-1.478 0-2.096-.114-2.534-.469-1.208-.978-1.14-3.934.114-5.013.61-.524.991-.603 2.93-.603 2.095 0 2.237-.036 2.364-.595.074-.328.383-1.825.686-3.327 1.609-7.964 4.737-14.691 8.417-18.098 2.188-2.026 3.17-2.454 5.636-2.454 1.646 0 2.172.105 2.778.554 1.063.787 1.885 2.096 2.375 3.78.601 2.07.367 7.178-.438 9.55-1.162 3.427-2.998 6.406-5.388 8.743-.816.798-1.485 1.54-1.487 1.649-.003.109 1.714.198 3.814.198 4.584 0 4.772.094 4.59 2.293-.137 1.65-.634 2.314-2.322 3.103-1.052.491-1.826.572-6.615.69l-5.424.132.014 4.762c.02 6.384.577 8.611 2.6 10.388 1.205 1.058 3.28 1.52 5.045 1.125 1.63-.366 2.382-.767 4.184-2.235l1.479-1.205-.004-2.581c-.003-1.465.182-3.38.426-4.426 1.266-5.424 5.18-9.878 9.774-11.122 2.289-.62 5.925-.46 7.442.325 2.563 1.328 3.877 3.667 3.87 6.89-.007 3.145-1.084 5.623-3.351 7.714-1.402 1.292-5.236 3.202-7.799 3.886-.946.252-1.828.553-1.96.668-.433.375 1.766 2.274 3.028 2.616 1.536.415 3.852.196 5.201-.492.59-.3 1.989-1.534 3.11-2.741 2.343-2.523 2.542-2.665 3.42-2.444.84.21 1.301 1.34 1.262 3.089-.084 3.734-3.975 7.544-8.735 8.553-4.888 1.036-9.588-.147-12.36-3.11l-1.2-1.284-1.357 1.186c-4.288 3.751-10.087 4.626-14.935 2.255-3.03-1.482-5.186-4.812-6.077-9.382-.256-1.31-.48-2.412-.5-2.45-.02-.038-.56.118-1.2.346-1.355.483-4.225 1.073-6.365 1.31l-1.494.164-.312 1.241c-.857 3.402-3.728 7.089-6.783 8.71-4.48 2.376-10.246 1.48-13.457-2.093l-1.15-1.279-1.546 1.32c-4.732 4.043-11.43 4.594-13.7 1.126-1.457-2.224-1.522-4.922-.276-11.503.379-2 .652-4.084.607-4.63-.2-2.424-2.385-.6-4.675 3.902-1.672 3.285-2.278 4.853-3.478 8.998-1.132 3.911-1.532 4.654-2.79 5.179-2.928 1.224-5.161-.594-5.64-4.591-.239-1.984-.227-2.199.507-8.963.286-2.64.447-4.992.357-5.226-.273-.713-1.178-.476-2.123.555-1.847 2.017-3.905 6.961-6.188 14.87-.657 2.272-1.547 3.335-3.026 3.612-2.225.418-3.733-.677-4.435-3.22l-.3-1.09-1.787 1.155c-2.287 1.48-5.132 2.603-7.642 3.016-3.591.59-7.96-.096-10.654-1.675-2.309-1.353-4.65-4.538-5.112-6.954l-.156-.815-1.368.37c-1.864.503-4.763.312-6.163-.405-2.43-1.246-3.166-3.024-2.887-6.972.126-1.788.09-2.607-.119-2.737-.674-.416-1.645.202-2.816 1.79-2.16 2.93-3.627 6.25-5.363 12.135-.542 1.84-1.196 3.665-1.453 4.057-.87 1.328-2.912 1.8-4.604 1.064zm107.704-6.232c1.88-.522 3.434-2.357 4.126-4.874.285-1.037.271-1.073-.883-2.249-1.802-1.835-2.628-3.885-2.643-6.552l-.012-2.182-.808-.001c-.444 0-1.354.346-2.022.769-1.638 1.039-2.779 3.317-3.101 6.195-.58 5.167 1.017 8.637 4.211 9.15.073.012.582-.103 1.132-.256zm-73.22-7.948c4.19-1.57 6.473-5.57 4.374-7.668-1.758-1.758-4.407-.437-5.969 2.979-.62 1.353-1.19 3.778-1.193 5.074-.002.564.394.51 2.788-.386zm123.826 0c4.19-1.568 6.472-5.569 4.374-7.667-1.758-1.758-4.407-.437-5.969 2.979-.62 1.353-1.19 3.778-1.193 5.074-.003.564.394.51 2.788-.386zm-19.069-19.685c2.436-3.408 3.675-6.917 3.69-10.45.01-2.549-.326-3.44-1.297-3.44-1.314 0-2.885 3.125-4.221 8.399-.605 2.39-1.737 8.346-1.737 9.144 0 .466 2.32-1.911 3.565-3.653zm71.842 33.557c-.364-.058-1.502-.402-2.528-.765-4.706-1.666-7.573-5.946-7.969-11.896-.469-7.054 2.879-12.613 8.711-14.465 1.911-.607 6.164-.737 8.193-.25 4.643 1.115 8.06 4.657 9.221 9.562.48 2.024.42 6.374-.116 8.437-1.254 4.831-4.961 8.393-9.663 9.284-1.373.261-4.484.31-5.85.093zm5.555-4.9c3.102-1.174 4.659-4.6 4.445-9.78-.104-2.522-.208-3.011-.973-4.566-1.339-2.72-3.186-3.832-6.381-3.842-3.516-.012-5.69 1.73-6.762 5.417-.617 2.124-.427 7.137.337 8.855 1.025 2.306 2.734 3.783 4.886 4.22 1.224.25 3.372.102 4.448-.305zm17.418 4.883c-.39-.056-1.006-.4-1.37-.764-.937-.937-1.018-2.206-.919-14.387.065-7.874.169-10.597.424-11.044.875-1.532 3.481-1.793 4.795-.48.684.683.688.713.82 5.97l.132 5.284 6.123-5.924c3.368-3.258 6.383-6.006 6.7-6.107 2.107-.668 4.187 1.898 3.037 3.75-.254.41-2.52 2.65-5.032 4.979-2.513 2.328-4.579 4.303-4.59 4.39-.011.085 2.36 2.5 5.271 5.367 5.078 5 5.292 5.253 5.292 6.24 0 1.47-1.207 2.656-2.703 2.656-1.188 0-1.253-.057-10.328-8.986l-3.902-3.84v5.231c0 6.514-.228 7.246-2.382 7.644a5.08 5.08 0 01-1.368.021zm28.123-.644c-3.324-1.645-3.632-6.553-.54-8.6 2.48-1.641 5.915-.826 7.23 1.716 2.262 4.374-2.292 9.06-6.69 6.884zm4.012-.32c2.001-.856 3.117-3.148 2.558-5.258-1.018-3.845-6.167-4.556-8.113-1.119-2.092 3.694 1.687 8.032 5.555 6.378zm-3.78-4.133v-2.91h1.72c1.368 0 1.829.108 2.25.529.735.735.67 1.703-.161 2.356l-.69.543.69.82c.38.45.69.989.69 1.196 0 .738-.705.358-1.544-.832-.643-.912-.995-1.187-1.44-1.124-.487.069-.602.277-.67 1.208-.055.765-.203 1.124-.462 1.124-.31 0-.382-.551-.382-2.91zm3.308-1.19c0-.76-.055-.798-1.257-.875l-1.256-.08v1.907l1.256-.08c1.203-.077 1.257-.116 1.257-.875z"/><path d="M187.04 36.42V8.11h6.351v56.621h-6.35zM3.003 53.892c-.81-.327-1.903-1.734-2.222-2.86-1.32-4.655-.77-14.32 1.2-21.122.806-2.78 1.187-3.373 2.604-4.059 1.276-.618 4.334-.759 4.868-.224.48.48.399 1.211-.589 5.311-1.112 4.616-1.544 7.032-1.43 8.008.074.623.238.386 1.014-1.46 1.279-3.045 3.697-6.689 5.799-8.737 2.265-2.209 4.322-3.256 6.662-3.393 3.88-.227 4.908 1.805 3.811 7.537-.75 3.923-.418 5.38 1.227 5.38.981 0 1.45-.516 1.797-1.984 1.215-5.119 5.67-9.739 10.36-10.745 1.89-.405 5.427-.185 6.592.41 1.275.651 2.583 1.93 3.263 3.192.48.891.571 1.495.572 3.836.001 2.468-.078 2.949-.714 4.304-1.084 2.313-3.167 4.232-6.097 5.617-1.346.637-3.222 1.364-4.168 1.616-.946.252-1.819.544-1.94.648-.414.354 1.619 2.041 3.021 2.507 2.91.967 6.794.028 10.737-2.596 2.955-1.966 3.012-2.06 3.287-5.525.384-4.821 1.742-10.941 2.78-12.525.726-1.11 2.466-1.755 4.488-1.665 2.73.12 2.705-.13.787 7.884-.366 1.528-.734 3.611-.819 4.63l-.153 1.852.9-2.117c1.225-2.884 1.646-3.665 3.157-5.861 2.785-4.046 6.238-6.441 9.289-6.442 3.896 0 4.489 2.054 2.858 9.902-.452 2.171-.816 4.017-.81 4.1.005.085.634-1.097 1.396-2.625 2.415-4.836 4.362-7.383 7.189-9.4 2.027-1.447 3.46-1.977 5.341-1.977 1.749 0 2.845.527 3.424 1.647.645 1.248.345 4.82-.939 11.185-1.291 6.4-1.356 7.815-.397 8.773.863.863 1.802.717 3.518-.547 2.566-1.892 2.606-1.976 2.763-5.844.155-3.818.59-5.578 2.066-8.36 3.793-7.149 13.368-9.259 18.554-4.089 1.514 1.51 3.01 4.434 3.43 6.703l.307 1.663 1.209-.168c.664-.092 2.274-.394 3.577-.67 1.303-.277 2.642-.503 2.977-.503.583 0 .607-.085.607-2.117v-2.117h-1.996c-1.767 0-2.071-.074-2.646-.649-.545-.545-.65-.904-.65-2.234 0-1.293.118-1.722.638-2.327.594-.692.807-.752 3.102-.875l2.464-.132.316-1.89c.498-2.985 1.887-7.928 3.037-10.81 2.206-5.527 5.181-9.463 8.32-11.009 1.478-.727 1.89-.815 3.381-.72 2.153.137 3.276.932 4.314 3.053 1.377 2.814 1.174 8.03-.478 12.315-.98 2.54-2.865 5.4-4.834 7.332-.81.795-1.474 1.54-1.474 1.653 0 .115 1.718.208 3.818.208 4.38 0 4.65.112 4.648 1.937-.003 1.55-.806 2.74-2.321 3.433-1.11.508-1.854.587-6.674.71l-5.424.138-.078 3.572c-.203 9.259 1.577 12.803 6.428 12.8 2.161 0 3.429-.542 5.622-2.403l1.39-1.178.003-2.691c.007-5.059 1.452-8.794 4.62-11.952 2.935-2.925 5.723-4.004 9.772-3.781 2.419.133 3.754.685 5.088 2.104 1.55 1.648 1.815 2.453 1.815 5.513 0 2.467-.08 2.95-.715 4.304-1.086 2.32-3.167 4.234-6.097 5.61-1.346.633-3.222 1.358-4.168 1.61-.946.254-1.818.548-1.938.654-.386.34 1.394 2.06 2.613 2.525 1.405.537 4.03.417 5.431-.248 1.035-.492 2.499-1.805 4.217-3.782 1.489-1.714 2.14-1.938 3.034-1.044.572.571.666.904.666 2.346 0 2.16-.832 3.888-2.74 5.693-2.212 2.092-4.531 3.079-7.976 3.391-4.099.373-8.01-.891-10.285-3.324l-1.235-1.32-1.648 1.333c-3.381 2.733-7.054 3.804-10.961 3.197-1.12-.174-2.666-.605-3.436-.957-3.081-1.411-5.436-4.952-6.34-9.537-.258-1.31-.475-2.402-.48-2.426-.007-.025-.966.23-2.131.568-1.166.338-2.832.69-3.703.784-3.338.359-3.205.296-3.574 1.675-.562 2.095-2.077 4.705-3.695 6.363-4.612 4.729-11.827 4.927-16.306.449l-1.476-1.476-1.048.947c-5.243 4.737-12.393 5.104-14.53.745-.9-1.835-.859-5.534.117-10.611.84-4.362.841-5.71.01-5.828-1.052-.15-3.355 3.033-5.147 7.115-.76 1.73-1.861 5.001-3.068 9.103-.257.877-.78 1.905-1.167 2.296-1.371 1.385-4.185 1.225-5.271-.3-1.492-2.096-1.673-4.963-.792-12.595.296-2.568.467-4.894.379-5.17-.248-.782-1.164-.596-2.134.433-1.834 1.945-3.89 6.881-6.18 14.839-.66 2.292-1.31 3.167-2.647 3.568-2.203.66-4.18-.603-4.8-3.07l-.297-1.176-1.159.797c-2.155 1.483-5.495 2.905-7.806 3.324-3.925.711-8.322.088-11.176-1.585-2.272-1.332-4.635-4.576-5.098-6.999-.121-.636-.276-.834-.565-.723-3.283 1.26-7.141.633-8.89-1.444-1.033-1.228-1.307-2.633-1.094-5.607.163-2.282.132-2.61-.257-2.76-1.154-.442-2.714 1.268-4.735 5.192-1.419 2.755-2.276 5.011-3.441 9.056-.492 1.706-1.098 3.413-1.346 3.792-.773 1.18-2.854 1.756-4.27 1.183zm108.927-7.049c1.042-.712 2.132-2.5 2.602-4.27.294-1.104.283-1.137-.648-1.954-1.92-1.686-3.164-4.848-2.998-7.622l.088-1.47-.794.09c-3.158.357-5.201 3.766-5.259 8.773-.032 2.784.422 4.425 1.605 5.807 1.475 1.724 3.479 1.963 5.404.646zM37.137 39.58c2.87-1.073 4.88-3.096 5.111-5.14.327-2.9-1.858-4.224-4.328-2.623-1.84 1.194-3.06 3.705-3.444 7.09l-.177 1.56.711-.178c.39-.098 1.348-.417 2.127-.709zm123.825 0c2.87-1.073 4.88-3.096 5.111-5.14.327-2.9-1.858-4.224-4.328-2.623-1.84 1.194-3.06 3.705-3.444 7.09l-.177 1.56.711-.178c.39-.098 1.348-.417 2.127-.709zm-19.105-19.53c2.843-3.803 4.504-9.655 3.631-12.797-.975-3.51-3.598-.044-5.401 7.136-.639 2.543-1.73 8.242-1.73 9.036 0 .527 2.09-1.488 3.5-3.375zm71.053 33.157c-4.611-1.118-8.027-4.589-9.228-9.378-.528-2.108-.458-6.894.13-8.864 1.401-4.693 4.645-7.871 9.056-8.874 1.959-.445 5.908-.372 7.69.143 4.6 1.327 7.44 4.267 8.69 8.996.571 2.157.57 6.642 0 8.864-.903 3.516-3.253 6.565-6.219 8.067-2.717 1.377-6.948 1.815-10.118 1.046zm6.515-4.72c1.391-.58 2.733-1.942 3.502-3.552.61-1.277.736-1.94.836-4.418.267-6.637-2.238-10.186-7.185-10.18-4.294.007-6.824 2.585-7.266 7.405-.673 7.326 2.391 11.712 7.845 11.23.774-.07 1.795-.287 2.268-.484zm17.176 4.818c-.464-.122-1.09-.534-1.39-.916-.533-.678-.545-.972-.545-12.706 0-13.347-.045-12.999 1.759-13.594 1.226-.405 2.51-.132 3.292.7.62.658.641.828.77 5.976l.132 5.3 5.964-5.81c3.28-3.196 6.24-5.958 6.576-6.139 1.773-.948 4.226 1.188 3.605 3.142-.095.302-2.339 2.592-4.984 5.089-2.646 2.496-4.842 4.612-4.879 4.7-.037.09 2.314 2.545 5.225 5.456 4.908 4.908 5.294 5.363 5.294 6.24 0 1.656-1.683 2.91-3.346 2.493-.415-.104-3.323-2.712-7.143-6.404l-6.444-6.228v5.193c0 5.22-.21 6.636-1.063 7.163-.641.396-1.998.562-2.823.345zm28.889-.274c-2.018-.716-3.308-2.55-3.308-4.704 0-5.222 7.026-6.892 9.46-2.25.535 1.023.536 3.474.003 4.499-1.16 2.22-3.821 3.282-6.154 2.455zm3.41-.574c4.638-1.938 2.902-8.987-2.112-8.57-2.596.214-4.24 2.19-4.022 4.831.256 3.084 3.285 4.93 6.134 3.74zm-3.807-4.13v-2.91h1.72c1.367 0 1.828.108 2.249.529.711.711.666 1.474-.135 2.275l-.664.664.664.87c.365.48.664 1.008.664 1.177 0 .586-.683.3-1.143-.479-.691-1.17-1.204-1.597-1.919-1.597-.585 0-.642.106-.642 1.19 0 .883-.103 1.191-.397 1.191-.329 0-.397-.5-.397-2.91zm3.307-1.18c0-.655-.14-.825-.845-1.027-1.235-.354-1.668-.089-1.668 1.022v.95l1.256-.081c1.199-.077 1.257-.117 1.257-.865z"/></svg>