<svg xmlns="http://www.w3.org/2000/svg" height="34.134" viewBox="0 0 533.2 34.134" width="200"><path d="M44.6 54.867l-15.5-31.1H16.2v31.2H0v-82.8h36.3c14.2 0 25.7 11.6 25.7 25.8 0 10.2-6 19.5-15.3 23.6l-.5.2 16.5 33.2H44.6zm-28.4-47.3h20.1c5.3 0 9.6-4.3 9.6-9.6s-4.3-9.6-9.6-9.6H16.2zm93 46.8c-22.8 0-41.4-18.6-41.4-41.4 0-22.8 18.6-41.3 41.4-41.3 22.8 0 41.4 18.6 41.4 41.4 0 22.8-18.6 41.3-41.4 41.3zm0-66.5c-13.9 0-25.2 11.3-25.2 25.2 0 13.9 11.3 25.2 25.2 25.2 13.9 0 25.2-11.3 25.2-25.2 0-13.9-11.3-25.2-25.2-25.2zm88.5 66.5c-22.8 0-41.4-18.6-41.4-41.4 0-22.8 18.6-41.4 41.4-41.4 22.8 0 41.4 18.6 41.4 41.4 0 22.8-18.6 41.4-41.4 41.4zm0-66.5c-13.9 0-25.2 11.3-25.2 25.2 0 13.9 11.3 25.2 25.2 25.2 13.9 0 25.2-11.3 25.2-25.2 0-13.9-11.3-25.2-25.2-25.2zm64.4 66.6v-66.6H239v-16.1h62.3v16.1h-23v66.6zm120.3-24c-4.9 4.9-11.8 7.8-19.3 7.4-12.6-.8-22.8-11.2-23.4-23.7-.7-14.3 10.8-26.2 25-26.2 6.9 0 13.2 2.8 17.7 7.4l11.6-11.5c-8.2-8.2-19.8-13-32.6-12-20.3 1.6-36.6 18.2-37.9 38.4-1.5 24 17.5 44 41.2 44 11.4 0 21.8-4.7 29.2-12.2zm79.2 23.8v-16.5h-34.8l34.6-63.8c.6-1-.2-2.3-1.4-2.3h-60.3v15.9H435l-35 64.4c-.6 1 .2 2.3 1.4 2.3zm-160.3-16.2h16.4v16.4h-16.4z" fill="currentColor"/><path d="M473.2 46.167h60v16.4h-60z" fill="#f04c23"/></svg>