<svg width="353.695" height="109.446" xmlns="http://www.w3.org/2000/svg"><g data-name="Group 722"><path data-name="Path 678" d="M11.37 36.482L47.854 0h-13.95L1.823 32.081a6.224 6.224 0 000 8.8l32.082 32.081h13.949z"/><path data-name="Path 679" d="M75.74 72.964l-36.482 36.482h13.948l32.082-32.082a6.223 6.223 0 000-8.8L53.206 36.483H39.258z"/><g data-name="Group 675"><g data-name="Group 671"><g data-name="Group 670"><path data-name="Path 680" d="M133.649 16.527c2.81.62 6.459 1.787 6.386 5.691a4.848 4.848 0 01-2.045 4.123 8.356 8.356 0 01-5.071 1.5c-3.613 0-6.276-1.6-7.443-4.268l3.394-1.971a3.85 3.85 0 004.049 2.627c2.08 0 3.1-.693 3.1-2.043 0-1.168-1.533-1.861-3.466-2.335-2.736-.694-6.421-1.788-6.348-5.62a4.912 4.912 0 011.9-4.049 8.015 8.015 0 0111.528 2.262l-3.32 1.861a3.445 3.445 0 00-3.43-2.079c-1.495 0-2.663.656-2.663 1.933 0 1.2 1.532 1.824 3.429 2.372"/><path data-name="Path 681" d="M152.369 24.006a5.5 5.5 0 004.049-1.642 6 6 0 000-8.246 5.816 5.816 0 00-8.1 0 6 6 0 000 8.246 5.505 5.505 0 004.05 1.642m-6.823 1.058a9.78 9.78 0 116.823 2.772 9.277 9.277 0 01-6.823-2.772"/><path data-name="Path 682" d="M175.21 5.142c-2.882-.255-4.306.949-4.306 3.612v.366h4.306v3.793h-4.306v14.448h-3.94V12.913h-2.774V9.12h2.774v-.366c0-5 2.846-7.734 8.246-7.406z"/><path data-name="Path 683" d="M189.075 12.913h-4.525v8.757c0 2.335 1.534 2.3 4.525 2.152v3.539c-6.02.729-8.465-.912-8.465-5.691v-8.757h-3.356V9.119h3.356v-3.94l3.939-1.168V9.12h4.525z"/></g><path data-name="Path 684" d="M214.579 9.12h4.158l-5.727 18.242h-3.868l-3.794-12.295-3.83 12.295h-3.867L191.92 9.12h4.16l3.538 12.588 3.83-12.588h3.76L211 21.712z"/><path data-name="Path 685" d="M230.344 24.077a5.607 5.607 0 004.122-1.642 5.778 5.778 0 001.642-4.2 5.639 5.639 0 00-1.642-4.16 5.9 5.9 0 00-8.246 0 5.639 5.639 0 00-1.641 4.16 5.778 5.778 0 001.64 4.2 5.612 5.612 0 004.125 1.642m5.764-14.959h3.94V27.36h-3.94v-2.627a7.367 7.367 0 01-6.384 3.1 8.547 8.547 0 01-6.423-2.772 10.074 10.074 0 010-13.645 8.543 8.543 0 016.423-2.774 7.423 7.423 0 016.384 3.066z"/><path data-name="Path 686" d="M249.317 12.184c.986-2.262 2.882-3.392 5.619-3.392v4.268a5.7 5.7 0 00-3.94 1.1 4.582 4.582 0 00-1.678 4.013v9.194h-3.94V9.12h3.94z"/><path data-name="Path 687" d="M271.538 16.708a5.084 5.084 0 00-5.217-4.488 5.3 5.3 0 00-5.51 4.488zm-10.69 3.21c.584 2.773 2.809 4.306 5.837 4.306a5.406 5.406 0 004.707-2.262l3.248 1.9a8.976 8.976 0 01-7.991 3.977 9.856 9.856 0 01-7.187-2.7 10.012 10.012 0 01-.037-13.718 9.209 9.209 0 016.933-2.772 8.548 8.548 0 016.566 2.81 9.748 9.748 0 012.59 6.822 10.783 10.783 0 01-.145 1.642z"/></g><g data-name="Group 673"><path data-name="Path 688" d="M135.313 60.55a5.608 5.608 0 004.122-1.641 5.779 5.779 0 001.642-4.2 5.64 5.64 0 00-1.642-4.159 5.9 5.9 0 00-8.246 0 5.64 5.64 0 00-1.641 4.159 5.779 5.779 0 001.64 4.2 5.608 5.608 0 004.125 1.641m5.764-22.254h3.94v25.539h-3.94v-2.628a7.367 7.367 0 01-6.385 3.1 8.54 8.54 0 01-6.422-2.772 10.071 10.071 0 010-13.645 8.541 8.541 0 016.422-2.772 7.425 7.425 0 016.385 3.065z"/><path data-name="Path 689" d="M164.137 53.177a5.084 5.084 0 00-5.217-4.488 5.3 5.3 0 00-5.51 4.488zm-10.69 3.21c.584 2.773 2.809 4.306 5.837 4.306a5.4 5.4 0 004.706-2.262l3.249 1.9a8.98 8.98 0 01-7.991 3.976 9.855 9.855 0 01-7.188-2.7 10.013 10.013 0 01-.036-13.717 9.21 9.21 0 016.933-2.773 8.548 8.548 0 016.566 2.811 9.748 9.748 0 012.59 6.822 10.744 10.744 0 01-.145 1.641z"/><path data-name="Path 690" d="M183.95 45.593h4.3l-7.114 18.242h-4.561l-7.114-18.242h4.3l5.108 13.864z"/><g data-name="Group 672"><path data-name="Path 691" d="M204.53 53.177a5.084 5.084 0 00-5.217-4.488 5.3 5.3 0 00-5.51 4.488zm-10.69 3.21c.584 2.773 2.809 4.306 5.837 4.306a5.4 5.4 0 004.706-2.262l3.249 1.9a8.979 8.979 0 01-7.991 3.976 9.856 9.856 0 01-7.188-2.7 10.013 10.013 0 01-.036-13.717 9.21 9.21 0 016.933-2.773 8.548 8.548 0 016.566 2.811 9.749 9.749 0 012.59 6.822 10.741 10.741 0 01-.145 1.641z"/></g><path data-name="Rectangle 497" d="M212.704 37.201h3.94v26.634h-3.94z"/><path data-name="Path 692" d="M230.54 60.477a5.505 5.505 0 004.05-1.641 6 6 0 000-8.247 5.818 5.818 0 00-8.1 0 6 6 0 000 8.247 5.508 5.508 0 004.05 1.641m-6.822 1.058a9.782 9.782 0 116.823 2.772 9.279 9.279 0 01-6.823-2.772"/><path data-name="Path 693" d="M254.19 60.55a5.609 5.609 0 004.122-1.641 5.779 5.779 0 001.643-4.2 5.637 5.637 0 00-1.643-4.159 5.9 5.9 0 00-8.245 0 5.642 5.642 0 00-1.642 4.159 5.785 5.785 0 001.642 4.2 5.612 5.612 0 004.123 1.641m7.042-12.623a10.026 10.026 0 010 13.609 8.535 8.535 0 01-6.421 2.772 7.424 7.424 0 01-6.385-3.064v9.888h-3.94V45.593h3.94v2.626a7.366 7.366 0 016.385-3.1 8.572 8.572 0 016.42 2.81"/><path data-name="Path 694" d="M295.019 52.525v11.31h-3.94V52.777c0-2.517-1.35-3.976-3.54-3.976-2.444 0-3.976 1.606-3.976 4.817v10.214h-3.941V52.777c0-2.517-1.24-3.976-3.43-3.976-2.371 0-4.05 1.642-4.05 4.817v10.214h-3.938v-18.24h3.939v2.185a5.824 5.824 0 015.219-2.665 5.576 5.576 0 015.18 2.882 6.1 6.1 0 015.582-2.882c4.123 0 6.9 2.882 6.9 7.408"/><path data-name="Path 695" d="M313.774 53.177a5.084 5.084 0 00-5.217-4.488 5.3 5.3 0 00-5.51 4.488zm-10.691 3.21c.584 2.773 2.81 4.306 5.837 4.306a5.405 5.405 0 004.707-2.262l3.248 1.9a8.979 8.979 0 01-7.991 3.976 9.851 9.851 0 01-7.187-2.7 10.011 10.011 0 01-.037-13.717 9.211 9.211 0 016.933-2.773 8.545 8.545 0 016.566 2.811 9.748 9.748 0 012.59 6.822 10.578 10.578 0 01-.145 1.641z"/><path data-name="Path 696" d="M338.549 52.634v11.2h-3.94v-10.8c0-2.737-1.568-4.233-4.087-4.233-2.772 0-4.633 1.716-4.633 5.255v9.777h-3.94v-18.24h3.94v2.335a6.237 6.237 0 015.655-2.81c4.2 0 7.005 2.846 7.005 7.516"/><path data-name="Path 697" d="M353.692 49.387h-4.524v8.756c0 2.335 1.533 2.3 4.524 2.153v3.536c-6.02.729-8.465-.911-8.465-5.691v-8.756h-3.352v-3.794h3.356v-3.939l3.94-1.167v5.108h4.524z"/></g><g data-name="Group 674"><path data-name="Path 698" d="M135.313 97.043a5.613 5.613 0 004.122-1.641 5.786 5.786 0 001.642-4.2 5.637 5.637 0 00-1.642-4.159 5.9 5.9 0 00-8.246 0 5.637 5.637 0 00-1.641 4.159 5.786 5.786 0 001.64 4.2 5.613 5.613 0 004.125 1.641m5.764-14.958h3.94v18.241h-3.94v-2.627a7.367 7.367 0 01-6.385 3.1 8.546 8.546 0 01-6.422-2.77 10.072 10.072 0 010-13.647 8.543 8.543 0 016.422-2.775 7.425 7.425 0 016.385 3.066z"/><path data-name="Path 699" d="M152.057 98.029a9.358 9.358 0 01-2.736-6.823 9.24 9.24 0 012.736-6.824 9.353 9.353 0 016.9-2.773 8.984 8.984 0 018.135 4.707l-3.392 1.971a5.077 5.077 0 00-4.78-2.809 5.5 5.5 0 00-4.05 1.642 6.006 6.006 0 000 8.172 5.5 5.5 0 004.05 1.642 5.326 5.326 0 004.852-2.81l3.393 1.935a9.182 9.182 0 01-8.208 4.741 9.355 9.355 0 01-6.9-2.77"/><path data-name="Path 700" d="M179.135 97.043a5.61 5.61 0 004.122-1.641 5.787 5.787 0 001.642-4.2 5.638 5.638 0 00-1.642-4.159 5.9 5.9 0 00-8.246 0 5.637 5.637 0 00-1.641 4.159 5.786 5.786 0 001.64 4.2 5.615 5.615 0 004.125 1.641m5.764-14.958h3.94v18.241h-3.94v-2.627a7.366 7.366 0 01-6.384 3.1 8.546 8.546 0 01-6.422-2.77 10.075 10.075 0 010-13.647 8.543 8.543 0 016.422-2.775 7.423 7.423 0 016.384 3.066z"/><path data-name="Path 701" d="M202.85 97.042a5.606 5.606 0 004.124-1.641 5.781 5.781 0 001.642-4.2 5.634 5.634 0 00-1.642-4.159 5.9 5.9 0 00-8.246 0 5.635 5.635 0 00-1.641 4.159 5.782 5.782 0 001.64 4.2 5.609 5.609 0 004.124 1.641m5.765-22.255h3.94v25.542h-3.94v-2.63a7.366 7.366 0 01-6.385 3.1 8.541 8.541 0 01-6.421-2.77 10.072 10.072 0 010-13.647 8.538 8.538 0 016.42-2.773 7.423 7.423 0 016.385 3.066z"/><path data-name="Path 702" d="M231.677 89.674a5.084 5.084 0 00-5.217-4.489 5.3 5.3 0 00-5.51 4.489zm-10.69 3.209c.584 2.772 2.81 4.3 5.837 4.3a5.4 5.4 0 004.707-2.26l3.248 1.9a8.973 8.973 0 01-7.991 3.977 9.857 9.857 0 01-7.187-2.7 10.013 10.013 0 01-.037-13.718 9.21 9.21 0 016.933-2.773 8.548 8.548 0 016.566 2.811 9.749 9.749 0 012.59 6.823 10.914 10.914 0 01-.144 1.641z"/><path data-name="Path 703" d="M266.665 89.016v11.31h-3.94V89.271c0-2.516-1.35-3.976-3.54-3.976-2.444 0-3.976 1.605-3.976 4.817v10.214h-3.941V89.271c0-2.516-1.24-3.976-3.43-3.976-2.371 0-4.05 1.642-4.05 4.817v10.214h-3.94V82.084h3.94v2.189a5.829 5.829 0 015.22-2.665 5.576 5.576 0 015.18 2.885 6.1 6.1 0 015.584-2.885c4.122 0 6.9 2.885 6.9 7.408"/><path data-name="Path 704" d="M283.563 82.085h4.2l-7 18.825c-1.752 4.707-4.707 6.97-8.9 6.713v-3.685c2.48.147 3.867-1.058 4.852-3.575l.182-.364-7.735-17.913h4.305l5.436 13.244z"/></g></g></g></svg>