<svg xmlns="http://www.w3.org/2000/svg" height="99.6" width="417.5"><path d="M94.5 50.8l-4.8-.4c-3.7-.3-5.2-1.8-5.2-4.3 0-3 2.3-4.9 6.6-4.9 3.1 0 5.8.7 7.9 2.3l2.8-2.8c-2.6-2.2-6.4-3.2-10.7-3.2-6.3 0-10.9 3.2-10.9 8.7 0 4.9 3.1 7.5 8.8 7.9l4.9.4c3.4.3 4.9 1.7 4.9 4.3 0 3.5-3 5.2-7.9 5.2-3.7 0-6.9-1-9.2-3.4l-2.9 2.9c3.3 3.1 7.2 4.3 12.2 4.3 7.2 0 12-3.3 12-9 .2-5.6-3.3-7.6-8.5-8zm37.1-13.3c-4.8 0-7.7.9-10.4 4.3l2.8 2.8c1.7-2.5 3.7-3.4 7.5-3.4 5.4 0 7.6 2.2 7.6 6.5v2.8h-8.9c-6.6 0-10.2 3.4-10.2 8.5 0 2.3.8 4.6 2.2 6 1.9 1.9 4.3 2.7 8.4 2.7 4 0 6.1-.8 8.5-3.2v2.8h4.3v-20c0-6.4-3.9-9.8-11.8-9.8zm7.5 19.5c0 2.5-.5 4.2-1.5 5.1-1.9 1.8-4.1 2-6.6 2-4.7 0-6.8-1.6-6.8-5.1 0-3.4 2.2-5.2 6.6-5.2h8.3zm21.3-15.7c2.8 0 4.6.8 6.8 3.3l2.9-2.8c-3-3.3-5.6-4.3-9.7-4.3-7.5 0-13.1 5.1-13.1 15.2s5.7 15.2 13.1 15.2c4.1 0 6.7-1.1 9.8-4.4l-2.9-2.8c-2.2 2.5-4 3.4-6.8 3.4-2.9 0-5.3-1.1-6.9-3.4-1.4-1.9-1.9-4.2-1.9-7.9s.5-6 1.9-7.9c1.5-2.4 3.9-3.6 6.8-3.6zm37.1-3.5h-5.4l-13.4 13.1V24.6h-4.3v42.9h4.3V56.7l5.3-5.3 9.9 16.1h5.4L187 48.4zm20.4-1.6c-4.6 0-7.6 1.8-9.5 3.8-2.8 2.9-3.5 6.4-3.5 12s.7 9.1 3.5 12c1.9 2 5 3.8 9.5 3.8 4.6 0 7.7-1.8 9.6-3.8 2.8-2.9 3.5-6.4 3.5-12s-.7-9.1-3.5-12c-1.9-2-5.1-3.8-9.6-3.8zm3.6 23.3c-.9.9-2.1 1.4-3.6 1.4s-2.7-.5-3.6-1.4c-1.6-1.6-1.8-4.3-1.8-7.5s.2-5.9 1.8-7.5c.9-.9 2-1.4 3.6-1.4 1.5 0 2.7.5 3.6 1.4 1.6 1.6 1.8 4.3 1.8 7.5s-.2 5.9-1.8 7.5zm30-22.9l-6.2 19.1-6.3-19.1h-8.1l11.4 30.8h6l11.3-30.8zm21.2-.4c-8 0-13.4 5.7-13.4 15.7 0 12.5 7 15.8 14.3 15.8 5.6 0 8.6-1.7 11.7-4.9l-4.7-4.6c-2 2-3.6 2.9-7 2.9-4.3 0-6.7-2.9-6.7-6.9h19.3v-3.4c-.1-8.3-4.9-14.6-13.5-14.6zm-5.9 12.9c.1-1.4.2-2.2.7-3.3.8-1.8 2.5-3.2 5.2-3.2 2.6 0 4.3 1.4 5.2 3.2.5 1.1.7 2 .7 3.3zm30.7-9.6v-3H290v30.8h7.7V48.8c0-3.9 2.6-5.7 5-5.7 1.9 0 2.9.6 4.1 1.8l5.8-5.8c-2.1-2.1-4.3-2.9-7.3-2.9-3.4 0-6.4 1.6-7.8 3.3zm17.4-6.1v34h7.7V43.1h5.7v-5.9h-5.7v-3.4c0-1.8.9-2.8 2.7-2.8h3v-6.5h-4.4c-6.3.1-9 4.5-9 8.9zm45.1 2.8c-4.6 0-7.6 1.8-9.5 3.8-2.8 2.9-3.5 6.4-3.5 12s.7 9.1 3.5 12c1.9 2 5 3.8 9.5 3.8 4.6 0 7.7-1.8 9.6-3.8 2.8-2.9 3.5-6.4 3.5-12s-.7-9.1-3.5-12c-1.9-2-5.1-3.8-9.6-3.8zm3.6 23.3c-.9.9-2.1 1.4-3.6 1.4s-2.7-.5-3.6-1.4c-1.6-1.6-1.8-4.3-1.8-7.5s.2-5.9 1.8-7.5c.9-.9 2-1.4 3.6-1.4 1.5 0 2.7.5 3.6 1.4 1.6 1.6 1.8 4.3 1.8 7.5-.1 3.2-.2 5.9-1.8 7.5zm45.8-22.9l-5 19.1-6.3-19.1h-5.6l-6.3 19.1-5-19.1H373l9.5 30.8h6.3l6.5-19.3 6.5 19.4h6.3l9.4-30.8h-8.1zm-69.8 21.5V24.6h-7.7v34.1c0 4.4 2.7 8.8 9 8.8h4.4V61h-3c-1.9-.1-2.7-1-2.7-2.9zM115.3 42.5l4-4h-8.2v-9.7h-4.3v30.8c0 4.4 2.5 7.9 7.6 7.9h3.1v-3.7h-2.3c-2.8 0-4-1.6-4-4.3v-17z" fill="#222426"/><path d="M58.5 74.7V52.8h7.3V82H0V52.8h7.3v21.9z" fill="#bcbbbb"/><path d="M15.4 50.8l35.8 7.5 1.5-7.2-35.8-7.5zm4.7-17.2l33.2 15.5 3.1-6.6L23.2 27zm9.2-16.3l28.1 23.4 4.7-5.6L34 11.7zM47.4 0l-5.9 4.4 21.8 29.4 5.9-4.4zM14.6 67.4h36.6v-7.3H14.6z" fill="#f48024"/><path d="M97 80.3v-2.9c0-.5-.4-.8-.8-.8h-15c-.5 0-.8.4-.8.8v2.9c0 .5.4.8.8.8h5v17.6c0 .5.4.8.8.8h3.2c.5 0 .8-.4.8-.8V81.1h5c.6 0 1-.4 1-.8zm10.4-3.2c-.1-.3-.4-.5-.8-.5H104c-.3 0-.7.2-.8.5l-7.8 21.3c-.1.3-.1.5.1.8.2.2.4.4.7.4h3.4c.4 0 .7-.2.8-.6l1.3-3.7h7.2l1.3 3.7c.1.3.4.6.8.6h3.4c.3 0 .5-.1.7-.4.2-.2.2-.5.1-.8zm-4.2 13.7l2.1-6.1 2.1 6.1zm28.7 4.1h-9.4V77.4c0-.5-.4-.8-.8-.8h-3.2c-.5 0-.8.4-.8.8v21.3c0 .5.4.8.8.8H132c.5 0 .8-.4.8-.8v-2.9c-.1-.5-.4-.9-.9-.9zm17.9-18.3h-13.6c-.5 0-.8.4-.8.8v21.3c0 .5.4.8.8.8h13.6c.5 0 .8-.4.8-.8v-2.9c0-.5-.4-.8-.8-.8h-9.5v-4.7h8c.5 0 .8-.4.8-.8v-2.9c0-.5-.4-.8-.8-.8h-8v-4.7h9.5c.5 0 .8-.4.8-.8v-2.9c0-.5-.3-.8-.8-.8zm20.7 0h-3.2c-.5 0-.8.4-.8.8v12.2L158.2 77c-.2-.2-.4-.4-.7-.4h-3c-.5 0-.8.4-.8.8v21.3c0 .5.4.8.8.8h3.2c.5 0 .8-.4.8-.8V86.5l8.3 12.7c.2.2.4.4.7.4h3c.5 0 .8-.4.8-.8V77.4c0-.5-.3-.8-.8-.8zm19.3 0h-15c-.5 0-.8.4-.8.8v2.9c0 .5.4.8.8.8h5v17.6c0 .5.4.8.8.8h3.2c.5 0 .8-.4.8-.8V81.1h5c.5 0 .8-.4.8-.8v-2.9c.2-.5-.1-.8-.6-.8z" fill="#f58025"/></svg>