<svg xmlns="http://www.w3.org/2000/svg" width="153" height="30"><path fill="#2C659D" d="M26.494 25.103c-1.396.533-2.76.685-3.006.356l-.008.003c-3.424-2.943-7.924-4.763-12.279-4.763-4.265 0-7.274 1.792-9.239 4.681h-.008c-.028.079-.243.164-.48.164-.265 0-.474-.054-.474-.179 0-.009 0-.017.002-.023 0-.004 0-.008.002-.012 2.336-5.067 6.65-8.32 12.876-8.32 5.278 0 10.954 2.423 15.037 6.25l-.007.003a.216.216 0 01.078.103c.138.381-.942 1.141-2.494 1.737z"/><path fill="#4E99E3" d="M23.643 18.696c-.037-.021-.392-.194-.623-.313-.429-.214-1.035-.466-1.797-.75a54.709 54.709 0 00-.806-.293 18.932 18.932 0 00-4.616-.997 17.78 17.78 0 00-2.634-.068c-.292.012-.572.028-.833.056-1.688.172-2.646.498-2.934.599-.176.062-.369.03-.393-.125-.042-.287.067-.921.119-1.312.228-1.712.336-3.627-.215-5.619C8.359 7.879 6.969 6.01 6.584 5.42c-.425-.653-.133-.878.357-.971 2.146-.402 6.667.792 8.922 1.834 2.684 1.236 7.684 5.193 8.064 11.974.026.431-.075.558-.284.439z"/><path fill="#565555" d="M43.161 22.362c-1.773 0-3.422-.203-4.951-.612v-1.732c1.529.545 3.178.817 4.951.817 2.506 0 3.758-.921 3.758-2.751 0-1.562-.923-2.346-2.768-2.346h-1.876c-3.05 0-4.573-1.324-4.573-3.972 0-2.783 1.95-4.175 5.857-4.175 1.695 0 3.275.202 4.737.61v1.731c-1.462-.542-3.042-.816-4.737-.816-2.648 0-3.974.884-3.974 2.649 0 1.563.896 2.344 2.689 2.344h1.876c3.102 0 4.651 1.325 4.651 3.974.002 2.852-1.88 4.279-5.64 4.279zm8.504-12.53h1.182l.407 1.732h2.892v1.527h-2.598v6.144c0 .999.432 1.498 1.294 1.498h1.304v1.526h-1.791c-1.792 0-2.689-.959-2.689-2.882V9.832h-.001zm10.498 12.427c-2.544 0-3.818-1.076-3.818-3.229 0-2.192 1.445-3.292 4.336-3.292.934 0 1.862.07 2.793.207v-1.01c0-1.229-.96-1.845-2.883-1.845a11.98 11.98 0 00-3.383.51v-1.526a11.912 11.912 0 013.383-.511c3.177 0 4.769 1.107 4.769 3.322v7.374h-1.062l-.653-1.06a6.165 6.165 0 01-3.482 1.06zm3.311-4.786a19.13 19.13 0 00-2.793-.206c-1.635 0-2.452.578-2.452 1.732s.645 1.733 1.935 1.733c1.306 0 2.407-.346 3.311-1.04v-2.219h-.001zm5.254 4.786V11.563h1.276l.335 1.364c.935-.91 2.063-1.364 3.383-1.364v1.567c-1.278 0-2.316.453-3.108 1.356v7.772h-1.886zm7.92-12.427h1.181l.404 1.732h2.896v1.527H80.53v6.144c0 .999.431 1.498 1.292 1.498h1.307v1.526h-1.793c-1.793 0-2.688-.959-2.688-2.882V9.832zm17.138 1.731v10.695h-1.294l-.327-1.363c-1.296.909-2.6 1.363-3.911 1.363-2.457 0-3.688-1.328-3.688-3.982v-6.713h1.884v6.745c0 1.587.788 2.384 2.364 2.384 1.081 0 2.108-.453 3.087-1.355v-7.773h1.885zm3.366.438a21.864 21.864 0 014.399-.438c3.432 0 5.146 1.695 5.146 5.083 0 3.744-1.724 5.612-5.175 5.612-.856 0-1.684-.17-2.487-.509v4.381h-1.883V12.001zm1.883 8.08c.739.366 1.568.548 2.478.548 2.221 0 3.333-1.335 3.333-4.003 0-2.329-1.106-3.495-3.312-3.495-.952 0-1.783.083-2.499.246v6.704zm14.191-12.388v10.37c0 2.8-1.649 4.196-4.942 4.196v-1.526c2.039 0 3.057-.891 3.057-2.67V7.693h1.885zm8.257 14.555c-3.381 0-5.081-1.778-5.093-5.337 0-3.565 1.696-5.348 5.093-5.348 3.396 0 5.093 1.783 5.093 5.348 0 3.559-1.697 5.337-5.093 5.337zm-3.209-5.377c0 2.572 1.07 3.861 3.209 3.861s3.208-1.289 3.208-3.861c0-2.521-1.069-3.781-3.208-3.781s-3.209 1.261-3.209 3.781zm11.164-9.178h1.881v4.381a6.633 6.633 0 012.6-.511c3.381 0 5.072 1.711 5.072 5.136 0 3.706-1.777 5.56-5.329 5.56-1.531 0-2.942-.146-4.224-.438V7.693zm1.881 12.704c.62.193 1.369.295 2.255.295 2.374 0 3.562-1.355 3.562-4.066 0-2.289-1.077-3.433-3.229-3.433-.979 0-1.841.183-2.588.55v6.654zm14.24 1.862c-1.286 0-2.554-.17-3.812-.509v-1.63a12.25 12.25 0 003.812.612c1.702 0 2.556-.51 2.556-1.527 0-.951-.596-1.427-1.782-1.427h-1.528c-2.308 0-3.466-1.052-3.466-3.159 0-2.038 1.485-3.056 4.453-3.056 1.278 0 2.545.169 3.799.511v1.629a12.186 12.186 0 00-3.799-.613c-1.779 0-2.67.51-2.67 1.529 0 .95.562 1.426 1.683 1.426h1.528c2.445 0 3.668 1.052 3.668 3.16-.001 2.035-1.482 3.054-4.442 3.054z"/></svg>