<svg width="879.923" height="430.972" xmlns="http://www.w3.org/2000/svg"><defs><clipPath clipPathUnits="userSpaceOnUse" id="a"><path d="M384.146 453.814c-12.312-10.615-28.256-15.928-47.83-15.928-19.579 0-35.522 5.379-47.83 16.135-12.312 10.757-18.457 27.443-18.457 50.057v44.562h42.79v-39.183c0-11.586 2.448-19.72 7.344-24.408 4.891-4.692 10.279-7.035 16.154-7.035 5.873 0 11.257 2.343 16.153 7.035 4.89 4.687 7.34 12.822 7.34 24.408v25.527c0 5.793-2.24 11.514-6.71 17.171-4.476 5.651-10.008 11.439-16.573 17.372-6.577 5.93-13.783 12-21.608 18.207-7.836 6.206-15.037 12.958-21.608 20.27-6.576 7.303-12.102 15.167-16.573 23.58-4.476 8.413-6.709 17.585-6.709 27.514v35.819c0 11.584 1.74 21.58 5.244 29.997 3.493 8.41 8.318 15.308 14.474 20.686 6.145 5.38 13.213 9.308 21.187 11.787 7.97 2.485 16.425 3.728 25.383 3.728 8.946 0 17.413-1.243 25.381-3.728 7.975-2.48 15.032-6.347 21.188-11.58 6.151-5.242 10.976-12.07 14.473-20.479 3.499-8.418 5.245-18.553 5.245-30.411v-45.748H359.81v40.374c0 11.58-2.449 19.717-7.34 24.408-4.895 4.686-10.279 7.03-16.152 7.03-5.875 0-11.263-2.344-16.154-7.03-4.896-4.691-7.345-12.827-7.345-24.408V666.96c0-8.004 2.24-15.246 6.715-21.72 4.471-6.485 9.997-12.621 16.574-18.413 6.57-5.787 13.771-11.58 21.608-17.373 7.825-5.792 15.031-11.863 21.606-18.206 6.567-6.348 12.093-13.377 16.574-21.1 4.472-7.722 6.71-16.544 6.71-26.477v-39.593c0-22.897-6.157-39.649-18.459-50.264" clip-rule="evenodd"/></clipPath><clipPath clipPathUnits="userSpaceOnUse" id="b"><path d="M0 0h1200v1200H0z"/></clipPath><clipPath clipPathUnits="userSpaceOnUse" id="c"><path d="M526.378 714.658V442.02h-42.26v272.637h-44.92v41.785h132.574v-41.785z" clip-rule="evenodd"/></clipPath><clipPath clipPathUnits="userSpaceOnUse" id="d"><path d="M0 0h1200v1200H0z"/></clipPath><clipPath clipPathUnits="userSpaceOnUse" id="e"><path d="M702.66 684.872c0 11.58-1.922 19.716-5.764 24.408-3.842 4.686-9.894 7.029-18.145 7.029h-21.778v-103.84h21.778c8.251 0 14.303 2.339 18.145 7.035 3.842 4.687 5.765 12.823 5.765 24.408zm8.54-242.852l-37.571 130.32h-16.655V442.02h-43.555v314.422H689c16.503 0 30.17-5.106 40.99-15.307 10.817-10.206 16.227-27.17 16.227-50.886V641.84c0-15.998-2.85-29.028-8.537-39.093-5.704-10.07-13.386-17.17-23.06-21.308l40.135-139.42z" clip-rule="evenodd"/></clipPath><clipPath clipPathUnits="userSpaceOnUse" id="f"><path d="M0 0h1200v1200H0z"/></clipPath><clipPath clipPathUnits="userSpaceOnUse" id="g"><path d="M891.44 442.02h-62.144l-38.942 314.423h42.26l27.547-256.5 27.551 256.5h42.26z" clip-rule="evenodd"/></clipPath><clipPath clipPathUnits="userSpaceOnUse" id="h"><path d="M0 0h1200v1200H0z"/></clipPath></defs><g clip-path="url(#a)" transform="matrix(1.33333 0 0 -1.33333 -360.039 1014.82)"><g clip-path="url(#b)"><path d="M265.03 766.115h142.574v-333.23H265.03z" fill="#ef0d33"/></g></g><g clip-path="url(#c)" transform="matrix(1.33333 0 0 -1.33333 -360.039 1014.82)"><g clip-path="url(#d)"><path d="M434.197 761.443h142.575V437.021H434.197z" fill="#ef0d33"/></g></g><g clip-path="url(#e)" transform="matrix(1.33333 0 0 -1.33333 -360.039 1014.82)"><g clip-path="url(#f)"><path d="M608.418 761.443h151.336V437.021H608.418z" fill="#ef0d33"/></g></g><g clip-path="url(#g)" transform="matrix(1.33333 0 0 -1.33333 -360.039 1014.82)"><g clip-path="url(#h)"><path d="M785.354 761.443h149.618V437.02H785.354z" fill="#ef0d33"/></g></g></svg>