<svg width="20.9mm" height="17.9mm" viewBox="0 0 20.9 17.9" xmlns="http://www.w3.org/2000/svg"><path d="M9.5 12.75a.418.418 0 00-.418.418v2.63c0 .485-.102.842-.306 1.07-.204.23-.52.344-.948.344-.428 0-.744-.115-.948-.344-.204-.229-.306-.587-.306-1.07v-2.63a.418.418 0 10-.836 0v2.73c0 .671.178 1.18.534 1.52.356.343.874.515 1.56.515s1.2-.171 1.56-.515c.356-.343.534-.849.534-1.52v-2.73a.418.418 0 00-.418-.418M3.4 15.25c-.271-.126-.636-.231-1.09-.313-.49-.088-.83-.192-1.02-.313-.191-.121-.286-.285-.286-.491 0-.222.098-.404.294-.545.196-.142.472-.213.828-.213.361 0 .65.07.866.209.117.075.223.175.319.3a.396.396 0 10.61-.506 2.06 2.06 0 00-.6-.466c-.333-.17-.734-.255-1.2-.255-.403 0-.755.07-1.06.21a1.637 1.637 0 00-.693.564c-.16.237-.24.501-.24.79 0 .272.063.505.19.695.126.191.329.351.607.48.279.13.653.237 1.12.325.469.088.798.188.986.302.188.114.283.263.283.45A.597.597 0 013 17.01c-.21.127-.496.19-.863.19-.387 0-.711-.072-.971-.217a1.467 1.467 0 01-.4-.328.395.395 0 00-.576-.015l-.001.001a.395.395 0 00-.02.54c.44.492 1.1.74 1.98.74.402 0 .757-.062 1.06-.183.307-.12.545-.295.715-.522.17-.227.255-.49.255-.789 0-.279-.062-.512-.186-.7-.124-.188-.321-.346-.592-.472M14.8 15.25c-.271-.126-.636-.231-1.09-.313-.49-.088-.83-.192-1.02-.313-.191-.121-.286-.285-.286-.491 0-.222.098-.404.294-.545.196-.142.472-.213.828-.213.361 0 .65.07.866.209.117.075.223.175.319.3a.396.396 0 10.61-.506 2.06 2.06 0 00-.6-.466c-.333-.17-.734-.255-1.2-.255-.403 0-.755.07-1.06.21a1.637 1.637 0 00-.693.564c-.16.237-.24.501-.24.79 0 .272.063.505.19.695.126.191.329.351.607.48.279.13.653.237 1.12.325.469.088.798.188.986.302.188.114.283.263.283.45a.597.597 0 01-.313.537c-.21.127-.497.19-.863.19-.387 0-.711-.072-.971-.217a1.467 1.467 0 01-.4-.328.395.395 0 00-.576-.015l-.001.001a.395.395 0 00-.02.54c.44.492 1.1.74 1.98.74.402 0 .757-.062 1.06-.183.307-.12.545-.295.715-.522.17-.227.255-.49.255-.789 0-.279-.062-.512-.186-.7-.124-.188-.321-.346-.592-.472M20.6 17.15h-2.32a.324.324 0 01-.324-.324v-1.17h2.24a.348.348 0 000-.696h-2.24v-1.15c0-.179.145-.324.324-.324h2.32a.365.365 0 000-.73h-2.32c-.581 0-1.05.473-1.05 1.05v3.02c0 .582.473 1.05 1.05 1.05h2.32a.364.364 0 100-.73" fill="#0c322c"/><path d="M20 3.27a.93.93 0 11-1.859.001A.93.93 0 0120 3.27m-6.64 3.89c-.592-.219-.821-.175-1.58-.165-.525.007-.543-.01-1.14-.01-.185 0-.253.886.416 1.07.293.08.61.13.83.356.097.1.152.25-.073.25h-1.66c-.291 0-.566.007-.788-.18-.335-.285-.492-.675-.66-1.06a11.335 11.335 0 00-.583-1.18c-.44-.755-1.02-1.44-1.8-1.85-.972-.522-2.62-.78-3.93.222-1.38 1.06-1.08 3.04.122 4 .476.383 1.1.543 1.7.507 1.19-.069 2.07-.947 1.85-2.03-.073-.36-.284-.703-.601-.89a1.507 1.507 0 00-.755-.18c-.281 0-.58.058-.782.253a.731.731 0 00-.087.914c.106.151.278.278.249.475a.327.327 0 01-.261.261c-.223.05-.428-.077-.578-.233a1.47 1.47 0 01-.295-1.55c.278-.672 1.05-1.04 1.78-1.02.937.032 1.82.65 2.2 1.51.385.855.27 1.91-.26 2.68-1.18 1.72-4.08 1.52-5.43.066-.847-.91-1.31-1.79-1.24-3.44.045-1.16.716-2.31 1.57-3.11 1.39-1.31 3.23-2.21 5.09-2.6 1.13-.234 2.3-.289 3.45-.174 1.01.101 2.02.287 3 .59.484.15.96.33 1.42.541.406.186.938.39 1.25.712 0-.583-.023-1.22-.023-1.67 0-.17.179-.285.332-.213.66.307 2.22 1.04 3.27 1.52 1.4.64 1.5 2.14 1.55 3.48a.186.186 0 01-.011.088c-.044.09-.279.066-.366.067-.167.002-.419 0-.586.008-.334.015-.659.009-.992-.008a2.822 2.822 0 01-1.61-.639c-.04-.033-.169-.07-.229-.007-.063.065-.042.167-.007.202.229.231.477.381.766.53.367.188.767.236 1.17.26.435.026.872.02 1.31-.025.362-.037.455-.062.098.204-.314.233-.678.4-1.05.525-.529.18-1.09.27-1.65.285a6.475 6.475 0 01-1.01-.052c-.173-.022-.346-.053-.52-.071-.141-.014-.288-.04-.429-.01a.569.569 0 00-.327.2c-.11.145-.149.54-.085.712.123.333.394.526.681.696.31.184.717.247.797.599.017.074-.642.075-.717.074h-.877s-.477.012-.662-.056l-.016-.007c-.101-.055-.145-.19-.18-.292a1.822 1.822 0 00-.238-.438c-.198-.282-.503-.592-.82-.71m6-5.12a1.257 1.257 0 00-.571 2.45c.908.213 1.73-.604 1.51-1.51a1.265 1.265 0 00-.94-.938m.44 1.16a.335.335 0 00-.48 0 .34.34 0 00.427.525.342.342 0 00.054-.525" fill="#31ba78"/></svg>