<svg xml:space="preserve" width="393.75" height="47.769" viewBox="0 0 2.514 0.305" version="1.1" id="svg846" xmlns="http://www.w3.org/2000/svg" clip-rule="evenodd" fill-rule="evenodd" image-rendering="optimizeQuality" shape-rendering="geometricPrecision" text-rendering="geometricPrecision"><defs id="defs826"><style type="text/css" id="style824">.fil0{fill:#1f1a17;fill-rule:nonzero}</style></defs><g id="Vrstva_x0020_1"><path id="guild.cz" class="fil0" d="M.788.048a.322.322 0 01.073.01c.011.002.02.005.028.01v.064H.886a.097.097 0 00-.02-.04.072.072 0 00-.03-.021A.105.105 0 00.8.064a.083.083 0 00-.048.014.082.082 0 00-.03.039.17.17 0 00-.01.062.17.17 0 00.01.058c.005.017.014.03.026.038A.068.068 0 00.79.29.073.073 0 00.816.285a.06.06 0 00.02-.013.046.046 0 00.013-.02v-.05C.85.197.849.192.846.19A.02.02 0 00.832.186H.826V.182H.93v.004H.926C.914.186.908.19.908.202v.055a.102.102 0 01-.026.022.175.175 0 01-.097.026.16.16 0 01-.071-.016.112.112 0 01-.047-.044A.134.134 0 01.65.176C.65.15.656.126.667.108A.112.112 0 01.714.064.162.162 0 01.788.048z"/><path id="path830" class="fil0" d="M1.03.054v.154a.09.09 0 00.017.06.06.06 0 00.049.02.064.064 0 00.05-.02.083.083 0 00.018-.055v-.16h.027V.21a.09.09 0 01-.026.07.106.106 0 01-.077.025C1.05.305 1.02.297 1 .28A.086.086 0 01.97.21V.055zm-.058 0v.021H.97A.018.018 0 00.965.062.019.019 0 00.952.057H.946V.054zm.082 0v.003h-.006a.019.019 0 00-.013.005.017.017 0 00-.005.013h-.001V.054zm.111 0v.021a.018.018 0 00-.018-.018H1.14V.054zm.05 0v.003H1.21a.02.02 0 00-.013.005.016.016 0 00-.006.013V.054z"/><path id="path832" class="fil0" d="M1.326.054V.3h-.06V.054zm-.058.22V.3h-.03V.296h.005A.024.024 0 001.26.289a.02.02 0 00.007-.015zm.057 0c.001.006.003.01.008.015.004.004.01.007.017.007h.004V.3h-.029zm0-.194V.054h.03v.004H1.35a.024.024 0 00-.017.006.021.021 0 00-.007.016zm-.057 0h-.001A.02.02 0 001.26.064a.025.025 0 00-.017-.006h-.005V.054h.03z"/><path id="path834" class="fil0" d="M1.469.054V.3h-.06V.054zm.095.23l.01.016h-.106V.283zm.027-.06L1.575.3h-.07l.012-.017A.067.067 0 001.55.276a.069.069 0 00.023-.02.1.1 0 00.015-.032zm-.18.05L1.413.3h-.03V.296h.005a.022.022 0 00.015-.007.02.02 0 00.007-.015zM1.468.08V.054h.028v.004h-.005a.022.022 0 00-.015.006.022.022 0 00-.007.016zm-.057 0H1.41a.02.02 0 00-.007-.016.023.023 0 00-.016-.006h-.005V.054h.029z"/><path id="path836" class="fil0" d="M1.745.054c.03 0 .055.005.076.014.02.01.037.024.048.042a.13.13 0 01.017.067.124.124 0 01-.017.066.11.11 0 01-.048.042.177.177 0 01-.076.015h-.09L1.653.283h.087c.025 0 .046-.01.06-.028a.123.123 0 00.023-.078A.124.124 0 001.8.098.073.073 0 001.74.07h-.09V.054zm-.05 0V.3h-.06V.054zm-.059.22V.3h-.03V.296h.006a.022.022 0 00.016-.007.021.021 0 00.007-.016zm0-.194a.021.021 0 00-.008-.016.023.023 0 00-.016-.006h-.005V.054h.029z"/><path id="path838" class="fil0" d="M1.945.304a.028.028 0 01-.02-.009.028.028 0 01-.009-.02c0-.01.003-.016.009-.022a.028.028 0 01.02-.009.03.03 0 01.022.009.029.029 0 01.008.021.028.028 0 01-.008.021.029.029 0 01-.022.009z"/><path id="path840" class="fil0" d="M2.25.197l.005.062a.082.082 0 01-.021.023A.11.11 0 012.2.3a.193.193 0 01-.126-.01.115.115 0 01-.07-.113c0-.027.007-.05.019-.068a.115.115 0 01.05-.044.239.239 0 01.171.003l.001.065h-.003C2.235.107 2.224.09 2.209.08a.091.091 0 00-.052-.016.084.084 0 00-.05.014.085.085 0 00-.03.04.157.157 0 00-.01.058c0 .023.004.042.01.059a.081.081 0 00.076.054c.02 0 .035-.003.048-.01a.068.068 0 00.03-.029.157.157 0 00.017-.053z"/><path id="path842" class="fil0" d="M2.498.048v.004L2.356.3h-.07V.296L2.42.07h-.129V.053h.166a.239.239 0 00.041-.005zm-.004.236L2.491.3h-.179V.284zm.02-.06L2.496.3h-.074l.014-.016a.069.069 0 00.058-.028.103.103 0 00.015-.032zM2.29.068h.042V.07a.037.037 0 00-.028.01.04.04 0 00-.01.029v.003H2.29zm0-.02a.224.224 0 00.045.006L2.29.056z"/><path id="TW" d="M.357.037L.402.15.472 0h.004l.082.152.033-.116A.022.022 0 00.589.018.017.017 0 00.575.012H.571V.008h.09v.004H.657a.044.044 0 00-.02.006.032.032 0 00-.015.016l-.07.224-.001.007-.004.017v.001a.08.08 0 000 .02H.543L.448.127.383.258.381.265a.151.151 0 00-.009.039H.368L.286.084C.276.057.272.054.26.042A.053.053 0 00.221.028h-.04v.237c0 .007.003.013.008.018a.025.025 0 00.018.008h.006v.004H.066V.29H.07A.025.025 0 00.089.283.026.026 0 00.097.265V.028h-.04a.053.053 0 00-.039.014.053.053 0 00-.014.04v.002H0V0a.257.257 0 00.048.007h.328v.005H.372a.018.018 0 00-.014.006C.354.023.354.03.357.038z" fill="#29186f" fill-rule="nonzero"/></g></svg>