<svg width="635.748" height="138.491" viewBox="0 0 596.014 129.835" xmlns="http://www.w3.org/2000/svg"><path d="M0 38.648l22.174-6.412q2.226 6.59 3.562 13.002 1.335 6.411 1.78 14.07.535 7.569.624 11.22.089 3.562.178 12.289v2.76q0 5.878-.89 12.824-.802 6.945-1.603 9.26 5.432 0 8.727-7.123 3.383-7.213 3.383-15.495V51.916l18.701-.089q.445 6.946.445 21.64 0 14.159-.623 33.75h.445q10.24 0 10.24-35.531 0-21.996-1.246-35.62h21.907q.178 2.849.178 8.637v7.748q0 31.702-3.74 48.977-2.494 11.399-11.22 18.167-8.728 6.678-22.887 6.678h-3.027q-1.603-5.877-2.138-13.624-2.76 5.877-9.973 10.33-7.213 4.363-19.146 4.363h-.534q-3.562-.089-5.878-1.069-.267-1.87-.445-15.227-.178-13.447-1.336-30.1-1.068-16.652-3.562-29.03Q2.226 42.566 0 38.648zM149.96 17.9q-4.185 0-6.945 1.068-2.672.98-3.918 2.938-1.158 1.96-1.514 3.74-.356 1.781-.356 4.186l.089 6.322H153.7q9.44 0 15.673 1.87l-3.919 17.543q-3.472-1.157-8.726-1.157h-19.502l.089 71.863H114.43V54.41h-12.735V36.154h12.735v-4.63q0-3.918.801-7.748.802-3.918 3.117-8.281 2.315-4.453 5.877-7.748 3.651-3.294 9.885-5.52Q140.432 0 148.447 0q13.892 0 22.351 3.83 8.55 3.828 13.536 13.713l-18.879 8.638q-1.602-5.076-5.164-6.679-3.562-1.603-10.33-1.603zm113.362 69.547v3.562q0 8.727 2.582 12.646 2.583 3.829 8.37 4.808 3.207.356 5.79.356 6.233 0 10.685-2.493 1.336-.712 2.315-1.78 1.07-1.159 1.692-2.494.713-1.336 1.069-2.316.356-.98.712-2.226.357-1.336.446-1.514l18.522 8.905q-.712 1.87-2.226 4.63-1.514 2.672-5.254 6.858-3.651 4.096-8.193 6.679-6.411 3.74-19.59 3.74-14.16 0-22.887-3.028-8.638-3.028-13.001-12.11-3.473-7.125-3.473-20.839v-3.74q.534-22.886.801-32.503h-1.246q-3.83 0-7.302 1.068L231.62 37.49q3.206-1.068 9.083-1.068h1.336V25.736q.089-7.659.089-10.776l22.351.535q0 8.46-.178 20.57 4.275 0 13.625.09 9.35.088 16.92.177 7.569.09 7.658.09l-.267 18.166q-6.145 0-19.235-.09-13.002-.088-18.879-.088-.267 7.925-.445 18.522-.178 10.508-.356 14.515zm86.022-15.138q12.111-2.137 30.277-2.137-.356-8.371-4.452-12.556-4.007-4.186-10.241-4.186-6.59 0-10.864 5.432-4.275 5.432-4.72 13.447zm15.406-36.956q20.392 0 29.208 12.378 8.905 12.378 8.905 36.065l-.089 3.83q-39.004.534-53.43 3.383 1.069 7.392 6.145 12.646 5.165 5.164 11.31 5.164 6.678 0 10.685-2.226 4.096-2.226 9.083-7.57l15.851 13.893q-3.74 4.185-6.5 6.5-2.761 2.316-6.946 4.275-4.097 1.959-9.44 2.671-5.343.802-13.268.802-18.79 0-29.387-12.734-10.508-12.824-10.508-34.107 0-19.858 10.063-32.414 10.063-12.556 28.318-12.556zm78.631 43.902q0 8.014 1.603 13.892 1.603 5.788 3.651 8.637 2.138 2.761 5.165 4.364 3.028 1.603 4.63 1.87 1.693.178 3.652.178h1.069q6.144 0 10.151-3.384 4.097-3.384 7.837-9.706l20.125 11.932q-4.542 10.063-13.625 14.96-9.083 4.899-23.598 4.899-8.816 0-15.94-1.425-7.035-1.425-12.823-5.7-8.282-6.411-11.755-16.296-3.384-9.973-3.384-24.132 0-43.724 43.902-43.724 14.604 0 22.708 5.432 7.925 5.343 11.398 13.447l-19.59 9.083q-2.405-9.172-16.119-9.172-9.261 0-14.159 7.213-4.898 7.213-4.898 17.632zm148.714-3.385v30.99q0 10.241 3.919 15.851l-20.126 7.124q-5.699-7.925-5.699-19.235V82.55q0-7.926-1.069-13.447-.98-5.61-2.404-8.549-1.425-2.938-3.918-4.452-2.494-1.603-4.453-1.87-1.87-.357-4.897-.357-4.631 0-8.727 3.562-4.097 3.473-6.857 8.104v60.732h-21.818V23.331q0-8.103-1.424-21.906l22.084-.802q1.247 10.152 1.247 23.153 0 10.597-2.137 19.77 9.884-7.48 20.66-7.48 17.364 0 26.447 9.528 9.172 9.44 9.172 30.277z" style="line-height:1.25;-inkscape-font-specification:'Fantasque Sans Mono Bold'" font-weight="700" font-size="182.375" font-family="Fantasque Sans Mono" letter-spacing="0" word-spacing="0" fill="#0385d1"/></svg>