<svg width="118" height="49" xmlns="http://www.w3.org/2000/svg"><g fill="none" fill-rule="evenodd"><path d="M17.943 25.162c-.71 4.636-1.402 9.275-2.134 13.907-.451 2.853-.918 5.706-1.492 8.534-.093.46-.736 1.055-1.205 1.139-1.219.218-2.481.185-3.727.254-.754.042-1.184-.281-1.351-1.057-.74-3.418-1.546-6.821-2.258-10.245-1.44-6.922-2.836-13.854-4.244-20.782-.507-2.498-.995-5-1.496-7.498-.139-.69.124-1.244.796-1.282 1.912-.106 3.834-.174 5.746-.103.847.032 1.003.9 1.102 1.624.604 4.378 1.148 8.764 1.813 13.132.46 3.021 1.085 6.018 1.81 9.03.266-1.776.53-3.552.797-5.33.573-3.833 1.184-7.662 1.705-11.504.219-1.615.243-3.256.361-4.885.09-1.216.457-1.721 1.626-1.808 1.371-.1 2.757-.055 4.133-.016.915.026 1.265.722 1.403 1.498.534 3.01 1.086 6.02 1.536 9.044.616 4.133 1.144 8.28 1.715 12.419.03.22.116.434.34.661.257-1.321.581-2.634.758-3.965.629-4.753 1.21-9.512 1.804-14.27.15-1.215.242-2.439.423-3.649.205-1.371.814-1.882 2.173-1.887 1.314-.004 2.629.03 3.944.033 1.335.003 1.68.425 1.415 1.722-.49 2.396-1.005 4.787-1.448 7.192a9097.423 9097.423 0 00-4.596 25.183c-.315 1.737-.59 3.48-.881 5.22-.13.781-.588 1.208-1.364 1.255-1.21.072-2.422.152-3.634.173-1.33.023-1.794-.43-1.989-1.786-.496-3.464-.99-6.927-1.5-10.387-.53-3.6-1.08-7.197-1.624-10.794-.04-.26-.117-.513-.177-.769l-.28-.003zm37.657.29c-.441 2.64-.874 5.281-1.328 7.918-.456 2.648-.954 5.289-1.392 7.94-.315 1.91-.573 3.831-.832 5.75-.151 1.13-.584 1.554-1.713 1.538-1.214-.018-2.436.016-3.635-.127-.437-.052-1.093-.48-1.186-.853-.54-2.16-.94-4.357-1.39-6.542-.41-1.996-.836-3.989-1.23-5.989-.747-3.801-1.441-7.614-2.223-11.409-.658-3.194-1.42-6.366-2.116-9.553a81.064 81.064 0 01-.844-4.3c-.179-1.105.184-1.605 1.26-1.592 1.649.021 3.307.106 4.933.352.398.06.896.812.99 1.314.513 2.706.878 5.438 1.358 8.15.707 3.984 1.47 7.958 2.206 11.937.075.4.131.802.385 1.244.058-.321.122-.642.173-.965 1.078-6.78 2.165-13.56 3.22-20.344.154-.983.312-1.665 1.606-1.48 1.22.174 2.48.044 3.724.048.605.001.87.281.967.914.983 6.386 1.977 12.772 3.02 19.148.212 1.292.652 2.546 1.2 3.8.198-1.056.441-2.106.585-3.17.878-6.504 1.731-13.011 2.599-19.517.186-1.392.555-1.68 1.913-1.628 1.28.048 2.563.048 3.843.1 1.116.043 1.435.337 1.263 1.43-.559 3.556-1.24 7.093-1.779 10.652-.937 6.192-2.233 12.304-3.668 18.396-.63 2.67-.868 5.433-1.289 8.154-.234 1.514-.72 1.91-2.211 1.908a43.715 43.715 0 00-2.709.104c-1.294.078-2.006-.49-2.176-1.709-.711-5.118-1.42-10.237-2.166-15.35-.308-2.114-.705-4.215-1.061-6.321l-.297.053zm28.567.591c1.28 0 2.467.15 3.6-.031 2.259-.361 4.22-1.28 4.685-3.814.176-.963.16-1.99.057-2.969-.228-2.171-1.956-4.848-4.922-4.768-.756.02-1.513.082-2.268.075-.638-.004-.8.296-.822.883-.086 2.329-.235 4.656-.322 6.985-.045 1.187-.008 2.377-.008 3.639m-.124 5.801c0 3.349-.022 6.568.008 9.787.017 1.92.13 3.84.173 5.762.024 1.073-.249 1.28-1.35 1.299-1.276.022-2.552.134-3.828.15-1.655.021-2.068-.42-2.045-2.076.016-1.13.058-2.26.066-3.39.037-5.53.079-11.06.094-16.59.016-5.872.012-11.744-.004-17.617-.001-.79.375-1.177 1.111-1.169 3.761.043 7.54-.1 11.279.22 6.72.575 10.823 6.746 10.115 12.21-.495 3.812-1.919 6.992-4.984 9.367-.538.418-.574.756-.358 1.372a2213.989 2213.989 0 015.553 16.06c.364 1.064-.059 1.683-1.195 1.717-1.62.05-3.24.035-4.86.054-.89.01-1.364-.426-1.638-1.265-1.606-4.928-3.273-9.836-4.853-14.773-.3-.939-.759-1.273-1.7-1.129-.43.066-.879.011-1.584.011" fill="#000"/><path d="M106.585.646c.743-.33 1.52-.593 2.323-.628.745-.033 1.516-.03 2.26.092.642.104 1.712.494 2.276.782 1.56.794 1.841 1.167 2.37 1.982.584.898.997 1.94 1.102 2.116.402 1.049.385 1.973.355 2.993-.032 1.127-.416 2.198-.916 3.208-.74 1.496-1.824 2.737-3.273 3.547-1.259.704-2.676.883-4.153.727-1.681-.177-3.178-.725-4.517-1.697-.636-.462-.938-1.214-1.36-1.864a7.82 7.82 0 01-1.25-3.569c-.103-.994.003-1.936.28-2.988.742-2.172 2.306-3.726 4.503-4.701z" fill="#F03E3E"/></g></svg>