<svg xmlns="http://www.w3.org/2000/svg" width="1024" height="224"><path fill="#979897" d="M677.98 0h4.729c3.55 2.21 7.39 5.23 7.21 9.88.2 25.68.23 51.38.19 77.07 14.59-14.36 29-28.89 43.688-43.14 3.87-4.19 11.22-3.93 14.72.61 3.593 4.03 2.91 10.49-1 14.06-10.979 10.9-22 21.77-33.027 32.62 10.659 10.8 21.3 21.63 32.04 32.36 2.02 2.069 3.987 4.49 4.31 7.479.75 5.621-4.01 11.568-9.87 11.229-3.277.32-6.08-1.68-8.26-3.893-10.811-10.857-21.62-21.729-32.51-32.487-3.393 3.38-6.78 6.771-10.13 10.198-.03 6.029.42 12.102-.353 18.102-.68 4.99-5.8 8.771-10.778 8.053-5.569-.201-9.569-5.812-9.012-11.15.09-40.35-.067-80.71.07-121.06C669.82 5.09 673.76 1.54 677.98 0z"/><path fill="#50893F" d="M498.15 24.91c.067-4.75 4.01-9.01 8.697-9.6 5.593-.88 11.36 4.02 11.23 9.71.12 4.07-.04 8.14.07 12.2-2.803-2.51-6.19-4.75-10.133-4.47-3.907-.19-7.21 2.1-10.039 4.51.195-4.11-.005-8.23.175-12.35z"/><path fill="#979897" d="M568.43 15.54c11.15-.83 22.4-.06 33.59-.38 2.07.22 5.062-.59 6.15 1.79.01 8.7-7.54 16.53-16.17 17.16-5.68.4-11.37.03-17.04.19-3.2-.06-6.8.21-9.46-1.92-5.82-4.17-4.4-15.2 2.93-16.84zM0 49.06c1.43-4.33 5.1-8.47 10.04-8.13 27-.06 54 .01 80.99-.03 5.94-.53 11.35 5.17 10.59 11.05-.51 4.5-4.38 7.37-7.3 10.4-20.03 19.79-40.02 39.63-59.97 59.52 18.89.101 37.79-.08 56.68.069 5.17-.209 10.01 3.898 10.57 9.051.8 5.91-4.55 11.729-10.56 11.13-27.02-.04-54.05.03-81.07-.04-4.85.35-8.31-3.7-9.97-7.801v-5.389c1.99-2.312 3.9-4.711 6.04-6.893 20.17-20.28 40.4-40.51 60.5-60.86-18.52-.087-37.03.053-55.54-.047-5.23.38-9.52-3.52-11-8.29v-3.74zm244.86 1.93c-.39-5.48 4.64-10.56 10.14-10.09 13.34-.01 26.67.05 40.01-.01 16.51-.79 31.771 14.71 30.82 31.19-.36 5.98-6.92 10.77-12.72 8.95-4.5-1.18-7.54-5.53-7.603-10.11-.18-5.38-5.02-10.13-10.47-9.79-10.03-.05-20.06-.01-30.09.01-.04 22.96-.16 45.92-.07 68.879.04 3.181-.3 6.738-2.77 9.041-3.58 4.119-10.72 4.219-14.43.229-2.3-2.08-2.92-5.29-2.86-8.262.063-26.677-.007-53.357.043-80.037z"/><path fill="#50893F" d="M498.08 51.93c-.4-5.22 3.59-10.37 8.84-10.98 5.71-.85 11.45 4.22 11.16 10.02.06 37.67-.01 75.35.03 113.03.317 15.92-14.19 30.52-30.13 30.2-8.763.03-17.53-.04-26.303 0-.14 8.26.09 16.53-.067 24.79.05 1.84-.812 3.5-1.763 5.01h-2.188c-2.58-1.95-4.86-4.24-7.12-6.529-8.79-8.891-17.73-17.631-26.48-26.551-3.8-3.62-3.72-10.18.103-13.75 9.56-9.76 19.32-19.33 28.91-29.07 1.987-1.789 5.01-5.51 7.72-2.85.93 2.13.83 4.5.89 6.77-.04 7.4-.05 14.801-.027 22.201 8.8-.061 17.59.149 26.39-.051 5.78.08 10.61-5.51 10.06-11.189-.025-37.021-.005-74.031-.025-111.051z"/><path fill="#979897" d="M831.17 41.28c15.26-.87 30.61-.09 45.9-.39 16.897-.97 32.58 15.35 30.88 32.18-1.103 7.16-10.61 10.78-16.16 6.15-3.05-2.13-3.91-5.86-4.24-9.33-.479-5.08-5.42-9.14-10.489-8.77-13.368.01-26.75-.05-40.118.03-5.69-.14-10.521 5.27-10.08 10.89-.021 12.99-.013 25.98 0 38.97-.42 5.59 4.38 11.01 10.06 10.86 13.36.069 26.74.01 40.11.021 5.09.399 10.04-3.66 10.52-8.761.33-3.49 1.2-7.24 4.28-9.36 5.53-4.63 14.939-.98 16.1 6.1 1.79 16.86-13.938 33.25-30.857 32.26-13.71-.05-27.41-.01-41.11-.021-9.85.229-18.79-5.869-24.24-13.739-3.8-4.94-5.05-11.31-4.979-17.43.05-13.62-.062-27.25.05-40.87C806.73 56.28 818 44.1 831.17 41.28zm91.27 9.68c-.11-5.52 4.947-10.55 10.54-10.05 24-.01 48.01.03 72.02-.01 3.96.04 7.96-.32 11.89.37 3.7.93 5.96 4.43 7.11 7.84v3.85c-.96 2.24-2.26 4.35-3.98 6.09-21.117 20.91-42.18 41.88-63.26 62.83 18.07.011 36.143.04 54.223-.03 2.827.131 5.97.041 8.397 1.771 2.23 1.5 3.44 4.01 4.62 6.34v4.801c-1.89 3.869-5.26 7.739-10 7.329-27 .052-54-.01-81 .03-5.98.568-11.27-5.229-10.51-11.092.35-3.719 3.277-6.328 5.72-8.85 20.32-20.291 40.49-40.729 60.771-61.061-18.671-.06-37.351.09-56.021-.05-5.51.222-10.56-4.588-10.52-10.108zm-705.06 80.069c-.01-40.021.03-80.039-.02-120.049.45-5.32-3.52-9.71-8.48-10.98h-2.71c-4.66 1.09-8.91 4.93-8.88 9.99-.27 10.25.1 20.52-.13 30.78-14.39-.17-28.78.31-43.17.13-5.89.09-12.03-.61-17.64 1.58-11.53 4.44-20.5 15.94-20.38 28.55-.09 13.66-.09 27.34 0 41.01-.1 16.13 14.79 30.989 31.05 30.101 20.34-.121 40.7.069 61.04-.08 5.76.16 9.83-5.622 9.32-11.032zm-20.17-9.129c-17.09-.062-34.18.09-51.26-.07-5.5-.04-10.02-5.41-9.62-10.8.01-13.03.01-26.06 0-39.09-.3-4.74 3.09-9.4 7.69-10.52 3.29-.52 6.63-.29 9.94-.32 14.42.03 28.83.01 43.24.01.04 20.26.03 40.52.01 60.79zm246.23-51.91c-.053-15.7-14.74-29.72-30.4-29.1-13.35.04-26.7.04-40.05 0-2.55.01-5.12.09-7.61.68-12.93 3.43-23.47 15.86-23.24 29.48-.06 11.31.171 22.62.07 33.92.01 6.2-.47 12.719 2.271 18.48 4.93 10.86 16.237 19.42 28.52 18.68 13.3-.17 26.61.14 39.91.17 15.72.4 30.51-13.489 30.53-29.329.079-14.321.089-28.661-.001-42.981zm-20.04 3.99c-.14 12.68.07 25.35-.1 38.02.03 5.34-4.897 10.12-10.25 9.87-13.34.05-26.68.03-40.02.01-5.853.42-11-5.069-10.58-10.84-.01-13.02-.01-26.05 0-39.07-.32-4.79 3.13-9.47 7.79-10.57 13.567-.69 27.21-.05 40.81-.32 3.48-.2 7.24.56 9.58 3.37 2.58 2.45 2.82 6.19 2.77 9.53zm219.44 57.1c-.07-20.37.08-40.74-.07-61.11-.188-13.79-11.317-26.03-24.63-28.71-3.647-.69-7.38-.54-11.067-.54-11.683.08-23.36-.06-35.03.04-5.479-.22-10.47 4.73-10.38 10.19-.04 5.42 4.93 10.29 10.357 10.12 13.33.16 26.673-.04 40 .05 4.683-.3 9.133 3.16 10.263 7.65.71 4.16.237 8.41.237 12.61-16.85-.09-33.697-.03-50.55-.04-15.77-.31-30.479 13.77-30.357 29.65-1 16.35 13.97 31.85 30.37 31.14 20.35-.069 40.697.021 61.05-.03 5.857.4 10.227-5.51 9.807-11.02zm-70.87-9.2c-5.357.21-10.22-4.601-10.26-9.92-.14-5.46 4.84-10.43 10.32-10.25 16.83-.11 33.659.06 50.5-.07.147 6.74.02 13.48.1 20.219-16.89.051-33.77.051-50.66.021zm202.4.55c4.09-.619 8.32-.609 12.42-.02 4.17 1.09 3.92 6.18 3.96 9.59-.05 3.42.28 8.42-3.77 9.74-4.25.55-8.643.609-12.87-.051-3.96-1.51-3.353-6.33-3.44-9.739.06-3.38-.43-8.341 3.7-9.52z"/></svg>